M48
; DRILL file {KiCad 7.0.5-0} date 2024 April 12, Friday 00:02:12
; FORMAT={-:-/ absolute / inch / decimal}
; #@! TF.CreationDate,2024-04-12T00:02:12+02:00
; #@! TF.GenerationSoftware,Kicad,Pcbnew,7.0.5-0
; #@! TF.FileFunction,Plated,1,4,PTH
FMAT,2
INCH
; #@! TA.AperFunction,Plated,PTH,ViaDrill
T1C0.0079
; #@! TA.AperFunction,Plated,PTH,ComponentDrill
T2C0.0236
; #@! TA.AperFunction,Plated,PTH,ComponentDrill
T3C0.0276
; #@! TA.AperFunction,Plated,PTH,ComponentDrill
T4C0.0945
%
G90
G05
T1
X1.8295Y-1.914
X1.9068Y-1.914
X1.922Y-1.5833
X1.9224Y-1.4277
X1.9224Y-1.5053
X1.97Y-1.206
X1.984Y-1.912
X2.0Y-1.206
X2.022Y-1.802
X2.078Y-1.426
X2.078Y-1.504
X2.088Y-1.174
X2.088Y-1.8861
X2.116Y-1.796
X2.166Y-1.8861
X2.1949Y-1.2029
X2.202Y-1.142
X2.236Y-1.662
X2.236Y-1.682
X2.236Y-1.706
X2.252Y-1.568
X2.266Y-1.404
X2.294Y-1.518
X2.296Y-1.46
X2.346Y-1.78
X2.3614Y-1.2977
X2.392Y-1.38
X2.41Y-1.856
X2.412Y-1.404
X2.4224Y-1.5491
X2.462Y-1.858
X2.4736Y-1.5496
X2.5346Y-1.2977
X2.5346Y-1.6917
X2.622Y-1.432
X2.622Y-1.533
X2.684Y-1.628
X2.696Y-1.27
X2.702Y-1.438
X2.7751Y-1.2701
X2.784Y-1.624
X2.8Y-1.7901
X2.802Y-1.436
X2.84Y-1.676
X2.868Y-1.638
X2.91Y-1.3321
X3.092Y-1.228
X3.092Y-1.414
X3.132Y-1.55
X3.1339Y-1.492
X3.176Y-1.228
X3.176Y-1.412
X3.3122Y-1.668
X3.3182Y-1.3975
X3.3523Y-1.67
X3.3583Y-1.3975
X3.3777Y-1.616
X3.4Y-1.202
X3.408Y-1.616
X3.426Y-1.396
X3.458Y-1.396
X3.558Y-1.4
X3.57Y-1.604
X3.64Y-1.614
X3.653Y-1.389
X3.664Y-1.47
X3.686Y-1.578
X3.862Y-1.376
X3.864Y-1.216
X3.864Y-1.248
X3.864Y-1.282
X3.886Y-1.4
X3.886Y-1.436
X3.894Y-1.218
X3.894Y-1.248
X3.894Y-1.28
X3.94Y-1.832
X3.964Y-1.28
X3.964Y-1.308
X3.992Y-1.256
X3.992Y-1.2808
X3.992Y-1.308
X4.008Y-1.45
X4.036Y-1.428
X4.036Y-1.45
X4.048Y-1.27
X4.048Y-1.292
X4.048Y-1.314
X4.056Y-1.832
X4.057Y-1.479
X4.058Y-1.5
X4.061Y-1.7415
X4.061Y-1.8875
X4.061Y-1.9277
X4.062Y-1.618
X4.062Y-1.64
X4.079Y-1.479
X4.08Y-1.5
X4.084Y-1.618
X4.084Y-1.64
X4.088Y-1.544
X4.102Y-1.53
X4.116Y-1.516
X4.12Y-1.894
X4.1477Y-1.598
X4.1703Y-1.3
X4.18Y-1.452
X4.182Y-1.1151
X4.188Y-1.966
X4.195Y-1.437
X4.2077Y-1.596
X4.2104Y-1.4216
X4.231Y-1.969
X4.264Y-1.4528
X4.272Y-1.968
X4.293Y-1.723
X4.3Y-1.56
X4.3325Y-1.4528
X4.35Y-1.714
X4.3515Y-1.6275
X4.3675Y-1.3064
X4.4Y-1.288
X4.402Y-1.898
X4.404Y-1.846
X4.43Y-1.288
X4.434Y-1.754
X4.45Y-1.1151
X4.458Y-1.288
X4.586Y-1.642
X4.6326Y-1.4827
X4.67Y-1.606
X4.7074Y-1.4827
X4.756Y-1.642
X4.758Y-1.508
X4.794Y-1.51
T3
X3.4Y-1.122
X3.45Y-1.122
X3.5Y-1.122
X3.55Y-1.122
X3.6Y-1.122
T4
X4.6985Y-1.2075
T2
G00X4.4999Y-1.7814
M15
G01X4.4999Y-1.8247
M16
G05
G00X4.4999Y-1.9558
M15
G01X4.4999Y-1.9794
M16
G05
G00X4.8401Y-1.7814
M15
G01X4.8401Y-1.8247
M16
G05
G00X4.8401Y-1.9558
M15
G01X4.8401Y-1.9794
M16
G05
T0
M30
