%TF.GenerationSoftware,KiCad,Pcbnew,7.0.9*%
%TF.CreationDate,2024-02-12T22:59:22+01:00*%
%TF.ProjectId,MTR_C3_TempHum,4d54525f-4333-45f5-9465-6d7048756d2e,rev?*%
%TF.SameCoordinates,Original*%
%TF.FileFunction,Copper,L1,Top*%
%TF.FilePolarity,Positive*%
%FSLAX46Y46*%
G04 Gerber Fmt 4.6, Leading zero omitted, Abs format (unit mm)*
G04 Created by KiCad (PCBNEW 7.0.9) date 2024-02-12 22:59:22*
%MOMM*%
%LPD*%
G01*
G04 APERTURE LIST*
G04 Aperture macros list*
%AMRoundRect*
0 Rectangle with rounded corners*
0 $1 Rounding radius*
0 $2 $3 $4 $5 $6 $7 $8 $9 X,Y pos of 4 corners*
0 Add a 4 corners polygon primitive as box body*
4,1,4,$2,$3,$4,$5,$6,$7,$8,$9,$2,$3,0*
0 Add four circle primitives for the rounded corners*
1,1,$1+$1,$2,$3*
1,1,$1+$1,$4,$5*
1,1,$1+$1,$6,$7*
1,1,$1+$1,$8,$9*
0 Add four rect primitives between the rounded corners*
20,1,$1+$1,$2,$3,$4,$5,0*
20,1,$1+$1,$4,$5,$6,$7,0*
20,1,$1+$1,$6,$7,$8,$9,0*
20,1,$1+$1,$8,$9,$2,$3,0*%
G04 Aperture macros list end*
%TA.AperFunction,SMDPad,CuDef*%
%ADD10C,1.000000*%
%TD*%
%TA.AperFunction,SMDPad,CuDef*%
%ADD11R,0.250000X0.550000*%
%TD*%
%TA.AperFunction,SMDPad,CuDef*%
%ADD12RoundRect,0.135000X-0.185000X0.135000X-0.185000X-0.135000X0.185000X-0.135000X0.185000X0.135000X0*%
%TD*%
%TA.AperFunction,SMDPad,CuDef*%
%ADD13R,0.700000X0.300000*%
%TD*%
%TA.AperFunction,SMDPad,CuDef*%
%ADD14R,1.000000X1.700000*%
%TD*%
%TA.AperFunction,SMDPad,CuDef*%
%ADD15RoundRect,0.135000X0.135000X0.185000X-0.135000X0.185000X-0.135000X-0.185000X0.135000X-0.185000X0*%
%TD*%
%TA.AperFunction,ComponentPad*%
%ADD16O,1.000000X1.600000*%
%TD*%
%TA.AperFunction,ComponentPad*%
%ADD17O,1.000000X2.100000*%
%TD*%
%TA.AperFunction,SMDPad,CuDef*%
%ADD18R,0.600000X1.450000*%
%TD*%
%TA.AperFunction,SMDPad,CuDef*%
%ADD19R,0.300000X1.450000*%
%TD*%
%TA.AperFunction,ComponentPad*%
%ADD20R,1.416000X1.416000*%
%TD*%
%TA.AperFunction,ComponentPad*%
%ADD21C,1.416000*%
%TD*%
%TA.AperFunction,SMDPad,CuDef*%
%ADD22RoundRect,0.135000X0.185000X-0.135000X0.185000X0.135000X-0.185000X0.135000X-0.185000X-0.135000X0*%
%TD*%
%TA.AperFunction,SMDPad,CuDef*%
%ADD23R,1.200000X0.600000*%
%TD*%
%TA.AperFunction,SMDPad,CuDef*%
%ADD24R,1.250000X0.650000*%
%TD*%
%TA.AperFunction,SMDPad,CuDef*%
%ADD25RoundRect,0.150000X-0.150000X0.587500X-0.150000X-0.587500X0.150000X-0.587500X0.150000X0.587500X0*%
%TD*%
%TA.AperFunction,SMDPad,CuDef*%
%ADD26RoundRect,0.218750X0.256250X-0.218750X0.256250X0.218750X-0.256250X0.218750X-0.256250X-0.218750X0*%
%TD*%
%TA.AperFunction,SMDPad,CuDef*%
%ADD27RoundRect,0.150000X-0.587500X-0.150000X0.587500X-0.150000X0.587500X0.150000X-0.587500X0.150000X0*%
%TD*%
%TA.AperFunction,SMDPad,CuDef*%
%ADD28R,1.350000X2.000000*%
%TD*%
%TA.AperFunction,ComponentPad*%
%ADD29R,1.700000X1.700000*%
%TD*%
%TA.AperFunction,ComponentPad*%
%ADD30O,1.700000X1.700000*%
%TD*%
%TA.AperFunction,SMDPad,CuDef*%
%ADD31RoundRect,0.150000X0.587500X0.150000X-0.587500X0.150000X-0.587500X-0.150000X0.587500X-0.150000X0*%
%TD*%
%TA.AperFunction,SMDPad,CuDef*%
%ADD32RoundRect,0.135000X-0.135000X-0.185000X0.135000X-0.185000X0.135000X0.185000X-0.135000X0.185000X0*%
%TD*%
%TA.AperFunction,SMDPad,CuDef*%
%ADD33R,0.400000X0.800000*%
%TD*%
%TA.AperFunction,SMDPad,CuDef*%
%ADD34R,0.800000X0.400000*%
%TD*%
%TA.AperFunction,SMDPad,CuDef*%
%ADD35R,1.450000X1.450000*%
%TD*%
%TA.AperFunction,SMDPad,CuDef*%
%ADD36R,0.700000X0.700000*%
%TD*%
%TA.AperFunction,ComponentPad*%
%ADD37C,2.400000*%
%TD*%
%TA.AperFunction,ViaPad*%
%ADD38C,0.450000*%
%TD*%
%TA.AperFunction,Conductor*%
%ADD39C,0.250000*%
%TD*%
%TA.AperFunction,Conductor*%
%ADD40C,0.200000*%
%TD*%
%TA.AperFunction,Conductor*%
%ADD41C,0.300000*%
%TD*%
%TA.AperFunction,Conductor*%
%ADD42C,0.400000*%
%TD*%
%TA.AperFunction,Conductor*%
%ADD43C,0.700000*%
%TD*%
%TA.AperFunction,Conductor*%
%ADD44C,0.800000*%
%TD*%
%TA.AperFunction,Conductor*%
%ADD45C,0.500000*%
%TD*%
G04 APERTURE END LIST*
D10*
%TO.P,TP1,1,1*%
%TO.N,+3.3V*%
X41021000Y-49149000D03*
%TD*%
D11*
%TO.P,IC3,1,VCC*%
%TO.N,+3.3V*%
X70874000Y-41126000D03*
%TO.P,IC3,2,ADDR*%
%TO.N,Net-(IC3-ADDR)*%
X71374000Y-41126000D03*
%TO.P,IC3,3,GND*%
%TO.N,GND*%
X71874000Y-41126000D03*
%TO.P,IC3,4,SDA*%
%TO.N,SDA*%
X71874000Y-38376000D03*
%TO.P,IC3,5,DVI*%
%TO.N,Net-(IC3-DVI)*%
X71374000Y-38376000D03*
%TO.P,IC3,6,SCL*%
%TO.N,SCL*%
X70874000Y-38376000D03*
%TD*%
D12*
%TO.P,C4,1*%
%TO.N,GND*%
X57170000Y-48766000D03*
%TO.P,C4,2*%
%TO.N,+3.3V*%
X57170000Y-49786000D03*
%TD*%
D13*
%TO.P,IC2,1,IN*%
%TO.N,VBUS*%
X120430000Y-42406000D03*
%TO.P,IC2,2,ISET*%
%TO.N,Net-(IC2-ISET)*%
X120430000Y-41906000D03*
%TO.P,IC2,3,TS*%
%TO.N,Net-(IC2-TS)*%
X120430000Y-41406000D03*
%TO.P,IC2,4,GND*%
%TO.N,GND*%
X120430000Y-40906000D03*
%TO.P,IC2,5,STAT*%
%TO.N,Net-(D3-K)*%
X118330000Y-40906000D03*
%TO.P,IC2,6,~{PG}*%
%TO.N,Net-(D2-K)*%
X118330000Y-41406000D03*
%TO.P,IC2,7,VSET*%
%TO.N,Net-(IC2-VSET)*%
X118330000Y-41906000D03*
%TO.P,IC2,8,OUT*%
%TO.N,VBAT*%
X118330000Y-42406000D03*
D14*
%TO.P,IC2,9,EP*%
%TO.N,unconnected-(IC2-EP-Pad9)*%
X119380000Y-41656000D03*
%TD*%
D15*
%TO.P,R3,1*%
%TO.N,GND*%
X123446000Y-40894000D03*
%TO.P,R3,2*%
%TO.N,Net-(IC2-ISET)*%
X122426000Y-40894000D03*
%TD*%
%TO.P,R17,1*%
%TO.N,+3.3V*%
X52834000Y-49784000D03*
%TO.P,R17,2*%
%TO.N,EN*%
X51814000Y-49784000D03*
%TD*%
D16*
%TO.P,J1,S1,SHIELD*%
%TO.N,GND*%
X123700000Y-50640000D03*
D17*
X123700000Y-46460000D03*
D16*
X115060000Y-50640000D03*
D17*
X115060000Y-46460000D03*
D18*
%TO.P,J1,B12,GND*%
X116130000Y-45545000D03*
%TO.P,J1,B9,VBUS*%
%TO.N,VBUS*%
X116930000Y-45545000D03*
D19*
%TO.P,J1,B8,SBU2*%
%TO.N,unconnected-(J1-SBU2-PadB8)*%
X117630000Y-45545000D03*
%TO.P,J1,B7,D-*%
%TO.N,/D-*%
X118630000Y-45545000D03*
%TO.P,J1,B6,D+*%
%TO.N,/D+*%
X120130000Y-45545000D03*
%TO.P,J1,B5,CC2*%
%TO.N,Net-(J1-CC2)*%
X121130000Y-45545000D03*
D18*
%TO.P,J1,B4,VBUS*%
%TO.N,VBUS*%
X121830000Y-45545000D03*
%TO.P,J1,B1,GND*%
%TO.N,GND*%
X122630000Y-45545000D03*
%TO.P,J1,A12,GND*%
X122630000Y-45545000D03*
%TO.P,J1,A9,VBUS*%
%TO.N,VBUS*%
X121830000Y-45545000D03*
D19*
%TO.P,J1,A8,SBU1*%
%TO.N,unconnected-(J1-SBU1-PadA8)*%
X120630000Y-45545000D03*
%TO.P,J1,A7,D-*%
%TO.N,/D-*%
X119630000Y-45545000D03*
%TO.P,J1,A6,D+*%
%TO.N,/D+*%
X119130000Y-45545000D03*
%TO.P,J1,A5,CC1*%
%TO.N,Net-(J1-CC1)*%
X118130000Y-45545000D03*
D18*
%TO.P,J1,A4,VBUS*%
%TO.N,VBUS*%
X116930000Y-45545000D03*
%TO.P,J1,A1,GND*%
%TO.N,GND*%
X116130000Y-45545000D03*
%TD*%
D15*
%TO.P,R13,1*%
%TO.N,Net-(IC3-DVI)*%
X69725000Y-37211000D03*
%TO.P,R13,2*%
%TO.N,+3.3V*%
X68705000Y-37211000D03*
%TD*%
%TO.P,C7,1*%
%TO.N,+3.3V*%
X46738000Y-49784000D03*
%TO.P,C7,2*%
%TO.N,GND*%
X45718000Y-49784000D03*
%TD*%
D20*
%TO.P,IC4,1,VDD*%
%TO.N,+3.3V*%
X104150000Y-43568000D03*
D21*
%TO.P,IC4,2,DATA*%
%TO.N,DHT22_DATA*%
X104150000Y-41068000D03*
%TO.P,IC4,3,NULL*%
%TO.N,unconnected-(IC4-NULL-Pad3)*%
X104150000Y-38568000D03*
%TO.P,IC4,4,GND*%
%TO.N,GND*%
X104150000Y-36068000D03*
%TD*%
D12*
%TO.P,R15,1*%
%TO.N,SCL*%
X69723000Y-39114000D03*
%TO.P,R15,2*%
%TO.N,+3.3V*%
X69723000Y-40134000D03*
%TD*%
%TO.P,R14,1*%
%TO.N,SDA*%
X73025000Y-39114000D03*
%TO.P,R14,2*%
%TO.N,+3.3V*%
X73025000Y-40134000D03*
%TD*%
%TO.P,C3,1*%
%TO.N,GND*%
X64135000Y-48766000D03*
%TO.P,C3,2*%
%TO.N,VBAT*%
X64135000Y-49786000D03*
%TD*%
D22*
%TO.P,R1,1*%
%TO.N,Net-(J1-CC2)*%
X124714000Y-43436000D03*
%TO.P,R1,2*%
%TO.N,GND*%
X124714000Y-42416000D03*
%TD*%
D15*
%TO.P,R16,1*%
%TO.N,GND*%
X71884000Y-42291000D03*
%TO.P,R16,2*%
%TO.N,Net-(IC3-ADDR)*%
X70864000Y-42291000D03*
%TD*%
%TO.P,C6,1*%
%TO.N,+3.3V*%
X46738000Y-48260000D03*
%TO.P,C6,2*%
%TO.N,GND*%
X45718000Y-48260000D03*
%TD*%
D23*
%TO.P,D1,1,L1*%
%TO.N,/D-*%
X74910000Y-49845000D03*
%TO.P,D1,2,VN*%
%TO.N,GND*%
X74910000Y-48895000D03*
%TO.P,D1,3,L2*%
%TO.N,/D+*%
X74910000Y-47945000D03*
%TO.P,D1,4,L2*%
%TO.N,USB_D-*%
X72410000Y-47945000D03*
%TO.P,D1,5,VP*%
%TO.N,VBUS*%
X72410000Y-48895000D03*
%TO.P,D1,6,L1*%
%TO.N,USB_D+*%
X72410000Y-49845000D03*
%TD*%
D24*
%TO.P,IC5,1,VIN*%
%TO.N,VBAT*%
X62210000Y-49708000D03*
%TO.P,IC5,2,GND*%
%TO.N,GND*%
X62210000Y-48768000D03*
%TO.P,IC5,3,EN*%
%TO.N,VBAT*%
X62210000Y-47828000D03*
%TO.P,IC5,4,SNS*%
%TO.N,unconnected-(IC5-SNS-Pad4)*%
X59710000Y-47828000D03*
%TO.P,IC5,5,VOUT*%
%TO.N,+3.3V*%
X59710000Y-49708000D03*
%TD*%
D22*
%TO.P,R7,1*%
%TO.N,Net-(D2-A)*%
X118110000Y-34800000D03*
%TO.P,R7,2*%
%TO.N,+3.3V*%
X118110000Y-33780000D03*
%TD*%
D25*
%TO.P,Q3,1,G*%
%TO.N,Net-(Q3-G)*%
X62418000Y-42496500D03*
%TO.P,Q3,2,S*%
%TO.N,+3.3V*%
X60518000Y-42496500D03*
%TO.P,Q3,3,D*%
%TO.N,Net-(Q3-D)*%
X61468000Y-44371500D03*
%TD*%
D15*
%TO.P,C5,1*%
%TO.N,GND*%
X71884000Y-37211000D03*
%TO.P,C5,2*%
%TO.N,Net-(IC3-DVI)*%
X70864000Y-37211000D03*
%TD*%
%TO.P,R4,1*%
%TO.N,Net-(IC2-VSET)*%
X116078000Y-40894000D03*
%TO.P,R4,2*%
%TO.N,GND*%
X115058000Y-40894000D03*
%TD*%
%TO.P,C2,1*%
%TO.N,VBAT*%
X116080000Y-42418000D03*
%TO.P,C2,2*%
%TO.N,GND*%
X115060000Y-42418000D03*
%TD*%
D22*
%TO.P,C9,1*%
%TO.N,GND*%
X47244000Y-30228000D03*
%TO.P,C9,2*%
%TO.N,EN*%
X47244000Y-29208000D03*
%TD*%
D15*
%TO.P,R5,1*%
%TO.N,Net-(IC2-TS)*%
X122430000Y-39624000D03*
%TO.P,R5,2*%
%TO.N,GND*%
X121410000Y-39624000D03*
%TD*%
D26*
%TO.P,D2,1,K*%
%TO.N,Net-(D2-K)*%
X118110000Y-38100000D03*
%TO.P,D2,2,A*%
%TO.N,Net-(D2-A)*%
X118110000Y-36525000D03*
%TD*%
D27*
%TO.P,Q6,1,G*%
%TO.N,Net-(Q5-D)*%
X62768000Y-29784000D03*
%TO.P,Q6,2,S*%
%TO.N,VBAT*%
X62768000Y-31684000D03*
%TO.P,Q6,3,D*%
%TO.N,Net-(Q6-D)*%
X64643000Y-30734000D03*
%TD*%
D28*
%TO.P,SW2,1,1*%
%TO.N,GND*%
X50886000Y-29210000D03*
%TO.P,SW2,2,2*%
%TO.N,Hard_reset*%
X55286000Y-29210000D03*
%TD*%
D15*
%TO.P,R11,1*%
%TO.N,ADC_lvl_BAT*%
X65280000Y-33274000D03*
%TO.P,R11,2*%
%TO.N,Net-(Q6-D)*%
X64260000Y-33274000D03*
%TD*%
D22*
%TO.P,R19,1*%
%TO.N,+3.3V*%
X57912000Y-37340000D03*
%TO.P,R19,2*%
%TO.N,Hard_reset*%
X57912000Y-36320000D03*
%TD*%
D12*
%TO.P,R10,1*%
%TO.N,Net-(Q5-D)*%
X60833000Y-30224000D03*
%TO.P,R10,2*%
%TO.N,VBAT*%
X60833000Y-31244000D03*
%TD*%
D29*
%TO.P,J2,1*%
%TO.N,GPIO9*%
X68326000Y-46223000D03*
D30*
%TO.P,J2,2*%
%TO.N,GND*%
X68326000Y-48763000D03*
%TD*%
D22*
%TO.P,R6,1*%
%TO.N,Net-(D3-A)*%
X120650000Y-34798000D03*
%TO.P,R6,2*%
%TO.N,+3.3V*%
X120650000Y-33778000D03*
%TD*%
D31*
%TO.P,Q5,1,G*%
%TO.N,EN_lvl_BAT*%
X68882500Y-31684000D03*
%TO.P,Q5,2,S*%
%TO.N,GND*%
X68882500Y-29784000D03*
%TO.P,Q5,3,D*%
%TO.N,Net-(Q5-D)*%
X67007500Y-30734000D03*
%TD*%
D28*
%TO.P,SW1,1,1*%
%TO.N,GND*%
X40980000Y-29210000D03*
%TO.P,SW1,2,2*%
%TO.N,EN*%
X45380000Y-29210000D03*
%TD*%
D12*
%TO.P,C1,1*%
%TO.N,GND*%
X122428000Y-42162000D03*
%TO.P,C1,2*%
%TO.N,VBUS*%
X122428000Y-43182000D03*
%TD*%
D32*
%TO.P,C8,1*%
%TO.N,EN*%
X51814000Y-48260000D03*
%TO.P,C8,2*%
%TO.N,GND*%
X52834000Y-48260000D03*
%TD*%
D26*
%TO.P,D4,1,K*%
%TO.N,GND*%
X115443000Y-38125500D03*
%TO.P,D4,2,A*%
%TO.N,Net-(D4-A)*%
X115443000Y-36550500D03*
%TD*%
D33*
%TO.P,IC1,1,GND_1*%
%TO.N,GND*%
X46235000Y-45340000D03*
%TO.P,IC1,2,GND_2*%
X47035000Y-45340000D03*
%TO.P,IC1,3,3V3*%
%TO.N,+3.3V*%
X47835000Y-45340000D03*
%TO.P,IC1,4,NC_1*%
%TO.N,unconnected-(IC1-NC_1-Pad4)*%
X48635000Y-45340000D03*
%TO.P,IC1,5,IO2*%
%TO.N,BAT_lvl_LED*%
X49435000Y-45340000D03*
%TO.P,IC1,6,IO3*%
%TO.N,ADC_lvl_BAT*%
X50235000Y-45340000D03*
%TO.P,IC1,7,NC_2*%
%TO.N,unconnected-(IC1-NC_2-Pad7)*%
X51035000Y-45340000D03*
%TO.P,IC1,8,EN*%
%TO.N,EN*%
X51835000Y-45340000D03*
%TO.P,IC1,9,NC_3*%
%TO.N,unconnected-(IC1-NC_3-Pad9)*%
X52635000Y-45340000D03*
%TO.P,IC1,10,NC_4*%
%TO.N,unconnected-(IC1-NC_4-Pad10)*%
X53435000Y-45340000D03*
%TO.P,IC1,11,GND_3*%
%TO.N,GND*%
X54235000Y-45340000D03*
D34*
%TO.P,IC1,12,IO0*%
%TO.N,unconnected-(IC1-IO0-Pad12)*%
X55135000Y-44240000D03*
%TO.P,IC1,13,IO1*%
%TO.N,unconnected-(IC1-IO1-Pad13)*%
X55135000Y-43440000D03*
%TO.P,IC1,14,GND_4*%
%TO.N,GND*%
X55135000Y-42640000D03*
%TO.P,IC1,15,NC_5*%
%TO.N,unconnected-(IC1-NC_5-Pad15)*%
X55135000Y-41840000D03*
%TO.P,IC1,16,IO10*%
%TO.N,DHT22_DATA*%
X55135000Y-41040000D03*
%TO.P,IC1,17,NC_6*%
%TO.N,unconnected-(IC1-NC_6-Pad17)*%
X55135000Y-40240000D03*
%TO.P,IC1,18,IO4*%
%TO.N,SDA*%
X55135000Y-39440000D03*
%TO.P,IC1,19,IO5*%
%TO.N,SCL*%
X55135000Y-38640000D03*
%TO.P,IC1,20,IO6*%
%TO.N,EN_lvl_BAT*%
X55135000Y-37840000D03*
%TO.P,IC1,21,IO7*%
%TO.N,GPIO7*%
X55135000Y-37040000D03*
%TO.P,IC1,22,IO8*%
%TO.N,Hard_reset*%
X55135000Y-36240000D03*
%TO.P,IC1,23,IO9*%
%TO.N,GPIO9*%
X55135000Y-35440000D03*
%TO.P,IC1,24,NC_7*%
%TO.N,unconnected-(IC1-NC_7-Pad24)*%
X55135000Y-34640000D03*
D33*
%TO.P,IC1,25,NC_8*%
%TO.N,unconnected-(IC1-NC_8-Pad25)*%
X54235000Y-33540000D03*
%TO.P,IC1,26,IO18*%
%TO.N,USB_D-*%
X53435000Y-33540000D03*
%TO.P,IC1,27,IO19*%
%TO.N,USB_D+*%
X52635000Y-33540000D03*
%TO.P,IC1,28,NC_9*%
%TO.N,unconnected-(IC1-NC_9-Pad28)*%
X51835000Y-33540000D03*
%TO.P,IC1,29,NC_10*%
%TO.N,unconnected-(IC1-NC_10-Pad29)*%
X51035000Y-33540000D03*
%TO.P,IC1,30,RXD0*%
%TO.N,UART_RX*%
X50235000Y-33540000D03*
%TO.P,IC1,31,TXD0*%
%TO.N,UART_TX*%
X49435000Y-33540000D03*
%TO.P,IC1,32,NC_11*%
%TO.N,unconnected-(IC1-NC_11-Pad32)*%
X48635000Y-33540000D03*
%TO.P,IC1,33,NC_12*%
%TO.N,unconnected-(IC1-NC_12-Pad33)*%
X47835000Y-33540000D03*
%TO.P,IC1,34,NC_13*%
%TO.N,unconnected-(IC1-NC_13-Pad34)*%
X47035000Y-33540000D03*
%TO.P,IC1,35,NC_14*%
%TO.N,unconnected-(IC1-NC_14-Pad35)*%
X46235000Y-33540000D03*
D34*
%TO.P,IC1,36,GND_5*%
%TO.N,GND*%
X45335000Y-34640000D03*
%TO.P,IC1,37,GND_6*%
X45335000Y-35440000D03*
%TO.P,IC1,38,GND_7*%
X45335000Y-36240000D03*
%TO.P,IC1,39,GND_8*%
X45335000Y-37040000D03*
%TO.P,IC1,40,GND_9*%
X45335000Y-37840000D03*
%TO.P,IC1,41,GND_10*%
X45335000Y-38640000D03*
%TO.P,IC1,42,GND_11*%
X45335000Y-39440000D03*
%TO.P,IC1,43,GND_12*%
X45335000Y-40240000D03*
%TO.P,IC1,44,GND_13*%
X45335000Y-41040000D03*
%TO.P,IC1,45,GND_14*%
X45335000Y-41840000D03*
%TO.P,IC1,46,GND_15*%
X45335000Y-42640000D03*
%TO.P,IC1,47,GND_16*%
X45335000Y-43440000D03*
%TO.P,IC1,48,GND_17*%
X45335000Y-44240000D03*
D35*
%TO.P,IC1,49,GND_18*%
X50235000Y-39440000D03*
%TO.P,IC1,50,GND_19*%
X48260000Y-37465000D03*
%TO.P,IC1,51,GND_20*%
X48260000Y-39440000D03*
%TO.P,IC1,52,GND_21*%
X48260000Y-41415000D03*
%TO.P,IC1,53,GND_22*%
X50235000Y-41415000D03*
%TO.P,IC1,54,GND_23*%
X52210000Y-41415000D03*
%TO.P,IC1,55,GND_24*%
X52210000Y-39440000D03*
%TO.P,IC1,56,GND_25*%
X52210000Y-37465000D03*
%TO.P,IC1,57,GND_26*%
X50235000Y-37465000D03*
D36*
%TO.P,IC1,58,GND_27*%
X45285000Y-45390000D03*
%TO.P,IC1,59,GND_28*%
X55185000Y-45390000D03*
%TO.P,IC1,60,GND_29*%
X55185000Y-33490000D03*
%TO.P,IC1,61,GND_30*%
X45285000Y-33490000D03*
%TD*%
D22*
%TO.P,C10,1*%
%TO.N,GND*%
X57150000Y-30228000D03*
%TO.P,C10,2*%
%TO.N,Hard_reset*%
X57150000Y-29208000D03*
%TD*%
D12*
%TO.P,R20,1*%
%TO.N,Net-(Q7-G)*%
X58674000Y-40638000D03*
%TO.P,R20,2*%
%TO.N,+3.3V*%
X58674000Y-41658000D03*
%TD*%
D15*
%TO.P,R22,1*%
%TO.N,Net-(D4-A)*%
X64899000Y-44450000D03*
%TO.P,R22,2*%
%TO.N,Net-(Q3-D)*%
X63879000Y-44450000D03*
%TD*%
D29*
%TO.P,J4,1*%
%TO.N,GPIO7*%
X110744000Y-34803000D03*
D30*
%TO.P,J4,2*%
%TO.N,UART_RX*%
X110744000Y-37343000D03*
%TO.P,J4,3*%
%TO.N,UART_TX*%
X110744000Y-39883000D03*
%TO.P,J4,4*%
%TO.N,GND*%
X110744000Y-42423000D03*
%TO.P,J4,5*%
%TO.N,+3.3V*%
X110744000Y-44963000D03*
%TD*%
D15*
%TO.P,R12,1*%
%TO.N,GND*%
X69471000Y-33274000D03*
%TO.P,R12,2*%
%TO.N,ADC_lvl_BAT*%
X68451000Y-33274000D03*
%TD*%
D25*
%TO.P,Q7,1,G*%
%TO.N,Net-(Q7-G)*%
X62418000Y-38511000D03*
%TO.P,Q7,2,S*%
%TO.N,BAT_lvl_LED*%
X60518000Y-38511000D03*
%TO.P,Q7,3,D*%
%TO.N,Net-(Q7-D)*%
X61468000Y-40386000D03*
%TD*%
D26*
%TO.P,D3,1,K*%
%TO.N,Net-(D3-K)*%
X120650000Y-38125500D03*
%TO.P,D3,2,A*%
%TO.N,Net-(D3-A)*%
X120650000Y-36550500D03*
%TD*%
D32*
%TO.P,R18,1*%
%TO.N,+3.3V*%
X48385000Y-48260000D03*
%TO.P,R18,2*%
%TO.N,BAT_lvl_LED*%
X49405000Y-48260000D03*
%TD*%
D12*
%TO.P,R21,1*%
%TO.N,Net-(Q7-D)*%
X64008000Y-40892000D03*
%TO.P,R21,2*%
%TO.N,Net-(Q3-G)*%
X64008000Y-41912000D03*
%TD*%
D22*
%TO.P,R2,1*%
%TO.N,Net-(J1-CC1)*%
X113792000Y-43180000D03*
%TO.P,R2,2*%
%TO.N,GND*%
X113792000Y-42160000D03*
%TD*%
D37*
%TO.P,BT1,*%
%TO.N,*%
X117720000Y-31370000D03*
%TD*%
D38*
%TO.N,+3.3V*%
X81280000Y-28067000D03*
X81915000Y-28067000D03*
X80645000Y-28067000D03*
X82550000Y-28067000D03*
X74168000Y-31496000D03*
X74168000Y-30861000D03*
X74168000Y-30226000D03*
X74168000Y-29591000D03*
%TO.N,GND*%
X45339000Y-32131000D03*
X46228000Y-31242000D03*
%TO.N,+3.3V*%
X101727000Y-43688000D03*
X59309000Y-36449000D03*
X58674000Y-42799000D03*
%TO.N,GND*%
X115062000Y-39751000D03*
X65024000Y-48768000D03*
%TO.N,VBAT*%
X62210000Y-50693000D03*
%TO.N,Hard_reset*%
X55286000Y-29210000D03*
X58057721Y-32149721D03*
%TO.N,Net-(D4-A)*%
X65913000Y-44450000D03*
X114173000Y-36576000D03*
%TO.N,GPIO7*%
X56515000Y-37084000D03*
%TO.N,SDA*%
X56388000Y-39751000D03*
%TO.N,SCL*%
X56388000Y-38735000D03*
X68707000Y-38862000D03*
%TO.N,SDA*%
X74041000Y-38862000D03*
%TO.N,GND*%
X57531000Y-33528000D03*
X69469000Y-34163000D03*
X56261000Y-30988000D03*
%TO.N,UART_RX*%
X50292000Y-31496000D03*
%TO.N,UART_TX*%
X49403000Y-31496000D03*
%TO.N,+3.3V*%
X55880000Y-49784000D03*
X54102000Y-48768000D03*
%TO.N,GND*%
X55245000Y-47371000D03*
X56261000Y-48768000D03*
%TO.N,GPIO9*%
X56515000Y-35433000D03*
X65913000Y-46228000D03*
%TO.N,ADC_lvl_BAT*%
X50546000Y-48006000D03*
X65278000Y-34290000D03*
%TO.N,VBAT*%
X59436000Y-31242000D03*
%TO.N,GND*%
X70231000Y-29784000D03*
X50292000Y-41402000D03*
X50292000Y-39497000D03*
X50292000Y-37465000D03*
%TO.N,VBUS*%
X119380000Y-43688000D03*
X71247000Y-48895000D03*
%TO.N,GND*%
X76835000Y-49403000D03*
%TO.N,EN*%
X50673000Y-49784000D03*
X48387000Y-29083000D03*
%TO.N,GND*%
X44831000Y-49784000D03*
X39751000Y-29210000D03*
X72771000Y-37211000D03*
X71882000Y-43561000D03*
%TO.N,DHT22_DATA*%
X56896000Y-41021000D03*
X101727000Y-42164000D03*
%TO.N,GND*%
X122174000Y-38608000D03*
X123190000Y-39370000D03*
X123190000Y-39370000D03*
%TO.N,VBAT*%
X116840000Y-43815000D03*
X117475000Y-43180000D03*
X116840000Y-43180000D03*
X116205000Y-43180000D03*
%TO.N,USB_D+*%
X52705000Y-32385000D03*
X54610000Y-32449500D03*
%TD*%
D39*
%TO.N,GND*%
X115975000Y-45545000D02*
X115060000Y-46460000D01*
X116130000Y-45545000D02*
X115975000Y-45545000D01*
D40*
X122785000Y-45545000D02*
X123700000Y-46460000D01*
X122630000Y-45545000D02*
X122785000Y-45545000D01*
X55135000Y-45340000D02*
X55185000Y-45390000D01*
X54235000Y-45340000D02*
X55135000Y-45340000D01*
%TO.N,+3.3V*%
X69828000Y-41126000D02*
X69723000Y-41021000D01*
X70874000Y-41126000D02*
X69828000Y-41126000D01*
X69723000Y-41021000D02*
X69723000Y-40134000D01*
%TO.N,GND*%
X45339000Y-32131000D02*
X45285000Y-32185000D01*
X46228000Y-31242000D02*
X45339000Y-32131000D01*
%TO.N,+3.3V*%
X101847000Y-43568000D02*
X101727000Y-43688000D01*
X104150000Y-43568000D02*
X101847000Y-43568000D01*
X58418000Y-37340000D02*
X59309000Y-36449000D01*
X57912000Y-37340000D02*
X58418000Y-37340000D01*
X58674000Y-41658000D02*
X58674000Y-42799000D01*
D41*
%TO.N,VBAT*%
X117475000Y-43180000D02*
X116840000Y-43815000D01*
X117221000Y-43434000D02*
X116840000Y-43434000D01*
X117475000Y-43180000D02*
X117221000Y-43434000D01*
D42*
%TO.N,GND*%
X44831000Y-49784000D02*
X45718000Y-49784000D01*
D40*
%TO.N,EN_lvl_BAT*%
X56509000Y-37840000D02*
X55135000Y-37840000D01*
X58420000Y-38227000D02*
X56896000Y-38227000D01*
X66167000Y-35306000D02*
X64451924Y-37021076D01*
X69068463Y-35306000D02*
X66167000Y-35306000D01*
X70612000Y-33762463D02*
X69068463Y-35306000D01*
X56896000Y-38227000D02*
X56509000Y-37840000D01*
X64451924Y-37021076D02*
X59625924Y-37021076D01*
X59625924Y-37021076D02*
X58420000Y-38227000D01*
X70612000Y-32258000D02*
X70612000Y-33762463D01*
X68882500Y-31684000D02*
X70038000Y-31684000D01*
X70038000Y-31684000D02*
X70612000Y-32258000D01*
D39*
%TO.N,GND*%
X115058000Y-39747000D02*
X115058000Y-38510500D01*
X115062000Y-39751000D02*
X115058000Y-39747000D01*
X115058000Y-39755000D02*
X115062000Y-39751000D01*
X115058000Y-38510500D02*
X115443000Y-38125500D01*
X115058000Y-40894000D02*
X115058000Y-39755000D01*
D40*
%TO.N,VBAT*%
X64895000Y-49786000D02*
X64135000Y-49786000D01*
X65549000Y-49132000D02*
X64895000Y-49786000D01*
X65549000Y-48550537D02*
X65549000Y-49132000D01*
X64826463Y-47828000D02*
X65549000Y-48550537D01*
X62210000Y-47828000D02*
X64826463Y-47828000D01*
%TO.N,GND*%
X65022000Y-48766000D02*
X65024000Y-48768000D01*
X64135000Y-48766000D02*
X65022000Y-48766000D01*
D43*
%TO.N,VBAT*%
X62210000Y-49708000D02*
X62210000Y-50693000D01*
D40*
%TO.N,GND*%
X64133000Y-48768000D02*
X64135000Y-48766000D01*
X62210000Y-48768000D02*
X64133000Y-48768000D01*
%TO.N,VBAT*%
X64057000Y-49708000D02*
X64135000Y-49786000D01*
X62210000Y-49708000D02*
X64057000Y-49708000D01*
%TO.N,Hard_reset*%
X58056000Y-36176000D02*
X58056000Y-32151442D01*
X58056000Y-32151442D02*
X58057721Y-32149721D01*
X57912000Y-36320000D02*
X58056000Y-36176000D01*
%TO.N,Net-(D4-A)*%
X65913000Y-44450000D02*
X64899000Y-44450000D01*
X114198500Y-36550500D02*
X114173000Y-36576000D01*
X115443000Y-36550500D02*
X114198500Y-36550500D01*
%TO.N,GPIO7*%
X56471000Y-37040000D02*
X56515000Y-37084000D01*
X55135000Y-37040000D02*
X56471000Y-37040000D01*
%TO.N,GND*%
X70231000Y-29784000D02*
X68882500Y-29784000D01*
X69469000Y-34163000D02*
X69469000Y-33276000D01*
X69469000Y-33276000D02*
X69471000Y-33274000D01*
X71882000Y-43561000D02*
X71884000Y-43559000D01*
X71884000Y-43559000D02*
X71884000Y-42291000D01*
%TO.N,SDA*%
X56077000Y-39440000D02*
X56388000Y-39751000D01*
X55135000Y-39440000D02*
X56077000Y-39440000D01*
%TO.N,SCL*%
X56293000Y-38640000D02*
X56388000Y-38735000D01*
X55135000Y-38640000D02*
X56293000Y-38640000D01*
X68959000Y-39114000D02*
X68707000Y-38862000D01*
X69723000Y-39114000D02*
X68959000Y-39114000D01*
%TO.N,SDA*%
X73789000Y-39114000D02*
X74041000Y-38862000D01*
X73025000Y-39114000D02*
X73789000Y-39114000D01*
%TO.N,GND*%
X57493000Y-33490000D02*
X57531000Y-33528000D01*
X55185000Y-33490000D02*
X57493000Y-33490000D01*
D44*
%TO.N,VBAT*%
X62328000Y-31244000D02*
X62768000Y-31684000D01*
X60833000Y-31244000D02*
X62328000Y-31244000D01*
D40*
%TO.N,GND*%
X57021000Y-30228000D02*
X56261000Y-30988000D01*
X57150000Y-30228000D02*
X57021000Y-30228000D01*
%TO.N,GPIO9*%
X56508000Y-35440000D02*
X56515000Y-35433000D01*
X55135000Y-35440000D02*
X56508000Y-35440000D01*
%TO.N,UART_RX*%
X50235000Y-31553000D02*
X50292000Y-31496000D01*
X50235000Y-33540000D02*
X50235000Y-31553000D01*
%TO.N,UART_TX*%
X49435000Y-31528000D02*
X49403000Y-31496000D01*
X49435000Y-33540000D02*
X49435000Y-31528000D01*
%TO.N,+3.3V*%
X57168000Y-49784000D02*
X57170000Y-49786000D01*
X55880000Y-49784000D02*
X57168000Y-49784000D01*
X53086000Y-49784000D02*
X54102000Y-48768000D01*
X52834000Y-49784000D02*
X53086000Y-49784000D01*
%TO.N,BAT_lvl_LED*%
X50550537Y-50404000D02*
X49405000Y-49258463D01*
X53736000Y-50404000D02*
X50550537Y-50404000D01*
X57421000Y-46719000D02*
X53736000Y-50404000D01*
X49405000Y-49258463D02*
X49405000Y-48260000D01*
X59713537Y-38511000D02*
X57421000Y-40803537D01*
X60518000Y-38511000D02*
X59713537Y-38511000D01*
X57421000Y-40803537D02*
X57421000Y-46719000D01*
%TO.N,GND*%
X55185000Y-47311000D02*
X55185000Y-45390000D01*
X55245000Y-47371000D02*
X55185000Y-47311000D01*
X56263000Y-48766000D02*
X56261000Y-48768000D01*
X57170000Y-48766000D02*
X56263000Y-48766000D01*
X54235000Y-47365000D02*
X54235000Y-45340000D01*
X53340000Y-48260000D02*
X54235000Y-47365000D01*
X52834000Y-48260000D02*
X53340000Y-48260000D01*
%TO.N,GPIO9*%
X65918000Y-46223000D02*
X65913000Y-46228000D01*
X68326000Y-46223000D02*
X65918000Y-46223000D01*
%TO.N,ADC_lvl_BAT*%
X65278000Y-33276000D02*
X65280000Y-33274000D01*
X65278000Y-34290000D02*
X65278000Y-33276000D01*
X50235000Y-45940000D02*
X50546000Y-46251000D01*
X50546000Y-46251000D02*
X50546000Y-48006000D01*
X50235000Y-45340000D02*
X50235000Y-45940000D01*
%TO.N,Net-(Q7-G)*%
X61964948Y-38511000D02*
X62418000Y-38511000D01*
X59837948Y-40638000D02*
X61964948Y-38511000D01*
X58674000Y-40638000D02*
X59837948Y-40638000D01*
%TO.N,Net-(Q7-D)*%
X61974000Y-40892000D02*
X61468000Y-40386000D01*
X64008000Y-40892000D02*
X61974000Y-40892000D01*
%TO.N,Net-(Q3-G)*%
X63423500Y-42496500D02*
X64008000Y-41912000D01*
X62418000Y-42496500D02*
X63423500Y-42496500D01*
%TO.N,Net-(Q3-D)*%
X63800500Y-44371500D02*
X63879000Y-44450000D01*
X61468000Y-44371500D02*
X63800500Y-44371500D01*
D45*
%TO.N,GND*%
X53435000Y-42640000D02*
X55135000Y-42640000D01*
X52210000Y-41415000D02*
X53435000Y-42640000D01*
X48260000Y-39440000D02*
X45335000Y-39440000D01*
D40*
X45285000Y-32185000D02*
X45285000Y-33490000D01*
X47242000Y-30228000D02*
X46228000Y-31242000D01*
X47244000Y-30228000D02*
X47242000Y-30228000D01*
D45*
X42799000Y-32131000D02*
X45285000Y-32131000D01*
X40980000Y-30312000D02*
X42799000Y-32131000D01*
D40*
X45285000Y-32131000D02*
X45285000Y-33490000D01*
D45*
X40980000Y-29210000D02*
X40980000Y-30312000D01*
D41*
X39751000Y-29210000D02*
X40980000Y-29210000D01*
D44*
%TO.N,VBAT*%
X59436000Y-31242000D02*
X60831000Y-31242000D01*
X60831000Y-31242000D02*
X60833000Y-31244000D01*
D45*
%TO.N,GND*%
X52153000Y-39497000D02*
X52210000Y-39440000D01*
X50292000Y-39497000D02*
X52153000Y-39497000D01*
X48317000Y-39497000D02*
X48260000Y-39440000D01*
X50292000Y-39497000D02*
X48317000Y-39497000D01*
X50292000Y-39383000D02*
X50235000Y-39440000D01*
X50292000Y-37465000D02*
X50292000Y-39383000D01*
X48260000Y-37465000D02*
X50235000Y-37465000D01*
X48260000Y-39440000D02*
X48260000Y-37465000D01*
X48260000Y-41415000D02*
X48260000Y-39440000D01*
X50235000Y-41415000D02*
X48260000Y-41415000D01*
X50292000Y-39497000D02*
X50292000Y-41402000D01*
X52210000Y-41415000D02*
X50305000Y-41415000D01*
X50305000Y-41415000D02*
X50292000Y-41402000D01*
X52210000Y-39440000D02*
X52210000Y-41415000D01*
X52210000Y-37465000D02*
X52210000Y-39440000D01*
X50292000Y-37465000D02*
X52210000Y-37465000D01*
D40*
%TO.N,VBUS*%
X120187000Y-42881000D02*
X120355000Y-42881000D01*
X119380000Y-43688000D02*
X120187000Y-42881000D01*
X72410000Y-48895000D02*
X71247000Y-48895000D01*
%TO.N,GND*%
X76218000Y-49403000D02*
X76835000Y-49403000D01*
X75710000Y-48895000D02*
X76218000Y-49403000D01*
X74910000Y-48895000D02*
X75710000Y-48895000D01*
%TO.N,EN*%
X50673000Y-49784000D02*
X51814000Y-49784000D01*
X48262000Y-29208000D02*
X48387000Y-29083000D01*
X47244000Y-29208000D02*
X48262000Y-29208000D01*
D42*
%TO.N,GND*%
X45718000Y-49022000D02*
X45718000Y-48260000D01*
X45718000Y-49784000D02*
X45718000Y-49022000D01*
D40*
X45335000Y-45340000D02*
X45285000Y-45390000D01*
X46235000Y-45340000D02*
X45335000Y-45340000D01*
X47035000Y-45340000D02*
X46235000Y-45340000D01*
D39*
X45285000Y-44290000D02*
X45335000Y-44240000D01*
D42*
X45285000Y-45390000D02*
X45285000Y-44290000D01*
X45335000Y-37840000D02*
X45335000Y-38640000D01*
X45335000Y-38640000D02*
X45335000Y-39440000D01*
X45335000Y-39440000D02*
X45335000Y-40240000D01*
X45335000Y-41040000D02*
X45335000Y-40240000D01*
X45335000Y-42640000D02*
X45335000Y-41840000D01*
X45335000Y-41840000D02*
X45335000Y-41040000D01*
X45335000Y-43440000D02*
X45335000Y-42640000D01*
X45335000Y-44240000D02*
X45335000Y-43440000D01*
X45335000Y-37840000D02*
X45335000Y-37040000D01*
X45335000Y-37040000D02*
X45335000Y-36240000D01*
X45335000Y-35440000D02*
X45335000Y-34640000D01*
X45335000Y-36240000D02*
X45335000Y-35440000D01*
D40*
X45335000Y-33540000D02*
X45285000Y-33490000D01*
D42*
X45335000Y-34640000D02*
X45335000Y-33540000D01*
D40*
X48512000Y-30228000D02*
X47244000Y-30228000D01*
X49530000Y-29210000D02*
X48512000Y-30228000D01*
X50886000Y-29210000D02*
X49530000Y-29210000D01*
%TO.N,EN*%
X45382000Y-29208000D02*
X45380000Y-29210000D01*
X47244000Y-29208000D02*
X45382000Y-29208000D01*
%TO.N,Hard_reset*%
X55288000Y-29208000D02*
X55286000Y-29210000D01*
X57150000Y-29208000D02*
X55288000Y-29208000D01*
%TO.N,Net-(Q5-D)*%
X61273000Y-29784000D02*
X60833000Y-30224000D01*
X62768000Y-29784000D02*
X61273000Y-29784000D01*
%TO.N,Hard_reset*%
X55215000Y-36320000D02*
X55135000Y-36240000D01*
X57912000Y-36320000D02*
X55215000Y-36320000D01*
%TO.N,Net-(Q6-D)*%
X64260000Y-31117000D02*
X64260000Y-33274000D01*
X64643000Y-30734000D02*
X64260000Y-31117000D01*
%TO.N,Net-(Q5-D)*%
X66057500Y-29784000D02*
X62768000Y-29784000D01*
X67007500Y-30734000D02*
X66057500Y-29784000D01*
%TO.N,ADC_lvl_BAT*%
X68451000Y-33274000D02*
X65280000Y-33274000D01*
%TO.N,GND*%
X71884000Y-37211000D02*
X72771000Y-37211000D01*
X71874000Y-42281000D02*
X71884000Y-42291000D01*
X71874000Y-41126000D02*
X71874000Y-42281000D01*
%TO.N,SCL*%
X70104000Y-38354000D02*
X70126000Y-38376000D01*
X69723000Y-38735000D02*
X70104000Y-38354000D01*
X70126000Y-38376000D02*
X70874000Y-38376000D01*
X69723000Y-39114000D02*
X69723000Y-38735000D01*
%TO.N,Net-(IC3-DVI)*%
X70864000Y-37211000D02*
X69725000Y-37211000D01*
X71374000Y-37721000D02*
X71374000Y-38376000D01*
X70864000Y-37211000D02*
X71374000Y-37721000D01*
%TO.N,SDA*%
X72287000Y-38376000D02*
X73025000Y-39114000D01*
X71874000Y-38376000D02*
X72287000Y-38376000D01*
%TO.N,Net-(IC3-ADDR)*%
X71374000Y-41781000D02*
X71374000Y-41126000D01*
X70864000Y-42291000D02*
X71374000Y-41781000D01*
%TO.N,DHT22_DATA*%
X56896000Y-41021000D02*
X55154000Y-41021000D01*
X102823000Y-41068000D02*
X101727000Y-42164000D01*
X104150000Y-41068000D02*
X102823000Y-41068000D01*
X55154000Y-41021000D02*
X55135000Y-41040000D01*
D39*
%TO.N,GND*%
X121410000Y-39245000D02*
X122047000Y-38608000D01*
X122047000Y-38608000D02*
X122428000Y-38608000D01*
X121410000Y-39624000D02*
X121410000Y-39245000D01*
X122428000Y-38608000D02*
X123190000Y-39370000D01*
X123446000Y-39626000D02*
X123190000Y-39370000D01*
X123446000Y-40894000D02*
X123446000Y-39626000D01*
D41*
%TO.N,VBAT*%
X116967000Y-42672000D02*
X116650500Y-42988500D01*
X116967000Y-42418000D02*
X116967000Y-42672000D01*
X116650500Y-42988500D02*
X116333000Y-42671000D01*
X116840000Y-43178000D02*
X116650500Y-42988500D01*
X116967000Y-42418000D02*
X117475000Y-42926000D01*
X116586000Y-42418000D02*
X116333000Y-42671000D01*
X116967000Y-42418000D02*
X116586000Y-42418000D01*
X116333000Y-43052000D02*
X116333000Y-42671000D01*
X116205000Y-43180000D02*
X116333000Y-43052000D01*
X116333000Y-42671000D02*
X116080000Y-42418000D01*
X116840000Y-43180000D02*
X116840000Y-43178000D01*
X117348000Y-43180000D02*
X116967000Y-42799000D01*
X116967000Y-42799000D02*
X116967000Y-43053000D01*
X117475000Y-43180000D02*
X117348000Y-43180000D01*
X116967000Y-42418000D02*
X116967000Y-42799000D01*
X117475000Y-42926000D02*
X117475000Y-43180000D01*
X116205000Y-43180000D02*
X116967000Y-42418000D01*
X116840000Y-43434000D02*
X116840000Y-43561000D01*
X116840000Y-43180000D02*
X116840000Y-43434000D01*
X116205000Y-43180000D02*
X116459000Y-43180000D01*
X116459000Y-43180000D02*
X116840000Y-43561000D01*
X116205000Y-43180000D02*
X116840000Y-43815000D01*
X117475000Y-43180000D02*
X116840000Y-43180000D01*
X116205000Y-43180000D02*
X116840000Y-43180000D01*
X117475000Y-42418000D02*
X117475000Y-43180000D01*
X117475000Y-42418000D02*
X118318000Y-42418000D01*
X116967000Y-42418000D02*
X117475000Y-42418000D01*
X116967000Y-43053000D02*
X116840000Y-43180000D01*
X116080000Y-42418000D02*
X116967000Y-42418000D01*
X116080000Y-43055000D02*
X116205000Y-43180000D01*
X116080000Y-42418000D02*
X116080000Y-43055000D01*
X118318000Y-42418000D02*
X118330000Y-42406000D01*
D39*
%TO.N,VBUS*%
X120355000Y-42881000D02*
X120430000Y-42806000D01*
X116930000Y-44677500D02*
X118726500Y-42881000D01*
X116930000Y-45545000D02*
X116930000Y-44677500D01*
X118726500Y-42881000D02*
X120355000Y-42881000D01*
X120430000Y-42806000D02*
X120430000Y-42406000D01*
%TO.N,GND*%
X115060000Y-43305000D02*
X115060000Y-42418000D01*
X116130000Y-44375000D02*
X115060000Y-43305000D01*
X116130000Y-45545000D02*
X116130000Y-44375000D01*
D41*
%TO.N,+3.3V*%
X47285000Y-48260000D02*
X46738000Y-48260000D01*
X47835000Y-47710000D02*
X47285000Y-48260000D01*
X47835000Y-47710000D02*
X48385000Y-48260000D01*
X47835000Y-45340000D02*
X47835000Y-47710000D01*
D39*
%TO.N,VBUS*%
X121830000Y-43780000D02*
X122428000Y-43182000D01*
X120430000Y-42406000D02*
X121652000Y-42406000D01*
X121652000Y-42406000D02*
X122428000Y-43182000D01*
X121830000Y-45545000D02*
X121830000Y-43780000D01*
D40*
%TO.N,USB_D-*%
X73525544Y-44731429D02*
X73525544Y-44731430D01*
X75218431Y-44444414D02*
X75077008Y-44302994D01*
X72394180Y-45862810D02*
X72394181Y-45862808D01*
X53435000Y-32290000D02*
X53435000Y-33540000D01*
X75788262Y-42468657D02*
X75788263Y-42468657D01*
X77481173Y-42181667D02*
X77481177Y-42181668D01*
X79734115Y-38440000D02*
X79140000Y-38440000D01*
X75218427Y-44444413D02*
X75218431Y-44444414D01*
X77202520Y-41337328D02*
X77481176Y-41615984D01*
X78145885Y-38040000D02*
X78740000Y-38040000D01*
X78740000Y-38040000D02*
X79734115Y-38040000D01*
X78329705Y-41615985D02*
X78329706Y-41615983D01*
X76870000Y-28934091D02*
X76870000Y-28540000D01*
X78145885Y-33240000D02*
X78740000Y-33240000D01*
X73804216Y-46141474D02*
X73804215Y-46141473D01*
X78740000Y-33240000D02*
X79734115Y-33240000D01*
X76919679Y-41337326D02*
X76919678Y-41337327D01*
X79140000Y-38440000D02*
X78145885Y-38440000D01*
X73808388Y-44731429D02*
X74931407Y-45854450D01*
X75779935Y-45005921D02*
X75218427Y-44444413D01*
X79734115Y-32040000D02*
X79140000Y-32040000D01*
X76071107Y-42468656D02*
X77194153Y-43591704D01*
X74939751Y-43600046D02*
X74939751Y-43600047D01*
X72410000Y-47945000D02*
X72410000Y-47535686D01*
X79734115Y-30440000D02*
X79340000Y-30440000D01*
X77202522Y-41337327D02*
X77202520Y-41337328D01*
X79734115Y-36840000D02*
X79140000Y-36840000D01*
X74656907Y-43600048D02*
X74656906Y-43600048D01*
X78145885Y-34840000D02*
X78740000Y-34840000D01*
X79734115Y-35240000D02*
X79140000Y-35240000D01*
X78540000Y-39640000D02*
X79734115Y-39640000D01*
X77481177Y-42181668D02*
X77339754Y-42040248D01*
X72677025Y-45862808D02*
X72677023Y-45862809D01*
X76270000Y-27940000D02*
X73483456Y-27940000D01*
X78042681Y-42743175D02*
X77481173Y-42181667D01*
X76071105Y-42468657D02*
X76071107Y-42468656D01*
X76349804Y-43313041D02*
X76208381Y-43171621D01*
X79140000Y-28975000D02*
X78105000Y-27940000D01*
X76349800Y-43313040D02*
X76349804Y-43313041D01*
X78740000Y-36440000D02*
X79734115Y-36440000D01*
X78329706Y-41615983D02*
X79140000Y-40805686D01*
X76911308Y-43874548D02*
X76349800Y-43313040D01*
X78540000Y-40040000D02*
X78245897Y-40040000D01*
X74656906Y-43600048D02*
X74656909Y-43600046D01*
X78740000Y-31640000D02*
X79734115Y-31640000D01*
X79140000Y-40805686D02*
X79140000Y-40640000D01*
X73483456Y-27940000D02*
X60960001Y-27940000D01*
X72410000Y-47535686D02*
X72672844Y-47272844D01*
X78145885Y-36440000D02*
X78740000Y-36440000D01*
X73804215Y-45292945D02*
X73525543Y-45014273D01*
X78740000Y-34840000D02*
X79734115Y-34840000D01*
X57150000Y-31750000D02*
X53975000Y-31750000D01*
X73808387Y-44731429D02*
X73808388Y-44731429D01*
X72677023Y-45862809D02*
X72955688Y-46141474D01*
X78042681Y-42743174D02*
X78042681Y-42743175D01*
X79140000Y-36840000D02*
X78145885Y-36840000D01*
X78245897Y-39640000D02*
X78540000Y-39640000D01*
X77270000Y-28540000D02*
X77270000Y-28934091D01*
X53975000Y-31750000D02*
X53435000Y-32290000D01*
X79734115Y-33640000D02*
X79140000Y-33640000D01*
X79140000Y-32040000D02*
X78145885Y-32040000D01*
X76208381Y-43171621D02*
X75788262Y-42751499D01*
X79140000Y-33640000D02*
X78145885Y-33640000D01*
X77339754Y-42040248D02*
X76919678Y-41620169D01*
X72672844Y-46424316D02*
X72394180Y-46145652D01*
X75077008Y-44302994D02*
X74656907Y-43882890D01*
X78145885Y-31640000D02*
X78740000Y-31640000D01*
X60960001Y-27940000D02*
X57150000Y-31750000D01*
X73525542Y-44731430D02*
X73525544Y-44731429D01*
X79140000Y-35240000D02*
X78145885Y-35240000D01*
X74939751Y-43600047D02*
X76062780Y-44723077D01*
X78105000Y-27940000D02*
X77870000Y-27940000D01*
X79140000Y-30240000D02*
X79140000Y-28975000D01*
X75779935Y-45005920D02*
X75779935Y-45005921D01*
X76911308Y-43874547D02*
X76911308Y-43874548D01*
X72677025Y-45862808D02*
G75*
G03*
X72394181Y-45862808I-141422J-141425D01*
G01*
X76870009Y-28934091D02*
G75*
G03*
X77070000Y-29134091I199991J-9D01*
G01*
X79734115Y-36440015D02*
G75*
G03*
X80334115Y-35840000I-15J600015D01*
G01*
X78145885Y-31639985D02*
G75*
G03*
X77945885Y-31840000I15J-200015D01*
G01*
X80334100Y-31040000D02*
G75*
G03*
X79734115Y-30440000I-600000J0D01*
G01*
X78145885Y-33239985D02*
G75*
G03*
X77945885Y-33440000I15J-200015D01*
G01*
X72394149Y-45862780D02*
G75*
G03*
X72394181Y-46145651I141451J-141420D01*
G01*
X78145885Y-38039985D02*
G75*
G03*
X77945885Y-38240000I15J-200015D01*
G01*
X77945900Y-38240000D02*
G75*
G03*
X78145885Y-38440000I200000J0D01*
G01*
X78245897Y-39639997D02*
G75*
G03*
X78045897Y-39840000I3J-200003D01*
G01*
X76071105Y-42468657D02*
G75*
G03*
X75788263Y-42468657I-141421J-141419D01*
G01*
X79734115Y-31640015D02*
G75*
G03*
X80334115Y-31040000I-15J600015D01*
G01*
X77481136Y-41616024D02*
G75*
G03*
X78329704Y-41615984I424264J424324D01*
G01*
X74931408Y-45854449D02*
G75*
G03*
X75779934Y-45854449I424263J424263D01*
G01*
X80334100Y-34240000D02*
G75*
G03*
X79734115Y-33640000I-600000J0D01*
G01*
X75788285Y-42468680D02*
G75*
G03*
X75788263Y-42751498I141415J-141420D01*
G01*
X79140000Y-40640000D02*
G75*
G03*
X78540000Y-40040000I-600000J0D01*
G01*
X79140000Y-30240000D02*
G75*
G03*
X79340000Y-30440000I200000J0D01*
G01*
X77945900Y-33440000D02*
G75*
G03*
X78145885Y-33640000I200000J0D01*
G01*
X78145885Y-36439985D02*
G75*
G03*
X77945885Y-36640000I15J-200015D01*
G01*
X78042642Y-43591665D02*
G75*
G03*
X78042681Y-42743174I-424242J424265D01*
G01*
X79734115Y-34840015D02*
G75*
G03*
X80334115Y-34240000I-15J600015D01*
G01*
X78045900Y-39840000D02*
G75*
G03*
X78245897Y-40040000I200000J0D01*
G01*
X77945900Y-36640000D02*
G75*
G03*
X78145885Y-36840000I200000J0D01*
G01*
X76062781Y-44723076D02*
G75*
G03*
X76911307Y-44723076I424263J424263D01*
G01*
X77870000Y-27940000D02*
G75*
G03*
X77270000Y-28540000I0J-600000D01*
G01*
X74656939Y-43600080D02*
G75*
G03*
X74656908Y-43882889I141361J-141420D01*
G01*
X77945900Y-31840000D02*
G75*
G03*
X78145885Y-32040000I200000J0D01*
G01*
X79734115Y-38040015D02*
G75*
G03*
X80334115Y-37440000I-15J600015D01*
G01*
X76870000Y-28540000D02*
G75*
G03*
X76270000Y-27940000I-600000J0D01*
G01*
X76919631Y-41337278D02*
G75*
G03*
X76919678Y-41620169I141469J-141422D01*
G01*
X80334100Y-37440000D02*
G75*
G03*
X79734115Y-36840000I-600000J0D01*
G01*
X76911296Y-44723065D02*
G75*
G03*
X76911308Y-43874547I-424296J424265D01*
G01*
X80334100Y-35840000D02*
G75*
G03*
X79734115Y-35240000I-600000J0D01*
G01*
X72672863Y-47272863D02*
G75*
G03*
X72672843Y-46424317I-424263J424263D01*
G01*
X77202522Y-41337327D02*
G75*
G03*
X76919678Y-41337327I-141422J-141425D01*
G01*
X73804205Y-46141463D02*
G75*
G03*
X73804214Y-45292946I-424205J424263D01*
G01*
X77070000Y-29134100D02*
G75*
G03*
X77270000Y-28934091I0J200000D01*
G01*
X80334100Y-32640000D02*
G75*
G03*
X79734115Y-32040000I-600000J0D01*
G01*
X73525591Y-44731479D02*
G75*
G03*
X73525543Y-45014273I141409J-141421D01*
G01*
X72955689Y-46141473D02*
G75*
G03*
X73804215Y-46141473I424263J424263D01*
G01*
X78145885Y-34839985D02*
G75*
G03*
X77945885Y-35040000I15J-200015D01*
G01*
X74939751Y-43600046D02*
G75*
G03*
X74656909Y-43600046I-141421J-141426D01*
G01*
X77945900Y-35040000D02*
G75*
G03*
X78145885Y-35240000I200000J0D01*
G01*
X73808420Y-44731396D02*
G75*
G03*
X73525545Y-44731431I-141420J-141504D01*
G01*
X79734115Y-39640015D02*
G75*
G03*
X80334115Y-39040000I-15J600015D01*
G01*
X79734115Y-33240015D02*
G75*
G03*
X80334115Y-32640000I-15J600015D01*
G01*
X80334100Y-39040000D02*
G75*
G03*
X79734115Y-38440000I-600000J0D01*
G01*
X77194154Y-43591703D02*
G75*
G03*
X78042680Y-43591703I424263J424263D01*
G01*
X75779949Y-45854464D02*
G75*
G03*
X75779934Y-45005921I-424249J424264D01*
G01*
%TO.N,USB_D+*%
X78540000Y-40440000D02*
X78245897Y-40440000D01*
X75497093Y-45288764D02*
X74935586Y-44727259D01*
X72959868Y-45579965D02*
X72959866Y-45579966D01*
X73521372Y-45575788D02*
X73521373Y-45575786D01*
X71510000Y-47345000D02*
X72035000Y-47345000D01*
X79140000Y-37240000D02*
X78145885Y-37240000D01*
X78245897Y-39240000D02*
X78540000Y-39240000D01*
X75497092Y-45571607D02*
X75497093Y-45571607D01*
X78740000Y-34440000D02*
X79734115Y-34440000D01*
X75222593Y-43317205D02*
X75642696Y-43737308D01*
X79734115Y-32440000D02*
X79140000Y-32440000D01*
X78740000Y-29210000D02*
X77870000Y-28340000D01*
X78145885Y-37640000D02*
X78740000Y-37640000D01*
X78740000Y-31240000D02*
X79734115Y-31240000D01*
X78145885Y-32840000D02*
X78740000Y-32840000D01*
X76628466Y-44157391D02*
X76066959Y-43595886D01*
X57016186Y-32449500D02*
X54610000Y-32449500D01*
X71435000Y-49845000D02*
X70485000Y-48895000D01*
X74374064Y-43317205D02*
X74374065Y-43317205D01*
X79734115Y-30840000D02*
X79340000Y-30840000D01*
X73242701Y-44448586D02*
X73242700Y-44448586D01*
X78540000Y-39240000D02*
X79734115Y-39240000D01*
X73521373Y-45858631D02*
X73521375Y-45858630D01*
X79140000Y-38840000D02*
X78145885Y-38840000D01*
X75642696Y-43737308D02*
X76345623Y-44440234D01*
X76774069Y-42605935D02*
X77476996Y-43308861D01*
X75505419Y-42185814D02*
X75505420Y-42185814D01*
X72390001Y-46707159D02*
X72390002Y-46707157D01*
X73242700Y-44448586D02*
X73242702Y-44448585D01*
X70485000Y-48895000D02*
X71510000Y-47870000D01*
X78740000Y-37640000D02*
X79734115Y-37640000D01*
X76636836Y-41054483D02*
X76636835Y-41054484D01*
X78145885Y-31240000D02*
X78740000Y-31240000D01*
X78145885Y-36040000D02*
X78740000Y-36040000D01*
X72035000Y-47345000D02*
X72390001Y-46990001D01*
X79734115Y-37240000D02*
X79140000Y-37240000D01*
X78046863Y-41333140D02*
X78740000Y-40640000D01*
X77485365Y-41054484D02*
X77485363Y-41054485D01*
X73521375Y-45858630D02*
X73521372Y-45858630D01*
X77056912Y-42323090D02*
X76636833Y-41903014D01*
X77759839Y-43026017D02*
X77759839Y-43026018D01*
X78740000Y-32840000D02*
X79734115Y-32840000D01*
X72410000Y-49845000D02*
X71435000Y-49845000D01*
X74369903Y-44727258D02*
X75214250Y-45571607D01*
X79734115Y-35640000D02*
X79140000Y-35640000D01*
X76270000Y-28340000D02*
X73483456Y-28340000D01*
X78740000Y-30240000D02*
X78740000Y-29210000D01*
X72959866Y-45579966D02*
X73238531Y-45858631D01*
X76066959Y-43595886D02*
X75925539Y-43454463D01*
X52705000Y-33470000D02*
X52635000Y-33540000D01*
X75497093Y-45288763D02*
X75497093Y-45288764D01*
X76470000Y-28934091D02*
X76470000Y-28540000D01*
X79140000Y-32440000D02*
X78145885Y-32440000D01*
X76353948Y-42185814D02*
X76774069Y-42605935D01*
X77670000Y-28540000D02*
X77670000Y-28934091D01*
X79734115Y-34040000D02*
X79140000Y-34040000D01*
X76628466Y-44157390D02*
X76628466Y-44157391D01*
X52705000Y-32385000D02*
X52705000Y-33470000D01*
X74794166Y-44585836D02*
X74374062Y-44165735D01*
X79140000Y-35640000D02*
X78145885Y-35640000D01*
X73483456Y-28340000D02*
X61125686Y-28340000D01*
X76628465Y-44440234D02*
X76628466Y-44440234D01*
X61125686Y-28340000D02*
X57016186Y-32449500D01*
X77759839Y-43026018D02*
X77198332Y-42464513D01*
X78046862Y-41333142D02*
X78046863Y-41333140D01*
X79734115Y-38840000D02*
X79140000Y-38840000D01*
X77759838Y-43308861D02*
X77759839Y-43308861D01*
X78740000Y-36040000D02*
X79734115Y-36040000D01*
X74091230Y-44448585D02*
X74369903Y-44727258D01*
X72390002Y-46707157D02*
X72111338Y-46428493D01*
X75925539Y-43454463D02*
X75505417Y-43034344D01*
X77198332Y-42464513D02*
X77056912Y-42323090D01*
X78145885Y-34440000D02*
X78740000Y-34440000D01*
X77485363Y-41054485D02*
X77764019Y-41333141D01*
X74935586Y-44727259D02*
X74794166Y-44585836D01*
X73521373Y-45575786D02*
X73242701Y-45297114D01*
X71510000Y-47870000D02*
X71510000Y-47345000D01*
X79140000Y-34040000D02*
X78145885Y-34040000D01*
X76628454Y-44440222D02*
G75*
G03*
X76628466Y-44157390I-141454J141422D01*
G01*
X77545900Y-38240000D02*
G75*
G03*
X78145885Y-38840000I600000J0D01*
G01*
X78740000Y-30240000D02*
G75*
G03*
X79340000Y-30840000I600000J0D01*
G01*
X79934100Y-39040000D02*
G75*
G03*
X79734115Y-38840000I-200000J0D01*
G01*
X72111310Y-45579937D02*
G75*
G03*
X72111339Y-46428492I424290J-424263D01*
G01*
X75214251Y-45571606D02*
G75*
G03*
X75497091Y-45571606I141420J141422D01*
G01*
X75497108Y-45571622D02*
G75*
G03*
X75497093Y-45288763I-141408J141422D01*
G01*
X76470000Y-28540000D02*
G75*
G03*
X76270000Y-28340000I-200000J0D01*
G01*
X73521363Y-45858621D02*
G75*
G03*
X73521372Y-45575788I-141363J141421D01*
G01*
X79934100Y-31040000D02*
G75*
G03*
X79734115Y-30840000I-200000J0D01*
G01*
X77545900Y-35040000D02*
G75*
G03*
X78145885Y-35640000I600000J0D01*
G01*
X72390021Y-46990021D02*
G75*
G03*
X72390001Y-46707159I-141421J141421D01*
G01*
X77645900Y-39840000D02*
G75*
G03*
X78245897Y-40440000I600000J0D01*
G01*
X78145885Y-34439985D02*
G75*
G03*
X77545885Y-35040000I15J-600015D01*
G01*
X76345624Y-44440233D02*
G75*
G03*
X76628464Y-44440233I141420J141422D01*
G01*
X77763978Y-41333182D02*
G75*
G03*
X78046862Y-41333142I141422J141482D01*
G01*
X79734115Y-31240015D02*
G75*
G03*
X79934115Y-31040000I-15J200015D01*
G01*
X78145885Y-32839985D02*
G75*
G03*
X77545885Y-33440000I15J-600015D01*
G01*
X79934100Y-32640000D02*
G75*
G03*
X79734115Y-32440000I-200000J0D01*
G01*
X75222592Y-43317206D02*
G75*
G03*
X74374066Y-43317206I-424263J-424263D01*
G01*
X77485365Y-41054484D02*
G75*
G03*
X76636835Y-41054484I-424265J-424269D01*
G01*
X76636886Y-41054533D02*
G75*
G03*
X76636833Y-41903014I424214J-424267D01*
G01*
X79934100Y-35840000D02*
G75*
G03*
X79734115Y-35640000I-200000J0D01*
G01*
X73238531Y-45858631D02*
G75*
G03*
X73521373Y-45858631I141421J141426D01*
G01*
X77476997Y-43308860D02*
G75*
G03*
X77759837Y-43308860I141420J141422D01*
G01*
X78145885Y-37639985D02*
G75*
G03*
X77545885Y-38240000I15J-600015D01*
G01*
X77545900Y-36640000D02*
G75*
G03*
X78145885Y-37240000I600000J0D01*
G01*
X78145885Y-36039985D02*
G75*
G03*
X77545885Y-36640000I15J-600015D01*
G01*
X77759800Y-43308822D02*
G75*
G03*
X77759839Y-43026017I-141400J141422D01*
G01*
X79734115Y-37640015D02*
G75*
G03*
X79934115Y-37440000I-15J200015D01*
G01*
X79734115Y-32840015D02*
G75*
G03*
X79934115Y-32640000I-15J200015D01*
G01*
X78145885Y-31239985D02*
G75*
G03*
X77545885Y-31840000I15J-600015D01*
G01*
X79934100Y-34240000D02*
G75*
G03*
X79734115Y-34040000I-200000J0D01*
G01*
X79734115Y-36040015D02*
G75*
G03*
X79934115Y-35840000I-15J200015D01*
G01*
X76470009Y-28934091D02*
G75*
G03*
X77070000Y-29534091I599991J-9D01*
G01*
X77070000Y-29534100D02*
G75*
G03*
X77670000Y-28934091I0J600000D01*
G01*
X79734115Y-34440015D02*
G75*
G03*
X79934115Y-34240000I-15J200015D01*
G01*
X78740000Y-40640000D02*
G75*
G03*
X78540000Y-40440000I-200000J0D01*
G01*
X77545900Y-33440000D02*
G75*
G03*
X78145885Y-34040000I600000J0D01*
G01*
X73242751Y-44448636D02*
G75*
G03*
X73242701Y-45297114I424249J-424264D01*
G01*
X76353947Y-42185815D02*
G75*
G03*
X75505421Y-42185815I-424263J-424263D01*
G01*
X77545900Y-31840000D02*
G75*
G03*
X78145885Y-32440000I600000J0D01*
G01*
X79734115Y-39240015D02*
G75*
G03*
X79934115Y-39040000I-15J200015D01*
G01*
X75505439Y-42185834D02*
G75*
G03*
X75505417Y-43034344I424261J-424266D01*
G01*
X74374093Y-43317234D02*
G75*
G03*
X74374062Y-44165735I424207J-424266D01*
G01*
X74091229Y-44448586D02*
G75*
G03*
X73242703Y-44448586I-424263J-424263D01*
G01*
X79934100Y-37440000D02*
G75*
G03*
X79734115Y-37240000I-200000J0D01*
G01*
X72959868Y-45579965D02*
G75*
G03*
X72111338Y-45579965I-424265J-424269D01*
G01*
X78245897Y-39239997D02*
G75*
G03*
X77645897Y-39840000I3J-600003D01*
G01*
X77870000Y-28340000D02*
G75*
G03*
X77670000Y-28540000I0J-200000D01*
G01*
D39*
%TO.N,+3.3V*%
X120650000Y-33778000D02*
X118112000Y-33778000D01*
X118112000Y-33778000D02*
X118110000Y-33780000D01*
%TO.N,GND*%
X114802000Y-42160000D02*
X115060000Y-42418000D01*
X121285000Y-39749000D02*
X121410000Y-39624000D01*
X121285000Y-40640000D02*
X121285000Y-39749000D01*
D42*
X45285000Y-46990000D02*
X45285000Y-47625000D01*
X45285000Y-47625000D02*
X45285000Y-47827000D01*
D39*
X115058000Y-40894000D02*
X115058000Y-42416000D01*
X120430000Y-40906000D02*
X121019000Y-40906000D01*
X113792000Y-42160000D02*
X114802000Y-42160000D01*
D42*
X45285000Y-45390000D02*
X45285000Y-46990000D01*
D39*
X124714000Y-42164000D02*
X123446000Y-40896000D01*
X122428000Y-41912000D02*
X123446000Y-40894000D01*
X123446000Y-40896000D02*
X123446000Y-40894000D01*
X124714000Y-42416000D02*
X124714000Y-42164000D01*
X121019000Y-40906000D02*
X121285000Y-40640000D01*
X115058000Y-42416000D02*
X115060000Y-42418000D01*
X122428000Y-42162000D02*
X122428000Y-41912000D01*
D42*
X45285000Y-47827000D02*
X45718000Y-48260000D01*
D39*
%TO.N,EN*%
X51814000Y-48260000D02*
X51814000Y-45361000D01*
X51814000Y-49784000D02*
X51814000Y-48260000D01*
X51814000Y-45361000D02*
X51835000Y-45340000D01*
%TO.N,BAT_lvl_LED*%
X49405000Y-45370000D02*
X49435000Y-45340000D01*
X49405000Y-48260000D02*
X49405000Y-45370000D01*
D40*
%TO.N,/D-*%
X95175000Y-48260000D02*
X95175000Y-49224354D01*
X95575000Y-49224354D02*
X95575000Y-48660000D01*
X89175000Y-48660000D02*
X89175000Y-47695622D01*
X82775000Y-49224378D02*
X82775000Y-48660000D01*
X95175000Y-47695622D02*
X95175000Y-48260000D01*
X73660000Y-49395000D02*
X73660000Y-47695000D01*
X83975000Y-48260000D02*
X83975000Y-49224378D01*
X87575000Y-48660000D02*
X87575000Y-47695622D01*
X93975000Y-48660000D02*
X93975000Y-47695622D01*
X74910000Y-49845000D02*
X74110000Y-49845000D01*
X91975000Y-47695622D02*
X91975000Y-48260000D01*
X98775000Y-48660000D02*
X98775000Y-47695622D01*
X87575000Y-49224354D02*
X87575000Y-48660000D01*
X82375000Y-47695622D02*
X82375000Y-48260000D01*
X87175000Y-47695622D02*
X87175000Y-48260000D01*
X118680000Y-46570000D02*
X118630000Y-46520000D01*
X104784594Y-48260000D02*
X117041041Y-48260000D01*
X87175000Y-48260000D02*
X87175000Y-49224354D01*
X80775000Y-48060000D02*
X80775000Y-49224378D01*
X75565000Y-46990000D02*
X76835000Y-48260000D01*
X97175000Y-48660000D02*
X97175000Y-47695622D01*
X79575000Y-48060000D02*
X79575000Y-47695622D01*
X90375000Y-47695622D02*
X90375000Y-48260000D01*
X119630000Y-45545000D02*
X119630000Y-46520000D01*
X88775000Y-48260000D02*
X88775000Y-49224354D01*
X92375000Y-49224354D02*
X92375000Y-48660000D01*
X92375000Y-48660000D02*
X92375000Y-47695622D01*
X96775000Y-47695622D02*
X96775000Y-48260000D01*
X74365000Y-46990000D02*
X75565000Y-46990000D01*
X73660000Y-47695000D02*
X74365000Y-46990000D01*
X80775000Y-47695622D02*
X80775000Y-48060000D01*
X118630000Y-46520000D02*
X118630000Y-45545000D01*
X93975000Y-49224354D02*
X93975000Y-48660000D01*
X98375000Y-47695622D02*
X98375000Y-48260000D01*
X100175000Y-48260000D02*
X104784594Y-48260000D01*
X84375000Y-48660000D02*
X84375000Y-47695622D01*
X89175000Y-49224354D02*
X89175000Y-48660000D01*
X83975000Y-47695622D02*
X83975000Y-48260000D01*
X119580000Y-46570000D02*
X118680000Y-46570000D01*
X85575000Y-48260000D02*
X85575000Y-49224354D01*
X85975000Y-48660000D02*
X85975000Y-47695622D01*
X82775000Y-48660000D02*
X82775000Y-47695622D01*
X93575000Y-48260000D02*
X93575000Y-49224354D01*
X81175000Y-49224378D02*
X81175000Y-48660000D01*
X99975000Y-47695622D02*
X99975000Y-48060000D01*
X90775000Y-49224354D02*
X90775000Y-48660000D01*
X97175000Y-49224354D02*
X97175000Y-48660000D01*
X74110000Y-49845000D02*
X73660000Y-49395000D01*
X98375000Y-48260000D02*
X98375000Y-49224354D01*
X85575000Y-47695622D02*
X85575000Y-48260000D01*
X118630000Y-46671041D02*
X118630000Y-45545000D01*
X81175000Y-48660000D02*
X81175000Y-47695622D01*
X98775000Y-49224354D02*
X98775000Y-48660000D01*
X88775000Y-47695622D02*
X88775000Y-48260000D01*
X93575000Y-47695622D02*
X93575000Y-48260000D01*
X76835000Y-48260000D02*
X79375000Y-48260000D01*
X96775000Y-48260000D02*
X96775000Y-49224354D01*
X90375000Y-48260000D02*
X90375000Y-49224354D01*
X82375000Y-48260000D02*
X82375000Y-49224378D01*
X117041041Y-48260000D02*
X118630000Y-46671041D01*
X90775000Y-48660000D02*
X90775000Y-47695622D01*
X91975000Y-48260000D02*
X91975000Y-49224354D01*
X119630000Y-46520000D02*
X119580000Y-46570000D01*
X85975000Y-49224354D02*
X85975000Y-48660000D01*
X84375000Y-49224378D02*
X84375000Y-48660000D01*
X95575000Y-48660000D02*
X95575000Y-47695622D01*
X80175000Y-47095600D02*
G75*
G03*
X79575000Y-47695622I0J-600000D01*
G01*
X83375000Y-47095600D02*
G75*
G03*
X82775000Y-47695622I0J-600000D01*
G01*
X88774978Y-47695622D02*
G75*
G03*
X88175000Y-47095622I-599978J22D01*
G01*
X90375046Y-49224354D02*
G75*
G03*
X90575000Y-49424354I199954J-46D01*
G01*
X98575000Y-49424400D02*
G75*
G03*
X98775000Y-49224354I0J200000D01*
G01*
X87174978Y-47695622D02*
G75*
G03*
X86575000Y-47095622I-599978J22D01*
G01*
X82375022Y-49224378D02*
G75*
G03*
X82575000Y-49424378I199978J-22D01*
G01*
X84175000Y-49424400D02*
G75*
G03*
X84375000Y-49224378I0J200000D01*
G01*
X99975000Y-48060000D02*
G75*
G03*
X100175000Y-48260000I200000J0D01*
G01*
X96175000Y-47095600D02*
G75*
G03*
X95575000Y-47695622I0J-600000D01*
G01*
X95175046Y-49224354D02*
G75*
G03*
X95375000Y-49424354I199954J-46D01*
G01*
X83975022Y-49224378D02*
G75*
G03*
X84175000Y-49424378I199978J-22D01*
G01*
X99375000Y-47095600D02*
G75*
G03*
X98775000Y-47695622I0J-600000D01*
G01*
X90575000Y-49424400D02*
G75*
G03*
X90775000Y-49224354I0J200000D01*
G01*
X88175000Y-47095600D02*
G75*
G03*
X87575000Y-47695622I0J-600000D01*
G01*
X98374978Y-47695622D02*
G75*
G03*
X97775000Y-47095622I-599978J22D01*
G01*
X82374978Y-47695622D02*
G75*
G03*
X81775000Y-47095622I-599978J22D01*
G01*
X96975000Y-49424400D02*
G75*
G03*
X97175000Y-49224354I0J200000D01*
G01*
X85575046Y-49224354D02*
G75*
G03*
X85775000Y-49424354I199954J-46D01*
G01*
X90374978Y-47695622D02*
G75*
G03*
X89775000Y-47095622I-599978J22D01*
G01*
X93574978Y-47695622D02*
G75*
G03*
X92975000Y-47095622I-599978J22D01*
G01*
X95375000Y-49424400D02*
G75*
G03*
X95575000Y-49224354I0J200000D01*
G01*
X85775000Y-49424400D02*
G75*
G03*
X85975000Y-49224354I0J200000D01*
G01*
X89775000Y-47095600D02*
G75*
G03*
X89175000Y-47695622I0J-600000D01*
G01*
X83974978Y-47695622D02*
G75*
G03*
X83375000Y-47095622I-599978J22D01*
G01*
X92975000Y-47095600D02*
G75*
G03*
X92375000Y-47695622I0J-600000D01*
G01*
X97775000Y-47095600D02*
G75*
G03*
X97175000Y-47695622I0J-600000D01*
G01*
X95174978Y-47695622D02*
G75*
G03*
X94575000Y-47095622I-599978J22D01*
G01*
X99974978Y-47695622D02*
G75*
G03*
X99375000Y-47095622I-599978J22D01*
G01*
X94575000Y-47095600D02*
G75*
G03*
X93975000Y-47695622I0J-600000D01*
G01*
X96775046Y-49224354D02*
G75*
G03*
X96975000Y-49424354I199954J-46D01*
G01*
X93575046Y-49224354D02*
G75*
G03*
X93775000Y-49424354I199954J-46D01*
G01*
X93775000Y-49424400D02*
G75*
G03*
X93975000Y-49224354I0J200000D01*
G01*
X80775022Y-49224378D02*
G75*
G03*
X80975000Y-49424378I199978J-22D01*
G01*
X92175000Y-49424400D02*
G75*
G03*
X92375000Y-49224354I0J200000D01*
G01*
X84975000Y-47095600D02*
G75*
G03*
X84375000Y-47695622I0J-600000D01*
G01*
X96774978Y-47695622D02*
G75*
G03*
X96175000Y-47095622I-599978J22D01*
G01*
X80774978Y-47695622D02*
G75*
G03*
X80175000Y-47095622I-599978J22D01*
G01*
X79375000Y-48260000D02*
G75*
G03*
X79575000Y-48060000I0J200000D01*
G01*
X82575000Y-49424400D02*
G75*
G03*
X82775000Y-49224378I0J200000D01*
G01*
X86575000Y-47095600D02*
G75*
G03*
X85975000Y-47695622I0J-600000D01*
G01*
X98375046Y-49224354D02*
G75*
G03*
X98575000Y-49424354I199954J-46D01*
G01*
X91975046Y-49224354D02*
G75*
G03*
X92175000Y-49424354I199954J-46D01*
G01*
X88775046Y-49224354D02*
G75*
G03*
X88975000Y-49424354I199954J-46D01*
G01*
X91974978Y-47695622D02*
G75*
G03*
X91375000Y-47095622I-599978J22D01*
G01*
X91375000Y-47095600D02*
G75*
G03*
X90775000Y-47695622I0J-600000D01*
G01*
X80975000Y-49424400D02*
G75*
G03*
X81175000Y-49224378I0J200000D01*
G01*
X88975000Y-49424400D02*
G75*
G03*
X89175000Y-49224354I0J200000D01*
G01*
X81775000Y-47095600D02*
G75*
G03*
X81175000Y-47695622I0J-600000D01*
G01*
X87175046Y-49224354D02*
G75*
G03*
X87375000Y-49424354I199954J-46D01*
G01*
X85574978Y-47695622D02*
G75*
G03*
X84975000Y-47095622I-599978J22D01*
G01*
X87375000Y-49424400D02*
G75*
G03*
X87575000Y-49224354I0J200000D01*
G01*
D39*
%TO.N,Net-(IC2-ISET)*%
X120430000Y-41906000D02*
X121414000Y-41906000D01*
X121414000Y-41906000D02*
X122426000Y-40894000D01*
%TO.N,Net-(IC2-TS)*%
X121194000Y-41406000D02*
X121831000Y-40769000D01*
X121831000Y-40769000D02*
X121831000Y-40223000D01*
X120430000Y-41406000D02*
X121194000Y-41406000D01*
X121831000Y-40223000D02*
X122430000Y-39624000D01*
%TO.N,Net-(D3-K)*%
X117290000Y-39556396D02*
X117983896Y-38862500D01*
X119887500Y-38862500D02*
X120624500Y-38125500D01*
X117816396Y-40906000D02*
X117290000Y-40379604D01*
X120624500Y-38125500D02*
X120650000Y-38125500D01*
X117983896Y-38862500D02*
X119887500Y-38862500D01*
X117290000Y-40379604D02*
X117290000Y-39556396D01*
X118330000Y-40906000D02*
X117816396Y-40906000D01*
%TO.N,Net-(D2-K)*%
X116840000Y-40566000D02*
X116840000Y-39370000D01*
X116840000Y-39370000D02*
X118110000Y-38100000D01*
X117680000Y-41406000D02*
X116840000Y-40566000D01*
X118330000Y-41406000D02*
X117680000Y-41406000D01*
%TO.N,Net-(IC2-VSET)*%
X117098000Y-41906000D02*
X118330000Y-41906000D01*
X116078000Y-40894000D02*
X117094000Y-41910000D01*
X117094000Y-41910000D02*
X117098000Y-41906000D01*
%TO.N,Net-(J1-CC1)*%
X118130000Y-45545000D02*
X118130000Y-46570000D01*
X118130000Y-46570000D02*
X116865000Y-47835000D01*
X114510000Y-47835000D02*
X113792000Y-47117000D01*
X116865000Y-47835000D02*
X114510000Y-47835000D01*
X113792000Y-47117000D02*
X113792000Y-43180000D01*
D40*
%TO.N,/D+*%
X84775000Y-48660000D02*
X84775000Y-47695622D01*
X85175000Y-48260000D02*
X85175000Y-49224354D01*
X83575000Y-47695622D02*
X83575000Y-48260000D01*
X99175000Y-48660000D02*
X99175000Y-47695622D01*
X117206727Y-48660000D02*
X118896727Y-46970000D01*
X89575000Y-49224354D02*
X89575000Y-48660000D01*
X80375000Y-48060000D02*
X80375000Y-49224378D01*
X74910000Y-47945000D02*
X75460000Y-47945000D01*
X95975000Y-48660000D02*
X95975000Y-47695622D01*
X94775000Y-48260000D02*
X94775000Y-49224354D01*
X104784594Y-48660000D02*
X117206727Y-48660000D01*
X86375000Y-49224354D02*
X86375000Y-48660000D01*
X120130000Y-44570000D02*
X120130000Y-45545000D01*
X89575000Y-48660000D02*
X89575000Y-47695622D01*
X96375000Y-48260000D02*
X96375000Y-49224354D01*
X76175000Y-48660000D02*
X79375000Y-48660000D01*
X94775000Y-47695622D02*
X94775000Y-48260000D01*
X79975000Y-48060000D02*
X79975000Y-47695622D01*
X85175000Y-47695622D02*
X85175000Y-48260000D01*
X81575000Y-48660000D02*
X81575000Y-47695622D01*
X86775000Y-48260000D02*
X86775000Y-49224354D01*
X89975000Y-48260000D02*
X89975000Y-49224354D01*
X92775000Y-48660000D02*
X92775000Y-47695622D01*
X88375000Y-48260000D02*
X88375000Y-49224354D01*
X99175000Y-49224354D02*
X99175000Y-48660000D01*
X94375000Y-49224354D02*
X94375000Y-48660000D01*
X119130000Y-44570000D02*
X119250000Y-44450000D01*
X83175000Y-49224378D02*
X83175000Y-48660000D01*
X75460000Y-47945000D02*
X76175000Y-48660000D01*
X99575000Y-47695622D02*
X99575000Y-48060000D01*
X119745685Y-46970000D02*
X120130000Y-46585685D01*
X91175000Y-49224354D02*
X91175000Y-48660000D01*
X83175000Y-48660000D02*
X83175000Y-47695622D01*
X81575000Y-49224378D02*
X81575000Y-48660000D01*
X97575000Y-49224354D02*
X97575000Y-48660000D01*
X97575000Y-48660000D02*
X97575000Y-47695622D01*
X91575000Y-48260000D02*
X91575000Y-49224354D01*
X93175000Y-48260000D02*
X93175000Y-49224354D01*
X95975000Y-49224354D02*
X95975000Y-48660000D01*
X83575000Y-48260000D02*
X83575000Y-49224378D01*
X93175000Y-47695622D02*
X93175000Y-48260000D01*
X119130000Y-45545000D02*
X119130000Y-44570000D01*
X97975000Y-47695622D02*
X97975000Y-48260000D01*
X119250000Y-44450000D02*
X120010000Y-44450000D01*
X91175000Y-48660000D02*
X91175000Y-47695622D01*
X92775000Y-49224354D02*
X92775000Y-48660000D01*
X97975000Y-48260000D02*
X97975000Y-49224354D01*
X80375000Y-47695622D02*
X80375000Y-48060000D01*
X91575000Y-47695622D02*
X91575000Y-48260000D01*
X96375000Y-47695622D02*
X96375000Y-48260000D01*
X120010000Y-44450000D02*
X120130000Y-44570000D01*
X100175000Y-48660000D02*
X104784594Y-48660000D01*
X118896727Y-46970000D02*
X119745685Y-46970000D01*
X88375000Y-47695622D02*
X88375000Y-48260000D01*
X87975000Y-48660000D02*
X87975000Y-47695622D01*
X94375000Y-48660000D02*
X94375000Y-47695622D01*
X86775000Y-47695622D02*
X86775000Y-48260000D01*
X84775000Y-49224378D02*
X84775000Y-48660000D01*
X86375000Y-48660000D02*
X86375000Y-47695622D01*
X87975000Y-49224354D02*
X87975000Y-48660000D01*
X89975000Y-47695622D02*
X89975000Y-48260000D01*
X81975000Y-47695622D02*
X81975000Y-48260000D01*
X81975000Y-48260000D02*
X81975000Y-49224378D01*
X120130000Y-46585685D02*
X120130000Y-45545000D01*
X90575000Y-49824400D02*
G75*
G03*
X91175000Y-49224354I0J600000D01*
G01*
X99375000Y-47495600D02*
G75*
G03*
X99175000Y-47695622I0J-200000D01*
G01*
X91575046Y-49224354D02*
G75*
G03*
X92175000Y-49824354I599954J-46D01*
G01*
X93174978Y-47695622D02*
G75*
G03*
X92975000Y-47495622I-199978J22D01*
G01*
X84975000Y-47495600D02*
G75*
G03*
X84775000Y-47695622I0J-200000D01*
G01*
X99574978Y-47695622D02*
G75*
G03*
X99375000Y-47495622I-199978J22D01*
G01*
X94775046Y-49224354D02*
G75*
G03*
X95375000Y-49824354I599954J-46D01*
G01*
X89974978Y-47695622D02*
G75*
G03*
X89775000Y-47495622I-199978J22D01*
G01*
X86575000Y-47495600D02*
G75*
G03*
X86375000Y-47695622I0J-200000D01*
G01*
X97974978Y-47695622D02*
G75*
G03*
X97775000Y-47495622I-199978J22D01*
G01*
X93775000Y-49824400D02*
G75*
G03*
X94375000Y-49224354I0J600000D01*
G01*
X96175000Y-47495600D02*
G75*
G03*
X95975000Y-47695622I0J-200000D01*
G01*
X89775000Y-47495600D02*
G75*
G03*
X89575000Y-47695622I0J-200000D01*
G01*
X84175000Y-49824400D02*
G75*
G03*
X84775000Y-49224378I0J600000D01*
G01*
X82575000Y-49824400D02*
G75*
G03*
X83175000Y-49224378I0J600000D01*
G01*
X81974978Y-47695622D02*
G75*
G03*
X81775000Y-47495622I-199978J22D01*
G01*
X91375000Y-47495600D02*
G75*
G03*
X91175000Y-47695622I0J-200000D01*
G01*
X92175000Y-49824400D02*
G75*
G03*
X92775000Y-49224354I0J600000D01*
G01*
X94575000Y-47495600D02*
G75*
G03*
X94375000Y-47695622I0J-200000D01*
G01*
X98575000Y-49824400D02*
G75*
G03*
X99175000Y-49224354I0J600000D01*
G01*
X96975000Y-49824400D02*
G75*
G03*
X97575000Y-49224354I0J600000D01*
G01*
X96374978Y-47695622D02*
G75*
G03*
X96175000Y-47495622I-199978J22D01*
G01*
X85775000Y-49824400D02*
G75*
G03*
X86375000Y-49224354I0J600000D01*
G01*
X92975000Y-47495600D02*
G75*
G03*
X92775000Y-47695622I0J-200000D01*
G01*
X80975000Y-49824400D02*
G75*
G03*
X81575000Y-49224378I0J600000D01*
G01*
X91574978Y-47695622D02*
G75*
G03*
X91375000Y-47495622I-199978J22D01*
G01*
X93175046Y-49224354D02*
G75*
G03*
X93775000Y-49824354I599954J-46D01*
G01*
X87375000Y-49824400D02*
G75*
G03*
X87975000Y-49224354I0J600000D01*
G01*
X83375000Y-47495600D02*
G75*
G03*
X83175000Y-47695622I0J-200000D01*
G01*
X88375046Y-49224354D02*
G75*
G03*
X88975000Y-49824354I599954J-46D01*
G01*
X80175000Y-47495600D02*
G75*
G03*
X79975000Y-47695622I0J-200000D01*
G01*
X79375000Y-48660000D02*
G75*
G03*
X79975000Y-48060000I0J600000D01*
G01*
X94774978Y-47695622D02*
G75*
G03*
X94575000Y-47495622I-199978J22D01*
G01*
X81975022Y-49224378D02*
G75*
G03*
X82575000Y-49824378I599978J-22D01*
G01*
X80374978Y-47695622D02*
G75*
G03*
X80175000Y-47495622I-199978J22D01*
G01*
X88975000Y-49824400D02*
G75*
G03*
X89575000Y-49224354I0J600000D01*
G01*
X83575022Y-49224378D02*
G75*
G03*
X84175000Y-49824378I599978J-22D01*
G01*
X95375000Y-49824400D02*
G75*
G03*
X95975000Y-49224354I0J600000D01*
G01*
X86774978Y-47695622D02*
G75*
G03*
X86575000Y-47495622I-199978J22D01*
G01*
X97775000Y-47495600D02*
G75*
G03*
X97575000Y-47695622I0J-200000D01*
G01*
X96375046Y-49224354D02*
G75*
G03*
X96975000Y-49824354I599954J-46D01*
G01*
X83574978Y-47695622D02*
G75*
G03*
X83375000Y-47495622I-199978J22D01*
G01*
X85174978Y-47695622D02*
G75*
G03*
X84975000Y-47495622I-199978J22D01*
G01*
X88374978Y-47695622D02*
G75*
G03*
X88175000Y-47495622I-199978J22D01*
G01*
X80375022Y-49224378D02*
G75*
G03*
X80975000Y-49824378I599978J-22D01*
G01*
X86775046Y-49224354D02*
G75*
G03*
X87375000Y-49824354I599954J-46D01*
G01*
X81775000Y-47495600D02*
G75*
G03*
X81575000Y-47695622I0J-200000D01*
G01*
X85175046Y-49224354D02*
G75*
G03*
X85775000Y-49824354I599954J-46D01*
G01*
X97975046Y-49224354D02*
G75*
G03*
X98575000Y-49824354I599954J-46D01*
G01*
X89975046Y-49224354D02*
G75*
G03*
X90575000Y-49824354I599954J-46D01*
G01*
X99575000Y-48060000D02*
G75*
G03*
X100175000Y-48660000I600000J0D01*
G01*
X88175000Y-47495600D02*
G75*
G03*
X87975000Y-47695622I0J-200000D01*
G01*
D39*
%TO.N,Net-(J1-CC2)*%
X121130000Y-46839949D02*
X122125051Y-47835000D01*
X122125051Y-47835000D02*
X124125000Y-47835000D01*
X121130000Y-45545000D02*
X121130000Y-46839949D01*
X124125000Y-47835000D02*
X124714000Y-47246000D01*
X124714000Y-47246000D02*
X124714000Y-43436000D01*
%TO.N,Net-(D3-A)*%
X120650000Y-36550500D02*
X120650000Y-34798000D01*
%TO.N,Net-(D2-A)*%
X118110000Y-36525000D02*
X118110000Y-34800000D01*
%TD*%
%TA.AperFunction,Conductor*%
%TO.N,+3.3V*%
G36*
X60505614Y-27325185D02*
G01*
X60551369Y-27377989D01*
X60561313Y-27447147D01*
X60535259Y-27504196D01*
X60536664Y-27505274D01*
X60510020Y-27539994D01*
X60504669Y-27546096D01*
X58136255Y-29914509D01*
X58074932Y-29947994D01*
X58005240Y-29943010D01*
X57949307Y-29901138D01*
X57929497Y-29861422D01*
X57922869Y-29838607D01*
X57888869Y-29781117D01*
X57871688Y-29713398D01*
X57888869Y-29654882D01*
X57922869Y-29597393D01*
X57942033Y-29531432D01*
X57967664Y-29443208D01*
X57967665Y-29443202D01*
X57970500Y-29407183D01*
X57970499Y-29008819D01*
X57968735Y-28986402D01*
X57967665Y-28972796D01*
X57922869Y-28818607D01*
X57841135Y-28680402D01*
X57841133Y-28680400D01*
X57841130Y-28680396D01*
X57727603Y-28566869D01*
X57727595Y-28566863D01*
X57589393Y-28485131D01*
X57589388Y-28485129D01*
X57435208Y-28440335D01*
X57435202Y-28440334D01*
X57399183Y-28437500D01*
X57399181Y-28437500D01*
X57066940Y-28437500D01*
X56900819Y-28437501D01*
X56864794Y-28440335D01*
X56710611Y-28485129D01*
X56710608Y-28485130D01*
X56648619Y-28521790D01*
X56580895Y-28538971D01*
X56514632Y-28516811D01*
X56470870Y-28462345D01*
X56461499Y-28415057D01*
X56461499Y-28162129D01*
X56461498Y-28162123D01*
X56461497Y-28162116D01*
X56455091Y-28102517D01*
X56404796Y-27967669D01*
X56404795Y-27967668D01*
X56404793Y-27967664D01*
X56318547Y-27852455D01*
X56318544Y-27852452D01*
X56203335Y-27766206D01*
X56203328Y-27766202D01*
X56068482Y-27715908D01*
X56068483Y-27715908D01*
X56008883Y-27709501D01*
X56008881Y-27709500D01*
X56008873Y-27709500D01*
X56008864Y-27709500D01*
X54563129Y-27709500D01*
X54563123Y-27709501D01*
X54503516Y-27715908D01*
X54368671Y-27766202D01*
X54368664Y-27766206D01*
X54253455Y-27852452D01*
X54253452Y-27852455D01*
X54167206Y-27967664D01*
X54167202Y-27967671D01*
X54116908Y-28102517D01*
X54110501Y-28162116D01*
X54110501Y-28162123D01*
X54110500Y-28162135D01*
X54110500Y-30257870D01*
X54110501Y-30257876D01*
X54116908Y-30317483D01*
X54167202Y-30452328D01*
X54167206Y-30452335D01*
X54253452Y-30567544D01*
X54253455Y-30567547D01*
X54368664Y-30653793D01*
X54368671Y-30653797D01*
X54503517Y-30704091D01*
X54503516Y-30704091D01*
X54510444Y-30704835D01*
X54563127Y-30710500D01*
X55423419Y-30710499D01*
X55490458Y-30730183D01*
X55536213Y-30782987D01*
X55546639Y-30848382D01*
X55530909Y-30987995D01*
X55530909Y-30988000D01*
X55533570Y-31011615D01*
X55521516Y-31080437D01*
X55474168Y-31131817D01*
X55410350Y-31149500D01*
X54018428Y-31149500D01*
X54010329Y-31148969D01*
X53975000Y-31144318D01*
X53935639Y-31149500D01*
X53818239Y-31164955D01*
X53818237Y-31164956D01*
X53672160Y-31225463D01*
X53546714Y-31321721D01*
X53525024Y-31349990D01*
X53519671Y-31356094D01*
X53169556Y-31706208D01*
X53108233Y-31739693D01*
X53038541Y-31734709D01*
X53028317Y-31729671D01*
X53028048Y-31730231D01*
X53021780Y-31727212D01*
X52867455Y-31673212D01*
X52705004Y-31654909D01*
X52704996Y-31654909D01*
X52542544Y-31673212D01*
X52388225Y-31727210D01*
X52249795Y-31814192D01*
X52134192Y-31929795D01*
X52047210Y-32068225D01*
X51993212Y-32222544D01*
X51974909Y-32384996D01*
X51974909Y-32385003D01*
X51988048Y-32501617D01*
X51975993Y-32570438D01*
X51928644Y-32621818D01*
X51864828Y-32639500D01*
X51587130Y-32639500D01*
X51587123Y-32639501D01*
X51527516Y-32645908D01*
X51478332Y-32664253D01*
X51408640Y-32669237D01*
X51391667Y-32664253D01*
X51342482Y-32645908D01*
X51342483Y-32645908D01*
X51282883Y-32639501D01*
X51282881Y-32639500D01*
X51282873Y-32639500D01*
X51282865Y-32639500D01*
X50959500Y-32639500D01*
X50892461Y-32619815D01*
X50846706Y-32567011D01*
X50835500Y-32515500D01*
X50835500Y-32028836D01*
X50855185Y-31961797D01*
X50862556Y-31951520D01*
X50862802Y-31951209D01*
X50862808Y-31951204D01*
X50949789Y-31812775D01*
X51003786Y-31658461D01*
X51003886Y-31657576D01*
X51022091Y-31496003D01*
X51022091Y-31495996D01*
X51003787Y-31333544D01*
X51003786Y-31333542D01*
X51003786Y-31333539D01*
X50949789Y-31179225D01*
X50862808Y-31040796D01*
X50747204Y-30925192D01*
X50744192Y-30922180D01*
X50710707Y-30860857D01*
X50715691Y-30791165D01*
X50757563Y-30735232D01*
X50823027Y-30710815D01*
X50831857Y-30710499D01*
X51608872Y-30710499D01*
X51668483Y-30704091D01*
X51803331Y-30653796D01*
X51918546Y-30567546D01*
X52004796Y-30452331D01*
X52055091Y-30317483D01*
X52061500Y-30257873D01*
X52061499Y-28162128D01*
X52055091Y-28102517D01*
X52004796Y-27967669D01*
X52004795Y-27967668D01*
X52004793Y-27967664D01*
X51918547Y-27852455D01*
X51918544Y-27852452D01*
X51803335Y-27766206D01*
X51803328Y-27766202D01*
X51668482Y-27715908D01*
X51668483Y-27715908D01*
X51608883Y-27709501D01*
X51608881Y-27709500D01*
X51608873Y-27709500D01*
X51608864Y-27709500D01*
X50163129Y-27709500D01*
X50163123Y-27709501D01*
X50103516Y-27715908D01*
X49968671Y-27766202D01*
X49968664Y-27766206D01*
X49853455Y-27852452D01*
X49853452Y-27852455D01*
X49767206Y-27967664D01*
X49767202Y-27967671D01*
X49716908Y-28102517D01*
X49710501Y-28162116D01*
X49710501Y-28162123D01*
X49710500Y-28162135D01*
X49710500Y-28485500D01*
X49690815Y-28552539D01*
X49638011Y-28598294D01*
X49586500Y-28609500D01*
X49573428Y-28609500D01*
X49565329Y-28608969D01*
X49530000Y-28604318D01*
X49490639Y-28609500D01*
X49373239Y-28624955D01*
X49373237Y-28624956D01*
X49227157Y-28685464D01*
X49177908Y-28723255D01*
X49112739Y-28748449D01*
X49044294Y-28734410D01*
X48997428Y-28690851D01*
X48990864Y-28680404D01*
X48957808Y-28627796D01*
X48842204Y-28512192D01*
X48784384Y-28475861D01*
X48703774Y-28425210D01*
X48549455Y-28371212D01*
X48387004Y-28352909D01*
X48386996Y-28352909D01*
X48224544Y-28371212D01*
X48070225Y-28425210D01*
X47931794Y-28512193D01*
X47924497Y-28519490D01*
X47863172Y-28552972D01*
X47793481Y-28547985D01*
X47773698Y-28538537D01*
X47683393Y-28485131D01*
X47683388Y-28485129D01*
X47529208Y-28440335D01*
X47529202Y-28440334D01*
X47493183Y-28437500D01*
X47493181Y-28437500D01*
X47160940Y-28437500D01*
X46994819Y-28437501D01*
X46958794Y-28440335D01*
X46804611Y-28485129D01*
X46804608Y-28485130D01*
X46742619Y-28521790D01*
X46674895Y-28538971D01*
X46608632Y-28516811D01*
X46564870Y-28462345D01*
X46555499Y-28415057D01*
X46555499Y-28162129D01*
X46555498Y-28162123D01*
X46555497Y-28162116D01*
X46549091Y-28102517D01*
X46498796Y-27967669D01*
X46498795Y-27967668D01*
X46498793Y-27967664D01*
X46412547Y-27852455D01*
X46412544Y-27852452D01*
X46297335Y-27766206D01*
X46297328Y-27766202D01*
X46162482Y-27715908D01*
X46162483Y-27715908D01*
X46102883Y-27709501D01*
X46102881Y-27709500D01*
X46102873Y-27709500D01*
X46102864Y-27709500D01*
X44657129Y-27709500D01*
X44657123Y-27709501D01*
X44597516Y-27715908D01*
X44462671Y-27766202D01*
X44462664Y-27766206D01*
X44347455Y-27852452D01*
X44347452Y-27852455D01*
X44261206Y-27967664D01*
X44261202Y-27967671D01*
X44210908Y-28102517D01*
X44204501Y-28162116D01*
X44204501Y-28162123D01*
X44204500Y-28162135D01*
X44204500Y-30257870D01*
X44204501Y-30257876D01*
X44210908Y-30317483D01*
X44261202Y-30452328D01*
X44261206Y-30452335D01*
X44347452Y-30567544D01*
X44347455Y-30567547D01*
X44462664Y-30653793D01*
X44462671Y-30653797D01*
X44597517Y-30704091D01*
X44597516Y-30704091D01*
X44604444Y-30704835D01*
X44657127Y-30710500D01*
X45480770Y-30710499D01*
X45547809Y-30730183D01*
X45593564Y-30782987D01*
X45603508Y-30852146D01*
X45585765Y-30900469D01*
X45570211Y-30925223D01*
X45539982Y-31011615D01*
X45516386Y-31079049D01*
X45513915Y-31086110D01*
X45512143Y-31085490D01*
X45483556Y-31137207D01*
X45276582Y-31344182D01*
X45215262Y-31377666D01*
X45188903Y-31380500D01*
X43161229Y-31380500D01*
X43094190Y-31360815D01*
X43073548Y-31344181D01*
X42177665Y-30448298D01*
X42144180Y-30386975D01*
X42148588Y-30325333D01*
X42147307Y-30325031D01*
X42149088Y-30317489D01*
X42149091Y-30317483D01*
X42155500Y-30257873D01*
X42155499Y-28162128D01*
X42149091Y-28102517D01*
X42098796Y-27967669D01*
X42098795Y-27967668D01*
X42098793Y-27967664D01*
X42012547Y-27852455D01*
X42012544Y-27852452D01*
X41897335Y-27766206D01*
X41897328Y-27766202D01*
X41762482Y-27715908D01*
X41762483Y-27715908D01*
X41702883Y-27709501D01*
X41702881Y-27709500D01*
X41702873Y-27709500D01*
X41702864Y-27709500D01*
X40257129Y-27709500D01*
X40257123Y-27709501D01*
X40197516Y-27715908D01*
X40062671Y-27766202D01*
X40062664Y-27766206D01*
X39947455Y-27852452D01*
X39947452Y-27852455D01*
X39861206Y-27967664D01*
X39861202Y-27967671D01*
X39810908Y-28102517D01*
X39804501Y-28162116D01*
X39804501Y-28162123D01*
X39804500Y-28162135D01*
X39804500Y-28363067D01*
X39784815Y-28430106D01*
X39732011Y-28475861D01*
X39694384Y-28486287D01*
X39588544Y-28498212D01*
X39434225Y-28552210D01*
X39295795Y-28639192D01*
X39180192Y-28754795D01*
X39093210Y-28893225D01*
X39039212Y-29047544D01*
X39020909Y-29209996D01*
X39020909Y-29210003D01*
X39039212Y-29372455D01*
X39093210Y-29526774D01*
X39173704Y-29654878D01*
X39180192Y-29665204D01*
X39295796Y-29780808D01*
X39434225Y-29867789D01*
X39588539Y-29921786D01*
X39588542Y-29921786D01*
X39588544Y-29921787D01*
X39694383Y-29933712D01*
X39758797Y-29960778D01*
X39798352Y-30018373D01*
X39804500Y-30056931D01*
X39804500Y-30257869D01*
X39804501Y-30257876D01*
X39810908Y-30317483D01*
X39861202Y-30452328D01*
X39861206Y-30452335D01*
X39947452Y-30567544D01*
X39947455Y-30567547D01*
X40062664Y-30653793D01*
X40062671Y-30653797D01*
X40197516Y-30704091D01*
X40238525Y-30708500D01*
X40257108Y-30710498D01*
X40257118Y-30710499D01*
X40257127Y-30710500D01*
X40274804Y-30710499D01*
X40341842Y-30730180D01*
X40380345Y-30769400D01*
X40387288Y-30780656D01*
X40387290Y-30780658D01*
X40391766Y-30786319D01*
X40391719Y-30786356D01*
X40396482Y-30792202D01*
X40396528Y-30792164D01*
X40401173Y-30797700D01*
X40444113Y-30838211D01*
X40457018Y-30850386D01*
X41341341Y-31734709D01*
X42223267Y-32616634D01*
X42235048Y-32630266D01*
X42249390Y-32649530D01*
X42289420Y-32683119D01*
X42293392Y-32686759D01*
X42299223Y-32692590D01*
X42312684Y-32703233D01*
X42324939Y-32712923D01*
X42350636Y-32734486D01*
X42383786Y-32762302D01*
X42383788Y-32762303D01*
X42389823Y-32766272D01*
X42389789Y-32766322D01*
X42396144Y-32770370D01*
X42396177Y-32770318D01*
X42402319Y-32774107D01*
X42402323Y-32774110D01*
X42465905Y-32803759D01*
X42471914Y-32806561D01*
X42540558Y-32841036D01*
X42540561Y-32841037D01*
X42540567Y-32841040D01*
X42540572Y-32841041D01*
X42547355Y-32843510D01*
X42547334Y-32843567D01*
X42554451Y-32846040D01*
X42554470Y-32845984D01*
X42561330Y-32848257D01*
X42636532Y-32863784D01*
X42711279Y-32881500D01*
X42711288Y-32881500D01*
X42718452Y-32882338D01*
X42718445Y-32882397D01*
X42725946Y-32883163D01*
X42725952Y-32883104D01*
X42733140Y-32883733D01*
X42733143Y-32883732D01*
X42733144Y-32883733D01*
X42809898Y-32881500D01*
X44319878Y-32881500D01*
X44386917Y-32901185D01*
X44432672Y-32953989D01*
X44442616Y-33023147D01*
X44441000Y-33031667D01*
X44434501Y-33092116D01*
X44434500Y-33092135D01*
X44434500Y-33887870D01*
X44434501Y-33887876D01*
X44440908Y-33947483D01*
X44494303Y-34090641D01*
X44492575Y-34091285D01*
X44505095Y-34148853D01*
X44493310Y-34188988D01*
X44494303Y-34189359D01*
X44443541Y-34325461D01*
X44440909Y-34332517D01*
X44434500Y-34392127D01*
X44434500Y-34392134D01*
X44434500Y-34392135D01*
X44434500Y-34887870D01*
X44434501Y-34887876D01*
X44440908Y-34947482D01*
X44452214Y-34977795D01*
X44459252Y-34996665D01*
X44459253Y-34996666D01*
X44464237Y-35066358D01*
X44459253Y-35083331D01*
X44440910Y-35132511D01*
X44440910Y-35132514D01*
X44440909Y-35132517D01*
X44434500Y-35192127D01*
X44434500Y-35192134D01*
X44434500Y-35192135D01*
X44434500Y-35687870D01*
X44434501Y-35687876D01*
X44440908Y-35747482D01*
X44454004Y-35782593D01*
X44459252Y-35796665D01*
X44459253Y-35796666D01*
X44464237Y-35866358D01*
X44459253Y-35883331D01*
X44440910Y-35932511D01*
X44440910Y-35932514D01*
X44440909Y-35932517D01*
X44434500Y-35992127D01*
X44434500Y-35992134D01*
X44434500Y-35992135D01*
X44434500Y-36487870D01*
X44434501Y-36487876D01*
X44440908Y-36547482D01*
X44451543Y-36575996D01*
X44459252Y-36596665D01*
X44459253Y-36596666D01*
X44464237Y-36666358D01*
X44459253Y-36683331D01*
X44440910Y-36732511D01*
X44440910Y-36732514D01*
X44440909Y-36732517D01*
X44434500Y-36792127D01*
X44434500Y-36792134D01*
X44434500Y-36792135D01*
X44434500Y-37287870D01*
X44434501Y-37287876D01*
X44440908Y-37347482D01*
X44450543Y-37373314D01*
X44459252Y-37396665D01*
X44459253Y-37396666D01*
X44464237Y-37466358D01*
X44459253Y-37483331D01*
X44440910Y-37532511D01*
X44440910Y-37532514D01*
X44440909Y-37532517D01*
X44434500Y-37592127D01*
X44434500Y-37592134D01*
X44434500Y-37592135D01*
X44434500Y-38087870D01*
X44434501Y-38087876D01*
X44440908Y-38147482D01*
X44452677Y-38179036D01*
X44459252Y-38196665D01*
X44459253Y-38196666D01*
X44464237Y-38266358D01*
X44459253Y-38283331D01*
X44440910Y-38332511D01*
X44440910Y-38332514D01*
X44440909Y-38332517D01*
X44434500Y-38392127D01*
X44434500Y-38392134D01*
X44434500Y-38392135D01*
X44434500Y-38887870D01*
X44434501Y-38887876D01*
X44440908Y-38947482D01*
X44459253Y-38996666D01*
X44464237Y-39066358D01*
X44459253Y-39083331D01*
X44440910Y-39132511D01*
X44440909Y-39132515D01*
X44440909Y-39132517D01*
X44434500Y-39192127D01*
X44434500Y-39192134D01*
X44434500Y-39192135D01*
X44434500Y-39687870D01*
X44434501Y-39687876D01*
X44440908Y-39747482D01*
X44459253Y-39796666D01*
X44464237Y-39866358D01*
X44459253Y-39883331D01*
X44440910Y-39932511D01*
X44440909Y-39932515D01*
X44440909Y-39932517D01*
X44434500Y-39992127D01*
X44434500Y-39992134D01*
X44434500Y-39992135D01*
X44434500Y-40487870D01*
X44434501Y-40487876D01*
X44440908Y-40547482D01*
X44446718Y-40563059D01*
X44459252Y-40596665D01*
X44459253Y-40596666D01*
X44464237Y-40666358D01*
X44459253Y-40683331D01*
X44440910Y-40732511D01*
X44440910Y-40732514D01*
X44440909Y-40732517D01*
X44434500Y-40792127D01*
X44434500Y-40792134D01*
X44434500Y-40792135D01*
X44434500Y-41287870D01*
X44434501Y-41287876D01*
X44440908Y-41347482D01*
X44451308Y-41375365D01*
X44459252Y-41396665D01*
X44459253Y-41396666D01*
X44464237Y-41466358D01*
X44459253Y-41483331D01*
X44440910Y-41532511D01*
X44440910Y-41532514D01*
X44440909Y-41532517D01*
X44434500Y-41592127D01*
X44434500Y-41592134D01*
X44434500Y-41592135D01*
X44434500Y-42087870D01*
X44434501Y-42087876D01*
X44440908Y-42147482D01*
X44447068Y-42163996D01*
X44459252Y-42196665D01*
X44459253Y-42196666D01*
X44464237Y-42266358D01*
X44459253Y-42283331D01*
X44440910Y-42332511D01*
X44440910Y-42332514D01*
X44440909Y-42332517D01*
X44434500Y-42392127D01*
X44434500Y-42392134D01*
X44434500Y-42392135D01*
X44434500Y-42887870D01*
X44434501Y-42887876D01*
X44440908Y-42947482D01*
X44454004Y-42982593D01*
X44459252Y-42996665D01*
X44459253Y-42996666D01*
X44464237Y-43066358D01*
X44459253Y-43083331D01*
X44440910Y-43132511D01*
X44440910Y-43132514D01*
X44440909Y-43132517D01*
X44434500Y-43192127D01*
X44434500Y-43192134D01*
X44434500Y-43192135D01*
X44434500Y-43687870D01*
X44434501Y-43687876D01*
X44440908Y-43747482D01*
X44452537Y-43778659D01*
X44459252Y-43796665D01*
X44459253Y-43796666D01*
X44464237Y-43866358D01*
X44459253Y-43883331D01*
X44440910Y-43932511D01*
X44440910Y-43932514D01*
X44440909Y-43932517D01*
X44434500Y-43992127D01*
X44434500Y-43992134D01*
X44434500Y-43992135D01*
X44434500Y-44487870D01*
X44434501Y-44487876D01*
X44440908Y-44547483D01*
X44494303Y-44690641D01*
X44492575Y-44691285D01*
X44505095Y-44748853D01*
X44493310Y-44788988D01*
X44494303Y-44789359D01*
X44440908Y-44932517D01*
X44434501Y-44992116D01*
X44434501Y-44992123D01*
X44434500Y-44992135D01*
X44434500Y-45787870D01*
X44434501Y-45787876D01*
X44440908Y-45847483D01*
X44491202Y-45982328D01*
X44491203Y-45982330D01*
X44559767Y-46073919D01*
X44584184Y-46139383D01*
X44584500Y-46148230D01*
X44584500Y-47803951D01*
X44584387Y-47807696D01*
X44580642Y-47869603D01*
X44580642Y-47869605D01*
X44591821Y-47930612D01*
X44592384Y-47934313D01*
X44599859Y-47995870D01*
X44599860Y-47995874D01*
X44603451Y-48005343D01*
X44609474Y-48026946D01*
X44611304Y-48036930D01*
X44636759Y-48093490D01*
X44638189Y-48096941D01*
X44660182Y-48154930D01*
X44660183Y-48154931D01*
X44665936Y-48163266D01*
X44676961Y-48182813D01*
X44681120Y-48192055D01*
X44681124Y-48192060D01*
X44688031Y-48200876D01*
X44717432Y-48238404D01*
X44719371Y-48240878D01*
X44721591Y-48243896D01*
X44756812Y-48294924D01*
X44756816Y-48294928D01*
X44756817Y-48294929D01*
X44803250Y-48336064D01*
X44805941Y-48338598D01*
X44861117Y-48393774D01*
X44912673Y-48445330D01*
X44946158Y-48506653D01*
X44948610Y-48523283D01*
X44950335Y-48545205D01*
X44995129Y-48699388D01*
X44995131Y-48699393D01*
X45000232Y-48708018D01*
X45017500Y-48771139D01*
X45017500Y-48936166D01*
X44997815Y-49003205D01*
X44945011Y-49048960D01*
X44879617Y-49059386D01*
X44831004Y-49053909D01*
X44830996Y-49053909D01*
X44668544Y-49072212D01*
X44514225Y-49126210D01*
X44375795Y-49213192D01*
X44260192Y-49328795D01*
X44173210Y-49467225D01*
X44119212Y-49621544D01*
X44100909Y-49783996D01*
X44100909Y-49784003D01*
X44119212Y-49946455D01*
X44173210Y-50100774D01*
X44231080Y-50192873D01*
X44260192Y-50239204D01*
X44375796Y-50354808D01*
X44514225Y-50441789D01*
X44668539Y-50495786D01*
X44668542Y-50495786D01*
X44668544Y-50495787D01*
X44830996Y-50514091D01*
X44831000Y-50514091D01*
X44831004Y-50514091D01*
X44993455Y-50495787D01*
X44993456Y-50495786D01*
X44993461Y-50495786D01*
X45005830Y-50491457D01*
X45046782Y-50484500D01*
X45172315Y-50484500D01*
X45235435Y-50501767D01*
X45328607Y-50556869D01*
X45369268Y-50568682D01*
X45482791Y-50601664D01*
X45482794Y-50601664D01*
X45482796Y-50601665D01*
X45494803Y-50602610D01*
X45518817Y-50604500D01*
X45518818Y-50604499D01*
X45518819Y-50604500D01*
X45784393Y-50604499D01*
X45917181Y-50604499D01*
X45924384Y-50603932D01*
X45953204Y-50601665D01*
X46107393Y-50556869D01*
X46165369Y-50522581D01*
X46233093Y-50505398D01*
X46291612Y-50522581D01*
X46348805Y-50556404D01*
X46488000Y-50596844D01*
X46488000Y-50041973D01*
X46488191Y-50037106D01*
X46488436Y-50034000D01*
X46988000Y-50034000D01*
X46988000Y-50596843D01*
X47127194Y-50556404D01*
X47265285Y-50474738D01*
X47265294Y-50474731D01*
X47378731Y-50361294D01*
X47378738Y-50361285D01*
X47460406Y-50223191D01*
X47460407Y-50223188D01*
X47505166Y-50069128D01*
X47505167Y-50069122D01*
X47507931Y-50034000D01*
X46988000Y-50034000D01*
X46488436Y-50034000D01*
X46488500Y-50033183D01*
X46488499Y-49534820D01*
X46488434Y-49534000D01*
X46988000Y-49534000D01*
X47507931Y-49534000D01*
X47505167Y-49498877D01*
X47505166Y-49498871D01*
X47460407Y-49344811D01*
X47460406Y-49344808D01*
X47378738Y-49206714D01*
X47378731Y-49206705D01*
X47281707Y-49109681D01*
X47248222Y-49048358D01*
X47253206Y-48978666D01*
X47281707Y-48934319D01*
X47378731Y-48837294D01*
X47378737Y-48837286D01*
X47454768Y-48708725D01*
X47505837Y-48661042D01*
X47574578Y-48648538D01*
X47639168Y-48675183D01*
X47668232Y-48708725D01*
X47744262Y-48837286D01*
X47744268Y-48837294D01*
X47857705Y-48950731D01*
X47857714Y-48950738D01*
X47995805Y-49032404D01*
X48135000Y-49072844D01*
X48135000Y-47447154D01*
X48134998Y-47447153D01*
X47995811Y-47487591D01*
X47995808Y-47487593D01*
X47857714Y-47569261D01*
X47857705Y-47569268D01*
X47744268Y-47682705D01*
X47744261Y-47682714D01*
X47668232Y-47811274D01*
X47617163Y-47858958D01*
X47548421Y-47871461D01*
X47483832Y-47844816D01*
X47454768Y-47811274D01*
X47378738Y-47682714D01*
X47378731Y-47682705D01*
X47265294Y-47569268D01*
X47265285Y-47569261D01*
X47127191Y-47487593D01*
X47127188Y-47487591D01*
X46988001Y-47447153D01*
X46988000Y-47447154D01*
X46988000Y-49534000D01*
X46488434Y-49534000D01*
X46488191Y-49530906D01*
X46488000Y-49526041D01*
X46488000Y-48517973D01*
X46488191Y-48513106D01*
X46488500Y-48509183D01*
X46488499Y-48010820D01*
X46488191Y-48006906D01*
X46488000Y-48002041D01*
X46488000Y-47447154D01*
X46487998Y-47447153D01*
X46348811Y-47487591D01*
X46348810Y-47487592D01*
X46291611Y-47521419D01*
X46223886Y-47538600D01*
X46165371Y-47521419D01*
X46161152Y-47518924D01*
X46107393Y-47487131D01*
X46107390Y-47487130D01*
X46074903Y-47477691D01*
X46016018Y-47440083D01*
X45986813Y-47376610D01*
X45985500Y-47358615D01*
X45985500Y-46364499D01*
X46005185Y-46297460D01*
X46057989Y-46251705D01*
X46109496Y-46240499D01*
X46482872Y-46240499D01*
X46542483Y-46234091D01*
X46591665Y-46215746D01*
X46661355Y-46210761D01*
X46678333Y-46215747D01*
X46727508Y-46234088D01*
X46727511Y-46234089D01*
X46727517Y-46234091D01*
X46787127Y-46240500D01*
X47282872Y-46240499D01*
X47342483Y-46234091D01*
X47392382Y-46215479D01*
X47462069Y-46210494D01*
X47479048Y-46215479D01*
X47527628Y-46233598D01*
X47527627Y-46233598D01*
X47587155Y-46239999D01*
X47587172Y-46240000D01*
X47635000Y-46240000D01*
X47635000Y-46082106D01*
X47654685Y-46015067D01*
X47659734Y-46007794D01*
X47678796Y-45982331D01*
X47705865Y-45909757D01*
X47718818Y-45875027D01*
X47760689Y-45819093D01*
X47826153Y-45794676D01*
X47894426Y-45809527D01*
X47943832Y-45858932D01*
X47951182Y-45875027D01*
X47964135Y-45909757D01*
X47991204Y-45982331D01*
X48010266Y-46007794D01*
X48034684Y-46073258D01*
X48035000Y-46082106D01*
X48035000Y-46240000D01*
X48082828Y-46240000D01*
X48082844Y-46239999D01*
X48142372Y-46233598D01*
X48142375Y-46233597D01*
X48190949Y-46215480D01*
X48260640Y-46210494D01*
X48277610Y-46215477D01*
X48327517Y-46234091D01*
X48387127Y-46240500D01*
X48655501Y-46240499D01*
X48722539Y-46260183D01*
X48768294Y-46312987D01*
X48779500Y-46364499D01*
X48779500Y-47323982D01*
X48759815Y-47391021D01*
X48707011Y-47436776D01*
X48637853Y-47446720D01*
X48636087Y-47446338D01*
X48635000Y-47447154D01*
X48635000Y-48002025D01*
X48634809Y-48006889D01*
X48634500Y-48010816D01*
X48634500Y-48010817D01*
X48634501Y-48509182D01*
X48634809Y-48513091D01*
X48635000Y-48517958D01*
X48635000Y-49072843D01*
X48645905Y-49069676D01*
X48715775Y-49069876D01*
X48774445Y-49107819D01*
X48803288Y-49171457D01*
X48804500Y-49188753D01*
X48804500Y-49215034D01*
X48803969Y-49223132D01*
X48802116Y-49237209D01*
X48799318Y-49258462D01*
X48799318Y-49258463D01*
X48815469Y-49381141D01*
X48819955Y-49415222D01*
X48819956Y-49415225D01*
X48869015Y-49533665D01*
X48880464Y-49561304D01*
X48976718Y-49686745D01*
X49004995Y-49708443D01*
X49011085Y-49713783D01*
X49560410Y-50263108D01*
X50095206Y-50797904D01*
X50100559Y-50804007D01*
X50122255Y-50832283D01*
X50173501Y-50871604D01*
X50247696Y-50928536D01*
X50247699Y-50928537D01*
X50247700Y-50928538D01*
X50278245Y-50941190D01*
X50393775Y-50989044D01*
X50472156Y-50999363D01*
X50550536Y-51009682D01*
X50550537Y-51009682D01*
X50585866Y-51005030D01*
X50593965Y-51004500D01*
X53692572Y-51004500D01*
X53700670Y-51005030D01*
X53736000Y-51009682D01*
X53736001Y-51009682D01*
X53788254Y-51002802D01*
X53892762Y-50989044D01*
X54038841Y-50928536D01*
X54113036Y-50871604D01*
X54164282Y-50832282D01*
X54185983Y-50803999D01*
X54191311Y-50797922D01*
X54953233Y-50036000D01*
X56357156Y-50036000D01*
X56397595Y-50175194D01*
X56479261Y-50313285D01*
X56479268Y-50313294D01*
X56592705Y-50426731D01*
X56592714Y-50426738D01*
X56730808Y-50508406D01*
X56730811Y-50508407D01*
X56884871Y-50553166D01*
X56884877Y-50553167D01*
X56920000Y-50555931D01*
X56920000Y-50036000D01*
X57420000Y-50036000D01*
X57420000Y-50555930D01*
X57455122Y-50553167D01*
X57455128Y-50553166D01*
X57609188Y-50508407D01*
X57609191Y-50508406D01*
X57747285Y-50426738D01*
X57747294Y-50426731D01*
X57860731Y-50313294D01*
X57860738Y-50313285D01*
X57942404Y-50175194D01*
X57982844Y-50036000D01*
X57420000Y-50036000D01*
X56920000Y-50036000D01*
X56357156Y-50036000D01*
X54953233Y-50036000D01*
X55031233Y-49958000D01*
X58585000Y-49958000D01*
X58585000Y-50080844D01*
X58591401Y-50140372D01*
X58591403Y-50140379D01*
X58641645Y-50275086D01*
X58641649Y-50275093D01*
X58727809Y-50390187D01*
X58727812Y-50390190D01*
X58842906Y-50476350D01*
X58842913Y-50476354D01*
X58977620Y-50526596D01*
X58977627Y-50526598D01*
X59037155Y-50532999D01*
X59037172Y-50533000D01*
X59460000Y-50533000D01*
X59460000Y-49958000D01*
X59960000Y-49958000D01*
X59960000Y-50533000D01*
X60382828Y-50533000D01*
X60382844Y-50532999D01*
X60442372Y-50526598D01*
X60442379Y-50526596D01*
X60577086Y-50476354D01*
X60577093Y-50476350D01*
X60692187Y-50390190D01*
X60692190Y-50390187D01*
X60778350Y-50275093D01*
X60778354Y-50275086D01*
X60828596Y-50140379D01*
X60828598Y-50140372D01*
X60834999Y-50080844D01*
X60835000Y-50080827D01*
X60835000Y-49958000D01*
X59960000Y-49958000D01*
X59460000Y-49958000D01*
X58585000Y-49958000D01*
X55031233Y-49958000D01*
X55641003Y-49348230D01*
X55702324Y-49314747D01*
X55772016Y-49319731D01*
X55799708Y-49335408D01*
X55799900Y-49335103D01*
X55805795Y-49338807D01*
X55805796Y-49338808D01*
X55944225Y-49425789D01*
X56098539Y-49479786D01*
X56098542Y-49479786D01*
X56098544Y-49479787D01*
X56260996Y-49498091D01*
X56266733Y-49498091D01*
X56333772Y-49517776D01*
X56353375Y-49536000D01*
X56912026Y-49536000D01*
X56916891Y-49536191D01*
X56920816Y-49536500D01*
X56920817Y-49536500D01*
X56920818Y-49536499D01*
X56920819Y-49536500D01*
X57419180Y-49536499D01*
X57423096Y-49536190D01*
X57427959Y-49536000D01*
X57982844Y-49536000D01*
X57942404Y-49396805D01*
X57908581Y-49339612D01*
X57891398Y-49271888D01*
X57908582Y-49213369D01*
X57917765Y-49197841D01*
X57942869Y-49155393D01*
X57977494Y-49036213D01*
X57987664Y-49001208D01*
X57987665Y-49001202D01*
X57990500Y-48965183D01*
X57990499Y-48566819D01*
X57989218Y-48550535D01*
X57987665Y-48530796D01*
X57942869Y-48376607D01*
X57861135Y-48238402D01*
X57861133Y-48238400D01*
X57861130Y-48238396D01*
X57823604Y-48200870D01*
X58584500Y-48200870D01*
X58584501Y-48200876D01*
X58590908Y-48260483D01*
X58641202Y-48395328D01*
X58641206Y-48395335D01*
X58727452Y-48510544D01*
X58727455Y-48510547D01*
X58842664Y-48596793D01*
X58842671Y-48596797D01*
X58977511Y-48647089D01*
X58977512Y-48647089D01*
X58977517Y-48647091D01*
X58977521Y-48647091D01*
X58979593Y-48647581D01*
X58981041Y-48648405D01*
X58984785Y-48649802D01*
X58984558Y-48650408D01*
X59040310Y-48682153D01*
X59072697Y-48744063D01*
X59066473Y-48813655D01*
X59023612Y-48868834D01*
X58984836Y-48886542D01*
X58984892Y-48886691D01*
X58982817Y-48887464D01*
X58979596Y-48888936D01*
X58977622Y-48889402D01*
X58842913Y-48939645D01*
X58842906Y-48939649D01*
X58727812Y-49025809D01*
X58727809Y-49025812D01*
X58641649Y-49140906D01*
X58641645Y-49140913D01*
X58591403Y-49275620D01*
X58591401Y-49275627D01*
X58585000Y-49335155D01*
X58585000Y-49458000D01*
X60835000Y-49458000D01*
X60835000Y-49335172D01*
X60834999Y-49335155D01*
X60828598Y-49275627D01*
X60828596Y-49275620D01*
X60778354Y-49140913D01*
X60778350Y-49140906D01*
X60692190Y-49025812D01*
X60692187Y-49025809D01*
X60577093Y-48939649D01*
X60577086Y-48939645D01*
X60442377Y-48889402D01*
X60440404Y-48888936D01*
X60439031Y-48888154D01*
X60435108Y-48886691D01*
X60435345Y-48886055D01*
X60379688Y-48854362D01*
X60347302Y-48792452D01*
X60353529Y-48722860D01*
X60396391Y-48667682D01*
X60435262Y-48649930D01*
X60435215Y-48649802D01*
X60437007Y-48649133D01*
X60440407Y-48647581D01*
X60442476Y-48647091D01*
X60442483Y-48647091D01*
X60577331Y-48596796D01*
X60692546Y-48510546D01*
X60778796Y-48395331D01*
X60829091Y-48260483D01*
X60835500Y-48200873D01*
X60835499Y-47455128D01*
X60829091Y-47395517D01*
X60828164Y-47393032D01*
X60778797Y-47260671D01*
X60778793Y-47260664D01*
X60692547Y-47145455D01*
X60692544Y-47145452D01*
X60577335Y-47059206D01*
X60577328Y-47059202D01*
X60442482Y-47008908D01*
X60442483Y-47008908D01*
X60382883Y-47002501D01*
X60382881Y-47002500D01*
X60382873Y-47002500D01*
X60382864Y-47002500D01*
X59037129Y-47002500D01*
X59037123Y-47002501D01*
X58977516Y-47008908D01*
X58842671Y-47059202D01*
X58842664Y-47059206D01*
X58727455Y-47145452D01*
X58727452Y-47145455D01*
X58641206Y-47260664D01*
X58641202Y-47260671D01*
X58590910Y-47395513D01*
X58590909Y-47395517D01*
X58584500Y-47455127D01*
X58584500Y-47455134D01*
X58584500Y-47455135D01*
X58584500Y-48200870D01*
X57823604Y-48200870D01*
X57747603Y-48124869D01*
X57747595Y-48124863D01*
X57609393Y-48043131D01*
X57609388Y-48043129D01*
X57455208Y-47998335D01*
X57455202Y-47998334D01*
X57419183Y-47995500D01*
X57419181Y-47995500D01*
X57293096Y-47995500D01*
X57226057Y-47975815D01*
X57180302Y-47923011D01*
X57170358Y-47853853D01*
X57199383Y-47790297D01*
X57205415Y-47783819D01*
X57502104Y-47487130D01*
X57814914Y-47174319D01*
X57820999Y-47168983D01*
X57849282Y-47147282D01*
X57945536Y-47021841D01*
X58006044Y-46875762D01*
X58021500Y-46758361D01*
X58026682Y-46719000D01*
X58022030Y-46683669D01*
X58021500Y-46675571D01*
X58021500Y-42746500D01*
X59718000Y-42746500D01*
X59718000Y-43149644D01*
X59720899Y-43186489D01*
X59720900Y-43186495D01*
X59766716Y-43344193D01*
X59766717Y-43344196D01*
X59850314Y-43485552D01*
X59850321Y-43485561D01*
X59966438Y-43601678D01*
X59966447Y-43601685D01*
X60107801Y-43685281D01*
X60265514Y-43731100D01*
X60265511Y-43731100D01*
X60267998Y-43731295D01*
X60268000Y-43731295D01*
X60268000Y-42746500D01*
X59718000Y-42746500D01*
X58021500Y-42746500D01*
X58021500Y-42471651D01*
X58041185Y-42404612D01*
X58093989Y-42358857D01*
X58163147Y-42348913D01*
X58208622Y-42364920D01*
X58234806Y-42380405D01*
X58234811Y-42380407D01*
X58388871Y-42425166D01*
X58388877Y-42425167D01*
X58424000Y-42427931D01*
X58424000Y-41908000D01*
X58924000Y-41908000D01*
X58924000Y-42427930D01*
X58959122Y-42425167D01*
X58959128Y-42425166D01*
X59113188Y-42380407D01*
X59113191Y-42380406D01*
X59251285Y-42298738D01*
X59251294Y-42298731D01*
X59364731Y-42185294D01*
X59364738Y-42185285D01*
X59446405Y-42047193D01*
X59474923Y-41949034D01*
X59494563Y-41918280D01*
X59486845Y-41908000D01*
X58924000Y-41908000D01*
X58424000Y-41908000D01*
X58424000Y-41532499D01*
X58443685Y-41465460D01*
X58496489Y-41419705D01*
X58547996Y-41408499D01*
X58923180Y-41408499D01*
X58927096Y-41408190D01*
X58931959Y-41408000D01*
X59486844Y-41408000D01*
X59483676Y-41397095D01*
X59483876Y-41327225D01*
X59521819Y-41268555D01*
X59585457Y-41239712D01*
X59602753Y-41238500D01*
X59794520Y-41238500D01*
X59802620Y-41239031D01*
X59832656Y-41242985D01*
X59896553Y-41271250D01*
X59935025Y-41329573D01*
X59935858Y-41399438D01*
X59904155Y-41453605D01*
X59850318Y-41507442D01*
X59850314Y-41507447D01*
X59766717Y-41648803D01*
X59766716Y-41648806D01*
X59720900Y-41806504D01*
X59720899Y-41806510D01*
X59718000Y-41843356D01*
X59718000Y-41844195D01*
X59698315Y-41911234D01*
X59695293Y-41913852D01*
X59698123Y-41916290D01*
X59717999Y-41983273D01*
X59718000Y-41983628D01*
X59718000Y-42246500D01*
X60268000Y-42246500D01*
X60268000Y-41261702D01*
X60259733Y-41254064D01*
X60223855Y-41194110D01*
X60226086Y-41124276D01*
X60261420Y-41072973D01*
X60260480Y-41072033D01*
X60265583Y-41066928D01*
X60265718Y-41066734D01*
X60266005Y-41066507D01*
X60266226Y-41066286D01*
X60266227Y-41066283D01*
X60266230Y-41066282D01*
X60287932Y-41037998D01*
X60293266Y-41031915D01*
X60455822Y-40869360D01*
X60517142Y-40835878D01*
X60586834Y-40840862D01*
X60642767Y-40882734D01*
X60667184Y-40948198D01*
X60667500Y-40957044D01*
X60667500Y-41039196D01*
X60670401Y-41076067D01*
X60670402Y-41076073D01*
X60716254Y-41233893D01*
X60716255Y-41233896D01*
X60716256Y-41233898D01*
X60750732Y-41292194D01*
X60768000Y-41355314D01*
X60768000Y-42246500D01*
X61318000Y-42246500D01*
X61318000Y-41843356D01*
X61315100Y-41806510D01*
X61308152Y-41782594D01*
X61308352Y-41712725D01*
X61346295Y-41654055D01*
X61409933Y-41625212D01*
X61427229Y-41624000D01*
X61508251Y-41624000D01*
X61575290Y-41643685D01*
X61621045Y-41696489D01*
X61630989Y-41765647D01*
X61627327Y-41782592D01*
X61625456Y-41789035D01*
X61620402Y-41806430D01*
X61620401Y-41806432D01*
X61617500Y-41843304D01*
X61617500Y-43009500D01*
X61597815Y-43076539D01*
X61545011Y-43122294D01*
X61493500Y-43133500D01*
X61442000Y-43133500D01*
X61374961Y-43113815D01*
X61329206Y-43061011D01*
X61318000Y-43009500D01*
X61318000Y-42746500D01*
X60768000Y-42746500D01*
X60768000Y-43402184D01*
X60750733Y-43465304D01*
X60716254Y-43523605D01*
X60716254Y-43523606D01*
X60670402Y-43681426D01*
X60670401Y-43681432D01*
X60667500Y-43718304D01*
X60667500Y-45024696D01*
X60670401Y-45061567D01*
X60670402Y-45061573D01*
X60716254Y-45219393D01*
X60716255Y-45219396D01*
X60799917Y-45360862D01*
X60799923Y-45360870D01*
X60916129Y-45477076D01*
X60916133Y-45477079D01*
X60916135Y-45477081D01*
X61057602Y-45560744D01*
X61090184Y-45570210D01*
X61215426Y-45606597D01*
X61215429Y-45606597D01*
X61215431Y-45606598D01*
X61227722Y-45607565D01*
X61252304Y-45609500D01*
X61252306Y-45609500D01*
X61683696Y-45609500D01*
X61702131Y-45608049D01*
X61720569Y-45606598D01*
X61720571Y-45606597D01*
X61720573Y-45606597D01*
X61771645Y-45591759D01*
X61878398Y-45560744D01*
X62019865Y-45477081D01*
X62136081Y-45360865D01*
X62219744Y-45219398D01*
X62250148Y-45114748D01*
X62265646Y-45061405D01*
X62303252Y-45002519D01*
X62366725Y-44973313D01*
X62384722Y-44972000D01*
X63134256Y-44972000D01*
X63201295Y-44991685D01*
X63231296Y-45022822D01*
X63233085Y-45021435D01*
X63237869Y-45027603D01*
X63351396Y-45141130D01*
X63351399Y-45141132D01*
X63351402Y-45141135D01*
X63489607Y-45222869D01*
X63489614Y-45222871D01*
X63643791Y-45267664D01*
X63643794Y-45267664D01*
X63643796Y-45267665D01*
X63655803Y-45268610D01*
X63679817Y-45270500D01*
X63679818Y-45270499D01*
X63679819Y-45270500D01*
X63945393Y-45270499D01*
X64078181Y-45270499D01*
X64085384Y-45269932D01*
X64114204Y-45267665D01*
X64268393Y-45222869D01*
X64325882Y-45188869D01*
X64393602Y-45171688D01*
X64452117Y-45188869D01*
X64509607Y-45222869D01*
X64509610Y-45222869D01*
X64509612Y-45222871D01*
X64663791Y-45267664D01*
X64663794Y-45267664D01*
X64663796Y-45267665D01*
X64675803Y-45268610D01*
X64699817Y-45270500D01*
X64699818Y-45270499D01*
X64699819Y-45270500D01*
X64965393Y-45270499D01*
X65098181Y-45270499D01*
X65101015Y-45270275D01*
X65134204Y-45267665D01*
X65288393Y-45222869D01*
X65426598Y-45141135D01*
X65442607Y-45125125D01*
X65503928Y-45091639D01*
X65573620Y-45096622D01*
X65595798Y-45107583D01*
X65596221Y-45107787D01*
X65596225Y-45107789D01*
X65750539Y-45161786D01*
X65750542Y-45161786D01*
X65750544Y-45161787D01*
X65912996Y-45180091D01*
X65913000Y-45180091D01*
X65913004Y-45180091D01*
X66075455Y-45161787D01*
X66075456Y-45161786D01*
X66075461Y-45161786D01*
X66229775Y-45107789D01*
X66368204Y-45020808D01*
X66483808Y-44905204D01*
X66570789Y-44766775D01*
X66624786Y-44612461D01*
X66624787Y-44612455D01*
X66643091Y-44450003D01*
X66643091Y-44449996D01*
X66624787Y-44287544D01*
X66624786Y-44287542D01*
X66624786Y-44287539D01*
X66570789Y-44133225D01*
X66483808Y-43994796D01*
X66368204Y-43879192D01*
X66329531Y-43854892D01*
X66229774Y-43792210D01*
X66075455Y-43738212D01*
X65913004Y-43719909D01*
X65912996Y-43719909D01*
X65750544Y-43738212D01*
X65596220Y-43792212D01*
X65589953Y-43795231D01*
X65589419Y-43794123D01*
X65529013Y-43811187D01*
X65462180Y-43790814D01*
X65442606Y-43774873D01*
X65426602Y-43758869D01*
X65426598Y-43758865D01*
X65407360Y-43747488D01*
X65288393Y-43677131D01*
X65288388Y-43677129D01*
X65134208Y-43632335D01*
X65134202Y-43632334D01*
X65098183Y-43629500D01*
X65098181Y-43629500D01*
X64832607Y-43629500D01*
X64699819Y-43629501D01*
X64663794Y-43632335D01*
X64509611Y-43677129D01*
X64509604Y-43677132D01*
X64452119Y-43711128D01*
X64384395Y-43728309D01*
X64325881Y-43711128D01*
X64268395Y-43677132D01*
X64268388Y-43677129D01*
X64114208Y-43632335D01*
X64114202Y-43632334D01*
X64078183Y-43629500D01*
X64078181Y-43629500D01*
X63812607Y-43629500D01*
X63679819Y-43629501D01*
X63643794Y-43632335D01*
X63489611Y-43677129D01*
X63489605Y-43677131D01*
X63360081Y-43753732D01*
X63296960Y-43771000D01*
X63100309Y-43771000D01*
X63033270Y-43751315D01*
X62987515Y-43698511D01*
X62977571Y-43629353D01*
X63006596Y-43565797D01*
X63012628Y-43559319D01*
X63086076Y-43485870D01*
X63086081Y-43485865D01*
X63169744Y-43344398D01*
X63199679Y-43241362D01*
X63215646Y-43186405D01*
X63253252Y-43127519D01*
X63316725Y-43098313D01*
X63334722Y-43097000D01*
X63380072Y-43097000D01*
X63388170Y-43097530D01*
X63423500Y-43102182D01*
X63423501Y-43102182D01*
X63483233Y-43094318D01*
X63580262Y-43081544D01*
X63726341Y-43021036D01*
X63737414Y-43012539D01*
X63745911Y-43006020D01*
X63777036Y-42982136D01*
X63851782Y-42924782D01*
X63873480Y-42896505D01*
X63878818Y-42890416D01*
X64050416Y-42718817D01*
X64111739Y-42685333D01*
X64138097Y-42682499D01*
X64257180Y-42682499D01*
X64293204Y-42679665D01*
X64447393Y-42634869D01*
X64585598Y-42553135D01*
X64699135Y-42439598D01*
X64780869Y-42301393D01*
X64819103Y-42169791D01*
X64825664Y-42147208D01*
X64825665Y-42147202D01*
X64828500Y-42111183D01*
X64828499Y-41712819D01*
X64826950Y-41693129D01*
X64825665Y-41676796D01*
X64780869Y-41522607D01*
X64746869Y-41465117D01*
X64729688Y-41397398D01*
X64746869Y-41338882D01*
X64780869Y-41281393D01*
X64781665Y-41278655D01*
X64825664Y-41127208D01*
X64825665Y-41127202D01*
X64828500Y-41091183D01*
X64828499Y-40692819D01*
X64827753Y-40683334D01*
X64825665Y-40656796D01*
X64780869Y-40502607D01*
X64710725Y-40384000D01*
X68910156Y-40384000D01*
X68950595Y-40523194D01*
X69032261Y-40661285D01*
X69032268Y-40661294D01*
X69145705Y-40774731D01*
X69145714Y-40774738D01*
X69283808Y-40856406D01*
X69283811Y-40856407D01*
X69437871Y-40901166D01*
X69437877Y-40901167D01*
X69473000Y-40903931D01*
X69473000Y-40903930D01*
X69973000Y-40903930D01*
X70008122Y-40901167D01*
X70008125Y-40901166D01*
X70090404Y-40877262D01*
X70160274Y-40877461D01*
X70218944Y-40915403D01*
X70247788Y-40979041D01*
X70249000Y-40996338D01*
X70249000Y-41001000D01*
X70624500Y-41001000D01*
X70691539Y-41020685D01*
X70737294Y-41073489D01*
X70748500Y-41124938D01*
X70748501Y-41126938D01*
X70728850Y-41193987D01*
X70676069Y-41239769D01*
X70624501Y-41251000D01*
X70249000Y-41251000D01*
X70249000Y-41448844D01*
X70255401Y-41508372D01*
X70255402Y-41508376D01*
X70274411Y-41559343D01*
X70279394Y-41629035D01*
X70245912Y-41690353D01*
X70222870Y-41713396D01*
X70222861Y-41713407D01*
X70141131Y-41851606D01*
X70141129Y-41851611D01*
X70096335Y-42005791D01*
X70096334Y-42005797D01*
X70093500Y-42041817D01*
X70093501Y-42540181D01*
X70096335Y-42576205D01*
X70141129Y-42730388D01*
X70141131Y-42730393D01*
X70222863Y-42868595D01*
X70222869Y-42868603D01*
X70336396Y-42982130D01*
X70336400Y-42982133D01*
X70336402Y-42982135D01*
X70474607Y-43063869D01*
X70488203Y-43067819D01*
X70628791Y-43108664D01*
X70628794Y-43108664D01*
X70628796Y-43108665D01*
X70640803Y-43109610D01*
X70664817Y-43111500D01*
X70664818Y-43111499D01*
X70664819Y-43111500D01*
X70930393Y-43111499D01*
X71063180Y-43111499D01*
X71086953Y-43109628D01*
X71155327Y-43123992D01*
X71205084Y-43173044D01*
X71220423Y-43241209D01*
X71213721Y-43274199D01*
X71170212Y-43398543D01*
X71151909Y-43560996D01*
X71151909Y-43561003D01*
X71170212Y-43723455D01*
X71224210Y-43877774D01*
X71285274Y-43974956D01*
X71311192Y-44016204D01*
X71426796Y-44131808D01*
X71565225Y-44218789D01*
X71719539Y-44272786D01*
X71719542Y-44272786D01*
X71719544Y-44272787D01*
X71881996Y-44291091D01*
X71882000Y-44291091D01*
X71882004Y-44291091D01*
X72044455Y-44272787D01*
X72044456Y-44272786D01*
X72044461Y-44272786D01*
X72198775Y-44218789D01*
X72337204Y-44131808D01*
X72452808Y-44016204D01*
X72539789Y-43877775D01*
X72593786Y-43723461D01*
X72593787Y-43723455D01*
X72612091Y-43561003D01*
X72612091Y-43560996D01*
X72593787Y-43398544D01*
X72593786Y-43398542D01*
X72593786Y-43398539D01*
X72552525Y-43280622D01*
X72539789Y-43244224D01*
X72503506Y-43186480D01*
X72484500Y-43120508D01*
X72484500Y-42960595D01*
X72504185Y-42893556D01*
X72520818Y-42872914D01*
X72525135Y-42868598D01*
X72606869Y-42730393D01*
X72642753Y-42606881D01*
X72651664Y-42576208D01*
X72651664Y-42576206D01*
X72651665Y-42576204D01*
X72654500Y-42540181D01*
X72654499Y-42041820D01*
X72651665Y-42005796D01*
X72606869Y-41851607D01*
X72525135Y-41713402D01*
X72525133Y-41713400D01*
X72525130Y-41713396D01*
X72510819Y-41699085D01*
X72477334Y-41637762D01*
X72474500Y-41611404D01*
X72474500Y-41580700D01*
X72482318Y-41537366D01*
X72484134Y-41532499D01*
X72493091Y-41508483D01*
X72499500Y-41448873D01*
X72499499Y-40996481D01*
X72519183Y-40929444D01*
X72571987Y-40883689D01*
X72641146Y-40873745D01*
X72658095Y-40877407D01*
X72739874Y-40901166D01*
X72739877Y-40901167D01*
X72775000Y-40903931D01*
X72775000Y-40384000D01*
X73275000Y-40384000D01*
X73275000Y-40903930D01*
X73310122Y-40901167D01*
X73310128Y-40901166D01*
X73464188Y-40856407D01*
X73464191Y-40856406D01*
X73602285Y-40774738D01*
X73602294Y-40774731D01*
X73715731Y-40661294D01*
X73715738Y-40661285D01*
X73797404Y-40523194D01*
X73837844Y-40384000D01*
X73275000Y-40384000D01*
X72775000Y-40384000D01*
X72201490Y-40384000D01*
X72158157Y-40376182D01*
X72106486Y-40356910D01*
X72106485Y-40356909D01*
X72106483Y-40356909D01*
X72046873Y-40350500D01*
X72046863Y-40350500D01*
X71701130Y-40350500D01*
X71701120Y-40350501D01*
X71637248Y-40357367D01*
X71610742Y-40357367D01*
X71606483Y-40356909D01*
X71546873Y-40350500D01*
X71546865Y-40350500D01*
X71201130Y-40350500D01*
X71201125Y-40350501D01*
X71153160Y-40355657D01*
X71141517Y-40356909D01*
X71141516Y-40356909D01*
X71134904Y-40357620D01*
X71108393Y-40357619D01*
X71046842Y-40351000D01*
X70999000Y-40351000D01*
X70998948Y-40351051D01*
X70979315Y-40417914D01*
X70949305Y-40450146D01*
X70947305Y-40451643D01*
X70881839Y-40476057D01*
X70813567Y-40461201D01*
X70764164Y-40411793D01*
X70749000Y-40352372D01*
X70749000Y-40351000D01*
X70701155Y-40351000D01*
X70641627Y-40357401D01*
X70641619Y-40357403D01*
X70591271Y-40376182D01*
X70547938Y-40384000D01*
X69973000Y-40384000D01*
X69973000Y-40903930D01*
X69473000Y-40903930D01*
X69473000Y-40384000D01*
X68910156Y-40384000D01*
X64710725Y-40384000D01*
X64699135Y-40364402D01*
X64699133Y-40364400D01*
X64699130Y-40364396D01*
X64585603Y-40250869D01*
X64585595Y-40250863D01*
X64447393Y-40169131D01*
X64447388Y-40169129D01*
X64293208Y-40124335D01*
X64293202Y-40124334D01*
X64257183Y-40121500D01*
X64257181Y-40121500D01*
X63924940Y-40121500D01*
X63758819Y-40121501D01*
X63722794Y-40124335D01*
X63568611Y-40169129D01*
X63568606Y-40169131D01*
X63430404Y-40250863D01*
X63430396Y-40250869D01*
X63426085Y-40255181D01*
X63364762Y-40288666D01*
X63338404Y-40291500D01*
X62392500Y-40291500D01*
X62325461Y-40271815D01*
X62279706Y-40219011D01*
X62268500Y-40167500D01*
X62268500Y-39873000D01*
X62288185Y-39805961D01*
X62340989Y-39760206D01*
X62392500Y-39749000D01*
X62633696Y-39749000D01*
X62652983Y-39747482D01*
X62670569Y-39746098D01*
X62670571Y-39746097D01*
X62670573Y-39746097D01*
X62727059Y-39729686D01*
X62828398Y-39700244D01*
X62969865Y-39616581D01*
X63086081Y-39500365D01*
X63169744Y-39358898D01*
X63203783Y-39241736D01*
X63215597Y-39201073D01*
X63215598Y-39201067D01*
X63218500Y-39164196D01*
X63218500Y-37857804D01*
X63215598Y-37820932D01*
X63215597Y-37820929D01*
X63211452Y-37806663D01*
X63203756Y-37780170D01*
X63203955Y-37710303D01*
X63241896Y-37651632D01*
X63305534Y-37622788D01*
X63322832Y-37621576D01*
X64408496Y-37621576D01*
X64416594Y-37622106D01*
X64451924Y-37626758D01*
X64451925Y-37626758D01*
X64504178Y-37619878D01*
X64608686Y-37606120D01*
X64754765Y-37545612D01*
X64778011Y-37527775D01*
X64865034Y-37461000D01*
X67935069Y-37461000D01*
X67937832Y-37496122D01*
X67937833Y-37496128D01*
X67982592Y-37650188D01*
X67982593Y-37650191D01*
X68064261Y-37788285D01*
X68064268Y-37788294D01*
X68177705Y-37901731D01*
X68177714Y-37901738D01*
X68315808Y-37983406D01*
X68341682Y-37990923D01*
X68400569Y-38028528D01*
X68429777Y-38092000D01*
X68420032Y-38161186D01*
X68374430Y-38214122D01*
X68373063Y-38214993D01*
X68251798Y-38291190D01*
X68251795Y-38291192D01*
X68136192Y-38406795D01*
X68049210Y-38545225D01*
X67995212Y-38699544D01*
X67976909Y-38861996D01*
X67976909Y-38862003D01*
X67995212Y-39024455D01*
X68049210Y-39178774D01*
X68122740Y-39295796D01*
X68136192Y-39317204D01*
X68251796Y-39432808D01*
X68390225Y-39519789D01*
X68544539Y-39573786D01*
X68544540Y-39573786D01*
X68544543Y-39573787D01*
X68551326Y-39575335D01*
X68550935Y-39577047D01*
X68603812Y-39598368D01*
X68636415Y-39623386D01*
X68656159Y-39638536D01*
X68802238Y-39699044D01*
X68814750Y-39700691D01*
X68878647Y-39728956D01*
X68917119Y-39787280D01*
X68917952Y-39857145D01*
X68917644Y-39858224D01*
X68910155Y-39883999D01*
X68910155Y-39884000D01*
X69465026Y-39884000D01*
X69469891Y-39884191D01*
X69473816Y-39884500D01*
X69473817Y-39884500D01*
X69473818Y-39884499D01*
X69473819Y-39884500D01*
X69972180Y-39884499D01*
X69976096Y-39884190D01*
X69980959Y-39884000D01*
X70535844Y-39884000D01*
X70495404Y-39744805D01*
X70461581Y-39687612D01*
X70444398Y-39619888D01*
X70461582Y-39561369D01*
X70463053Y-39558882D01*
X70495869Y-39503393D01*
X70540377Y-39350195D01*
X70540664Y-39349208D01*
X70540664Y-39349206D01*
X70540665Y-39349204D01*
X70542785Y-39322268D01*
X70543500Y-39313185D01*
X70543500Y-39295796D01*
X70543499Y-39272598D01*
X70563182Y-39205561D01*
X70615985Y-39159805D01*
X70680753Y-39149309D01*
X70701127Y-39151500D01*
X71046872Y-39151499D01*
X71106483Y-39145091D01*
X71106486Y-39145089D01*
X71110744Y-39144632D01*
X71137254Y-39144632D01*
X71141514Y-39145089D01*
X71141517Y-39145091D01*
X71201127Y-39151500D01*
X71546872Y-39151499D01*
X71606483Y-39145091D01*
X71606486Y-39145089D01*
X71610744Y-39144632D01*
X71637254Y-39144632D01*
X71641514Y-39145089D01*
X71641517Y-39145091D01*
X71701127Y-39151500D01*
X72046872Y-39151499D01*
X72046879Y-39151498D01*
X72046882Y-39151498D01*
X72051094Y-39151045D01*
X72067242Y-39149309D01*
X72136002Y-39161713D01*
X72187140Y-39209322D01*
X72204500Y-39272595D01*
X72204501Y-39313180D01*
X72204501Y-39313181D01*
X72207335Y-39349205D01*
X72252129Y-39503388D01*
X72252130Y-39503391D01*
X72286419Y-39561371D01*
X72303601Y-39629095D01*
X72286419Y-39687611D01*
X72252594Y-39744806D01*
X72212156Y-39884000D01*
X72767026Y-39884000D01*
X72771891Y-39884191D01*
X72775816Y-39884500D01*
X72775817Y-39884500D01*
X72775818Y-39884499D01*
X72775819Y-39884500D01*
X73274180Y-39884499D01*
X73278096Y-39884190D01*
X73282959Y-39884000D01*
X73837844Y-39884000D01*
X73830356Y-39858226D01*
X73830555Y-39788356D01*
X73868497Y-39729686D01*
X73932135Y-39700842D01*
X73932987Y-39700725D01*
X73945762Y-39699044D01*
X74091841Y-39638536D01*
X74111585Y-39623386D01*
X74117837Y-39618589D01*
X74126135Y-39612221D01*
X74144186Y-39598369D01*
X74197064Y-39577048D01*
X74196674Y-39575335D01*
X74203456Y-39573787D01*
X74203457Y-39573786D01*
X74203461Y-39573786D01*
X74357775Y-39519789D01*
X74496204Y-39432808D01*
X74611808Y-39317204D01*
X74698789Y-39178775D01*
X74752786Y-39024461D01*
X74753056Y-39022065D01*
X74771091Y-38862003D01*
X74771091Y-38861996D01*
X74752787Y-38699544D01*
X74752786Y-38699542D01*
X74752786Y-38699539D01*
X74698789Y-38545225D01*
X74611808Y-38406796D01*
X74496204Y-38291192D01*
X74414733Y-38240000D01*
X74357774Y-38204210D01*
X74203455Y-38150212D01*
X74041004Y-38131909D01*
X74040996Y-38131909D01*
X73878544Y-38150212D01*
X73724225Y-38204210D01*
X73585792Y-38291194D01*
X73532877Y-38344109D01*
X73471554Y-38377593D01*
X73410602Y-38375503D01*
X73310208Y-38346335D01*
X73310202Y-38346334D01*
X73274183Y-38343500D01*
X73274181Y-38343500D01*
X73155097Y-38343500D01*
X73088058Y-38323815D01*
X73067416Y-38307181D01*
X72887481Y-38127246D01*
X72853996Y-38065923D01*
X72858980Y-37996231D01*
X72900852Y-37940298D01*
X72934202Y-37922526D01*
X73080165Y-37871452D01*
X73087773Y-37868790D01*
X73087775Y-37868789D01*
X73226204Y-37781808D01*
X73341808Y-37666204D01*
X73428789Y-37527775D01*
X73482786Y-37373461D01*
X73482803Y-37373314D01*
X73501091Y-37211003D01*
X73501091Y-37210996D01*
X73482787Y-37048544D01*
X73482786Y-37048542D01*
X73482786Y-37048539D01*
X73428789Y-36894225D01*
X73341808Y-36755796D01*
X73226204Y-36640192D01*
X73156933Y-36596666D01*
X73087774Y-36553210D01*
X72933455Y-36499212D01*
X72771004Y-36480909D01*
X72770996Y-36480909D01*
X72608544Y-36499212D01*
X72517303Y-36531139D01*
X72447524Y-36534700D01*
X72413228Y-36520829D01*
X72374066Y-36497669D01*
X72273393Y-36438131D01*
X72273388Y-36438129D01*
X72119208Y-36393335D01*
X72119202Y-36393334D01*
X72083183Y-36390500D01*
X72083181Y-36390500D01*
X71817607Y-36390500D01*
X71684819Y-36390501D01*
X71648794Y-36393335D01*
X71494611Y-36438129D01*
X71494604Y-36438132D01*
X71437119Y-36472128D01*
X71369395Y-36489309D01*
X71310881Y-36472128D01*
X71253395Y-36438132D01*
X71253388Y-36438129D01*
X71099208Y-36393335D01*
X71099202Y-36393334D01*
X71063183Y-36390500D01*
X71063181Y-36390500D01*
X70797607Y-36390500D01*
X70664819Y-36390501D01*
X70628794Y-36393335D01*
X70474611Y-36438129D01*
X70474606Y-36438131D01*
X70357621Y-36507316D01*
X70289897Y-36524499D01*
X70231379Y-36507316D01*
X70114393Y-36438131D01*
X70114388Y-36438129D01*
X69960208Y-36393335D01*
X69960202Y-36393334D01*
X69924183Y-36390500D01*
X69924181Y-36390500D01*
X69658607Y-36390500D01*
X69525819Y-36390501D01*
X69489794Y-36393335D01*
X69335611Y-36438129D01*
X69335607Y-36438130D01*
X69277628Y-36472419D01*
X69209903Y-36489600D01*
X69151388Y-36472419D01*
X69094189Y-36438592D01*
X69094188Y-36438591D01*
X68955001Y-36398153D01*
X68955000Y-36398154D01*
X68955000Y-36953025D01*
X68954809Y-36957889D01*
X68954500Y-36961819D01*
X68954500Y-37210996D01*
X68954501Y-37337000D01*
X68934817Y-37404039D01*
X68882013Y-37449794D01*
X68830501Y-37461000D01*
X67935069Y-37461000D01*
X64865034Y-37461000D01*
X64880206Y-37449358D01*
X64901908Y-37421074D01*
X64907234Y-37414999D01*
X65361234Y-36961000D01*
X67935069Y-36961000D01*
X68455000Y-36961000D01*
X68455000Y-36398154D01*
X68454998Y-36398153D01*
X68315811Y-36438591D01*
X68315808Y-36438593D01*
X68177714Y-36520261D01*
X68177705Y-36520268D01*
X68064268Y-36633705D01*
X68064261Y-36633714D01*
X67982593Y-36771808D01*
X67982592Y-36771811D01*
X67937833Y-36925871D01*
X67937832Y-36925877D01*
X67935069Y-36961000D01*
X65361234Y-36961000D01*
X66379416Y-35942819D01*
X66440739Y-35909334D01*
X66467097Y-35906500D01*
X69025035Y-35906500D01*
X69033133Y-35907030D01*
X69068463Y-35911682D01*
X69068464Y-35911682D01*
X69149882Y-35900963D01*
X69225225Y-35891044D01*
X69371304Y-35830536D01*
X69421001Y-35792402D01*
X69496745Y-35734282D01*
X69518446Y-35705999D01*
X69523774Y-35699922D01*
X71005922Y-34217774D01*
X71011999Y-34212446D01*
X71040282Y-34190745D01*
X71136536Y-34065304D01*
X71197044Y-33919225D01*
X71212500Y-33801824D01*
X71217682Y-33762463D01*
X71213030Y-33727132D01*
X71212500Y-33719034D01*
X71212500Y-32301434D01*
X71213031Y-32293333D01*
X71217683Y-32258000D01*
X71217683Y-32257999D01*
X71205331Y-32164185D01*
X71197044Y-32101238D01*
X71139286Y-31961797D01*
X71136538Y-31955163D01*
X71136535Y-31955158D01*
X71117074Y-31929795D01*
X71073215Y-31872638D01*
X71040282Y-31829718D01*
X71012005Y-31808020D01*
X71005904Y-31802669D01*
X70757420Y-31554185D01*
X70493320Y-31290085D01*
X70487980Y-31283995D01*
X70466282Y-31255718D01*
X70340841Y-31159464D01*
X70311648Y-31147372D01*
X70194762Y-31098956D01*
X70194760Y-31098955D01*
X70077361Y-31083500D01*
X70038000Y-31078318D01*
X70037997Y-31078318D01*
X70006958Y-31082404D01*
X69937923Y-31071638D01*
X69903093Y-31047146D01*
X69871870Y-31015923D01*
X69871862Y-31015917D01*
X69730396Y-30932255D01*
X69730393Y-30932254D01*
X69572573Y-30886402D01*
X69572567Y-30886401D01*
X69535696Y-30883500D01*
X69535694Y-30883500D01*
X68369500Y-30883500D01*
X68302461Y-30863815D01*
X68256706Y-30811011D01*
X68245500Y-30759500D01*
X68245500Y-30708500D01*
X68265185Y-30641461D01*
X68317989Y-30595706D01*
X68369500Y-30584500D01*
X69535696Y-30584500D01*
X69554131Y-30583049D01*
X69572569Y-30581598D01*
X69572571Y-30581597D01*
X69572573Y-30581597D01*
X69627341Y-30565685D01*
X69730398Y-30535744D01*
X69848906Y-30465658D01*
X69916629Y-30448476D01*
X69952978Y-30455349D01*
X70068539Y-30495786D01*
X70068542Y-30495787D01*
X70230996Y-30514091D01*
X70231000Y-30514091D01*
X70231004Y-30514091D01*
X70393455Y-30495787D01*
X70393456Y-30495786D01*
X70393461Y-30495786D01*
X70547775Y-30441789D01*
X70686204Y-30354808D01*
X70801808Y-30239204D01*
X70888789Y-30100775D01*
X70942786Y-29946461D01*
X70943504Y-29940091D01*
X70961091Y-29784003D01*
X70961091Y-29783996D01*
X70942787Y-29621544D01*
X70942786Y-29621542D01*
X70942786Y-29621539D01*
X70888789Y-29467225D01*
X70801808Y-29328796D01*
X70686204Y-29213192D01*
X70616658Y-29169493D01*
X70570368Y-29117159D01*
X70559720Y-29048105D01*
X70588095Y-28984257D01*
X70646485Y-28945885D01*
X70682631Y-28940500D01*
X73444095Y-28940500D01*
X75749653Y-28940500D01*
X75816692Y-28960185D01*
X75862447Y-29012989D01*
X75872127Y-29045103D01*
X75899065Y-29215199D01*
X75957456Y-29394917D01*
X75957458Y-29394921D01*
X76043241Y-29563283D01*
X76085569Y-29621544D01*
X76154310Y-29716160D01*
X76287927Y-29849778D01*
X76440800Y-29960849D01*
X76609167Y-30046637D01*
X76788882Y-30105030D01*
X76975518Y-30134591D01*
X76997086Y-30134591D01*
X77018629Y-30134591D01*
X77018660Y-30134600D01*
X77070000Y-30134600D01*
X77164481Y-30134600D01*
X77164482Y-30134600D01*
X77351120Y-30105039D01*
X77530836Y-30046645D01*
X77699204Y-29960856D01*
X77852079Y-29849785D01*
X77863257Y-29838607D01*
X77927818Y-29774045D01*
X77989140Y-29740559D01*
X78058832Y-29745543D01*
X78114766Y-29787413D01*
X78139184Y-29852877D01*
X78139500Y-29861725D01*
X78139500Y-30334486D01*
X78165143Y-30496391D01*
X78156188Y-30565685D01*
X78111192Y-30619137D01*
X78056107Y-30638133D01*
X78056201Y-30638725D01*
X78052854Y-30639255D01*
X78052420Y-30639405D01*
X78051400Y-30639485D01*
X77864752Y-30669052D01*
X77685044Y-30727445D01*
X77516673Y-30813239D01*
X77363805Y-30924309D01*
X77363801Y-30924312D01*
X77230192Y-31057924D01*
X77230188Y-31057928D01*
X77119122Y-31210802D01*
X77033335Y-31379169D01*
X77033333Y-31379173D01*
X76974945Y-31558879D01*
X76945385Y-31745513D01*
X76945385Y-31916570D01*
X76945400Y-31916814D01*
X76945400Y-31934485D01*
X76974959Y-32121113D01*
X76974959Y-32121116D01*
X77033349Y-32300824D01*
X77068437Y-32369689D01*
X77119135Y-32469190D01*
X77162821Y-32529320D01*
X77190271Y-32567103D01*
X77213750Y-32632910D01*
X77197924Y-32700963D01*
X77190271Y-32712871D01*
X77119122Y-32810802D01*
X77033335Y-32979169D01*
X77033333Y-32979173D01*
X76974945Y-33158879D01*
X76945385Y-33345513D01*
X76945385Y-33516570D01*
X76945400Y-33516814D01*
X76945400Y-33534485D01*
X76974959Y-33721113D01*
X76974959Y-33721116D01*
X77033349Y-33900824D01*
X77066116Y-33965133D01*
X77119135Y-34069190D01*
X77148426Y-34109506D01*
X77190271Y-34167103D01*
X77213750Y-34232910D01*
X77197924Y-34300963D01*
X77190271Y-34312871D01*
X77119122Y-34410802D01*
X77033335Y-34579169D01*
X77033333Y-34579173D01*
X76974945Y-34758879D01*
X76945385Y-34945513D01*
X76945385Y-35116570D01*
X76945400Y-35116814D01*
X76945400Y-35134485D01*
X76974959Y-35321113D01*
X76974959Y-35321116D01*
X77033349Y-35500824D01*
X77075425Y-35583404D01*
X77119135Y-35669190D01*
X77159879Y-35725271D01*
X77190271Y-35767103D01*
X77213750Y-35832910D01*
X77197924Y-35900963D01*
X77190271Y-35912871D01*
X77119122Y-36010802D01*
X77033335Y-36179169D01*
X77033333Y-36179173D01*
X76974945Y-36358879D01*
X76945385Y-36545513D01*
X76945385Y-36716570D01*
X76945400Y-36716814D01*
X76945400Y-36734485D01*
X76974959Y-36921113D01*
X76974959Y-36921116D01*
X77033349Y-37100824D01*
X77069155Y-37171097D01*
X77119135Y-37269190D01*
X77150601Y-37312500D01*
X77190271Y-37367103D01*
X77213750Y-37432910D01*
X77197924Y-37500963D01*
X77190271Y-37512871D01*
X77119122Y-37610802D01*
X77033335Y-37779169D01*
X77033333Y-37779173D01*
X76974945Y-37958879D01*
X76945385Y-38145513D01*
X76945385Y-38316570D01*
X76945400Y-38316814D01*
X76945400Y-38334485D01*
X76974959Y-38521113D01*
X76974959Y-38521116D01*
X77033349Y-38700824D01*
X77073003Y-38778649D01*
X77119135Y-38869190D01*
X77174586Y-38945514D01*
X77230202Y-39022065D01*
X77233369Y-39025773D01*
X77232009Y-39026933D01*
X77261812Y-39081513D01*
X77256828Y-39151205D01*
X77240967Y-39180753D01*
X77219137Y-39210800D01*
X77133351Y-39379163D01*
X77074956Y-39558881D01*
X77045397Y-39745513D01*
X77045397Y-39916637D01*
X77045400Y-39916686D01*
X77045400Y-39934486D01*
X77074958Y-40121107D01*
X77076082Y-40125787D01*
X77072594Y-40195570D01*
X77031932Y-40252389D01*
X76971276Y-40276507D01*
X76971431Y-40277486D01*
X76967083Y-40278174D01*
X76967007Y-40278205D01*
X76966753Y-40278226D01*
X76779981Y-40307809D01*
X76600271Y-40366199D01*
X76600268Y-40366201D01*
X76431898Y-40451990D01*
X76279032Y-40563053D01*
X76279025Y-40563059D01*
X76259567Y-40582517D01*
X76212219Y-40629864D01*
X76197266Y-40644817D01*
X76158377Y-40683705D01*
X76157639Y-40684537D01*
X76145492Y-40696683D01*
X76145485Y-40696691D01*
X76034406Y-40849558D01*
X75948612Y-41017912D01*
X75916526Y-41116645D01*
X75890211Y-41197617D01*
X75890210Y-41197620D01*
X75890210Y-41197622D01*
X75871274Y-41317124D01*
X75841340Y-41380256D01*
X75782026Y-41417183D01*
X75768201Y-41420190D01*
X75648565Y-41439139D01*
X75468847Y-41497533D01*
X75300484Y-41583319D01*
X75147611Y-41694389D01*
X75135480Y-41706519D01*
X75135473Y-41706526D01*
X75111512Y-41730485D01*
X75105412Y-41735835D01*
X75077136Y-41757532D01*
X75055441Y-41785805D01*
X75050093Y-41791903D01*
X75026688Y-41815312D01*
X75026403Y-41815633D01*
X75014015Y-41828022D01*
X74969348Y-41889500D01*
X74902949Y-41980889D01*
X74890259Y-42005794D01*
X74817158Y-42149254D01*
X74758766Y-42328957D01*
X74739826Y-42448524D01*
X74709895Y-42511658D01*
X74650582Y-42548588D01*
X74636752Y-42551596D01*
X74517210Y-42570530D01*
X74337492Y-42628924D01*
X74169129Y-42714710D01*
X74016257Y-42825780D01*
X73980167Y-42861869D01*
X73974065Y-42867220D01*
X73945781Y-42888923D01*
X73924086Y-42917196D01*
X73918738Y-42923294D01*
X73895454Y-42946582D01*
X73895075Y-42947009D01*
X73882691Y-42959391D01*
X73882689Y-42959393D01*
X73771615Y-43112253D01*
X73771609Y-43112263D01*
X73685814Y-43280622D01*
X73627411Y-43460335D01*
X73627410Y-43460340D01*
X73608467Y-43579906D01*
X73578535Y-43643039D01*
X73519222Y-43679967D01*
X73505394Y-43682975D01*
X73385847Y-43701910D01*
X73206129Y-43760304D01*
X73037766Y-43846090D01*
X72884892Y-43957161D01*
X72880317Y-43961737D01*
X72869650Y-43972404D01*
X72868716Y-43973337D01*
X72867096Y-43974956D01*
X72848917Y-43989955D01*
X72840849Y-43995411D01*
X72840847Y-43995413D01*
X72837111Y-43999720D01*
X72818941Y-44016832D01*
X72814417Y-44020303D01*
X72792723Y-44048576D01*
X72787373Y-44054677D01*
X72764269Y-44077783D01*
X72763519Y-44078630D01*
X72751338Y-44090810D01*
X72751335Y-44090813D01*
X72640269Y-44243675D01*
X72554478Y-44412035D01*
X72496083Y-44591728D01*
X72477142Y-44711281D01*
X72447209Y-44774414D01*
X72387896Y-44811342D01*
X72374069Y-44814349D01*
X72254484Y-44833290D01*
X72074774Y-44891680D01*
X72074771Y-44891682D01*
X71906401Y-44977471D01*
X71753534Y-45088534D01*
X71740058Y-45102009D01*
X71740044Y-45102022D01*
X71738266Y-45103799D01*
X71738263Y-45103802D01*
X71730379Y-45111685D01*
X71723048Y-45119017D01*
X71722929Y-45119081D01*
X71686679Y-45155333D01*
X71657998Y-45184016D01*
X71619869Y-45222147D01*
X71567816Y-45293798D01*
X71519089Y-45360870D01*
X71508804Y-45375027D01*
X71423018Y-45543404D01*
X71364634Y-45723113D01*
X71335079Y-45909757D01*
X71335084Y-46098719D01*
X71335085Y-46098724D01*
X71364653Y-46285363D01*
X71398804Y-46390455D01*
X71423053Y-46465078D01*
X71479814Y-46576468D01*
X71492712Y-46645137D01*
X71466438Y-46709878D01*
X71409333Y-46750137D01*
X71385518Y-46755706D01*
X71353238Y-46759956D01*
X71353237Y-46759956D01*
X71207160Y-46820463D01*
X71081718Y-46916718D01*
X70985463Y-47042160D01*
X70924956Y-47188237D01*
X70924955Y-47188239D01*
X70904318Y-47344998D01*
X70904318Y-47345000D01*
X70907265Y-47367388D01*
X70908969Y-47380326D01*
X70909500Y-47388428D01*
X70909500Y-47569902D01*
X70889815Y-47636941D01*
X70873181Y-47657583D01*
X70091096Y-48439668D01*
X70084994Y-48445019D01*
X70056716Y-48466718D01*
X69982277Y-48563732D01*
X69960464Y-48592157D01*
X69960462Y-48592161D01*
X69911860Y-48709497D01*
X69868019Y-48763901D01*
X69801724Y-48785965D01*
X69734025Y-48768685D01*
X69686415Y-48717548D01*
X69673772Y-48672855D01*
X69661063Y-48527592D01*
X69607573Y-48327961D01*
X69599905Y-48299344D01*
X69599904Y-48299343D01*
X69599903Y-48299337D01*
X69500035Y-48085171D01*
X69470598Y-48043131D01*
X69364496Y-47891600D01*
X69317712Y-47844816D01*
X69242567Y-47769671D01*
X69209084Y-47708351D01*
X69214068Y-47638659D01*
X69255939Y-47582725D01*
X69286915Y-47565810D01*
X69418331Y-47516796D01*
X69533546Y-47430546D01*
X69619796Y-47315331D01*
X69670091Y-47180483D01*
X69676500Y-47120873D01*
X69676499Y-45325128D01*
X69670091Y-45265517D01*
X69654184Y-45222869D01*
X69619797Y-45130671D01*
X69619793Y-45130664D01*
X69533547Y-45015455D01*
X69533544Y-45015452D01*
X69418335Y-44929206D01*
X69418328Y-44929202D01*
X69283482Y-44878908D01*
X69283483Y-44878908D01*
X69223883Y-44872501D01*
X69223881Y-44872500D01*
X69223873Y-44872500D01*
X69223864Y-44872500D01*
X67428129Y-44872500D01*
X67428123Y-44872501D01*
X67368516Y-44878908D01*
X67233671Y-44929202D01*
X67233664Y-44929206D01*
X67118455Y-45015452D01*
X67118452Y-45015455D01*
X67032206Y-45130664D01*
X67032202Y-45130671D01*
X66981908Y-45265517D01*
X66978868Y-45293798D01*
X66975501Y-45325123D01*
X66975500Y-45325135D01*
X66975500Y-45498500D01*
X66955815Y-45565539D01*
X66903011Y-45611294D01*
X66851500Y-45622500D01*
X66348716Y-45622500D01*
X66282743Y-45603493D01*
X66229776Y-45570211D01*
X66075455Y-45516212D01*
X65913004Y-45497909D01*
X65912996Y-45497909D01*
X65750544Y-45516212D01*
X65596225Y-45570210D01*
X65457795Y-45657192D01*
X65342192Y-45772795D01*
X65255210Y-45911225D01*
X65201212Y-46065544D01*
X65182909Y-46227996D01*
X65182909Y-46228003D01*
X65201212Y-46390455D01*
X65255210Y-46544774D01*
X65291946Y-46603239D01*
X65342192Y-46683204D01*
X65457796Y-46798808D01*
X65596225Y-46885789D01*
X65750539Y-46939786D01*
X65750542Y-46939786D01*
X65750544Y-46939787D01*
X65912996Y-46958091D01*
X65913000Y-46958091D01*
X65913004Y-46958091D01*
X66075455Y-46939787D01*
X66075456Y-46939786D01*
X66075461Y-46939786D01*
X66229775Y-46885789D01*
X66272931Y-46858671D01*
X66298658Y-46842507D01*
X66364631Y-46823500D01*
X66851501Y-46823500D01*
X66918540Y-46843185D01*
X66964295Y-46895989D01*
X66975501Y-46947500D01*
X66975501Y-47120876D01*
X66981908Y-47180483D01*
X67032202Y-47315328D01*
X67032206Y-47315335D01*
X67118452Y-47430544D01*
X67118455Y-47430547D01*
X67233664Y-47516793D01*
X67233671Y-47516797D01*
X67365081Y-47565810D01*
X67421015Y-47607681D01*
X67445432Y-47673145D01*
X67430580Y-47741418D01*
X67409430Y-47769673D01*
X67287503Y-47891600D01*
X67151965Y-48085169D01*
X67151964Y-48085171D01*
X67070214Y-48260486D01*
X67052721Y-48298000D01*
X67052098Y-48299335D01*
X67052094Y-48299344D01*
X66990938Y-48527586D01*
X66990936Y-48527596D01*
X66970341Y-48762999D01*
X66970341Y-48763000D01*
X66990936Y-48998403D01*
X66990938Y-48998413D01*
X67052094Y-49226655D01*
X67052096Y-49226659D01*
X67052097Y-49226663D01*
X67131436Y-49396805D01*
X67151965Y-49440830D01*
X67151967Y-49440834D01*
X67250794Y-49581972D01*
X67287505Y-49634401D01*
X67454599Y-49801495D01*
X67528953Y-49853558D01*
X67648165Y-49937032D01*
X67648167Y-49937033D01*
X67648170Y-49937035D01*
X67862337Y-50036903D01*
X67862343Y-50036904D01*
X67862344Y-50036905D01*
X67917285Y-50051626D01*
X68090592Y-50098063D01*
X68278918Y-50114539D01*
X68325999Y-50118659D01*
X68326000Y-50118659D01*
X68326001Y-50118659D01*
X68370256Y-50114787D01*
X68561408Y-50098063D01*
X68789663Y-50036903D01*
X69003830Y-49937035D01*
X69197401Y-49801495D01*
X69364495Y-49634401D01*
X69500035Y-49440830D01*
X69599903Y-49226663D01*
X69655195Y-49020304D01*
X69691559Y-48960646D01*
X69754406Y-48930116D01*
X69823782Y-48938410D01*
X69877660Y-48982895D01*
X69897908Y-49036212D01*
X69899554Y-49048711D01*
X69899956Y-49051760D01*
X69899956Y-49051762D01*
X69956699Y-49188753D01*
X69960464Y-49197841D01*
X70056718Y-49323282D01*
X70084995Y-49344980D01*
X70091085Y-49350320D01*
X70542258Y-49801493D01*
X70979669Y-50238904D01*
X70985020Y-50245005D01*
X71006718Y-50273282D01*
X71089683Y-50336943D01*
X71132159Y-50369536D01*
X71132161Y-50369536D01*
X71132163Y-50369538D01*
X71194448Y-50395337D01*
X71278238Y-50430044D01*
X71359510Y-50440743D01*
X71423405Y-50469007D01*
X71442588Y-50489366D01*
X71452454Y-50502546D01*
X71567669Y-50588796D01*
X71567670Y-50588796D01*
X71567671Y-50588797D01*
X71702517Y-50639091D01*
X71702516Y-50639091D01*
X71709444Y-50639835D01*
X71762127Y-50645500D01*
X73057872Y-50645499D01*
X73117483Y-50639091D01*
X73252331Y-50588796D01*
X73367546Y-50502546D01*
X73453796Y-50387331D01*
X73460434Y-50369535D01*
X73479266Y-50319042D01*
X73521136Y-50263108D01*
X73586600Y-50238690D01*
X73654873Y-50253541D01*
X73675038Y-50268636D01*
X73675270Y-50268334D01*
X73681717Y-50273281D01*
X73681718Y-50273282D01*
X73764683Y-50336943D01*
X73807159Y-50369536D01*
X73807164Y-50369538D01*
X73842003Y-50383969D01*
X73893817Y-50424219D01*
X73952448Y-50502539D01*
X73952451Y-50502542D01*
X73952454Y-50502546D01*
X73960902Y-50508870D01*
X74067664Y-50588793D01*
X74067671Y-50588797D01*
X74202517Y-50639091D01*
X74202516Y-50639091D01*
X74209444Y-50639835D01*
X74262127Y-50645500D01*
X75557872Y-50645499D01*
X75617483Y-50639091D01*
X75752331Y-50588796D01*
X75867546Y-50502546D01*
X75953796Y-50387331D01*
X76004091Y-50252483D01*
X76010500Y-50192873D01*
X76010499Y-50122757D01*
X76030183Y-50055720D01*
X76082986Y-50009964D01*
X76150682Y-49999819D01*
X76218000Y-50008682D01*
X76253329Y-50004030D01*
X76261428Y-50003500D01*
X76391326Y-50003500D01*
X76457297Y-50022505D01*
X76518225Y-50060789D01*
X76672539Y-50114786D01*
X76672542Y-50114786D01*
X76672544Y-50114787D01*
X76834996Y-50133091D01*
X76835000Y-50133091D01*
X76835004Y-50133091D01*
X76997455Y-50114787D01*
X76997456Y-50114786D01*
X76997461Y-50114786D01*
X77151775Y-50060789D01*
X77290204Y-49973808D01*
X77405808Y-49858204D01*
X77492789Y-49719775D01*
X77546786Y-49565461D01*
X77546787Y-49565455D01*
X77565091Y-49403003D01*
X77565091Y-49403000D01*
X77564571Y-49398386D01*
X77576624Y-49329564D01*
X77623973Y-49278183D01*
X77687791Y-49260500D01*
X79469486Y-49260500D01*
X79621491Y-49236424D01*
X79635566Y-49234195D01*
X79704859Y-49243149D01*
X79758311Y-49288145D01*
X79777438Y-49337274D01*
X79804073Y-49505478D01*
X79862459Y-49685189D01*
X79862462Y-49685197D01*
X79948241Y-49853558D01*
X79948241Y-49853559D01*
X80024119Y-49958000D01*
X80059311Y-50006440D01*
X80192926Y-50140060D01*
X80345799Y-50251133D01*
X80455941Y-50307254D01*
X80514163Y-50336921D01*
X80514165Y-50336921D01*
X80514166Y-50336922D01*
X80693881Y-50395317D01*
X80880518Y-50424878D01*
X80902086Y-50424878D01*
X80923616Y-50424878D01*
X80923691Y-50424900D01*
X80975000Y-50424900D01*
X81069483Y-50424900D01*
X81069484Y-50424900D01*
X81256124Y-50395338D01*
X81435842Y-50336943D01*
X81604212Y-50251151D01*
X81702132Y-50180005D01*
X81767937Y-50156525D01*
X81835991Y-50172349D01*
X81847903Y-50180005D01*
X81945799Y-50251133D01*
X82055941Y-50307254D01*
X82114163Y-50336921D01*
X82114165Y-50336921D01*
X82114166Y-50336922D01*
X82293881Y-50395317D01*
X82480518Y-50424878D01*
X82502086Y-50424878D01*
X82523616Y-50424878D01*
X82523691Y-50424900D01*
X82575000Y-50424900D01*
X82669483Y-50424900D01*
X82669484Y-50424900D01*
X82856124Y-50395338D01*
X83035842Y-50336943D01*
X83204212Y-50251151D01*
X83302132Y-50180005D01*
X83367937Y-50156525D01*
X83435991Y-50172349D01*
X83447903Y-50180005D01*
X83545799Y-50251133D01*
X83655941Y-50307254D01*
X83714163Y-50336921D01*
X83714165Y-50336921D01*
X83714166Y-50336922D01*
X83893881Y-50395317D01*
X84080518Y-50424878D01*
X84102086Y-50424878D01*
X84123616Y-50424878D01*
X84123691Y-50424900D01*
X84175000Y-50424900D01*
X84269483Y-50424900D01*
X84269484Y-50424900D01*
X84456124Y-50395338D01*
X84635842Y-50336943D01*
X84804212Y-50251151D01*
X84902153Y-50179990D01*
X84967958Y-50156510D01*
X85036012Y-50172335D01*
X85047921Y-50179987D01*
X85132970Y-50241783D01*
X85145797Y-50251103D01*
X85314167Y-50336897D01*
X85448127Y-50380425D01*
X85493880Y-50395292D01*
X85680518Y-50424854D01*
X85702086Y-50424854D01*
X85723591Y-50424854D01*
X85723751Y-50424900D01*
X85775000Y-50424899D01*
X85775000Y-50424900D01*
X85869486Y-50424899D01*
X86030835Y-50399342D01*
X86056125Y-50395337D01*
X86056125Y-50395336D01*
X86056131Y-50395336D01*
X86235853Y-50336938D01*
X86404227Y-50251143D01*
X86502150Y-50179993D01*
X86567955Y-50156510D01*
X86636010Y-50172333D01*
X86647921Y-50179987D01*
X86732970Y-50241783D01*
X86745797Y-50251103D01*
X86914167Y-50336897D01*
X87048127Y-50380425D01*
X87093880Y-50395292D01*
X87280518Y-50424854D01*
X87302086Y-50424854D01*
X87323591Y-50424854D01*
X87323751Y-50424900D01*
X87375000Y-50424899D01*
X87375000Y-50424900D01*
X87469486Y-50424899D01*
X87630835Y-50399342D01*
X87656125Y-50395337D01*
X87656125Y-50395336D01*
X87656131Y-50395336D01*
X87835853Y-50336938D01*
X88004227Y-50251143D01*
X88102150Y-50179993D01*
X88167955Y-50156510D01*
X88236010Y-50172333D01*
X88247921Y-50179987D01*
X88332970Y-50241783D01*
X88345797Y-50251103D01*
X88514167Y-50336897D01*
X88648127Y-50380425D01*
X88693880Y-50395292D01*
X88880518Y-50424854D01*
X88902086Y-50424854D01*
X88923591Y-50424854D01*
X88923751Y-50424900D01*
X88975000Y-50424899D01*
X88975000Y-50424900D01*
X89069486Y-50424899D01*
X89230835Y-50399342D01*
X89256125Y-50395337D01*
X89256125Y-50395336D01*
X89256131Y-50395336D01*
X89435853Y-50336938D01*
X89604227Y-50251143D01*
X89702150Y-50179993D01*
X89767955Y-50156510D01*
X89836010Y-50172333D01*
X89847921Y-50179987D01*
X89932970Y-50241783D01*
X89945797Y-50251103D01*
X90114167Y-50336897D01*
X90248127Y-50380425D01*
X90293880Y-50395292D01*
X90480518Y-50424854D01*
X90502086Y-50424854D01*
X90523591Y-50424854D01*
X90523751Y-50424900D01*
X90575000Y-50424899D01*
X90575000Y-50424900D01*
X90669486Y-50424899D01*
X90830835Y-50399342D01*
X90856125Y-50395337D01*
X90856125Y-50395336D01*
X90856131Y-50395336D01*
X91035853Y-50336938D01*
X91204227Y-50251143D01*
X91302150Y-50179993D01*
X91367955Y-50156510D01*
X91436010Y-50172333D01*
X91447921Y-50179987D01*
X91532970Y-50241783D01*
X91545797Y-50251103D01*
X91714167Y-50336897D01*
X91848127Y-50380425D01*
X91893880Y-50395292D01*
X92080518Y-50424854D01*
X92102086Y-50424854D01*
X92123591Y-50424854D01*
X92123751Y-50424900D01*
X92175000Y-50424899D01*
X92175000Y-50424900D01*
X92269486Y-50424899D01*
X92430835Y-50399342D01*
X92456125Y-50395337D01*
X92456125Y-50395336D01*
X92456131Y-50395336D01*
X92635853Y-50336938D01*
X92804227Y-50251143D01*
X92902150Y-50179993D01*
X92967955Y-50156510D01*
X93036010Y-50172333D01*
X93047921Y-50179987D01*
X93132970Y-50241783D01*
X93145797Y-50251103D01*
X93314167Y-50336897D01*
X93448127Y-50380425D01*
X93493880Y-50395292D01*
X93680518Y-50424854D01*
X93702086Y-50424854D01*
X93723591Y-50424854D01*
X93723751Y-50424900D01*
X93775000Y-50424899D01*
X93775000Y-50424900D01*
X93869486Y-50424899D01*
X94030835Y-50399342D01*
X94056125Y-50395337D01*
X94056125Y-50395336D01*
X94056131Y-50395336D01*
X94235853Y-50336938D01*
X94404227Y-50251143D01*
X94502150Y-50179993D01*
X94567955Y-50156510D01*
X94636010Y-50172333D01*
X94647921Y-50179987D01*
X94732970Y-50241783D01*
X94745797Y-50251103D01*
X94914167Y-50336897D01*
X95048127Y-50380425D01*
X95093880Y-50395292D01*
X95280518Y-50424854D01*
X95302086Y-50424854D01*
X95323591Y-50424854D01*
X95323751Y-50424900D01*
X95375000Y-50424899D01*
X95375000Y-50424900D01*
X95469486Y-50424899D01*
X95630835Y-50399342D01*
X95656125Y-50395337D01*
X95656125Y-50395336D01*
X95656131Y-50395336D01*
X95835853Y-50336938D01*
X96004227Y-50251143D01*
X96102150Y-50179993D01*
X96167955Y-50156510D01*
X96236010Y-50172333D01*
X96247921Y-50179987D01*
X96332970Y-50241783D01*
X96345797Y-50251103D01*
X96514167Y-50336897D01*
X96648127Y-50380425D01*
X96693880Y-50395292D01*
X96880518Y-50424854D01*
X96902086Y-50424854D01*
X96923591Y-50424854D01*
X96923751Y-50424900D01*
X96975000Y-50424899D01*
X96975000Y-50424900D01*
X97069486Y-50424899D01*
X97230835Y-50399342D01*
X97256125Y-50395337D01*
X97256125Y-50395336D01*
X97256131Y-50395336D01*
X97435853Y-50336938D01*
X97604227Y-50251143D01*
X97702150Y-50179993D01*
X97767955Y-50156510D01*
X97836010Y-50172333D01*
X97847921Y-50179987D01*
X97932970Y-50241783D01*
X97945797Y-50251103D01*
X98114167Y-50336897D01*
X98248127Y-50380425D01*
X98293880Y-50395292D01*
X98480518Y-50424854D01*
X98502086Y-50424854D01*
X98523591Y-50424854D01*
X98523751Y-50424900D01*
X98575000Y-50424899D01*
X98575000Y-50424900D01*
X98669486Y-50424899D01*
X98830835Y-50399342D01*
X98856125Y-50395337D01*
X98856125Y-50395336D01*
X98856131Y-50395336D01*
X99035853Y-50336938D01*
X99204227Y-50251143D01*
X99357105Y-50140063D01*
X99490723Y-50006435D01*
X99601791Y-49853548D01*
X99687573Y-49685168D01*
X99704067Y-49634395D01*
X99745957Y-49505445D01*
X99747073Y-49498400D01*
X99772580Y-49337280D01*
X99802506Y-49274145D01*
X99861815Y-49237209D01*
X99914452Y-49234198D01*
X99930135Y-49236681D01*
X100080514Y-49260500D01*
X100080519Y-49260500D01*
X100135639Y-49260500D01*
X104745233Y-49260500D01*
X114467104Y-49260500D01*
X114534143Y-49280185D01*
X114579898Y-49332989D01*
X114589842Y-49402147D01*
X114560817Y-49465703D01*
X114532695Y-49489732D01*
X114444432Y-49544745D01*
X114444427Y-49544749D01*
X114296949Y-49684938D01*
X114296947Y-49684940D01*
X114296947Y-49684941D01*
X114280593Y-49708438D01*
X114180705Y-49851949D01*
X114100459Y-50038943D01*
X114059500Y-50238258D01*
X114059500Y-50990743D01*
X114074925Y-51142439D01*
X114116009Y-51273379D01*
X114117297Y-51343236D01*
X114080612Y-51402701D01*
X114017602Y-51432892D01*
X113997696Y-51434500D01*
X62964692Y-51434500D01*
X62897653Y-51414815D01*
X62851898Y-51362011D01*
X62841954Y-51292853D01*
X62865976Y-51235459D01*
X62884769Y-51210736D01*
X62943054Y-51134064D01*
X63020732Y-50966167D01*
X63060500Y-50785497D01*
X63060500Y-50551464D01*
X63080185Y-50484425D01*
X63110187Y-50452199D01*
X63192546Y-50390546D01*
X63193454Y-50389334D01*
X63216768Y-50358190D01*
X63272701Y-50316318D01*
X63316035Y-50308500D01*
X63387404Y-50308500D01*
X63454443Y-50328185D01*
X63475085Y-50344819D01*
X63557396Y-50427130D01*
X63557400Y-50427133D01*
X63557402Y-50427135D01*
X63695607Y-50508869D01*
X63736268Y-50520682D01*
X63849791Y-50553664D01*
X63849794Y-50553664D01*
X63849796Y-50553665D01*
X63861803Y-50554610D01*
X63885817Y-50556500D01*
X63885818Y-50556499D01*
X63885819Y-50556500D01*
X64218059Y-50556499D01*
X64384181Y-50556499D01*
X64387015Y-50556275D01*
X64420204Y-50553665D01*
X64574393Y-50508869D01*
X64712598Y-50427135D01*
X64713002Y-50426731D01*
X64716915Y-50422819D01*
X64778238Y-50389334D01*
X64804596Y-50386500D01*
X64851572Y-50386500D01*
X64859670Y-50387030D01*
X64895000Y-50391682D01*
X64895001Y-50391682D01*
X64953586Y-50383969D01*
X65051762Y-50371044D01*
X65197841Y-50310536D01*
X65246391Y-50273282D01*
X65323282Y-50214282D01*
X65344983Y-50185999D01*
X65350311Y-50179922D01*
X65942922Y-49587311D01*
X65948999Y-49581983D01*
X65977282Y-49560282D01*
X66073536Y-49434841D01*
X66134044Y-49288762D01*
X66140085Y-49242873D01*
X66154682Y-49132000D01*
X66150030Y-49096669D01*
X66149500Y-49088571D01*
X66149500Y-48593965D01*
X66150031Y-48585863D01*
X66154682Y-48550536D01*
X66154682Y-48550535D01*
X66136656Y-48413617D01*
X66134044Y-48393775D01*
X66073536Y-48247696D01*
X66060920Y-48231254D01*
X65977282Y-48122255D01*
X65949005Y-48100557D01*
X65942904Y-48095206D01*
X65617371Y-47769673D01*
X65281783Y-47434085D01*
X65276443Y-47427995D01*
X65254745Y-47399718D01*
X65129304Y-47303464D01*
X64983225Y-47242956D01*
X64983223Y-47242955D01*
X64906424Y-47232845D01*
X64826464Y-47222318D01*
X64826463Y-47222318D01*
X64791133Y-47226969D01*
X64783035Y-47227500D01*
X63316035Y-47227500D01*
X63248996Y-47207815D01*
X63216768Y-47177810D01*
X63192550Y-47145458D01*
X63192547Y-47145455D01*
X63192546Y-47145454D01*
X63174495Y-47131941D01*
X63077335Y-47059206D01*
X63077328Y-47059202D01*
X62942482Y-47008908D01*
X62942483Y-47008908D01*
X62882883Y-47002501D01*
X62882881Y-47002500D01*
X62882873Y-47002500D01*
X62882864Y-47002500D01*
X61537129Y-47002500D01*
X61537123Y-47002501D01*
X61477516Y-47008908D01*
X61342671Y-47059202D01*
X61342664Y-47059206D01*
X61227455Y-47145452D01*
X61227452Y-47145455D01*
X61141206Y-47260664D01*
X61141202Y-47260671D01*
X61090910Y-47395513D01*
X61090909Y-47395517D01*
X61084500Y-47455127D01*
X61084500Y-47455134D01*
X61084500Y-47455135D01*
X61084500Y-48200870D01*
X61084501Y-48200874D01*
X61090909Y-48260484D01*
X61092692Y-48268028D01*
X61089749Y-48268723D01*
X61093719Y-48324381D01*
X61092667Y-48327961D01*
X61092693Y-48327968D01*
X61090908Y-48335520D01*
X61084501Y-48395117D01*
X61084500Y-48395136D01*
X61084500Y-49140870D01*
X61084501Y-49140874D01*
X61090909Y-49200484D01*
X61092692Y-49208028D01*
X61089749Y-49208723D01*
X61093719Y-49264381D01*
X61092667Y-49267961D01*
X61092693Y-49267968D01*
X61090908Y-49275520D01*
X61084501Y-49335117D01*
X61084500Y-49335136D01*
X61084500Y-50080870D01*
X61084501Y-50080876D01*
X61090908Y-50140483D01*
X61141202Y-50275328D01*
X61141206Y-50275335D01*
X61227452Y-50390544D01*
X61227453Y-50390545D01*
X61227454Y-50390546D01*
X61309811Y-50452198D01*
X61351682Y-50508131D01*
X61359500Y-50551464D01*
X61359500Y-50739116D01*
X61374486Y-50876911D01*
X61433557Y-51052223D01*
X61433558Y-51052225D01*
X61528931Y-51210737D01*
X61528932Y-51210738D01*
X61542655Y-51225226D01*
X61574467Y-51287433D01*
X61567596Y-51356965D01*
X61524225Y-51411743D01*
X61458124Y-51434378D01*
X61452631Y-51434500D01*
X38738482Y-51434500D01*
X38731544Y-51434110D01*
X38720581Y-51432875D01*
X38708655Y-51431531D01*
X38596510Y-51416767D01*
X38571740Y-51410869D01*
X38527578Y-51395416D01*
X38524329Y-51394176D01*
X38494812Y-51381950D01*
X38449475Y-51363170D01*
X38430962Y-51353607D01*
X38403877Y-51336588D01*
X38385575Y-51325087D01*
X38380822Y-51321782D01*
X38316499Y-51272426D01*
X38310407Y-51267083D01*
X38267914Y-51224590D01*
X38262575Y-51218502D01*
X38213210Y-51154168D01*
X38209911Y-51149423D01*
X38200259Y-51134063D01*
X38181387Y-51104028D01*
X38171833Y-51085533D01*
X38140810Y-51010637D01*
X38139593Y-51007451D01*
X38124126Y-50963249D01*
X38118233Y-50938499D01*
X38103468Y-50826348D01*
X38100952Y-50804012D01*
X38100890Y-50803460D01*
X38100500Y-50796515D01*
X38100500Y-50011076D01*
X40512476Y-50011076D01*
X40636466Y-50077350D01*
X40824969Y-50134531D01*
X40824965Y-50134531D01*
X41021000Y-50153838D01*
X41217032Y-50134531D01*
X41405537Y-50077348D01*
X41529522Y-50011076D01*
X41021001Y-49502553D01*
X41021000Y-49502553D01*
X40512476Y-50011076D01*
X38100500Y-50011076D01*
X38100500Y-49149000D01*
X40016161Y-49149000D01*
X40035468Y-49345030D01*
X40092652Y-49533538D01*
X40158922Y-49657522D01*
X40667446Y-49149000D01*
X41374553Y-49149000D01*
X41883076Y-49657522D01*
X41949348Y-49533537D01*
X42006531Y-49345032D01*
X42025838Y-49149000D01*
X42006531Y-48952967D01*
X41949350Y-48764466D01*
X41883076Y-48640476D01*
X41374553Y-49149000D01*
X40667446Y-49149000D01*
X40667446Y-49148999D01*
X40158922Y-48640476D01*
X40092652Y-48764461D01*
X40035468Y-48952969D01*
X40016161Y-49149000D01*
X38100500Y-49149000D01*
X38100500Y-48286922D01*
X40512476Y-48286922D01*
X41021000Y-48795446D01*
X41021001Y-48795446D01*
X41529522Y-48286922D01*
X41529522Y-48286921D01*
X41405538Y-48220652D01*
X41217030Y-48163468D01*
X41021000Y-48144161D01*
X40824969Y-48163468D01*
X40636461Y-48220652D01*
X40512476Y-48286922D01*
X38100500Y-48286922D01*
X38100500Y-27943483D01*
X38100890Y-27936538D01*
X38100891Y-27936532D01*
X38103470Y-27913633D01*
X38118234Y-27801498D01*
X38124125Y-27776754D01*
X38139602Y-27732524D01*
X38140800Y-27729385D01*
X38171837Y-27654456D01*
X38181381Y-27635980D01*
X38209918Y-27590564D01*
X38213195Y-27585850D01*
X38262587Y-27521481D01*
X38267900Y-27515423D01*
X38310423Y-27472900D01*
X38316481Y-27467587D01*
X38380850Y-27418195D01*
X38385564Y-27414918D01*
X38430980Y-27386381D01*
X38449456Y-27376837D01*
X38524385Y-27345800D01*
X38527524Y-27344602D01*
X38571754Y-27329125D01*
X38596498Y-27323234D01*
X38708633Y-27308470D01*
X38731539Y-27305890D01*
X38738484Y-27305500D01*
X60438575Y-27305500D01*
X60505614Y-27325185D01*
G37*
%TD.AperFunction*%
%TA.AperFunction,Conductor*%
G36*
X54691944Y-47859803D02*
G01*
X54736290Y-47888303D01*
X54770999Y-47923011D01*
X54789796Y-47941808D01*
X54893399Y-48006906D01*
X54928225Y-48028789D01*
X54989191Y-48050122D01*
X55045967Y-48090844D01*
X55071715Y-48155796D01*
X55058259Y-48224358D01*
X55035918Y-48254845D01*
X53792363Y-49498400D01*
X53731040Y-49531885D01*
X53661348Y-49526901D01*
X53605415Y-49485029D01*
X53585605Y-49445313D01*
X53556405Y-49344807D01*
X53474738Y-49206714D01*
X53474731Y-49206705D01*
X53378060Y-49110034D01*
X53344575Y-49048711D01*
X53349559Y-48979019D01*
X53378058Y-48934674D01*
X53433552Y-48879179D01*
X53489145Y-48847085D01*
X53496760Y-48845044D01*
X53496762Y-48845044D01*
X53642841Y-48784536D01*
X53710605Y-48732539D01*
X53768282Y-48688282D01*
X53789983Y-48659999D01*
X53795311Y-48653922D01*
X54560931Y-47888302D01*
X54622252Y-47854819D01*
X54691944Y-47859803D01*
G37*
%TD.AperFunction*%
%TA.AperFunction,Conductor*%
G36*
X125098460Y-27305890D02*
G01*
X125101301Y-27306209D01*
X125121348Y-27308468D01*
X125233499Y-27323233D01*
X125258249Y-27329126D01*
X125302451Y-27344593D01*
X125305637Y-27345810D01*
X125380533Y-27376833D01*
X125399028Y-27386387D01*
X125428452Y-27404875D01*
X125444423Y-27414911D01*
X125449168Y-27418210D01*
X125513502Y-27467575D01*
X125519590Y-27472914D01*
X125562083Y-27515407D01*
X125567426Y-27521499D01*
X125586299Y-27546096D01*
X125616778Y-27585816D01*
X125620087Y-27590575D01*
X125630949Y-27607860D01*
X125648607Y-27635962D01*
X125658172Y-27654478D01*
X125689176Y-27729329D01*
X125690416Y-27732578D01*
X125705869Y-27776740D01*
X125711767Y-27801510D01*
X125726531Y-27913654D01*
X125726538Y-27913715D01*
X125729110Y-27936538D01*
X125729500Y-27943481D01*
X125729500Y-41990479D01*
X125709815Y-42057518D01*
X125657011Y-42103273D01*
X125587853Y-42113217D01*
X125524297Y-42084192D01*
X125491473Y-42033117D01*
X125489968Y-42033769D01*
X125486870Y-42026610D01*
X125486869Y-42026607D01*
X125405135Y-41888402D01*
X125405133Y-41888400D01*
X125405130Y-41888396D01*
X125291603Y-41774869D01*
X125291595Y-41774863D01*
X125176031Y-41706519D01*
X125153393Y-41693131D01*
X125153392Y-41693130D01*
X125153391Y-41693130D01*
X125153389Y-41693129D01*
X125147775Y-41691498D01*
X125094694Y-41660104D01*
X124252818Y-40818227D01*
X124219333Y-40756904D01*
X124216499Y-40730546D01*
X124216499Y-40644820D01*
X124216120Y-40640000D01*
X124213665Y-40608796D01*
X124168869Y-40454607D01*
X124152838Y-40427500D01*
X124088768Y-40319161D01*
X124071500Y-40256041D01*
X124071500Y-39708742D01*
X124073224Y-39693122D01*
X124072939Y-39693095D01*
X124073673Y-39685333D01*
X124071500Y-39616172D01*
X124071500Y-39586656D01*
X124071500Y-39586650D01*
X124070631Y-39579779D01*
X124070173Y-39573952D01*
X124069778Y-39561369D01*
X124068710Y-39527373D01*
X124063119Y-39508130D01*
X124059173Y-39489078D01*
X124056664Y-39469208D01*
X124039504Y-39425867D01*
X124037624Y-39420379D01*
X124024618Y-39375610D01*
X124024150Y-39374819D01*
X124014735Y-39358898D01*
X124014422Y-39358370D01*
X124005861Y-39340894D01*
X123998487Y-39322270D01*
X123998360Y-39322095D01*
X123971079Y-39284545D01*
X123967888Y-39279686D01*
X123944172Y-39239583D01*
X123944166Y-39239575D01*
X123930007Y-39225417D01*
X123917370Y-39210622D01*
X123905594Y-39194413D01*
X123905593Y-39194412D01*
X123901008Y-39188101D01*
X123902660Y-39186900D01*
X123883530Y-39155367D01*
X123875534Y-39132517D01*
X123847789Y-39053225D01*
X123760808Y-38914796D01*
X123645204Y-38799192D01*
X123558810Y-38744907D01*
X123506777Y-38712212D01*
X123506773Y-38712210D01*
X123395084Y-38673128D01*
X123348358Y-38643768D01*
X122928803Y-38224212D01*
X122918980Y-38211950D01*
X122918759Y-38212134D01*
X122913786Y-38206123D01*
X122911749Y-38204210D01*
X122863364Y-38158773D01*
X122850104Y-38145513D01*
X122842475Y-38137883D01*
X122836986Y-38133625D01*
X122832561Y-38129847D01*
X122798582Y-38097938D01*
X122798580Y-38097936D01*
X122798577Y-38097935D01*
X122781029Y-38088288D01*
X122764763Y-38077604D01*
X122748933Y-38065325D01*
X122706168Y-38046818D01*
X122700922Y-38044248D01*
X122660093Y-38021803D01*
X122660092Y-38021802D01*
X122640693Y-38016822D01*
X122622281Y-38010518D01*
X122603896Y-38002561D01*
X122589120Y-38000221D01*
X122542550Y-37982742D01*
X122490777Y-37950211D01*
X122352228Y-37901731D01*
X122336461Y-37896214D01*
X122336460Y-37896213D01*
X122336455Y-37896212D01*
X122174004Y-37877909D01*
X122173996Y-37877909D01*
X122011544Y-37896212D01*
X121857225Y-37950210D01*
X121815472Y-37976446D01*
X121748236Y-37995446D01*
X121681400Y-37975078D01*
X121636186Y-37921811D01*
X121625500Y-37871452D01*
X121625500Y-37858831D01*
X121625499Y-37858818D01*
X121625395Y-37857804D01*
X121615436Y-37760315D01*
X121562549Y-37600713D01*
X121562545Y-37600707D01*
X121562544Y-37600704D01*
X121474283Y-37457612D01*
X121474280Y-37457608D01*
X121442353Y-37425681D01*
X121408868Y-37364358D01*
X121413852Y-37294666D01*
X121442353Y-37250319D01*
X121446211Y-37246461D01*
X121474281Y-37218391D01*
X121562549Y-37075287D01*
X121615436Y-36915685D01*
X121625500Y-36817174D01*
X121625500Y-36283826D01*
X121615436Y-36185315D01*
X121562549Y-36025713D01*
X121562545Y-36025707D01*
X121562544Y-36025704D01*
X121474283Y-35882612D01*
X121474280Y-35882608D01*
X121355391Y-35763719D01*
X121334400Y-35750771D01*
X121287677Y-35698822D01*
X121275500Y-35645234D01*
X121275500Y-35442595D01*
X121295185Y-35375556D01*
X121311820Y-35354913D01*
X121341130Y-35325603D01*
X121341135Y-35325598D01*
X121422869Y-35187393D01*
X121467665Y-35033204D01*
X121470138Y-35001786D01*
X121470500Y-34997183D01*
X121470499Y-34598819D01*
X121468953Y-34579169D01*
X121467665Y-34562796D01*
X121422869Y-34408607D01*
X121388581Y-34350629D01*
X121371398Y-34282905D01*
X121388582Y-34224386D01*
X121422404Y-34167196D01*
X121422405Y-34167194D01*
X121462844Y-34028000D01*
X120907974Y-34028000D01*
X120903109Y-34027809D01*
X120899184Y-34027500D01*
X120899183Y-34027500D01*
X120899181Y-34027500D01*
X120400820Y-34027501D01*
X120396903Y-34027809D01*
X120392041Y-34028000D01*
X119837156Y-34028000D01*
X119877594Y-34167193D01*
X119911419Y-34224388D01*
X119928601Y-34292112D01*
X119911419Y-34350628D01*
X119877130Y-34408607D01*
X119877129Y-34408611D01*
X119832335Y-34562791D01*
X119832334Y-34562797D01*
X119829500Y-34598817D01*
X119829501Y-34997181D01*
X119832335Y-35033205D01*
X119877129Y-35187388D01*
X119877131Y-35187393D01*
X119958863Y-35325595D01*
X119958869Y-35325603D01*
X119988180Y-35354913D01*
X120021666Y-35416235D01*
X120024500Y-35442595D01*
X120024500Y-35645234D01*
X120004815Y-35712273D01*
X119965600Y-35750771D01*
X119944608Y-35763719D01*
X119825719Y-35882608D01*
X119825716Y-35882612D01*
X119737455Y-36025704D01*
X119737451Y-36025713D01*
X119684564Y-36185315D01*
X119684564Y-36185316D01*
X119684563Y-36185316D01*
X119674500Y-36283818D01*
X119674500Y-36817181D01*
X119684563Y-36915683D01*
X119737450Y-37075284D01*
X119737455Y-37075295D01*
X119825716Y-37218387D01*
X119825719Y-37218391D01*
X119857647Y-37250319D01*
X119891132Y-37311642D01*
X119886148Y-37381334D01*
X119857647Y-37425681D01*
X119825719Y-37457608D01*
X119825716Y-37457612D01*
X119737455Y-37600704D01*
X119737450Y-37600715D01*
X119720989Y-37650393D01*
X119684564Y-37760315D01*
X119684564Y-37760316D01*
X119684563Y-37760316D01*
X119674500Y-37858818D01*
X119674500Y-38113000D01*
X119654815Y-38180039D01*
X119602011Y-38225794D01*
X119550500Y-38237000D01*
X119209500Y-38237000D01*
X119142461Y-38217315D01*
X119096706Y-38164511D01*
X119085500Y-38113000D01*
X119085500Y-37833331D01*
X119085499Y-37833318D01*
X119084233Y-37820929D01*
X119075436Y-37734815D01*
X119022549Y-37575213D01*
X119022545Y-37575207D01*
X119022544Y-37575204D01*
X118934283Y-37432112D01*
X118934280Y-37432108D01*
X118902353Y-37400181D01*
X118868868Y-37338858D01*
X118873852Y-37269166D01*
X118902353Y-37224819D01*
X118916176Y-37210996D01*
X118934281Y-37192891D01*
X119022549Y-37049787D01*
X119075436Y-36890185D01*
X119085500Y-36791674D01*
X119085500Y-36258326D01*
X119075436Y-36159815D01*
X119022549Y-36000213D01*
X119022545Y-36000207D01*
X119022544Y-36000204D01*
X118934283Y-35857112D01*
X118934280Y-35857108D01*
X118815391Y-35738219D01*
X118794400Y-35725271D01*
X118747677Y-35673322D01*
X118735500Y-35619734D01*
X118735500Y-35444595D01*
X118755185Y-35377556D01*
X118771820Y-35356913D01*
X118801130Y-35327603D01*
X118801135Y-35327598D01*
X118882869Y-35189393D01*
X118918614Y-35066358D01*
X118927664Y-35035208D01*
X118927664Y-35035206D01*
X118927665Y-35035204D01*
X118930500Y-34999181D01*
X118930499Y-34600820D01*
X118927665Y-34564796D01*
X118882869Y-34410607D01*
X118848581Y-34352629D01*
X118831398Y-34284905D01*
X118848582Y-34226386D01*
X118882404Y-34169196D01*
X118882405Y-34169194D01*
X118922844Y-34030000D01*
X118367974Y-34030000D01*
X118363109Y-34029809D01*
X118359184Y-34029500D01*
X118359183Y-34029500D01*
X118359181Y-34029500D01*
X117860820Y-34029501D01*
X117856903Y-34029809D01*
X117852041Y-34030000D01*
X117297156Y-34030000D01*
X117337594Y-34169193D01*
X117371419Y-34226388D01*
X117388601Y-34294112D01*
X117371419Y-34352628D01*
X117337130Y-34410607D01*
X117337129Y-34410611D01*
X117292335Y-34564791D01*
X117292334Y-34564797D01*
X117289500Y-34600817D01*
X117289501Y-34999181D01*
X117292335Y-35035205D01*
X117337129Y-35189388D01*
X117337131Y-35189393D01*
X117418863Y-35327595D01*
X117418869Y-35327603D01*
X117448180Y-35356913D01*
X117481666Y-35418235D01*
X117484500Y-35444595D01*
X117484500Y-35619734D01*
X117464815Y-35686773D01*
X117425600Y-35725271D01*
X117404608Y-35738219D01*
X117285719Y-35857108D01*
X117285716Y-35857112D01*
X117197455Y-36000204D01*
X117197450Y-36000215D01*
X117193942Y-36010802D01*
X117144564Y-36159815D01*
X117144564Y-36159816D01*
X117144563Y-36159816D01*
X117134500Y-36258318D01*
X117134500Y-36791681D01*
X117144563Y-36890183D01*
X117197450Y-37049784D01*
X117197455Y-37049795D01*
X117285716Y-37192887D01*
X117285719Y-37192891D01*
X117317647Y-37224819D01*
X117351132Y-37286142D01*
X117346148Y-37355834D01*
X117317647Y-37400181D01*
X117285719Y-37432108D01*
X117285716Y-37432112D01*
X117197455Y-37575204D01*
X117197450Y-37575215D01*
X117189004Y-37600704D01*
X117144564Y-37734815D01*
X117144564Y-37734816D01*
X117144563Y-37734816D01*
X117134500Y-37833318D01*
X117134500Y-38139546D01*
X117114815Y-38206585D01*
X117098181Y-38227227D01*
X116567130Y-38758278D01*
X116505807Y-38791763D01*
X116436115Y-38786779D01*
X116380182Y-38744907D01*
X116355765Y-38679443D01*
X116361742Y-38631595D01*
X116408436Y-38490685D01*
X116418500Y-38392174D01*
X116418500Y-37858826D01*
X116408436Y-37760315D01*
X116355549Y-37600713D01*
X116355545Y-37600707D01*
X116355544Y-37600704D01*
X116267283Y-37457612D01*
X116267280Y-37457608D01*
X116235353Y-37425681D01*
X116201868Y-37364358D01*
X116206852Y-37294666D01*
X116235353Y-37250319D01*
X116239211Y-37246461D01*
X116267281Y-37218391D01*
X116355549Y-37075287D01*
X116408436Y-36915685D01*
X116418500Y-36817174D01*
X116418500Y-36283826D01*
X116408436Y-36185315D01*
X116355549Y-36025713D01*
X116355545Y-36025707D01*
X116355544Y-36025704D01*
X116267283Y-35882612D01*
X116267280Y-35882608D01*
X116148391Y-35763719D01*
X116148387Y-35763716D01*
X116005295Y-35675455D01*
X116005289Y-35675452D01*
X116005287Y-35675451D01*
X115845685Y-35622564D01*
X115845683Y-35622563D01*
X115747181Y-35612500D01*
X115747174Y-35612500D01*
X115138826Y-35612500D01*
X115138818Y-35612500D01*
X115040316Y-35622563D01*
X115040315Y-35622564D01*
X114971902Y-35645234D01*
X114880715Y-35675450D01*
X114880704Y-35675455D01*
X114737612Y-35763716D01*
X114614015Y-35887313D01*
X114552692Y-35920797D01*
X114485380Y-35916673D01*
X114335455Y-35864212D01*
X114173004Y-35845909D01*
X114172996Y-35845909D01*
X114010544Y-35864212D01*
X113856225Y-35918210D01*
X113717795Y-36005192D01*
X113602192Y-36120795D01*
X113515210Y-36259225D01*
X113461212Y-36413544D01*
X113442909Y-36575996D01*
X113442909Y-36576003D01*
X113461212Y-36738455D01*
X113515210Y-36892774D01*
X113558592Y-36961816D01*
X113602192Y-37031204D01*
X113717796Y-37146808D01*
X113856225Y-37233789D01*
X114010539Y-37287786D01*
X114010542Y-37287786D01*
X114010544Y-37287787D01*
X114172996Y-37306091D01*
X114173000Y-37306091D01*
X114173004Y-37306091D01*
X114335457Y-37287787D01*
X114335459Y-37287786D01*
X114335461Y-37287786D01*
X114489775Y-37233789D01*
X114494689Y-37230701D01*
X114561923Y-37211701D01*
X114628758Y-37232068D01*
X114648341Y-37248014D01*
X114650646Y-37250319D01*
X114684131Y-37311642D01*
X114679147Y-37381334D01*
X114650647Y-37425680D01*
X114618719Y-37457607D01*
X114618716Y-37457612D01*
X114530455Y-37600704D01*
X114530450Y-37600715D01*
X114513989Y-37650393D01*
X114477564Y-37760315D01*
X114477564Y-37760316D01*
X114477563Y-37760316D01*
X114467500Y-37858818D01*
X114467500Y-38274404D01*
X114457303Y-38323647D01*
X114452562Y-38334602D01*
X114452561Y-38334605D01*
X114445271Y-38380627D01*
X114444087Y-38386346D01*
X114432501Y-38431472D01*
X114432500Y-38431482D01*
X114432500Y-38451516D01*
X114430973Y-38470915D01*
X114427840Y-38490694D01*
X114427840Y-38490695D01*
X114432225Y-38537083D01*
X114432500Y-38542921D01*
X114432500Y-39353479D01*
X114413495Y-39419449D01*
X114404211Y-39434223D01*
X114404209Y-39434228D01*
X114350212Y-39588544D01*
X114331909Y-39750996D01*
X114331909Y-39751003D01*
X114350212Y-39913457D01*
X114404209Y-40067771D01*
X114404210Y-40067773D01*
X114404211Y-40067775D01*
X114413494Y-40082548D01*
X114432500Y-40148519D01*
X114432500Y-40256041D01*
X114415232Y-40319161D01*
X114335133Y-40454602D01*
X114335129Y-40454611D01*
X114290335Y-40608791D01*
X114290334Y-40608797D01*
X114287500Y-40644817D01*
X114287501Y-41143181D01*
X114290334Y-41179201D01*
X114290335Y-41179204D01*
X114310602Y-41248965D01*
X114314684Y-41263013D01*
X114314484Y-41332882D01*
X114276541Y-41391552D01*
X114212903Y-41420395D01*
X114161012Y-41416683D01*
X114077208Y-41392335D01*
X114077202Y-41392334D01*
X114041183Y-41389500D01*
X114041181Y-41389500D01*
X113708940Y-41389500D01*
X113542819Y-41389501D01*
X113506794Y-41392335D01*
X113352611Y-41437129D01*
X113352606Y-41437131D01*
X113214404Y-41518863D01*
X113214396Y-41518869D01*
X113100869Y-41632396D01*
X113100863Y-41632404D01*
X113019131Y-41770606D01*
X113019129Y-41770611D01*
X112974335Y-41924791D01*
X112974334Y-41924797D01*
X112971500Y-41960817D01*
X112971501Y-42359181D01*
X112974335Y-42395205D01*
X113019129Y-42549388D01*
X113019132Y-42549395D01*
X113053128Y-42606881D01*
X113070309Y-42674605D01*
X113053128Y-42733119D01*
X113019132Y-42790604D01*
X113019129Y-42790611D01*
X112974335Y-42944791D01*
X112974334Y-42944797D01*
X112971500Y-42980817D01*
X112971501Y-43379181D01*
X112974335Y-43415205D01*
X113019129Y-43569388D01*
X113019131Y-43569393D01*
X113100863Y-43707595D01*
X113100869Y-43707603D01*
X113130180Y-43736913D01*
X113163666Y-43798235D01*
X113166500Y-43824595D01*
X113166500Y-47034255D01*
X113164775Y-47049872D01*
X113165061Y-47049899D01*
X113164326Y-47057665D01*
X113166500Y-47126814D01*
X113166500Y-47156343D01*
X113166501Y-47156360D01*
X113167368Y-47163231D01*
X113167826Y-47169050D01*
X113169290Y-47215624D01*
X113169291Y-47215627D01*
X113174880Y-47234867D01*
X113178824Y-47253911D01*
X113179679Y-47260671D01*
X113181336Y-47273791D01*
X113198490Y-47317119D01*
X113200382Y-47322647D01*
X113213205Y-47366783D01*
X113213382Y-47367390D01*
X113223418Y-47384361D01*
X113223580Y-47384634D01*
X113232136Y-47402100D01*
X113239514Y-47420732D01*
X113266901Y-47458428D01*
X113270102Y-47463301D01*
X113275466Y-47472369D01*
X113292655Y-47540092D01*
X113270501Y-47606356D01*
X113216039Y-47650124D01*
X113168740Y-47659500D01*
X100690629Y-47659500D01*
X100623590Y-47639815D01*
X100577835Y-47587011D01*
X100568155Y-47554894D01*
X100553254Y-47460796D01*
X100545927Y-47414524D01*
X100487539Y-47234807D01*
X100487537Y-47234803D01*
X100487537Y-47234802D01*
X100401758Y-47066441D01*
X100401758Y-47066440D01*
X100400641Y-47064902D01*
X100290689Y-46913560D01*
X100157074Y-46779940D01*
X100157057Y-46779928D01*
X100101165Y-46739318D01*
X100004201Y-46668867D01*
X99934683Y-46633445D01*
X99835836Y-46583078D01*
X99709155Y-46541916D01*
X99656119Y-46524683D01*
X99656117Y-46524682D01*
X99656115Y-46524682D01*
X99525804Y-46504042D01*
X99469482Y-46495122D01*
X99469481Y-46495122D01*
X99426384Y-46495122D01*
X99426309Y-46495100D01*
X99375000Y-46495100D01*
X99280516Y-46495100D01*
X99256046Y-46498975D01*
X99093882Y-46524660D01*
X98914158Y-46583057D01*
X98745786Y-46668850D01*
X98647867Y-46739994D01*
X98582061Y-46763474D01*
X98514007Y-46747649D01*
X98502094Y-46739993D01*
X98484586Y-46727272D01*
X98404201Y-46668867D01*
X98334683Y-46633445D01*
X98235836Y-46583078D01*
X98109155Y-46541916D01*
X98056119Y-46524683D01*
X98056117Y-46524682D01*
X98056115Y-46524682D01*
X97925804Y-46504042D01*
X97869482Y-46495122D01*
X97869481Y-46495122D01*
X97826384Y-46495122D01*
X97826309Y-46495100D01*
X97775000Y-46495100D01*
X97680516Y-46495100D01*
X97656046Y-46498975D01*
X97493882Y-46524660D01*
X97314158Y-46583057D01*
X97145786Y-46668850D01*
X97047867Y-46739994D01*
X96982061Y-46763474D01*
X96914007Y-46747649D01*
X96902094Y-46739993D01*
X96884586Y-46727272D01*
X96804201Y-46668867D01*
X96734683Y-46633445D01*
X96635836Y-46583078D01*
X96509155Y-46541916D01*
X96456119Y-46524683D01*
X96456117Y-46524682D01*
X96456115Y-46524682D01*
X96325804Y-46504042D01*
X96269482Y-46495122D01*
X96269481Y-46495122D01*
X96226384Y-46495122D01*
X96226309Y-46495100D01*
X96175000Y-46495100D01*
X96080516Y-46495100D01*
X96056046Y-46498975D01*
X95893882Y-46524660D01*
X95714158Y-46583057D01*
X95545786Y-46668850D01*
X95447867Y-46739994D01*
X95382061Y-46763474D01*
X95314007Y-46747649D01*
X95302094Y-46739993D01*
X95284586Y-46727272D01*
X95204201Y-46668867D01*
X95134683Y-46633445D01*
X95035836Y-46583078D01*
X94909155Y-46541916D01*
X94856119Y-46524683D01*
X94856117Y-46524682D01*
X94856115Y-46524682D01*
X94725804Y-46504042D01*
X94669482Y-46495122D01*
X94669481Y-46495122D01*
X94626384Y-46495122D01*
X94626309Y-46495100D01*
X94575000Y-46495100D01*
X94480516Y-46495100D01*
X94456046Y-46498975D01*
X94293882Y-46524660D01*
X94114158Y-46583057D01*
X93945786Y-46668850D01*
X93847867Y-46739994D01*
X93782061Y-46763474D01*
X93714007Y-46747649D01*
X93702094Y-46739993D01*
X93684586Y-46727272D01*
X93604201Y-46668867D01*
X93534683Y-46633445D01*
X93435836Y-46583078D01*
X93309155Y-46541916D01*
X93256119Y-46524683D01*
X93256117Y-46524682D01*
X93256115Y-46524682D01*
X93125804Y-46504042D01*
X93069482Y-46495122D01*
X93069481Y-46495122D01*
X93026384Y-46495122D01*
X93026309Y-46495100D01*
X92975000Y-46495100D01*
X92880516Y-46495100D01*
X92856046Y-46498975D01*
X92693882Y-46524660D01*
X92514158Y-46583057D01*
X92345786Y-46668850D01*
X92247867Y-46739994D01*
X92182061Y-46763474D01*
X92114007Y-46747649D01*
X92102094Y-46739993D01*
X92084586Y-46727272D01*
X92004201Y-46668867D01*
X91934683Y-46633445D01*
X91835836Y-46583078D01*
X91709155Y-46541916D01*
X91656119Y-46524683D01*
X91656117Y-46524682D01*
X91656115Y-46524682D01*
X91525804Y-46504042D01*
X91469482Y-46495122D01*
X91469481Y-46495122D01*
X91426384Y-46495122D01*
X91426309Y-46495100D01*
X91375000Y-46495100D01*
X91280516Y-46495100D01*
X91256046Y-46498975D01*
X91093882Y-46524660D01*
X90914158Y-46583057D01*
X90745786Y-46668850D01*
X90647867Y-46739994D01*
X90582061Y-46763474D01*
X90514007Y-46747649D01*
X90502094Y-46739993D01*
X90484586Y-46727272D01*
X90404201Y-46668867D01*
X90334683Y-46633445D01*
X90235836Y-46583078D01*
X90109155Y-46541916D01*
X90056119Y-46524683D01*
X90056117Y-46524682D01*
X90056115Y-46524682D01*
X89925804Y-46504042D01*
X89869482Y-46495122D01*
X89869481Y-46495122D01*
X89826384Y-46495122D01*
X89826309Y-46495100D01*
X89775000Y-46495100D01*
X89680516Y-46495100D01*
X89656046Y-46498975D01*
X89493882Y-46524660D01*
X89314158Y-46583057D01*
X89145786Y-46668850D01*
X89047867Y-46739994D01*
X88982061Y-46763474D01*
X88914007Y-46747649D01*
X88902094Y-46739993D01*
X88884586Y-46727272D01*
X88804201Y-46668867D01*
X88734683Y-46633445D01*
X88635836Y-46583078D01*
X88509155Y-46541916D01*
X88456119Y-46524683D01*
X88456117Y-46524682D01*
X88456115Y-46524682D01*
X88325804Y-46504042D01*
X88269482Y-46495122D01*
X88269481Y-46495122D01*
X88226384Y-46495122D01*
X88226309Y-46495100D01*
X88175000Y-46495100D01*
X88080516Y-46495100D01*
X88056046Y-46498975D01*
X87893882Y-46524660D01*
X87714158Y-46583057D01*
X87545786Y-46668850D01*
X87447867Y-46739994D01*
X87382061Y-46763474D01*
X87314007Y-46747649D01*
X87302094Y-46739993D01*
X87284586Y-46727272D01*
X87204201Y-46668867D01*
X87134683Y-46633445D01*
X87035836Y-46583078D01*
X86909155Y-46541916D01*
X86856119Y-46524683D01*
X86856117Y-46524682D01*
X86856115Y-46524682D01*
X86725804Y-46504042D01*
X86669482Y-46495122D01*
X86669481Y-46495122D01*
X86626384Y-46495122D01*
X86626309Y-46495100D01*
X86575000Y-46495100D01*
X86480516Y-46495100D01*
X86456046Y-46498975D01*
X86293882Y-46524660D01*
X86114158Y-46583057D01*
X85945786Y-46668850D01*
X85847867Y-46739994D01*
X85782061Y-46763474D01*
X85714007Y-46747649D01*
X85702094Y-46739993D01*
X85684586Y-46727272D01*
X85604201Y-46668867D01*
X85534683Y-46633445D01*
X85435836Y-46583078D01*
X85309155Y-46541916D01*
X85256119Y-46524683D01*
X85256117Y-46524682D01*
X85256115Y-46524682D01*
X85125804Y-46504042D01*
X85069482Y-46495122D01*
X85069481Y-46495122D01*
X85026384Y-46495122D01*
X85026309Y-46495100D01*
X84975000Y-46495100D01*
X84880516Y-46495100D01*
X84856046Y-46498975D01*
X84693882Y-46524660D01*
X84514158Y-46583057D01*
X84345786Y-46668850D01*
X84247867Y-46739994D01*
X84182061Y-46763474D01*
X84114007Y-46747649D01*
X84102094Y-46739993D01*
X84084586Y-46727272D01*
X84004201Y-46668867D01*
X83934683Y-46633445D01*
X83835836Y-46583078D01*
X83709155Y-46541916D01*
X83656119Y-46524683D01*
X83656117Y-46524682D01*
X83656115Y-46524682D01*
X83525804Y-46504042D01*
X83469482Y-46495122D01*
X83469481Y-46495122D01*
X83426384Y-46495122D01*
X83426309Y-46495100D01*
X83375000Y-46495100D01*
X83280516Y-46495100D01*
X83256046Y-46498975D01*
X83093882Y-46524660D01*
X82914158Y-46583057D01*
X82745786Y-46668850D01*
X82647867Y-46739994D01*
X82582061Y-46763474D01*
X82514007Y-46747649D01*
X82502094Y-46739993D01*
X82484586Y-46727272D01*
X82404201Y-46668867D01*
X82334683Y-46633445D01*
X82235836Y-46583078D01*
X82109155Y-46541916D01*
X82056119Y-46524683D01*
X82056117Y-46524682D01*
X82056115Y-46524682D01*
X81925804Y-46504042D01*
X81869482Y-46495122D01*
X81869481Y-46495122D01*
X81826384Y-46495122D01*
X81826309Y-46495100D01*
X81775000Y-46495100D01*
X81680516Y-46495100D01*
X81656046Y-46498975D01*
X81493882Y-46524660D01*
X81314158Y-46583057D01*
X81145786Y-46668850D01*
X81047867Y-46739994D01*
X80982061Y-46763474D01*
X80914007Y-46747649D01*
X80902094Y-46739993D01*
X80884586Y-46727272D01*
X80804201Y-46668867D01*
X80734683Y-46633445D01*
X80635836Y-46583078D01*
X80509155Y-46541916D01*
X80456119Y-46524683D01*
X80456117Y-46524682D01*
X80456115Y-46524682D01*
X80325804Y-46504042D01*
X80269482Y-46495122D01*
X80269481Y-46495122D01*
X80226384Y-46495122D01*
X80226309Y-46495100D01*
X80175000Y-46495100D01*
X80080516Y-46495100D01*
X80056046Y-46498975D01*
X79893882Y-46524660D01*
X79714158Y-46583057D01*
X79545785Y-46668850D01*
X79392907Y-46779926D01*
X79392905Y-46779928D01*
X79259297Y-46913540D01*
X79148224Y-47066426D01*
X79148220Y-47066433D01*
X79062439Y-47234803D01*
X79004052Y-47414516D01*
X78981823Y-47554894D01*
X78951895Y-47618030D01*
X78892585Y-47654963D01*
X78859349Y-47659500D01*
X77135097Y-47659500D01*
X77068058Y-47639815D01*
X77047416Y-47623181D01*
X76027474Y-46603239D01*
X75993989Y-46541916D01*
X75998973Y-46472224D01*
X76040845Y-46416291D01*
X76042180Y-46415306D01*
X76137743Y-46345875D01*
X76165746Y-46317872D01*
X76168209Y-46315408D01*
X76168279Y-46315370D01*
X76243151Y-46240500D01*
X76271371Y-46212280D01*
X76382447Y-46059401D01*
X76468238Y-45891028D01*
X76526632Y-45711307D01*
X76545565Y-45591755D01*
X76575493Y-45528624D01*
X76634804Y-45491692D01*
X76648641Y-45488682D01*
X76674793Y-45484539D01*
X76768161Y-45469752D01*
X76947876Y-45411359D01*
X77116243Y-45325572D01*
X77269116Y-45214502D01*
X77277870Y-45205746D01*
X77277914Y-45205710D01*
X77284383Y-45199239D01*
X77284385Y-45199239D01*
X77309537Y-45174084D01*
X77335925Y-45147694D01*
X77335926Y-45147695D01*
X77387483Y-45096136D01*
X77387484Y-45096133D01*
X77389878Y-45093740D01*
X77390075Y-45093516D01*
X77402732Y-45080859D01*
X77513793Y-44927989D01*
X77599573Y-44759628D01*
X77657962Y-44579922D01*
X77676894Y-44460389D01*
X77706823Y-44397256D01*
X77766135Y-44360325D01*
X77779967Y-44357316D01*
X77899534Y-44338379D01*
X78079249Y-44279986D01*
X78247616Y-44194199D01*
X78400489Y-44083129D01*
X78421457Y-44062160D01*
X78430980Y-44052639D01*
X78430988Y-44052634D01*
X78472342Y-44011279D01*
X78503584Y-43980039D01*
X78503601Y-43980017D01*
X78518856Y-43964763D01*
X78518857Y-43964760D01*
X78521230Y-43962388D01*
X78521795Y-43961748D01*
X78534056Y-43949490D01*
X78645126Y-43796625D01*
X78730916Y-43628267D01*
X78789314Y-43448561D01*
X78818881Y-43261933D01*
X78818889Y-43072977D01*
X78789339Y-42886346D01*
X78730958Y-42706635D01*
X78730957Y-42706634D01*
X78730957Y-42706632D01*
X78645187Y-42538275D01*
X78645185Y-42538272D01*
X78645184Y-42538270D01*
X78534128Y-42385394D01*
X78534125Y-42385391D01*
X78534123Y-42385388D01*
X78533475Y-42384629D01*
X78533318Y-42384280D01*
X78531264Y-42381452D01*
X78531858Y-42381020D01*
X78504904Y-42320868D01*
X78515341Y-42251782D01*
X78554876Y-42203783D01*
X78609625Y-42164003D01*
X100996909Y-42164003D01*
X101015212Y-42326455D01*
X101069210Y-42480774D01*
X101124456Y-42568697D01*
X101156192Y-42619204D01*
X101271796Y-42734808D01*
X101410225Y-42821789D01*
X101564539Y-42875786D01*
X101564542Y-42875786D01*
X101564544Y-42875787D01*
X101726996Y-42894091D01*
X101727000Y-42894091D01*
X101727004Y-42894091D01*
X101889455Y-42875787D01*
X101889456Y-42875786D01*
X101889461Y-42875786D01*
X102043775Y-42821789D01*
X102182204Y-42734808D01*
X102297808Y-42619204D01*
X102384789Y-42480775D01*
X102403280Y-42427931D01*
X102441087Y-42319888D01*
X102442866Y-42320510D01*
X102471442Y-42268791D01*
X102981024Y-41759209D01*
X103042346Y-41725726D01*
X103112038Y-41730710D01*
X103167971Y-41772582D01*
X103170279Y-41775769D01*
X103220699Y-41847777D01*
X103370221Y-41997299D01*
X103376284Y-42001544D01*
X103543442Y-42118589D01*
X103554229Y-42123619D01*
X103606667Y-42169791D01*
X103625818Y-42236985D01*
X103605602Y-42303866D01*
X103552436Y-42349200D01*
X103501822Y-42360000D01*
X103394155Y-42360000D01*
X103334627Y-42366401D01*
X103334620Y-42366403D01*
X103199913Y-42416645D01*
X103199906Y-42416649D01*
X103084812Y-42502809D01*
X103084809Y-42502812D01*
X102998649Y-42617906D01*
X102998645Y-42617913D01*
X102948403Y-42752620D01*
X102948401Y-42752627D01*
X102942000Y-42812155D01*
X102942000Y-43318000D01*
X103768949Y-43318000D01*
X103721669Y-43399892D01*
X103691148Y-43533614D01*
X103701398Y-43670391D01*
X103751508Y-43798069D01*
X103767402Y-43818000D01*
X102942000Y-43818000D01*
X102942000Y-44323844D01*
X102948401Y-44383372D01*
X102948403Y-44383379D01*
X102998645Y-44518086D01*
X102998649Y-44518093D01*
X103084809Y-44633187D01*
X103084812Y-44633190D01*
X103199906Y-44719350D01*
X103199913Y-44719354D01*
X103334620Y-44769596D01*
X103334627Y-44769598D01*
X103394155Y-44775999D01*
X103394172Y-44776000D01*
X103900000Y-44776000D01*
X103900000Y-43948240D01*
X103950353Y-43982571D01*
X104081420Y-44023000D01*
X104184094Y-44023000D01*
X104285628Y-44007696D01*
X104400000Y-43952618D01*
X104400000Y-44776000D01*
X104905828Y-44776000D01*
X104905844Y-44775999D01*
X104965372Y-44769598D01*
X104965379Y-44769596D01*
X105100086Y-44719354D01*
X105100093Y-44719350D01*
X105215187Y-44633190D01*
X105215190Y-44633187D01*
X105301350Y-44518093D01*
X105301354Y-44518086D01*
X105351596Y-44383379D01*
X105351598Y-44383372D01*
X105357999Y-44323844D01*
X105358000Y-44323827D01*
X105358000Y-43818000D01*
X104531051Y-43818000D01*
X104578331Y-43736108D01*
X104608852Y-43602386D01*
X104598602Y-43465609D01*
X104548492Y-43337931D01*
X104532598Y-43318000D01*
X105358000Y-43318000D01*
X105358000Y-42812172D01*
X105357999Y-42812155D01*
X105351598Y-42752627D01*
X105351596Y-42752620D01*
X105301354Y-42617913D01*
X105301350Y-42617906D01*
X105215190Y-42502812D01*
X105215187Y-42502809D01*
X105108577Y-42423000D01*
X109388341Y-42423000D01*
X109408936Y-42658403D01*
X109408938Y-42658413D01*
X109470094Y-42886655D01*
X109470096Y-42886659D01*
X109470097Y-42886663D01*
X109566928Y-43094318D01*
X109569965Y-43100830D01*
X109569967Y-43100834D01*
X109668367Y-43241362D01*
X109705373Y-43294213D01*
X109705501Y-43294395D01*
X109705506Y-43294402D01*
X109872597Y-43461493D01*
X109872603Y-43461498D01*
X109934745Y-43505010D01*
X110049996Y-43585710D01*
X110058594Y-43591730D01*
X110102219Y-43646307D01*
X110109413Y-43715805D01*
X110077890Y-43778160D01*
X110058595Y-43794880D01*
X109872922Y-43924890D01*
X109872920Y-43924891D01*
X109705891Y-44091920D01*
X109705886Y-44091926D01*
X109570400Y-44285420D01*
X109570399Y-44285422D01*
X109470570Y-44499507D01*
X109470567Y-44499513D01*
X109413364Y-44712999D01*
X109413364Y-44713000D01*
X110310314Y-44713000D01*
X110284507Y-44753156D01*
X110244000Y-44891111D01*
X110244000Y-45034889D01*
X110284507Y-45172844D01*
X110310314Y-45213000D01*
X109413364Y-45213000D01*
X109470567Y-45426486D01*
X109470570Y-45426492D01*
X109570399Y-45640578D01*
X109705894Y-45834082D01*
X109872917Y-46001105D01*
X110066421Y-46136600D01*
X110280507Y-46236429D01*
X110280516Y-46236433D01*
X110494000Y-46293634D01*
X110494000Y-45398501D01*
X110601685Y-45447680D01*
X110708237Y-45463000D01*
X110779763Y-45463000D01*
X110886315Y-45447680D01*
X110994000Y-45398501D01*
X110994000Y-46293633D01*
X111207483Y-46236433D01*
X111207492Y-46236429D01*
X111421578Y-46136600D01*
X111615082Y-46001105D01*
X111782105Y-45834082D01*
X111917600Y-45640578D01*
X112017429Y-45426492D01*
X112017432Y-45426486D01*
X112074636Y-45213000D01*
X111177686Y-45213000D01*
X111203493Y-45172844D01*
X111244000Y-45034889D01*
X111244000Y-44891111D01*
X111203493Y-44753156D01*
X111177686Y-44713000D01*
X112074636Y-44713000D01*
X112074635Y-44712999D01*
X112017432Y-44499513D01*
X112017429Y-44499507D01*
X111917600Y-44285422D01*
X111917599Y-44285420D01*
X111782113Y-44091926D01*
X111782108Y-44091920D01*
X111615078Y-43924890D01*
X111429405Y-43794879D01*
X111385780Y-43740302D01*
X111378588Y-43670804D01*
X111410110Y-43608449D01*
X111429406Y-43591730D01*
X111615401Y-43461495D01*
X111782495Y-43294401D01*
X111918035Y-43100830D01*
X112017903Y-42886663D01*
X112079063Y-42658408D01*
X112099659Y-42423000D01*
X112079063Y-42187592D01*
X112017903Y-41959337D01*
X111918035Y-41745171D01*
X111907910Y-41730710D01*
X111782494Y-41551597D01*
X111615402Y-41384506D01*
X111615396Y-41384501D01*
X111429842Y-41254575D01*
X111386217Y-41199998D01*
X111379023Y-41130500D01*
X111410546Y-41068145D01*
X111429842Y-41051425D01*
X111533217Y-40979041D01*
X111615401Y-40921495D01*
X111782495Y-40754401D01*
X111918035Y-40560830D01*
X112017903Y-40346663D01*
X112079063Y-40118408D01*
X112099659Y-39883000D01*
X112079063Y-39647592D01*
X112021892Y-39434223D01*
X112017905Y-39419344D01*
X112017904Y-39419343D01*
X112017903Y-39419337D01*
X111918035Y-39205171D01*
X111915162Y-39201067D01*
X111782494Y-39011597D01*
X111615402Y-38844506D01*
X111615396Y-38844501D01*
X111429842Y-38714575D01*
X111386217Y-38659998D01*
X111379023Y-38590500D01*
X111410546Y-38528145D01*
X111429842Y-38511425D01*
X111459462Y-38490685D01*
X111615401Y-38381495D01*
X111782495Y-38214401D01*
X111918035Y-38020830D01*
X112017903Y-37806663D01*
X112079063Y-37578408D01*
X112099659Y-37343000D01*
X112099284Y-37338719D01*
X112088757Y-37218391D01*
X112079063Y-37107592D01*
X112017903Y-36879337D01*
X111918035Y-36665171D01*
X111900417Y-36640010D01*
X111782496Y-36471600D01*
X111724435Y-36413539D01*
X111660567Y-36349671D01*
X111627084Y-36288351D01*
X111632068Y-36218659D01*
X111673939Y-36162725D01*
X111704915Y-36145810D01*
X111836331Y-36096796D01*
X111951546Y-36010546D01*
X112037796Y-35895331D01*
X112088091Y-35760483D01*
X112094500Y-35700873D01*
X112094499Y-33905128D01*
X112088091Y-33845517D01*
X112071794Y-33801823D01*
X112037797Y-33710671D01*
X112037793Y-33710664D01*
X111951547Y-33595455D01*
X111951544Y-33595452D01*
X111836335Y-33509206D01*
X111836328Y-33509202D01*
X111701482Y-33458908D01*
X111701483Y-33458908D01*
X111641883Y-33452501D01*
X111641881Y-33452500D01*
X111641873Y-33452500D01*
X111641864Y-33452500D01*
X109846129Y-33452500D01*
X109846123Y-33452501D01*
X109786516Y-33458908D01*
X109651671Y-33509202D01*
X109651664Y-33509206D01*
X109536455Y-33595452D01*
X109536452Y-33595455D01*
X109450206Y-33710664D01*
X109450202Y-33710671D01*
X109399908Y-33845517D01*
X109393501Y-33905116D01*
X109393501Y-33905123D01*
X109393500Y-33905135D01*
X109393500Y-35700870D01*
X109393501Y-35700876D01*
X109399908Y-35760483D01*
X109450202Y-35895328D01*
X109450206Y-35895335D01*
X109536452Y-36010544D01*
X109536455Y-36010547D01*
X109651664Y-36096793D01*
X109651671Y-36096797D01*
X109783081Y-36145810D01*
X109839015Y-36187681D01*
X109863432Y-36253145D01*
X109848580Y-36321418D01*
X109827430Y-36349673D01*
X109705503Y-36471600D01*
X109569965Y-36665169D01*
X109569964Y-36665171D01*
X109470098Y-36879335D01*
X109470094Y-36879344D01*
X109408938Y-37107586D01*
X109408936Y-37107596D01*
X109388341Y-37342999D01*
X109388341Y-37343000D01*
X109408936Y-37578403D01*
X109408938Y-37578413D01*
X109470094Y-37806655D01*
X109470096Y-37806659D01*
X109470097Y-37806663D01*
X109565156Y-38010518D01*
X109569965Y-38020830D01*
X109569967Y-38020834D01*
X109705501Y-38214395D01*
X109705506Y-38214402D01*
X109872597Y-38381493D01*
X109872603Y-38381498D01*
X110058158Y-38511425D01*
X110101783Y-38566002D01*
X110108977Y-38635500D01*
X110077454Y-38697855D01*
X110058158Y-38714575D01*
X109872597Y-38844505D01*
X109705505Y-39011597D01*
X109569965Y-39205169D01*
X109569964Y-39205171D01*
X109470098Y-39419335D01*
X109470094Y-39419344D01*
X109408938Y-39647586D01*
X109408936Y-39647596D01*
X109388341Y-39882999D01*
X109388341Y-39883000D01*
X109408936Y-40118403D01*
X109408938Y-40118413D01*
X109470094Y-40346655D01*
X109470096Y-40346659D01*
X109470097Y-40346663D01*
X109535946Y-40487876D01*
X109569965Y-40560830D01*
X109569967Y-40560834D01*
X109662385Y-40692819D01*
X109690177Y-40732511D01*
X109705501Y-40754395D01*
X109705506Y-40754402D01*
X109872597Y-40921493D01*
X109872603Y-40921498D01*
X110058158Y-41051425D01*
X110101783Y-41106002D01*
X110108977Y-41175500D01*
X110077454Y-41237855D01*
X110058158Y-41254575D01*
X109872597Y-41384505D01*
X109705505Y-41551597D01*
X109569965Y-41745169D01*
X109569964Y-41745171D01*
X109470098Y-41959335D01*
X109470094Y-41959344D01*
X109408938Y-42187586D01*
X109408936Y-42187596D01*
X109388341Y-42422999D01*
X109388341Y-42423000D01*
X105108577Y-42423000D01*
X105100093Y-42416649D01*
X105100086Y-42416645D01*
X104965379Y-42366403D01*
X104965372Y-42366401D01*
X104905844Y-42360000D01*
X104798178Y-42360000D01*
X104731139Y-42340315D01*
X104685384Y-42287511D01*
X104675440Y-42218353D01*
X104704465Y-42154797D01*
X104745769Y-42123619D01*
X104756558Y-42118589D01*
X104929776Y-41997301D01*
X105079301Y-41847776D01*
X105200589Y-41674558D01*
X105289956Y-41482910D01*
X105344686Y-41278655D01*
X105363116Y-41068000D01*
X105362985Y-41066507D01*
X105355333Y-40979041D01*
X105344686Y-40857345D01*
X105290949Y-40656796D01*
X105289958Y-40653097D01*
X105289957Y-40653096D01*
X105289956Y-40653090D01*
X105200589Y-40461442D01*
X105081181Y-40290909D01*
X105079299Y-40288221D01*
X104929778Y-40138700D01*
X104756558Y-40017411D01*
X104756556Y-40017410D01*
X104624199Y-39955691D01*
X104569922Y-39930381D01*
X104517484Y-39884210D01*
X104498332Y-39817016D01*
X104518548Y-39750135D01*
X104569922Y-39705618D01*
X104756558Y-39618589D01*
X104929776Y-39497301D01*
X105079301Y-39347776D01*
X105200589Y-39174558D01*
X105289956Y-38982910D01*
X105344686Y-38778655D01*
X105360483Y-38598093D01*
X105363116Y-38568001D01*
X105363116Y-38567998D01*
X105355317Y-38478859D01*
X105344686Y-38357345D01*
X105289956Y-38153090D01*
X105200589Y-37961442D01*
X105092212Y-37806663D01*
X105079299Y-37788221D01*
X104929778Y-37638700D01*
X104756558Y-37517411D01*
X104756556Y-37517410D01*
X104710904Y-37496122D01*
X104569922Y-37430381D01*
X104517484Y-37384210D01*
X104498332Y-37317016D01*
X104518548Y-37250135D01*
X104569922Y-37205618D01*
X104756558Y-37118589D01*
X104929776Y-36997301D01*
X105079301Y-36847776D01*
X105200589Y-36674558D01*
X105289956Y-36482910D01*
X105344686Y-36278655D01*
X105363116Y-36068000D01*
X105358089Y-36010547D01*
X105351435Y-35934486D01*
X105344686Y-35857345D01*
X105289956Y-35653090D01*
X105200589Y-35461442D01*
X105102330Y-35321113D01*
X105079299Y-35288221D01*
X104929778Y-35138700D01*
X104756558Y-35017411D01*
X104756556Y-35017410D01*
X104717464Y-34999181D01*
X104564910Y-34928044D01*
X104564906Y-34928043D01*
X104564902Y-34928041D01*
X104360660Y-34873315D01*
X104360656Y-34873314D01*
X104360655Y-34873314D01*
X104360654Y-34873313D01*
X104360649Y-34873313D01*
X104150002Y-34854884D01*
X104149998Y-34854884D01*
X103939350Y-34873313D01*
X103939339Y-34873315D01*
X103735097Y-34928041D01*
X103735088Y-34928045D01*
X103543443Y-35017410D01*
X103543441Y-35017411D01*
X103370221Y-35138700D01*
X103220700Y-35288221D01*
X103099411Y-35461441D01*
X103099410Y-35461443D01*
X103010045Y-35653088D01*
X103010041Y-35653097D01*
X102955315Y-35857339D01*
X102955313Y-35857350D01*
X102936884Y-36067998D01*
X102936884Y-36068001D01*
X102955313Y-36278649D01*
X102955315Y-36278660D01*
X103010041Y-36482902D01*
X103010043Y-36482906D01*
X103010044Y-36482910D01*
X103079807Y-36632517D01*
X103099410Y-36674556D01*
X103099411Y-36674558D01*
X103220700Y-36847778D01*
X103370221Y-36997299D01*
X103370224Y-36997301D01*
X103543442Y-37118589D01*
X103656046Y-37171097D01*
X103730076Y-37205618D01*
X103782515Y-37251790D01*
X103801667Y-37318984D01*
X103781451Y-37385865D01*
X103730076Y-37430382D01*
X103543443Y-37517410D01*
X103543441Y-37517411D01*
X103370221Y-37638700D01*
X103220700Y-37788221D01*
X103099411Y-37961441D01*
X103099410Y-37961443D01*
X103010045Y-38153088D01*
X103010041Y-38153097D01*
X102955315Y-38357339D01*
X102955313Y-38357350D01*
X102936884Y-38567998D01*
X102936884Y-38568001D01*
X102955313Y-38778649D01*
X102955315Y-38778660D01*
X103010041Y-38982902D01*
X103010043Y-38982906D01*
X103010044Y-38982910D01*
X103079804Y-39132511D01*
X103099410Y-39174556D01*
X103099411Y-39174558D01*
X103220700Y-39347778D01*
X103370221Y-39497299D01*
X103385695Y-39508134D01*
X103543442Y-39618589D01*
X103692020Y-39687872D01*
X103730076Y-39705618D01*
X103782515Y-39751790D01*
X103801667Y-39818984D01*
X103781451Y-39885865D01*
X103730076Y-39930382D01*
X103543443Y-40017410D01*
X103543441Y-40017411D01*
X103370221Y-40138700D01*
X103220700Y-40288221D01*
X103166099Y-40366201D01*
X103134176Y-40411793D01*
X103132194Y-40414623D01*
X103077618Y-40458248D01*
X103030619Y-40467500D01*
X102866428Y-40467500D01*
X102858329Y-40466969D01*
X102823000Y-40462318D01*
X102822999Y-40462318D01*
X102711676Y-40476974D01*
X102666238Y-40482956D01*
X102666237Y-40482956D01*
X102520157Y-40543464D01*
X102394719Y-40639716D01*
X102373019Y-40667994D01*
X102367668Y-40674096D01*
X101622207Y-41419556D01*
X101570490Y-41448143D01*
X101571110Y-41449915D01*
X101564540Y-41452213D01*
X101564539Y-41452214D01*
X101560564Y-41453605D01*
X101410225Y-41506210D01*
X101271795Y-41593192D01*
X101156192Y-41708795D01*
X101069210Y-41847225D01*
X101015212Y-42001544D01*
X100996909Y-42163996D01*
X100996909Y-42164003D01*
X78609625Y-42164003D01*
X78687525Y-42107402D01*
X78737706Y-42057217D01*
X78740903Y-42054240D01*
X78782878Y-42017837D01*
X78788320Y-42009788D01*
X78803361Y-41991560D01*
X79533923Y-41260996D01*
X79539998Y-41255670D01*
X79568282Y-41233968D01*
X79650205Y-41127204D01*
X79658306Y-41116647D01*
X79660864Y-41113311D01*
X79664537Y-41108526D01*
X79665583Y-41106002D01*
X79703489Y-41014487D01*
X79718171Y-40979041D01*
X79725044Y-40962448D01*
X79740500Y-40845047D01*
X79740500Y-40845046D01*
X79745682Y-40805685D01*
X79741030Y-40770354D01*
X79740500Y-40762256D01*
X79740500Y-40545513D01*
X79714945Y-40384167D01*
X79714856Y-40383607D01*
X79723810Y-40314315D01*
X79768806Y-40260863D01*
X79823893Y-40241870D01*
X79823799Y-40241275D01*
X79827167Y-40240741D01*
X79827601Y-40240592D01*
X79828600Y-40240513D01*
X79828611Y-40240513D01*
X80015246Y-40210948D01*
X80103455Y-40182285D01*
X80194955Y-40152554D01*
X80222144Y-40138700D01*
X80363324Y-40066762D01*
X80516195Y-39955691D01*
X80649810Y-39822073D01*
X80760878Y-39669198D01*
X80846664Y-39500831D01*
X80846816Y-39500365D01*
X80905054Y-39321120D01*
X80905053Y-39321120D01*
X80905055Y-39321117D01*
X80920212Y-39225417D01*
X80934615Y-39134486D01*
X80934615Y-38963459D01*
X80934600Y-38963211D01*
X80934600Y-38945514D01*
X80916729Y-38832682D01*
X80905041Y-38758887D01*
X80890643Y-38714575D01*
X80846650Y-38579175D01*
X80828178Y-38542921D01*
X80760865Y-38410810D01*
X80689727Y-38312895D01*
X80666249Y-38247089D01*
X80682075Y-38179036D01*
X80689722Y-38167136D01*
X80760878Y-38069198D01*
X80846664Y-37900831D01*
X80857075Y-37868790D01*
X80905054Y-37721120D01*
X80905053Y-37721120D01*
X80905055Y-37721117D01*
X80917703Y-37641261D01*
X80934615Y-37534486D01*
X80934615Y-37363459D01*
X80934600Y-37363211D01*
X80934600Y-37345514D01*
X80914465Y-37218391D01*
X80905041Y-37158887D01*
X80901116Y-37146808D01*
X80846650Y-36979175D01*
X80760865Y-36810810D01*
X80689727Y-36712895D01*
X80666249Y-36647089D01*
X80682075Y-36579036D01*
X80689722Y-36567136D01*
X80760878Y-36469198D01*
X80846664Y-36300831D01*
X80848168Y-36296204D01*
X80905054Y-36121120D01*
X80905053Y-36121120D01*
X80905055Y-36121117D01*
X80920165Y-36025715D01*
X80934615Y-35934486D01*
X80934615Y-35763459D01*
X80934600Y-35763211D01*
X80934600Y-35745514D01*
X80912700Y-35607248D01*
X80905041Y-35558887D01*
X80873379Y-35461441D01*
X80846650Y-35379175D01*
X80820373Y-35327603D01*
X80760865Y-35210810D01*
X80689727Y-35112895D01*
X80666249Y-35047089D01*
X80682075Y-34979036D01*
X80689722Y-34967136D01*
X80760878Y-34869198D01*
X80846664Y-34700831D01*
X80853021Y-34681268D01*
X80905054Y-34521120D01*
X80905053Y-34521120D01*
X80905055Y-34521117D01*
X80917824Y-34440498D01*
X80934615Y-34334486D01*
X80934615Y-34163459D01*
X80934600Y-34163211D01*
X80934600Y-34145514D01*
X80916304Y-34030000D01*
X80905041Y-33958887D01*
X80887572Y-33905123D01*
X80846650Y-33779175D01*
X80816007Y-33719034D01*
X80760865Y-33610810D01*
X80689727Y-33512895D01*
X80666249Y-33447089D01*
X80682075Y-33379036D01*
X80689722Y-33367136D01*
X80760878Y-33269198D01*
X80846664Y-33100831D01*
X80849490Y-33092135D01*
X80905054Y-32921120D01*
X80905053Y-32921120D01*
X80905055Y-32921117D01*
X80917738Y-32841040D01*
X80934615Y-32734486D01*
X80934615Y-32563459D01*
X80934600Y-32563211D01*
X80934600Y-32545514D01*
X80914840Y-32420758D01*
X80905041Y-32358887D01*
X80902829Y-32352080D01*
X80846650Y-32179175D01*
X80831644Y-32149723D01*
X80760865Y-32010810D01*
X80689727Y-31912895D01*
X80666249Y-31847089D01*
X80682075Y-31779036D01*
X80689722Y-31767136D01*
X80760878Y-31669198D01*
X80846664Y-31500831D01*
X80877936Y-31404585D01*
X80889171Y-31370004D01*
X116014732Y-31370004D01*
X116021937Y-31466151D01*
X116025748Y-31565591D01*
X116025749Y-31565600D01*
X116030990Y-31592623D01*
X116031951Y-31599795D01*
X116033778Y-31624155D01*
X116033779Y-31624161D01*
X116055925Y-31721191D01*
X116075462Y-31821930D01*
X116083677Y-31844803D01*
X116085774Y-31851968D01*
X116090492Y-31872638D01*
X116127981Y-31968156D01*
X116163719Y-32067665D01*
X116173795Y-32086196D01*
X116177043Y-32093166D01*
X116183604Y-32109882D01*
X116183605Y-32109884D01*
X116183607Y-32109888D01*
X116206606Y-32149724D01*
X116236462Y-32201437D01*
X116288455Y-32297051D01*
X116288455Y-32297052D01*
X116299283Y-32311258D01*
X116303667Y-32317843D01*
X116311039Y-32330610D01*
X116378889Y-32415691D01*
X116444387Y-32501617D01*
X116446750Y-32504716D01*
X116457293Y-32514862D01*
X116462774Y-32520879D01*
X116469950Y-32529877D01*
X116551983Y-32605992D01*
X116634886Y-32685778D01*
X116644213Y-32692338D01*
X116650714Y-32697601D01*
X116656781Y-32703231D01*
X116656784Y-32703233D01*
X116743419Y-32762299D01*
X116751819Y-32768026D01*
X116848456Y-32835999D01*
X116855778Y-32839624D01*
X116863195Y-32843961D01*
X116867366Y-32846805D01*
X116973783Y-32898053D01*
X117082453Y-32951859D01*
X117082946Y-32952015D01*
X117092608Y-32955848D01*
X117092670Y-32955691D01*
X117096982Y-32957382D01*
X117096996Y-32957389D01*
X117212830Y-32993119D01*
X117331392Y-33030640D01*
X117331388Y-33030640D01*
X117332146Y-33030757D01*
X117336481Y-33031586D01*
X117340534Y-33032511D01*
X117340536Y-33032511D01*
X117340542Y-33032513D01*
X117357420Y-33035056D01*
X117420774Y-33064509D01*
X117458150Y-33123541D01*
X117457678Y-33193409D01*
X117426625Y-33245349D01*
X117419266Y-33252707D01*
X117419261Y-33252714D01*
X117337595Y-33390805D01*
X117297156Y-33530000D01*
X118922844Y-33530000D01*
X118922263Y-33528000D01*
X119837156Y-33528000D01*
X120400000Y-33528000D01*
X120400000Y-33008068D01*
X120900000Y-33008068D01*
X120900000Y-33528000D01*
X121462844Y-33528000D01*
X121422404Y-33388805D01*
X121340738Y-33250714D01*
X121340731Y-33250705D01*
X121227294Y-33137268D01*
X121227285Y-33137261D01*
X121089191Y-33055593D01*
X121089188Y-33055592D01*
X120935130Y-33010834D01*
X120900000Y-33008068D01*
X120400000Y-33008068D01*
X120399999Y-33008068D01*
X120364869Y-33010834D01*
X120364868Y-33010834D01*
X120210811Y-33055592D01*
X120210808Y-33055593D01*
X120072714Y-33137261D01*
X120072705Y-33137268D01*
X119959268Y-33250705D01*
X119959261Y-33250714D01*
X119877595Y-33388805D01*
X119837156Y-33528000D01*
X118922263Y-33528000D01*
X118882404Y-33390805D01*
X118800738Y-33252714D01*
X118800731Y-33252705D01*
X118687294Y-33139268D01*
X118687285Y-33139261D01*
X118562672Y-33065565D01*
X118514988Y-33014496D01*
X118502485Y-32945754D01*
X118529131Y-32881165D01*
X118568888Y-32849583D01*
X118568622Y-32849121D01*
X118571729Y-32847327D01*
X118572006Y-32847107D01*
X118572634Y-32846805D01*
X118632736Y-32805827D01*
X118635981Y-32803759D01*
X118660719Y-32789051D01*
X118701208Y-32764982D01*
X118739872Y-32733095D01*
X118744381Y-32729709D01*
X118783217Y-32703232D01*
X118838927Y-32651540D01*
X118841620Y-32649183D01*
X118902652Y-32598852D01*
X118933848Y-32563844D01*
X118937958Y-32559653D01*
X118953196Y-32545514D01*
X118970050Y-32529877D01*
X119019465Y-32467910D01*
X119021593Y-32465388D01*
X119076375Y-32403920D01*
X119100124Y-32367245D01*
X119103654Y-32362342D01*
X119128959Y-32330612D01*
X119170178Y-32259215D01*
X119171794Y-32256573D01*
X119218306Y-32184753D01*
X119234857Y-32147829D01*
X119237726Y-32142217D01*
X119256393Y-32109888D01*
X119287679Y-32030168D01*
X119288804Y-32027490D01*
X119325118Y-31946489D01*
X119334980Y-31910599D01*
X119337047Y-31904384D01*
X119349508Y-31872637D01*
X119361049Y-31822073D01*
X119369583Y-31784683D01*
X119394307Y-31694714D01*
X119394799Y-31690454D01*
X119398205Y-31660941D01*
X119399350Y-31654262D01*
X119406222Y-31624157D01*
X119407509Y-31606989D01*
X119413195Y-31531094D01*
X119416689Y-31500830D01*
X119424252Y-31435325D01*
X119423073Y-31404575D01*
X119423200Y-31397583D01*
X119425268Y-31370000D01*
X119418062Y-31273848D01*
X119414251Y-31174407D01*
X119411353Y-31159463D01*
X119409008Y-31147372D01*
X119408046Y-31140192D01*
X119406222Y-31115843D01*
X119384074Y-31018808D01*
X119364538Y-30918073D01*
X119356320Y-30895193D01*
X119354226Y-30888037D01*
X119349508Y-30867363D01*
X119322599Y-30798803D01*
X119312018Y-30771842D01*
X119297055Y-30730180D01*
X119276279Y-30672332D01*
X119266200Y-30653797D01*
X119262959Y-30646843D01*
X119256393Y-30630112D01*
X119253316Y-30624783D01*
X119203537Y-30538562D01*
X119151540Y-30442941D01*
X119141228Y-30429414D01*
X119140712Y-30428736D01*
X119136332Y-30422158D01*
X119128959Y-30409388D01*
X119061110Y-30324308D01*
X118993250Y-30235284D01*
X118982711Y-30225141D01*
X118977222Y-30219116D01*
X118970051Y-30210124D01*
X118970043Y-30210115D01*
X118888016Y-30134007D01*
X118805116Y-30054223D01*
X118795785Y-30047660D01*
X118789288Y-30042401D01*
X118783217Y-30036768D01*
X118771559Y-30028820D01*
X118688180Y-29971973D01*
X118591547Y-29904002D01*
X118591543Y-29904000D01*
X118584221Y-29900374D01*
X118576808Y-29896040D01*
X118572636Y-29893196D01*
X118572636Y-29893195D01*
X118466216Y-29841946D01*
X118357546Y-29788140D01*
X118357541Y-29788138D01*
X118357030Y-29787977D01*
X118347379Y-29784149D01*
X118347319Y-29784304D01*
X118343007Y-29782611D01*
X118227169Y-29746880D01*
X118207195Y-29740559D01*
X118108605Y-29709359D01*
X118108601Y-29709358D01*
X118108600Y-29709358D01*
X118108587Y-29709355D01*
X118107842Y-29709240D01*
X118103539Y-29708418D01*
X118099464Y-29707488D01*
X118099458Y-29707487D01*
X117976498Y-29688953D01*
X117850555Y-29669500D01*
X117847435Y-29669500D01*
X117592565Y-29669500D01*
X117592557Y-29669500D01*
X117530168Y-29678904D01*
X117525673Y-29679415D01*
X117459661Y-29684483D01*
X117459652Y-29684485D01*
X117401460Y-29698101D01*
X117396575Y-29699040D01*
X117340542Y-29707486D01*
X117277175Y-29727032D01*
X117273028Y-29728155D01*
X117222170Y-29740057D01*
X117205414Y-29743979D01*
X117205411Y-29743979D01*
X117205407Y-29743981D01*
X117152955Y-29765120D01*
X117148057Y-29766859D01*
X117141278Y-29768950D01*
X117097005Y-29782607D01*
X117096995Y-29782611D01*
X117034352Y-29812776D01*
X117030631Y-29814420D01*
X116963231Y-29841587D01*
X116917393Y-29868838D01*
X116912611Y-29871404D01*
X116867369Y-29893192D01*
X116807256Y-29934177D01*
X116804013Y-29936243D01*
X116738797Y-29975014D01*
X116738786Y-29975021D01*
X116700129Y-30006901D01*
X116695609Y-30010294D01*
X116656782Y-30036768D01*
X116656776Y-30036773D01*
X116601078Y-30088452D01*
X116598367Y-30090824D01*
X116569711Y-30114457D01*
X116537352Y-30141144D01*
X116537344Y-30141151D01*
X116506155Y-30176148D01*
X116502038Y-30180349D01*
X116469952Y-30210120D01*
X116469948Y-30210124D01*
X116420571Y-30272041D01*
X116418384Y-30274634D01*
X116363626Y-30336078D01*
X116363624Y-30336080D01*
X116339892Y-30372724D01*
X116336326Y-30377679D01*
X116311043Y-30409384D01*
X116269837Y-30480754D01*
X116268185Y-30483454D01*
X116221695Y-30555244D01*
X116205151Y-30592146D01*
X116202270Y-30597784D01*
X116183606Y-30630113D01*
X116152326Y-30709813D01*
X116151187Y-30712523D01*
X116114883Y-30793507D01*
X116105019Y-30829395D01*
X116102950Y-30835616D01*
X116090490Y-30867367D01*
X116070416Y-30955316D01*
X116045693Y-31045283D01*
X116045693Y-31045288D01*
X116041794Y-31079049D01*
X116040649Y-31085734D01*
X116033778Y-31115841D01*
X116033776Y-31115849D01*
X116026804Y-31208905D01*
X116015748Y-31304673D01*
X116016925Y-31335410D01*
X116016797Y-31342419D01*
X116014732Y-31370001D01*
X116014732Y-31370004D01*
X80889171Y-31370004D01*
X80905054Y-31321120D01*
X80905053Y-31321120D01*
X80905055Y-31321117D01*
X80922527Y-31210802D01*
X80934615Y-31134486D01*
X80934615Y-30963459D01*
X80934600Y-30963211D01*
X80934600Y-30945514D01*
X80913296Y-30811011D01*
X80905041Y-30758887D01*
X80902977Y-30752536D01*
X80846650Y-30579175D01*
X80825957Y-30538562D01*
X80760865Y-30410810D01*
X80649799Y-30257937D01*
X80516186Y-30124321D01*
X80489635Y-30105030D01*
X80363315Y-30013250D01*
X80194950Y-29927460D01*
X80015241Y-29869065D01*
X79845100Y-29842114D01*
X79781965Y-29812183D01*
X79745035Y-29752871D01*
X79740500Y-29719641D01*
X79740500Y-29018428D01*
X79741031Y-29010326D01*
X79741230Y-29008819D01*
X79745682Y-28975000D01*
X79745255Y-28971760D01*
X79725093Y-28818611D01*
X79725044Y-28818238D01*
X79685701Y-28723255D01*
X79664538Y-28672163D01*
X79664538Y-28672162D01*
X79664536Y-28672159D01*
X79651153Y-28654718D01*
X79568282Y-28546718D01*
X79540005Y-28525020D01*
X79533904Y-28519669D01*
X79116751Y-28102516D01*
X78560320Y-27546085D01*
X78554979Y-27539994D01*
X78533282Y-27511718D01*
X78533281Y-27511717D01*
X78528334Y-27505270D01*
X78531087Y-27503157D01*
X78505260Y-27455858D01*
X78510244Y-27386166D01*
X78552116Y-27330233D01*
X78617580Y-27305816D01*
X78626426Y-27305500D01*
X125091515Y-27305500D01*
X125098460Y-27305890D01*
G37*
%TD.AperFunction*%
%TA.AperFunction,Conductor*%
G36*
X58971350Y-32013542D02*
G01*
X59067716Y-32069179D01*
X59247744Y-32127674D01*
X59388808Y-32142500D01*
X60763525Y-32142500D01*
X60770009Y-32142840D01*
X60776267Y-32143497D01*
X60785808Y-32144500D01*
X60807803Y-32144500D01*
X60811046Y-32144584D01*
X60880388Y-32148219D01*
X60894228Y-32146027D01*
X60913627Y-32144500D01*
X61537658Y-32144500D01*
X61604697Y-32164185D01*
X61644389Y-32205378D01*
X61662419Y-32235865D01*
X61662421Y-32235867D01*
X61662423Y-32235870D01*
X61778629Y-32352076D01*
X61778633Y-32352079D01*
X61778635Y-32352081D01*
X61920102Y-32435744D01*
X61961495Y-32447770D01*
X62077926Y-32481597D01*
X62077929Y-32481597D01*
X62077931Y-32481598D01*
X62090222Y-32482565D01*
X62114804Y-32484500D01*
X62114806Y-32484500D01*
X62325778Y-32484500D01*
X62382072Y-32498014D01*
X62443512Y-32529320D01*
X62626355Y-32578313D01*
X62815388Y-32588219D01*
X62815388Y-32588218D01*
X62815389Y-32588219D01*
X62815389Y-32588218D01*
X62948709Y-32567103D01*
X63002346Y-32558608D01*
X63002348Y-32558607D01*
X63002350Y-32558607D01*
X63173951Y-32492735D01*
X63218388Y-32484500D01*
X63421196Y-32484500D01*
X63439631Y-32483049D01*
X63458069Y-32481598D01*
X63500904Y-32469153D01*
X63570774Y-32469352D01*
X63629444Y-32507293D01*
X63658288Y-32570932D01*
X63659500Y-32588229D01*
X63659500Y-32604404D01*
X63639815Y-32671443D01*
X63623181Y-32692085D01*
X63618869Y-32696396D01*
X63618863Y-32696404D01*
X63537131Y-32834606D01*
X63537129Y-32834611D01*
X63492335Y-32988791D01*
X63492334Y-32988797D01*
X63489500Y-33024817D01*
X63489501Y-33523181D01*
X63492335Y-33559205D01*
X63537129Y-33713388D01*
X63537131Y-33713393D01*
X63618863Y-33851595D01*
X63618869Y-33851603D01*
X63732396Y-33965130D01*
X63732400Y-33965133D01*
X63732402Y-33965135D01*
X63870607Y-34046869D01*
X63911268Y-34058682D01*
X64024791Y-34091664D01*
X64024794Y-34091664D01*
X64024796Y-34091665D01*
X64036803Y-34092610D01*
X64060817Y-34094500D01*
X64060818Y-34094499D01*
X64060819Y-34094500D01*
X64431180Y-34094499D01*
X64498219Y-34114183D01*
X64543974Y-34166987D01*
X64554400Y-34232382D01*
X64547909Y-34289995D01*
X64547909Y-34290003D01*
X64566212Y-34452455D01*
X64620210Y-34606774D01*
X64682244Y-34705500D01*
X64707192Y-34745204D01*
X64822796Y-34860808D01*
X64961225Y-34947789D01*
X65115539Y-35001786D01*
X65115542Y-35001786D01*
X65115544Y-35001787D01*
X65277996Y-35020091D01*
X65278000Y-35020091D01*
X65278001Y-35020091D01*
X65286490Y-35019134D01*
X65292883Y-35018414D01*
X65361705Y-35030468D01*
X65413085Y-35077816D01*
X65430710Y-35145426D01*
X65408984Y-35211832D01*
X65394449Y-35229315D01*
X64239508Y-36384257D01*
X64178185Y-36417742D01*
X64151827Y-36420576D01*
X59669352Y-36420576D01*
X59661253Y-36420045D01*
X59625924Y-36415394D01*
X59625923Y-36415394D01*
X59554052Y-36424856D01*
X59482181Y-36434318D01*
X59469162Y-36436032D01*
X59469161Y-36436032D01*
X59323084Y-36496539D01*
X59197638Y-36592797D01*
X59175948Y-36621066D01*
X59170595Y-36627170D01*
X58857851Y-36939913D01*
X58796528Y-36973398D01*
X58726836Y-36968414D01*
X58670903Y-36926542D01*
X58663437Y-36915351D01*
X58650580Y-36893610D01*
X58633399Y-36825886D01*
X58650582Y-36767369D01*
X58667682Y-36738455D01*
X58684869Y-36709393D01*
X58717619Y-36596666D01*
X58729664Y-36555208D01*
X58729666Y-36555196D01*
X58732500Y-36519183D01*
X58732499Y-36120819D01*
X58730609Y-36096796D01*
X58729665Y-36084796D01*
X58684869Y-35930607D01*
X58673766Y-35911833D01*
X58656500Y-35848715D01*
X58656500Y-32596133D01*
X58675507Y-32530160D01*
X58690226Y-32506735D01*
X58715510Y-32466496D01*
X58769507Y-32312182D01*
X58769507Y-32312180D01*
X58769508Y-32312178D01*
X58787812Y-32149724D01*
X58787812Y-32149723D01*
X58787812Y-32149721D01*
X58786132Y-32134814D01*
X58798185Y-32065995D01*
X58845532Y-32014614D01*
X58913142Y-31996988D01*
X58971350Y-32013542D01*
G37*
%TD.AperFunction*%
%TD*%
M02*
