%TF.GenerationSoftware,KiCad,Pcbnew,7.0.5-0*%
%TF.CreationDate,2024-04-12T00:02:12+02:00*%
%TF.ProjectId,MTR_C3_TempHum,4d54525f-4333-45f5-9465-6d7048756d2e,rev?*%
%TF.SameCoordinates,Original*%
%TF.FileFunction,Copper,L1,Top*%
%TF.FilePolarity,Positive*%
%FSLAX46Y46*%
G04 Gerber Fmt 4.6, Leading zero omitted, Abs format (unit mm)*
G04 Created by KiCad (PCBNEW 7.0.5-0) date 2024-04-12 00:02:12*
%MOMM*%
%LPD*%
G01*
G04 APERTURE LIST*
G04 Aperture macros list*
%AMRoundRect*
0 Rectangle with rounded corners*
0 $1 Rounding radius*
0 $2 $3 $4 $5 $6 $7 $8 $9 X,Y pos of 4 corners*
0 Add a 4 corners polygon primitive as box body*
4,1,4,$2,$3,$4,$5,$6,$7,$8,$9,$2,$3,0*
0 Add four circle primitives for the rounded corners*
1,1,$1+$1,$2,$3*
1,1,$1+$1,$4,$5*
1,1,$1+$1,$6,$7*
1,1,$1+$1,$8,$9*
0 Add four rect primitives between the rounded corners*
20,1,$1+$1,$2,$3,$4,$5,0*
20,1,$1+$1,$4,$5,$6,$7,0*
20,1,$1+$1,$6,$7,$8,$9,0*
20,1,$1+$1,$8,$9,$2,$3,0*%
%AMOutline5P*
0 Free polygon, 5 corners , with rotation*
0 The origin of the aperture is its center*
0 number of corners: always 5*
0 $1 to $10 corner X, Y*
0 $11 Rotation angle, in degrees counterclockwise*
0 create outline with 5 corners*
4,1,5,$1,$2,$3,$4,$5,$6,$7,$8,$9,$10,$1,$2,$11*%
%AMOutline6P*
0 Free polygon, 6 corners , with rotation*
0 The origin of the aperture is its center*
0 number of corners: always 6*
0 $1 to $12 corner X, Y*
0 $13 Rotation angle, in degrees counterclockwise*
0 create outline with 6 corners*
4,1,6,$1,$2,$3,$4,$5,$6,$7,$8,$9,$10,$11,$12,$1,$2,$13*%
%AMOutline7P*
0 Free polygon, 7 corners , with rotation*
0 The origin of the aperture is its center*
0 number of corners: always 7*
0 $1 to $14 corner X, Y*
0 $15 Rotation angle, in degrees counterclockwise*
0 create outline with 7 corners*
4,1,7,$1,$2,$3,$4,$5,$6,$7,$8,$9,$10,$11,$12,$13,$14,$1,$2,$15*%
%AMOutline8P*
0 Free polygon, 8 corners , with rotation*
0 The origin of the aperture is its center*
0 number of corners: always 8*
0 $1 to $16 corner X, Y*
0 $17 Rotation angle, in degrees counterclockwise*
0 create outline with 8 corners*
4,1,8,$1,$2,$3,$4,$5,$6,$7,$8,$9,$10,$11,$12,$13,$14,$15,$16,$1,$2,$17*%
%AMFreePoly0*
4,1,6,0.209000,-0.242000,-0.508000,-0.242000,-0.254000,0.000000,-0.508000,0.242000,0.209000,0.242000,0.209000,-0.242000,0.209000,-0.242000,$1*%
%AMFreePoly1*
4,1,6,0.463000,0.000000,0.238000,-0.242000,-0.254000,-0.242000,-0.254000,0.242000,0.238000,0.242000,0.463000,0.000000,0.463000,0.000000,$1*%
%AMFreePoly2*
4,1,19,0.500000,-0.750000,0.000000,-0.750000,0.000000,-0.744911,-0.071157,-0.744911,-0.207708,-0.704816,-0.327430,-0.627875,-0.420627,-0.520320,-0.479746,-0.390866,-0.500000,-0.250000,-0.500000,0.250000,-0.479746,0.390866,-0.420627,0.520320,-0.327430,0.627875,-0.207708,0.704816,-0.071157,0.744911,0.000000,0.744911,0.000000,0.750000,0.500000,0.750000,0.500000,-0.750000,0.500000,-0.750000,
$1*%
%AMFreePoly3*
4,1,19,0.000000,0.744911,0.071157,0.744911,0.207708,0.704816,0.327430,0.627875,0.420627,0.520320,0.479746,0.390866,0.500000,0.250000,0.500000,-0.250000,0.479746,-0.390866,0.420627,-0.520320,0.327430,-0.627875,0.207708,-0.704816,0.071157,-0.744911,0.000000,-0.744911,0.000000,-0.750000,-0.500000,-0.750000,-0.500000,0.750000,0.000000,0.750000,0.000000,0.744911,0.000000,0.744911,
$1*%
%AMFreePoly4*
4,1,6,0.471000,0.000000,0.217000,-0.254000,-0.246000,-0.254000,-0.246000,0.242000,0.217000,0.242000,0.471000,0.000000,0.471000,0.000000,$1*%
%AMFreePoly5*
4,1,6,0.263000,-0.242000,-0.529000,-0.242000,-0.254000,0.000000,-0.529000,0.242000,0.263000,0.242000,0.263000,-0.242000,0.263000,-0.242000,$1*%
%AMFreePoly6*
4,1,6,0.471000,0.000000,0.217000,-0.242000,-0.246000,-0.242000,-0.246000,0.242000,0.217000,0.242000,0.471000,0.000000,0.471000,0.000000,$1*%
%AMFreePoly7*
4,1,6,0.269000,-0.242000,-0.500000,-0.242000,-0.254000,0.000000,-0.500000,0.242000,0.269000,0.242000,0.269000,-0.242000,0.269000,-0.242000,$1*%
G04 Aperture macros list end*
%TA.AperFunction,SMDPad,CuDef*%
%ADD10C,1.000000*%
%TD*%
%TA.AperFunction,SMDPad,CuDef*%
%ADD11C,0.750000*%
%TD*%
%TA.AperFunction,SMDPad,CuDef*%
%ADD12RoundRect,0.150000X0.587500X0.150000X-0.587500X0.150000X-0.587500X-0.150000X0.587500X-0.150000X0*%
%TD*%
%TA.AperFunction,SMDPad,CuDef*%
%ADD13FreePoly0,180.000000*%
%TD*%
%TA.AperFunction,SMDPad,CuDef*%
%ADD14FreePoly1,180.000000*%
%TD*%
%TA.AperFunction,SMDPad,CuDef*%
%ADD15R,1.250000X0.700000*%
%TD*%
%TA.AperFunction,SMDPad,CuDef*%
%ADD16RoundRect,0.135000X-0.135000X-0.185000X0.135000X-0.185000X0.135000X0.185000X-0.135000X0.185000X0*%
%TD*%
%TA.AperFunction,ComponentPad*%
%ADD17O,1.000000X1.000000*%
%TD*%
%TA.AperFunction,ComponentPad*%
%ADD18R,1.000000X1.000000*%
%TD*%
%TA.AperFunction,SMDPad,CuDef*%
%ADD19RoundRect,0.135000X0.185000X-0.135000X0.185000X0.135000X-0.185000X0.135000X-0.185000X-0.135000X0*%
%TD*%
%TA.AperFunction,SMDPad,CuDef*%
%ADD20O,0.450000X0.900000*%
%TD*%
%TA.AperFunction,SMDPad,CuDef*%
%ADD21RoundRect,0.150000X-0.587500X-0.150000X0.587500X-0.150000X0.587500X0.150000X-0.587500X0.150000X0*%
%TD*%
%TA.AperFunction,SMDPad,CuDef*%
%ADD22RoundRect,0.135000X-0.185000X0.135000X-0.185000X-0.135000X0.185000X-0.135000X0.185000X0.135000X0*%
%TD*%
%TA.AperFunction,SMDPad,CuDef*%
%ADD23FreePoly2,180.000000*%
%TD*%
%TA.AperFunction,SMDPad,CuDef*%
%ADD24FreePoly3,180.000000*%
%TD*%
%TA.AperFunction,SMDPad,CuDef*%
%ADD25RoundRect,0.135000X0.135000X0.185000X-0.135000X0.185000X-0.135000X-0.185000X0.135000X-0.185000X0*%
%TD*%
%TA.AperFunction,SMDPad,CuDef*%
%ADD26FreePoly4,180.000000*%
%TD*%
%TA.AperFunction,SMDPad,CuDef*%
%ADD27FreePoly5,180.000000*%
%TD*%
%TA.AperFunction,SMDPad,CuDef*%
%ADD28R,0.600000X1.450000*%
%TD*%
%TA.AperFunction,SMDPad,CuDef*%
%ADD29R,0.300000X1.450000*%
%TD*%
%TA.AperFunction,ComponentPad*%
%ADD30O,1.000000X2.100000*%
%TD*%
%TA.AperFunction,ComponentPad*%
%ADD31O,1.000000X1.600000*%
%TD*%
%TA.AperFunction,SMDPad,CuDef*%
%ADD32R,2.600000X2.600000*%
%TD*%
%TA.AperFunction,SMDPad,CuDef*%
%ADD33RoundRect,0.062500X0.062500X0.350000X-0.062500X0.350000X-0.062500X-0.350000X0.062500X-0.350000X0*%
%TD*%
%TA.AperFunction,SMDPad,CuDef*%
%ADD34RoundRect,0.062500X0.350000X0.062500X-0.350000X0.062500X-0.350000X-0.062500X0.350000X-0.062500X0*%
%TD*%
%TA.AperFunction,SMDPad,CuDef*%
%ADD35RoundRect,0.218750X-0.256250X0.218750X-0.256250X-0.218750X0.256250X-0.218750X0.256250X0.218750X0*%
%TD*%
%TA.AperFunction,SMDPad,CuDef*%
%ADD36R,1.350000X2.000000*%
%TD*%
%TA.AperFunction,SMDPad,CuDef*%
%ADD37FreePoly6,180.000000*%
%TD*%
%TA.AperFunction,SMDPad,CuDef*%
%ADD38FreePoly7,180.000000*%
%TD*%
%TA.AperFunction,SMDPad,CuDef*%
%ADD39R,1.050000X0.530000*%
%TD*%
%TA.AperFunction,SMDPad,CuDef*%
%ADD40R,0.520000X0.250000*%
%TD*%
%TA.AperFunction,SMDPad,CuDef*%
%ADD41R,0.900000X1.600000*%
%TD*%
%TA.AperFunction,SMDPad,CuDef*%
%ADD42R,0.280000X0.510000*%
%TD*%
%TA.AperFunction,SMDPad,CuDef*%
%ADD43R,1.200000X1.500000*%
%TD*%
%TA.AperFunction,SMDPad,CuDef*%
%ADD44R,0.400000X0.800000*%
%TD*%
%TA.AperFunction,SMDPad,CuDef*%
%ADD45R,0.800000X0.400000*%
%TD*%
%TA.AperFunction,SMDPad,CuDef*%
%ADD46Outline5P,-0.725000X0.145000X-0.145000X0.725000X0.725000X0.725000X0.725000X-0.725000X-0.725000X-0.725000X90.000000*%
%TD*%
%TA.AperFunction,SMDPad,CuDef*%
%ADD47R,1.450000X1.450000*%
%TD*%
%TA.AperFunction,SMDPad,CuDef*%
%ADD48R,0.700000X0.700000*%
%TD*%
%TA.AperFunction,SMDPad,CuDef*%
%ADD49R,0.530000X1.070000*%
%TD*%
%TA.AperFunction,ComponentPad*%
%ADD50C,2.400000*%
%TD*%
%TA.AperFunction,ViaPad*%
%ADD51C,0.450000*%
%TD*%
%TA.AperFunction,Conductor*%
%ADD52C,0.200000*%
%TD*%
%TA.AperFunction,Conductor*%
%ADD53C,0.500000*%
%TD*%
%TA.AperFunction,Conductor*%
%ADD54C,0.300000*%
%TD*%
%TA.AperFunction,Conductor*%
%ADD55C,0.700000*%
%TD*%
%TA.AperFunction,Conductor*%
%ADD56C,0.350000*%
%TD*%
%TA.AperFunction,Conductor*%
%ADD57C,0.250000*%
%TD*%
%TA.AperFunction,Conductor*%
%ADD58C,0.400000*%
%TD*%
G04 APERTURE END LIST*
D10*
%TO.P,TP4,1,1*%
%TO.N,GPIO10*%
X78536800Y-34594800D03*
%TD*%
%TO.P,TP3,1,1*%
%TO.N,VBUS*%
X80670400Y-34594800D03*
%TD*%
%TO.P,TP2,1,1*%
%TO.N,+3.3V*%
X80670400Y-32461200D03*
%TD*%
D11*
%TO.P,FID1,*%
%TO.N,*%
X41452800Y-48260000D03*
%TD*%
D10*
%TO.P,TP1,1,1*%
%TO.N,VBAT*%
X78536800Y-32461200D03*
%TD*%
D11*
%TO.P,FID3,*%
%TO.N,*%
X125425200Y-29210000D03*
%TD*%
%TO.P,FID2,*%
%TO.N,*%
X79857600Y-43281600D03*
%TD*%
D12*
%TO.P,Q2,3,D*%
%TO.N,VBAT*%
X99595700Y-36880800D03*
%TO.P,Q2,2,S*%
%TO.N,Net-(IC5-EN)*%
X101470700Y-35930800D03*
%TO.P,Q2,1,G*%
%TO.N,GND*%
X101470700Y-37830800D03*
%TD*%
D13*
%TO.P,JP4,2,B*%
%TO.N,GND*%
X103022400Y-46532800D03*
D14*
%TO.P,JP4,1,A*%
%TO.N,Net-(JP4-A)*%
X104038400Y-46532800D03*
%TD*%
D15*
%TO.P,Q9,1,B*%
%TO.N,Net-(Q9-B)*%
X101524900Y-49402800D03*
%TO.P,Q9,2,E*%
%TO.N,DTR*%
X101524900Y-47502800D03*
%TO.P,Q9,3,C*%
%TO.N,GPIO9*%
X99524900Y-48452800D03*
%TD*%
D16*
%TO.P,C14,1*%
%TO.N,GND*%
X84281600Y-35496500D03*
%TO.P,C14,2*%
%TO.N,+3.3V*%
X85301600Y-35496500D03*
%TD*%
D17*
%TO.P,J4,5*%
%TO.N,+3.3V*%
X86360000Y-28498800D03*
%TO.P,J4,4*%
%TO.N,GND*%
X87630000Y-28498800D03*
%TO.P,J4,3*%
%TO.N,U0TXD*%
X88900000Y-28498800D03*
%TO.P,J4,2*%
%TO.N,U0RXD*%
X90170000Y-28498800D03*
D18*
%TO.P,J4,1*%
%TO.N,GPIO7*%
X91440000Y-28498800D03*
%TD*%
D16*
%TO.P,R20,1*%
%TO.N,Net-(Q7-G)*%
X69467300Y-45467734D03*
%TO.P,R20,2*%
%TO.N,+3.3V*%
X70487300Y-45467734D03*
%TD*%
D19*
%TO.P,R25,1*%
%TO.N,Net-(Q8-B)*%
X103150500Y-48962800D03*
%TO.P,R25,2*%
%TO.N,DTR*%
X103150500Y-47942800D03*
%TD*%
D16*
%TO.P,R10,1*%
%TO.N,Net-(Q5-D)*%
X69467300Y-34901334D03*
%TO.P,R10,2*%
%TO.N,VBAT*%
X70487300Y-34901334D03*
%TD*%
D20*
%TO.P,U4,1,GND*%
%TO.N,GND*%
X84194800Y-37353300D03*
%TO.P,U4,2,CSB*%
%TO.N,+3.3V*%
X84994800Y-37353300D03*
%TO.P,U4,3,SDI*%
%TO.N,SDA*%
X85794800Y-37353300D03*
%TO.P,U4,4,SCK*%
%TO.N,SCL*%
X86594800Y-37353300D03*
%TO.P,U4,5,SDO*%
%TO.N,GND*%
X86594800Y-40153300D03*
%TO.P,U4,6,VDDIO*%
%TO.N,+3.3V*%
X85794800Y-40153300D03*
%TO.P,U4,7,GND*%
%TO.N,GND*%
X84994800Y-40153300D03*
%TO.P,U4,8,VDD*%
%TO.N,+3.3V*%
X84194800Y-40153300D03*
%TD*%
D16*
%TO.P,R11,1*%
%TO.N,ADC_lvl_BAT*%
X69467300Y-37542934D03*
%TO.P,R11,2*%
%TO.N,Net-(Q6-D)*%
X70487300Y-37542934D03*
%TD*%
D21*
%TO.P,Q5,1,G*%
%TO.N,EN_lvl_BAT*%
X72874900Y-31934534D03*
%TO.P,Q5,2,S*%
%TO.N,GND*%
X72874900Y-33834534D03*
%TO.P,Q5,3,D*%
%TO.N,Net-(Q5-D)*%
X74749900Y-32884534D03*
%TD*%
D16*
%TO.P,R15,1*%
%TO.N,SCL*%
X79601600Y-39370000D03*
%TO.P,R15,2*%
%TO.N,+3.3V*%
X80621600Y-39370000D03*
%TD*%
D22*
%TO.P,R24,1*%
%TO.N,+3.3V*%
X105350900Y-41338800D03*
%TO.P,R24,2*%
%TO.N,Net-(U1-~{RST})*%
X105350900Y-42358800D03*
%TD*%
D23*
%TO.P,JP1,1,A*%
%TO.N,GND*%
X62829200Y-37965525D03*
D24*
%TO.P,JP1,2,B*%
%TO.N,Hard_reset*%
X61529200Y-37965525D03*
%TD*%
D25*
%TO.P,C2,1*%
%TO.N,Net-(IC2-OUT)*%
X106944700Y-35022000D03*
%TO.P,C2,2*%
%TO.N,GND*%
X105924700Y-35022000D03*
%TD*%
D19*
%TO.P,R7,1*%
%TO.N,Net-(D2-A)*%
X106984800Y-29344400D03*
%TO.P,R7,2*%
%TO.N,+3.3V*%
X106984800Y-28324400D03*
%TD*%
D16*
%TO.P,R12,1*%
%TO.N,GND*%
X69467300Y-32259734D03*
%TO.P,R12,2*%
%TO.N,ADC_lvl_BAT*%
X70487300Y-32259734D03*
%TD*%
D25*
%TO.P,C9,1*%
%TO.N,GND*%
X62638400Y-45356925D03*
%TO.P,C9,2*%
%TO.N,CHIP_PU*%
X61618400Y-45356925D03*
%TD*%
D16*
%TO.P,C12,1*%
%TO.N,Net-(JP2-B)*%
X53996400Y-29819600D03*
%TO.P,C12,2*%
%TO.N,GND*%
X55016400Y-29819600D03*
%TD*%
D22*
%TO.P,R8,1*%
%TO.N,+3.3V*%
X112623600Y-45260800D03*
%TO.P,R8,2*%
%TO.N,Net-(U1-VIO)*%
X112623600Y-46280800D03*
%TD*%
D16*
%TO.P,R5,1*%
%TO.N,Net-(IC2-TS)*%
X112225900Y-33802800D03*
%TO.P,R5,2*%
%TO.N,GND*%
X113245900Y-33802800D03*
%TD*%
D26*
%TO.P,JP3,1,A*%
%TO.N,USB_D+*%
X58369200Y-29679200D03*
D27*
%TO.P,JP3,2,B*%
%TO.N,Net-(JP3-B)*%
X57390200Y-29679200D03*
%TD*%
D28*
%TO.P,J1,A1,GND*%
%TO.N,GND*%
X115368000Y-44882500D03*
%TO.P,J1,A4,VBUS*%
%TO.N,VBUS*%
X116168000Y-44882500D03*
D29*
%TO.P,J1,A5,CC1*%
%TO.N,Net-(J1-CC1)*%
X117368000Y-44882500D03*
%TO.P,J1,A6,D+*%
%TO.N,/D+*%
X118368000Y-44882500D03*
%TO.P,J1,A7,D-*%
%TO.N,/D-*%
X118868000Y-44882500D03*
%TO.P,J1,A8,SBU1*%
%TO.N,unconnected-(J1-SBU1-PadA8)*%
X119868000Y-44882500D03*
D28*
%TO.P,J1,A9,VBUS*%
%TO.N,VBUS*%
X121068000Y-44882500D03*
%TO.P,J1,A12,GND*%
%TO.N,GND*%
X121868000Y-44882500D03*
%TO.P,J1,B1,GND*%
X121868000Y-44882500D03*
%TO.P,J1,B4,VBUS*%
%TO.N,VBUS*%
X121068000Y-44882500D03*
D29*
%TO.P,J1,B5,CC2*%
%TO.N,Net-(J1-CC2)*%
X120368000Y-44882500D03*
%TO.P,J1,B6,D+*%
%TO.N,/D+*%
X119368000Y-44882500D03*
%TO.P,J1,B7,D-*%
%TO.N,/D-*%
X117868000Y-44882500D03*
%TO.P,J1,B8,SBU2*%
%TO.N,unconnected-(J1-SBU2-PadB8)*%
X116868000Y-44882500D03*
D28*
%TO.P,J1,B9,VBUS*%
%TO.N,VBUS*%
X116168000Y-44882500D03*
%TO.P,J1,B12,GND*%
%TO.N,GND*%
X115368000Y-44882500D03*
D30*
%TO.P,J1,S1,SHIELD*%
X114298000Y-45797500D03*
D31*
X114298000Y-49977500D03*
D30*
X122938000Y-45797500D03*
D31*
X122938000Y-49977500D03*
%TD*%
D16*
%TO.P,C3,1*%
%TO.N,GND*%
X101324600Y-27400400D03*
%TO.P,C3,2*%
%TO.N,Net-(IC5-EN)*%
X102344600Y-27400400D03*
%TD*%
D19*
%TO.P,R18,1*%
%TO.N,+3.3V*%
X50393600Y-47906400D03*
%TO.P,R18,2*%
%TO.N,BAT_lvl_LED*%
X50393600Y-46886400D03*
%TD*%
D16*
%TO.P,R22,1*%
%TO.N,Net-(D4-A)*%
X69467300Y-42826134D03*
%TO.P,R22,2*%
%TO.N,Net-(Q3-D)*%
X70487300Y-42826134D03*
%TD*%
D22*
%TO.P,R13,1*%
%TO.N,Net-(U3-DVI)*%
X93624400Y-38356100D03*
%TO.P,R13,2*%
%TO.N,+3.3V*%
X93624400Y-39376100D03*
%TD*%
D19*
%TO.P,R17,1*%
%TO.N,+3.3V*%
X52355700Y-47906400D03*
%TO.P,R17,2*%
%TO.N,CHIP_PU*%
X52355700Y-46886400D03*
%TD*%
D16*
%TO.P,R21,1*%
%TO.N,Net-(Q7-D)*%
X69467300Y-40184534D03*
%TO.P,R21,2*%
%TO.N,Net-(Q3-G)*%
X70487300Y-40184534D03*
%TD*%
D25*
%TO.P,R16,1*%
%TO.N,GND*%
X92204000Y-41863300D03*
%TO.P,R16,2*%
%TO.N,Net-(U3-ADDR)*%
X91184000Y-41863300D03*
%TD*%
%TO.P,R3,1*%
%TO.N,GND*%
X113245900Y-35022000D03*
%TO.P,R3,2*%
%TO.N,Net-(IC2-ISET)*%
X112225900Y-35022000D03*
%TD*%
D32*
%TO.P,U1,25,GND*%
%TO.N,GND*%
X107554000Y-46674800D03*
D33*
%TO.P,U1,24,~{DCD}*%
%TO.N,unconnected-(U1-~{DCD}-Pad24)*%
X108804000Y-48612300D03*
%TO.P,U1,23,~{DTR}*%
%TO.N,DTR*%
X108304000Y-48612300D03*
%TO.P,U1,22,~{DSR}*%
%TO.N,unconnected-(U1-~{DSR}-Pad22)*%
X107804000Y-48612300D03*
%TO.P,U1,21,TXD*%
%TO.N,U0RXD*%
X107304000Y-48612300D03*
%TO.P,U1,20,RXD*%
%TO.N,U0TXD*%
X106804000Y-48612300D03*
%TO.P,U1,19,~{RTS}*%
%TO.N,RTS*%
X106304000Y-48612300D03*
D34*
%TO.P,U1,18,~{CTS}*%
%TO.N,unconnected-(U1-~{CTS}-Pad18)*%
X105616500Y-47924800D03*
%TO.P,U1,17,SUSPEND*%
%TO.N,unconnected-(U1-SUSPEND-Pad17)*%
X105616500Y-47424800D03*
%TO.P,U1,16,NC*%
%TO.N,unconnected-(U1-NC-Pad16)*%
X105616500Y-46924800D03*
%TO.P,U1,15,~{SUSPEND}*%
%TO.N,Net-(JP4-A)*%
X105616500Y-46424800D03*
%TO.P,U1,14,~{TXT}/GPIO.0*%
%TO.N,unconnected-(U1-~{TXT}{slash}GPIO.0-Pad14)*%
X105616500Y-45924800D03*
%TO.P,U1,13,~{RXT}/GPIO.1*%
%TO.N,unconnected-(U1-~{RXT}{slash}GPIO.1-Pad13)*%
X105616500Y-45424800D03*
D33*
%TO.P,U1,12,RS485/GPIO.2*%
%TO.N,unconnected-(U1-RS485{slash}GPIO.2-Pad12)*%
X106304000Y-44737300D03*
%TO.P,U1,11,~{WAKEUP}/GPIO.3*%
%TO.N,unconnected-(U1-~{WAKEUP}{slash}GPIO.3-Pad11)*%
X106804000Y-44737300D03*
%TO.P,U1,10,NC*%
%TO.N,unconnected-(U1-NC-Pad10)*%
X107304000Y-44737300D03*
%TO.P,U1,9,~{RST}*%
%TO.N,Net-(U1-~{RST})*%
X107804000Y-44737300D03*
%TO.P,U1,8,VBUS*%
%TO.N,Net-(U1-VBUS)*%
X108304000Y-44737300D03*
%TO.P,U1,7,VREGIN*%
%TO.N,+3.3V*%
X108804000Y-44737300D03*
D34*
%TO.P,U1,6,VDD*%
X109491500Y-45424800D03*
%TO.P,U1,5,VIO*%
%TO.N,Net-(U1-VIO)*%
X109491500Y-45924800D03*
%TO.P,U1,4,D-*%
%TO.N,USB_D-*%
X109491500Y-46424800D03*
%TO.P,U1,3,D+*%
%TO.N,USB_D+*%
X109491500Y-46924800D03*
%TO.P,U1,2,GND*%
%TO.N,GND*%
X109491500Y-47424800D03*
%TO.P,U1,1,~{RI}/CLK*%
%TO.N,unconnected-(U1-~{RI}{slash}CLK-Pad1)*%
X109491500Y-47924800D03*
%TD*%
D25*
%TO.P,R4,1*%
%TO.N,Net-(IC2-VSET)*%
X106944700Y-33752000D03*
%TO.P,R4,2*%
%TO.N,GND*%
X105924700Y-33752000D03*
%TD*%
D19*
%TO.P,R26,1*%
%TO.N,Net-(Q9-B)*%
X103150500Y-45254400D03*
%TO.P,R26,2*%
%TO.N,RTS*%
X103150500Y-44234400D03*
%TD*%
D35*
%TO.P,D4,1,K*%
%TO.N,GND*%
X66598800Y-37363300D03*
%TO.P,D4,2,A*%
%TO.N,Net-(D4-A)*%
X66598800Y-38938300D03*
%TD*%
D16*
%TO.P,R14,1*%
%TO.N,SDA*%
X79601600Y-37896800D03*
%TO.P,R14,2*%
%TO.N,+3.3V*%
X80621600Y-37896800D03*
%TD*%
D25*
%TO.P,C10,1*%
%TO.N,GND*%
X62689200Y-30624925D03*
%TO.P,C10,2*%
%TO.N,GPIO9*%
X61669200Y-30624925D03*
%TD*%
D19*
%TO.P,R6,1*%
%TO.N,Net-(D3-A)*%
X112268000Y-29344400D03*
%TO.P,R6,2*%
%TO.N,+3.3V*%
X112268000Y-28324400D03*
%TD*%
%TO.P,C15,1*%
%TO.N,Net-(U1-VBUS)*%
X109618100Y-42358800D03*
%TO.P,C15,2*%
%TO.N,GND*%
X109618100Y-41338800D03*
%TD*%
D25*
%TO.P,C4,1*%
%TO.N,GND*%
X100526400Y-32531200D03*
%TO.P,C4,2*%
%TO.N,+3.3V*%
X99506400Y-32531200D03*
%TD*%
D21*
%TO.P,Q7,1,G*%
%TO.N,Net-(Q7-G)*%
X72874900Y-43618534D03*
%TO.P,Q7,2,S*%
%TO.N,BAT_lvl_LED*%
X72874900Y-45518534D03*
%TO.P,Q7,3,D*%
%TO.N,Net-(Q7-D)*%
X74749900Y-44568534D03*
%TD*%
D15*
%TO.P,Q8,1,B*%
%TO.N,Net-(Q8-B)*%
X101524900Y-45694400D03*
%TO.P,Q8,2,E*%
%TO.N,RTS*%
X101524900Y-43794400D03*
%TO.P,Q8,3,C*%
%TO.N,CHIP_PU*%
X99524900Y-44744400D03*
%TD*%
D35*
%TO.P,D3,1,K*%
%TO.N,Net-(D3-K)*%
X110693200Y-28066900D03*
%TO.P,D3,2,A*%
%TO.N,Net-(D3-A)*%
X110693200Y-29641900D03*
%TD*%
D19*
%TO.P,C6,1*%
%TO.N,+3.3V*%
X48431500Y-47906400D03*
%TO.P,C6,2*%
%TO.N,GND*%
X48431500Y-46886400D03*
%TD*%
D21*
%TO.P,Q3,1,G*%
%TO.N,Net-(Q3-G)*%
X72874900Y-39723866D03*
%TO.P,Q3,2,S*%
%TO.N,+3.3V*%
X72874900Y-41623866D03*
%TO.P,Q3,3,D*%
%TO.N,Net-(Q3-D)*%
X74749900Y-40673866D03*
%TD*%
D36*
%TO.P,SW2,1,1*%
%TO.N,GND*%
X64379200Y-32961725D03*
%TO.P,SW2,2,2*%
%TO.N,GPIO9*%
X59979200Y-32961725D03*
%TD*%
D37*
%TO.P,JP2,1,A*%
%TO.N,USB_D-*%
X58369200Y-27990800D03*
D38*
%TO.P,JP2,2,B*%
%TO.N,Net-(JP2-B)*%
X57390200Y-27990800D03*
%TD*%
D25*
%TO.P,C5,1*%
%TO.N,GND*%
X92204000Y-35919700D03*
%TO.P,C5,2*%
%TO.N,Net-(U3-DVI)*%
X91184000Y-35919700D03*
%TD*%
D16*
%TO.P,C1,1*%
%TO.N,GND*%
X109025500Y-36901600D03*
%TO.P,C1,2*%
%TO.N,VBUS*%
X110045500Y-36901600D03*
%TD*%
D19*
%TO.P,C7,1*%
%TO.N,+3.3V*%
X46469400Y-47906400D03*
%TO.P,C7,2*%
%TO.N,GND*%
X46469400Y-46886400D03*
%TD*%
D39*
%TO.P,IC5,1,VIN*%
%TO.N,Net-(IC5-EN)*%
X102089600Y-30922000D03*
%TO.P,IC5,2,GND*%
%TO.N,GND*%
X102089600Y-29972000D03*
%TO.P,IC5,3,EN*%
%TO.N,Net-(IC5-EN)*%
X102089600Y-29022000D03*
%TO.P,IC5,4,SNS*%
%TO.N,unconnected-(IC5-SNS-Pad4)*%
X99789600Y-29022000D03*
%TO.P,IC5,5,VOUT*%
%TO.N,+3.3V*%
X99789600Y-30922000D03*
%TD*%
D21*
%TO.P,Q6,1,G*%
%TO.N,Net-(Q5-D)*%
X72874900Y-35829200D03*
%TO.P,Q6,2,S*%
%TO.N,VBAT*%
X72874900Y-37729200D03*
%TO.P,Q6,3,D*%
%TO.N,Net-(Q6-D)*%
X74749900Y-36779200D03*
%TD*%
D25*
%TO.P,C11,1*%
%TO.N,Net-(JP3-B)*%
X53035200Y-29819600D03*
%TO.P,C11,2*%
%TO.N,GND*%
X52015200Y-29819600D03*
%TD*%
D12*
%TO.P,Q1,1,G*%
%TO.N,GND*%
X101470700Y-41386800D03*
%TO.P,Q1,2,S*%
%TO.N,VBAT*%
X101470700Y-39486800D03*
%TO.P,Q1,3,D*%
%TO.N,Net-(IC2-OUT)*%
X99595700Y-40436800D03*
%TD*%
D40*
%TO.P,IC2,1,IN*%
%TO.N,VBUS*%
X110474800Y-35141600D03*
%TO.P,IC2,2,ISET*%
%TO.N,Net-(IC2-ISET)*%
X110474800Y-34641600D03*
%TO.P,IC2,3,TS*%
%TO.N,Net-(IC2-TS)*%
X110474800Y-34141600D03*
%TO.P,IC2,4,GND*%
%TO.N,GND*%
X110474800Y-33641600D03*
%TO.P,IC2,5,STAT*%
%TO.N,Net-(D3-K)*%
X108574800Y-33641600D03*
%TO.P,IC2,6,~{PG}*%
%TO.N,Net-(D2-K)*%
X108574800Y-34141600D03*
%TO.P,IC2,7,VSET*%
%TO.N,Net-(IC2-VSET)*%
X108574800Y-34641600D03*
%TO.P,IC2,8,OUT*%
%TO.N,Net-(IC2-OUT)*%
X108574800Y-35141600D03*
D41*
%TO.P,IC2,9,EP*%
%TO.N,unconnected-(IC2-EP-Pad9)*%
X109524800Y-34391600D03*
%TD*%
D19*
%TO.P,R1,1*%
%TO.N,Net-(J1-CC2)*%
X121716800Y-42724800D03*
%TO.P,R1,2*%
%TO.N,GND*%
X121716800Y-41704800D03*
%TD*%
D42*
%TO.P,U3,1,VCC*%
%TO.N,+3.3V*%
X91194000Y-40245300D03*
%TO.P,U3,2,ADDR*%
%TO.N,Net-(U3-ADDR)*%
X91694000Y-40245300D03*
%TO.P,U3,3,GND*%
%TO.N,GND*%
X92194000Y-40245300D03*
%TO.P,U3,4,SDA*%
%TO.N,SDA*%
X92194000Y-37385300D03*
%TO.P,U3,5,DVI*%
%TO.N,Net-(U3-DVI)*%
X91694000Y-37385300D03*
%TO.P,U3,6,SCL*%
%TO.N,SCL*%
X91194000Y-37385300D03*
D43*
%TO.P,U3,7,EP*%
%TO.N,unconnected-(U3-EP-Pad7)*%
X91694000Y-38815300D03*
%TD*%
D22*
%TO.P,R9,1*%
%TO.N,VBUS*%
X108246500Y-41338800D03*
%TO.P,R9,2*%
%TO.N,Net-(U1-VBUS)*%
X108246500Y-42358800D03*
%TD*%
D25*
%TO.P,C13,1*%
%TO.N,GND*%
X85149200Y-41846500D03*
%TO.P,C13,2*%
%TO.N,+3.3V*%
X84129200Y-41846500D03*
%TD*%
D44*
%TO.P,U2,1,GND*%
%TO.N,GND*%
X46800000Y-44134000D03*
%TO.P,U2,2,GND*%
X47600000Y-44134000D03*
%TO.P,U2,3,3V3*%
%TO.N,+3.3V*%
X48400000Y-44134000D03*
%TO.P,U2,4,NC*%
%TO.N,unconnected-(U2-NC-Pad4)*%
X49200000Y-44134000D03*
%TO.P,U2,5,IO2*%
%TO.N,BAT_lvl_LED*%
X50000000Y-44134000D03*
%TO.P,U2,6,IO3*%
%TO.N,ADC_lvl_BAT*%
X50800000Y-44134000D03*
%TO.P,U2,7,NC*%
%TO.N,unconnected-(U2-NC-Pad7)*%
X51600000Y-44134000D03*
%TO.P,U2,8,EN*%
%TO.N,CHIP_PU*%
X52400000Y-44134000D03*
%TO.P,U2,9,NC*%
%TO.N,unconnected-(U2-NC-Pad9)*%
X53200000Y-44134000D03*
%TO.P,U2,10,NC*%
%TO.N,unconnected-(U2-NC-Pad10)*%
X54000000Y-44134000D03*
%TO.P,U2,11,GND*%
%TO.N,GND*%
X54800000Y-44134000D03*
D45*
%TO.P,U2,12,IO0*%
%TO.N,unconnected-(U2-IO0-Pad12)*%
X55700000Y-43034000D03*
%TO.P,U2,13,IO1*%
%TO.N,unconnected-(U2-IO1-Pad13)*%
X55700000Y-42234000D03*
%TO.P,U2,14,GND*%
%TO.N,GND*%
X55700000Y-41434000D03*
%TO.P,U2,15,NC*%
%TO.N,unconnected-(U2-NC-Pad15)*%
X55700000Y-40634000D03*
%TO.P,U2,16,IO10*%
%TO.N,GPIO10*%
X55700000Y-39834000D03*
%TO.P,U2,17,NC*%
%TO.N,unconnected-(U2-NC-Pad17)*%
X55700000Y-39034000D03*
%TO.P,U2,18,IO4*%
%TO.N,SDA*%
X55700000Y-38234000D03*
%TO.P,U2,19,IO5*%
%TO.N,SCL*%
X55700000Y-37434000D03*
%TO.P,U2,20,IO6*%
%TO.N,EN_lvl_BAT*%
X55700000Y-36634000D03*
%TO.P,U2,21,IO7*%
%TO.N,GPIO7*%
X55700000Y-35834000D03*
%TO.P,U2,22,IO8*%
%TO.N,Hard_reset*%
X55700000Y-35034000D03*
%TO.P,U2,23,IO9*%
%TO.N,GPIO9*%
X55700000Y-34234000D03*
%TO.P,U2,24,NC*%
%TO.N,unconnected-(U2-NC-Pad24)*%
X55700000Y-33434000D03*
D44*
%TO.P,U2,25,NC*%
%TO.N,unconnected-(U2-NC-Pad25)*%
X54800000Y-32334000D03*
%TO.P,U2,26,IO18*%
%TO.N,Net-(JP2-B)*%
X54000000Y-32334000D03*
%TO.P,U2,27,IO19*%
%TO.N,Net-(JP3-B)*%
X53200000Y-32334000D03*
%TO.P,U2,28,NC*%
%TO.N,unconnected-(U2-NC-Pad28)*%
X52400000Y-32334000D03*
%TO.P,U2,29,NC*%
%TO.N,unconnected-(U2-NC-Pad29)*%
X51600000Y-32334000D03*
%TO.P,U2,30,RXD0*%
%TO.N,U0RXD*%
X50800000Y-32334000D03*
%TO.P,U2,31,TXD0*%
%TO.N,U0TXD*%
X50000000Y-32334000D03*
%TO.P,U2,32,NC*%
%TO.N,unconnected-(U2-NC-Pad32)*%
X49200000Y-32334000D03*
%TO.P,U2,33,NC*%
%TO.N,unconnected-(U2-NC-Pad33)*%
X48400000Y-32334000D03*
%TO.P,U2,34,NC*%
%TO.N,unconnected-(U2-NC-Pad34)*%
X47600000Y-32334000D03*
%TO.P,U2,35,NC*%
%TO.N,GND*%
X46800000Y-32334000D03*
D45*
%TO.P,U2,36,GND*%
X45900000Y-33434000D03*
%TO.P,U2,37,GND*%
X45900000Y-34234000D03*
%TO.P,U2,38,GND*%
X45900000Y-35034000D03*
%TO.P,U2,39,GND*%
X45900000Y-35834000D03*
%TO.P,U2,40,GND*%
X45900000Y-36634000D03*
%TO.P,U2,41,GND*%
X45900000Y-37434000D03*
%TO.P,U2,42,GND*%
X45900000Y-38234000D03*
%TO.P,U2,43,GND*%
X45900000Y-39034000D03*
%TO.P,U2,44,GND*%
X45900000Y-39834000D03*
%TO.P,U2,45,GND*%
X45900000Y-40634000D03*
%TO.P,U2,46,GND*%
X45900000Y-41434000D03*
%TO.P,U2,47,GND*%
X45900000Y-42234000D03*
%TO.P,U2,48,GND*%
X45900000Y-43034000D03*
D46*
%TO.P,U2,49,GND*%
X48818800Y-40215200D03*
D47*
X50800000Y-40214000D03*
X52780000Y-40214000D03*
X48830000Y-38234000D03*
X50800000Y-38234000D03*
X52780000Y-38234000D03*
X48830000Y-36264000D03*
X50800000Y-36264000D03*
X52780000Y-36264000D03*
D48*
%TO.P,U2,50,GND*%
X45850000Y-32284000D03*
%TO.P,U2,51,GND*%
X55750000Y-32284000D03*
%TO.P,U2,52,GND*%
X55750000Y-44184000D03*
%TO.P,U2,53,GND*%
X45850000Y-44184000D03*
%TD*%
D36*
%TO.P,SW1,1,1*%
%TO.N,GND*%
X64379200Y-42969325D03*
%TO.P,SW1,2,2*%
%TO.N,CHIP_PU*%
X59979200Y-42969325D03*
%TD*%
D19*
%TO.P,R2,1*%
%TO.N,Net-(J1-CC1)*%
X115417600Y-42724800D03*
%TO.P,R2,2*%
%TO.N,GND*%
X115417600Y-41704800D03*
%TD*%
D49*
%TO.P,D1,1,L1*%
%TO.N,/D-*%
X117668000Y-39961200D03*
%TO.P,D1,2,VN*%
%TO.N,GND*%
X118618000Y-39961200D03*
%TO.P,D1,3,L2*%
%TO.N,/D+*%
X119568000Y-39961200D03*
%TO.P,D1,4,L2*%
%TO.N,USB_D-*%
X119568000Y-37661200D03*
%TO.P,D1,5,VP*%
%TO.N,VBUS*%
X118618000Y-37661200D03*
%TO.P,D1,6,L1*%
%TO.N,USB_D+*%
X117668000Y-37661200D03*
%TD*%
D25*
%TO.P,R19,1*%
%TO.N,+3.3V*%
X59590400Y-35052000D03*
%TO.P,R19,2*%
%TO.N,Hard_reset*%
X58570400Y-35052000D03*
%TD*%
D22*
%TO.P,C8,1*%
%TO.N,CHIP_PU*%
X54317800Y-46886400D03*
%TO.P,C8,2*%
%TO.N,GND*%
X54317800Y-47906400D03*
%TD*%
D35*
%TO.P,D2,1,K*%
%TO.N,Net-(D2-K)*%
X108508800Y-28066900D03*
%TO.P,D2,2,A*%
%TO.N,Net-(D2-A)*%
X108508800Y-29641900D03*
%TD*%
D19*
%TO.P,R23,1*%
%TO.N,Net-(U1-VBUS)*%
X106874900Y-42358800D03*
%TO.P,R23,2*%
%TO.N,GND*%
X106874900Y-41338800D03*
%TD*%
D50*
%TO.P,BT1,*%
%TO.N,*%
X119342500Y-30671500D03*
%TD*%
D51*
%TO.N,VBUS*%
X80670400Y-35864800D03*
%TO.N,GPIO10*%
X57200800Y-39827200D03*
X78536800Y-35915600D03*
%TO.N,VBAT*%
X78536800Y-31191200D03*
%TO.N,+3.3V*%
X80670400Y-31191200D03*
%TO.N,VBAT*%
X98094800Y-34950400D03*
%TO.N,Net-(IC2-OUT)*%
X106172000Y-36880800D03*
X106553000Y-36499800D03*
X103835200Y-39217600D03*
X104190800Y-38862000D03*
%TO.N,Net-(IC5-EN)*%
X102819200Y-33375600D03*
X102819200Y-32816800D03*
X102514400Y-36271200D03*
X102514400Y-36830000D03*
%TO.N,GND*%
X103606600Y-37566600D03*
X103632000Y-38100000D03*
X103733600Y-41097200D03*
X103733600Y-41656000D03*
X103174800Y-41656000D03*
X103174800Y-41097200D03*
X103073200Y-38100000D03*
X103047800Y-37566600D03*
%TO.N,VBAT*%
X98704400Y-36474400D03*
%TO.N,Net-(IC2-OUT)*%
X104546400Y-38506400D03*
%TO.N,Net-(IC5-EN)*%
X102819200Y-32258000D03*
X101803200Y-36830000D03*
%TO.N,VBAT*%
X98704400Y-35560000D03*
%TO.N,GND*%
X56794400Y-43332400D03*
X56794400Y-42214800D03*
X52781200Y-38201600D03*
X52781200Y-36220400D03*
X110528400Y-41338800D03*
X103022400Y-46532800D03*
X62829200Y-39359600D03*
%TO.N,+3.3V*%
X85301600Y-35496500D03*
%TO.N,GND*%
X84281600Y-35496500D03*
X108305600Y-36901600D03*
X55016400Y-47906400D03*
X56794400Y-42722800D03*
X68478400Y-32258000D03*
X73914000Y-33834534D03*
X106874900Y-40538400D03*
%TO.N,+3.3V*%
X105350900Y-40589200D03*
X109042200Y-43764200D03*
%TO.N,GND*%
X111810800Y-48209200D03*
%TO.N,+3.3V*%
X112623600Y-44551600D03*
X86360000Y-30530800D03*
%TO.N,GND*%
X111760000Y-32715200D03*
X112522000Y-32715200D03*
X113233200Y-32715200D03*
X101396800Y-31902400D03*
X101396800Y-33223200D03*
X100685600Y-33223200D03*
X100685600Y-32512000D03*
X101396800Y-32531200D03*
X105924700Y-33020000D03*
X110933600Y-33182800D03*
%TO.N,+3.3V*%
X113030000Y-28324400D03*
X106222800Y-28324400D03*
X98907600Y-32512000D03*
X98907600Y-30937200D03*
X98907600Y-31699200D03*
X98145600Y-31699200D03*
X98145600Y-30886400D03*
X98145600Y-32562800D03*
%TO.N,GND*%
X92786200Y-35280600D03*
%TO.N,+3.3V*%
X93624400Y-40081200D03*
X90678000Y-40741600D03*
%TO.N,GND*%
X92456000Y-40995600D03*
X86563200Y-41046400D03*
%TO.N,+3.3V*%
X85794800Y-41046400D03*
X84129200Y-42367200D03*
%TO.N,GND*%
X85149200Y-42418000D03*
%TO.N,+3.3V*%
X72847200Y-41605200D03*
%TO.N,GND*%
X55750000Y-30553200D03*
X66598800Y-36372800D03*
%TO.N,+3.3V*%
X71120000Y-45467734D03*
%TO.N,GND*%
X64379200Y-42969325D03*
X64379200Y-32961725D03*
%TO.N,+3.3V*%
X60756800Y-35052000D03*
X53035200Y-47906400D03*
X50393600Y-48564800D03*
X48431500Y-48615600D03*
X46469400Y-48615600D03*
%TO.N,GND*%
X48818800Y-40215200D03*
X48830000Y-36264000D03*
X48830000Y-38234000D03*
%TO.N,Hard_reset*%
X61264800Y-35661600D03*
X61529200Y-39346312D03*
%TO.N,GPIO9*%
X59979200Y-32961725D03*
X62534800Y-47193200D03*
%TO.N,CHIP_PU*%
X59588400Y-45212000D03*
X61214000Y-47142400D03*
%TO.N,Net-(D4-A)*%
X68173600Y-41351200D03*
X66598800Y-38938300D03*
%TO.N,Net-(JP3-B)*%
X55930800Y-29006800D03*
X53035200Y-29819600D03*
%TO.N,VBUS*%
X109220000Y-39624000D03*
X110045500Y-36901600D03*
%TO.N,Net-(IC2-OUT)*%
X106944700Y-36108100D03*
%TO.N,GPIO7*%
X57556400Y-35661600D03*
%TO.N,DTR*%
X108508800Y-49987200D03*
X103150500Y-47942800D03*
%TO.N,RTS*%
X104648000Y-48107600D03*
X103150500Y-44234400D03*
%TO.N,Net-(Q8-B)*%
X100076000Y-46532800D03*
X103150500Y-48962800D03*
%TO.N,VBAT*%
X71170800Y-36474400D03*
%TO.N,ADC_lvl_BAT*%
X68630800Y-36525200D03*
X70487300Y-32259734D03*
X51358800Y-45770800D03*
X53746400Y-45618400D03*
%TO.N,Net-(Q7-D)*%
X70713600Y-41249600D03*
X72136000Y-42570400D03*
%TO.N,SDA*%
X93065600Y-37338000D03*
X90373200Y-35560000D03*
%TO.N,SCL*%
X87833200Y-35458400D03*
%TO.N,SDA*%
X87020400Y-35458400D03*
X79601600Y-37896800D03*
%TO.N,SCL*%
X79552800Y-39370000D03*
%TO.N,SDA*%
X58267600Y-38557200D03*
%TO.N,SCL*%
X58318400Y-37084000D03*
%TO.N,U0TXD*%
X50038000Y-30632400D03*
X106375200Y-49936400D03*
%TO.N,U0RXD*%
X50800000Y-30632400D03*
X107467400Y-50012600D03*
%TO.N,Net-(U1-VIO)*%
X111861600Y-46888400D03*
X110490000Y-43535600D03*
%TO.N,GND*%
X120802400Y-41706800D03*
X118618000Y-40792400D03*
X116484400Y-41706800D03*
%TO.N,USB_D+*%
X117668000Y-37661200D03*
%TO.N,USB_D-*%
X119568000Y-37661200D03*
%TO.N,USB_D+*%
X120853200Y-38303200D03*
%TO.N,USB_D-*%
X121767600Y-38354000D03*
%TD*%
D52*
%TO.N,GPIO10*%
X78536800Y-35915600D02*
X78536800Y-34594800D01*
D53*
%TO.N,VBUS*%
X80670400Y-34594800D02*
X80670400Y-35864800D01*
D52*
%TO.N,GPIO10*%
X55706800Y-39827200D02*
X55700000Y-39834000D01*
X57200800Y-39827200D02*
X55706800Y-39827200D01*
D53*
%TO.N,VBAT*%
X78536800Y-32461200D02*
X78536800Y-31191200D01*
%TO.N,+3.3V*%
X80670400Y-32461200D02*
X80670400Y-31191200D01*
D54*
%TO.N,Hard_reset*%
X61529200Y-39346312D02*
X61529200Y-37965525D01*
D53*
%TO.N,Net-(IC5-EN)*%
X102819200Y-30932400D02*
X102829600Y-30922000D01*
X101803200Y-36263300D02*
X101470700Y-35930800D01*
D55*
%TO.N,VBAT*%
X99176800Y-39486800D02*
X98755200Y-39065200D01*
D53*
%TO.N,Net-(IC5-EN)*%
X102914600Y-29022000D02*
X103225600Y-29333000D01*
D54*
X102344600Y-28767000D02*
X102089600Y-29022000D01*
D56*
%TO.N,GND*%
X55750000Y-44184000D02*
X56298400Y-44184000D01*
D53*
X101114600Y-30207000D02*
X101349600Y-29972000D01*
D52*
%TO.N,BAT_lvl_LED*%
X56134000Y-47193200D02*
X56134000Y-47752000D01*
X51013600Y-47660800D02*
X51013600Y-47506400D01*
D53*
%TO.N,GND*%
X46800000Y-31634000D02*
X46800000Y-32334000D01*
D52*
%TO.N,Net-(Q9-B)*%
X100599900Y-46852800D02*
X101026000Y-46852800D01*
%TO.N,GND*%
X113233200Y-33790100D02*
X113245900Y-33802800D01*
D53*
%TO.N,+3.3V*%
X99354000Y-31699200D02*
X99506400Y-31851600D01*
D52*
X49051500Y-46571217D02*
X49051500Y-47286400D01*
D56*
%TO.N,GND*%
X45900000Y-44134000D02*
X45850000Y-44184000D01*
D52*
X45850000Y-43084000D02*
X45900000Y-43034000D01*
%TO.N,Net-(D2-K)*%
X108089800Y-34141600D02*
X108014800Y-34066600D01*
D53*
%TO.N,VBUS*%
X121552400Y-40245600D02*
X122447600Y-39350400D01*
D54*
%TO.N,GPIO9*%
X97963834Y-46891734D02*
X97790000Y-46891734D01*
D52*
%TO.N,CHIP_PU*%
X59804323Y-42969325D02*
X59979200Y-42969325D01*
%TO.N,ADC_lvl_BAT*%
X59779525Y-40894000D02*
X58928000Y-41745525D01*
D57*
%TO.N,U0RXD*%
X107467400Y-49236208D02*
X107304000Y-49072808D01*
D53*
%TO.N,GND*%
X100526400Y-32531200D02*
X100764600Y-32293000D01*
X101349600Y-29972000D02*
X101114600Y-29737000D01*
D52*
%TO.N,Net-(Q5-D)*%
X72874900Y-35536900D02*
X72874900Y-35829200D01*
%TO.N,ADC_lvl_BAT*%
X69467300Y-37542934D02*
X69467300Y-37361700D01*
%TO.N,Net-(Q7-D)*%
X74749900Y-43355500D02*
X74015600Y-42621200D01*
%TO.N,Net-(Q7-G)*%
X72874900Y-44371500D02*
X72491600Y-44754800D01*
X69697600Y-44754800D02*
X69467300Y-44985100D01*
%TO.N,Net-(Q6-D)*%
X74066400Y-38709600D02*
X74749900Y-38026100D01*
%TO.N,Net-(Q5-D)*%
X74749900Y-35130500D02*
X74051200Y-35829200D01*
%TO.N,EN_lvl_BAT*%
X65989200Y-33477200D02*
X62912400Y-36554000D01*
%TO.N,SDA*%
X88052734Y-34928400D02*
X88255734Y-35131400D01*
%TO.N,Net-(U3-DVI)*%
X93183334Y-36706200D02*
X93595600Y-37118466D01*
X92286552Y-36830300D02*
X92410652Y-36706200D01*
X91694000Y-36880800D02*
X91744500Y-36830300D01*
%TO.N,SDA*%
X92760800Y-37033200D02*
X92546100Y-37033200D01*
%TO.N,CHIP_PU*%
X52355700Y-46886400D02*
X52400000Y-46842100D01*
D53*
%TO.N,+3.3V*%
X84682700Y-38253300D02*
X84994800Y-37941200D01*
X84129200Y-40218900D02*
X84194800Y-40153300D01*
D52*
%TO.N,Net-(U1-~{RST})*%
X107137200Y-43078400D02*
X107804000Y-43745200D01*
%TO.N,Net-(U1-VBUS)*%
X108304000Y-42416300D02*
X108246500Y-42358800D01*
D53*
%TO.N,VBUS*%
X122144115Y-43444800D02*
X122529600Y-43059315D01*
X116168000Y-43757500D02*
X116098500Y-43688000D01*
X115160800Y-43688000D02*
X114647600Y-43174800D01*
D52*
%TO.N,USB_D-*%
X117097800Y-36826200D02*
X117084400Y-36826200D01*
X110135251Y-46449800D02*
X110110251Y-46424800D01*
X119183000Y-37276200D02*
X119183000Y-36826200D01*
%TO.N,USB_D+*%
X110135251Y-46899800D02*
X110110251Y-46924800D01*
%TO.N,/D-*%
X118868000Y-45857500D02*
X118751500Y-45974000D01*
X117984500Y-45974000D02*
X117868000Y-45857500D01*
%TO.N,/D+*%
X118368000Y-43907500D02*
X118536700Y-43738800D01*
%TO.N,Net-(JP2-B)*%
X53996400Y-29819600D02*
X54000000Y-29823200D01*
D53*
%TO.N,GND*%
X85149200Y-41846500D02*
X84994800Y-41692100D01*
D52*
%TO.N,Net-(IC2-OUT)*%
X107064300Y-35141600D02*
X106944700Y-35022000D01*
D55*
%TO.N,VBAT*%
X98704400Y-35560000D02*
X98134800Y-34990400D01*
X98134800Y-34990400D02*
X98094800Y-34990400D01*
X99110800Y-36880800D02*
X99595700Y-36880800D01*
X98704400Y-36474400D02*
X99110800Y-36880800D01*
X98704400Y-35560000D02*
X98704400Y-36474400D01*
D53*
%TO.N,Net-(IC2-OUT)*%
X106553000Y-36499800D02*
X106172000Y-36880800D01*
X106944700Y-36108100D02*
X106553000Y-36499800D01*
D55*
X106944700Y-36108100D02*
X106944700Y-35022000D01*
D53*
X104546400Y-38506400D02*
X102616000Y-40436800D01*
X102616000Y-40436800D02*
X99595700Y-40436800D01*
%TO.N,Net-(IC5-EN)*%
X102819200Y-32258000D02*
X102819200Y-30932400D01*
X102514400Y-36271200D02*
X102506500Y-36263300D01*
X102506500Y-36263300D02*
X101803200Y-36263300D01*
X101470700Y-35930800D02*
X102174000Y-35930800D01*
X102174000Y-35930800D02*
X102514400Y-36271200D01*
X102514400Y-36271200D02*
X102514400Y-36830000D01*
X101803200Y-36830000D02*
X101955600Y-36830000D01*
X101955600Y-36830000D02*
X102514400Y-36271200D01*
X101803200Y-36830000D02*
X102514400Y-36830000D01*
X101803200Y-36830000D02*
X101803200Y-36263300D01*
%TO.N,GND*%
X103606600Y-37566600D02*
X103073200Y-38100000D01*
X103606600Y-37566600D02*
X103606600Y-38074600D01*
X103606600Y-38074600D02*
X103632000Y-38100000D01*
X103047800Y-37566600D02*
X103606600Y-37566600D01*
X103073200Y-38100000D02*
X103632000Y-38100000D01*
X103047800Y-37566600D02*
X102783600Y-37830800D01*
X102783600Y-37830800D02*
X101470700Y-37830800D01*
X103073200Y-38100000D02*
X102804000Y-37830800D01*
X102804000Y-37830800D02*
X101470700Y-37830800D01*
X103174800Y-41656000D02*
X103733600Y-41097200D01*
X103733600Y-41097200D02*
X103174800Y-41097200D01*
X103733600Y-41656000D02*
X103174800Y-41656000D01*
X103733600Y-41097200D02*
X103733600Y-41656000D01*
X103174800Y-41656000D02*
X102905600Y-41386800D01*
X102905600Y-41386800D02*
X101470700Y-41386800D01*
X103174800Y-41097200D02*
X102885200Y-41386800D01*
X102885200Y-41386800D02*
X101470700Y-41386800D01*
D55*
%TO.N,VBAT*%
X101470700Y-39486800D02*
X99176800Y-39486800D01*
X98755200Y-35610800D02*
X98704400Y-35560000D01*
X98755200Y-39065200D02*
X98755200Y-35610800D01*
D53*
%TO.N,Net-(IC5-EN)*%
X102089600Y-29022000D02*
X102914600Y-29022000D01*
X103225600Y-29333000D02*
X103225600Y-30526000D01*
X103225600Y-30526000D02*
X102829600Y-30922000D01*
D54*
X102344600Y-27400400D02*
X102344600Y-28767000D01*
D53*
%TO.N,+3.3V*%
X86360000Y-30530800D02*
X86360000Y-28498800D01*
D57*
%TO.N,U0TXD*%
X50038000Y-30632400D02*
X50038000Y-32296000D01*
X50038000Y-32296000D02*
X50000000Y-32334000D01*
%TO.N,U0RXD*%
X50800000Y-30632400D02*
X50800000Y-32334000D01*
D56*
%TO.N,GND*%
X56298400Y-44184000D02*
X56794400Y-43688000D01*
X56318400Y-41434000D02*
X55700000Y-41434000D01*
X56794400Y-43688000D02*
X56794400Y-41910000D01*
X56794400Y-41910000D02*
X56318400Y-41434000D01*
D52*
X55016400Y-47906400D02*
X54317800Y-47906400D01*
%TO.N,+3.3V*%
X53035200Y-47906400D02*
X52355700Y-47906400D01*
X46469400Y-48615600D02*
X46469400Y-47906400D01*
X48431500Y-48615600D02*
X48431500Y-47906400D01*
X50393600Y-48564800D02*
X50393600Y-47906400D01*
X60756800Y-35052000D02*
X59590400Y-35052000D01*
%TO.N,GND*%
X62829200Y-39359600D02*
X62829200Y-37965525D01*
%TO.N,+3.3V*%
X71120000Y-45467734D02*
X70487300Y-45467734D01*
%TO.N,GND*%
X73914000Y-33834534D02*
X72874900Y-33834534D01*
D53*
%TO.N,+3.3V*%
X84129200Y-42367200D02*
X84129200Y-41846500D01*
%TO.N,GND*%
X85149200Y-42418000D02*
X85149200Y-41846500D01*
D52*
X86563200Y-41046400D02*
X86594800Y-41014800D01*
X86594800Y-41014800D02*
X86594800Y-40153300D01*
%TO.N,+3.3V*%
X85794800Y-41046400D02*
X85794800Y-40153300D01*
X90678000Y-40741600D02*
X90697700Y-40741600D01*
X90697700Y-40741600D02*
X91194000Y-40245300D01*
X93624400Y-39376100D02*
X93624400Y-40081200D01*
%TO.N,GND*%
X92456000Y-40995600D02*
X92204000Y-40995600D01*
X92204000Y-35862800D02*
X92204000Y-35919700D01*
X92786200Y-35280600D02*
X92204000Y-35862800D01*
D53*
%TO.N,+3.3V*%
X112623600Y-44551600D02*
X112623600Y-45260800D01*
D52*
X109042200Y-43764200D02*
X108804000Y-44002400D01*
X108804000Y-44002400D02*
X108804000Y-44737300D01*
D53*
%TO.N,GND*%
X110528400Y-41338800D02*
X109618100Y-41338800D01*
D52*
X106874900Y-40538400D02*
X106874900Y-41338800D01*
%TO.N,+3.3V*%
X105350900Y-40589200D02*
X105350900Y-41338800D01*
D53*
%TO.N,GND*%
X118618000Y-39961200D02*
X118618000Y-40792400D01*
X108305600Y-36901600D02*
X109025500Y-36901600D01*
D52*
X105924700Y-33020000D02*
X105924700Y-33752000D01*
%TO.N,+3.3V*%
X113030000Y-28324400D02*
X112268000Y-28324400D01*
X106222800Y-28324400D02*
X106984800Y-28324400D01*
D53*
%TO.N,GND*%
X101295200Y-31800800D02*
X101114600Y-31620200D01*
X101114600Y-31620200D02*
X101114600Y-30207000D01*
D52*
X66598800Y-36372800D02*
X66598800Y-37363300D01*
%TO.N,BAT_lvl_LED*%
X72874900Y-45518534D02*
X72305700Y-46087734D01*
X72305700Y-46087734D02*
X57239466Y-46087734D01*
X57239466Y-46087734D02*
X56134000Y-47193200D01*
X56134000Y-47752000D02*
X54965600Y-48920400D01*
X54965600Y-48920400D02*
X52273200Y-48920400D01*
X52273200Y-48920400D02*
X51013600Y-47660800D01*
X51013600Y-47506400D02*
X50393600Y-46886400D01*
D53*
%TO.N,GND*%
X115368000Y-44882500D02*
X115213000Y-44882500D01*
X115213000Y-44882500D02*
X114298000Y-45797500D01*
X121868000Y-44882500D02*
X122023000Y-44882500D01*
X122023000Y-44882500D02*
X122938000Y-45797500D01*
X52015200Y-29819600D02*
X51995600Y-29800000D01*
X48634000Y-29800000D02*
X46800000Y-31634000D01*
X51995600Y-29800000D02*
X48634000Y-29800000D01*
D52*
%TO.N,Net-(Q9-B)*%
X103150500Y-45529436D02*
X103150500Y-45254400D01*
X102335536Y-46344400D02*
X103150500Y-45529436D01*
X101534400Y-46344400D02*
X102335536Y-46344400D01*
X101026000Y-46852800D02*
X101534400Y-46344400D01*
X100599900Y-48477800D02*
X100599900Y-46852800D01*
X101524900Y-49402800D02*
X100599900Y-48477800D01*
%TO.N,GND*%
X107554000Y-46674800D02*
X108304000Y-47424800D01*
X108304000Y-47424800D02*
X109491500Y-47424800D01*
%TO.N,Net-(IC2-OUT)*%
X108574800Y-35141600D02*
X107836400Y-35141600D01*
D53*
X107848400Y-35153600D02*
X107836400Y-35141600D01*
X107836400Y-35141600D02*
X107064300Y-35141600D01*
D52*
%TO.N,GND*%
X113245900Y-33802800D02*
X112463100Y-33020000D01*
X112463100Y-33020000D02*
X111096400Y-33020000D01*
D53*
X110933600Y-33182800D02*
X111096400Y-33020000D01*
X111096400Y-33020000D02*
X112928400Y-33020000D01*
X112928400Y-33020000D02*
X113233200Y-32715200D01*
D52*
X48830000Y-38234000D02*
X48830000Y-36264000D01*
X48818800Y-40215200D02*
X48818800Y-38245200D01*
X48818800Y-38245200D02*
X48830000Y-38234000D01*
X50800000Y-40214000D02*
X48820000Y-40214000D01*
X48820000Y-40214000D02*
X48818800Y-40215200D01*
X50800000Y-38234000D02*
X48830000Y-38234000D01*
X50800000Y-40214000D02*
X50800000Y-38234000D01*
X52780000Y-40214000D02*
X50800000Y-40214000D01*
X52780000Y-38234000D02*
X52780000Y-40214000D01*
X52780000Y-36264000D02*
X52780000Y-38234000D01*
X50800000Y-38234000D02*
X52780000Y-38234000D01*
X50800000Y-36264000D02*
X50800000Y-38234000D01*
X52780000Y-36264000D02*
X50800000Y-36264000D01*
X48830000Y-36264000D02*
X50800000Y-36264000D01*
D56*
X55750000Y-44184000D02*
X54850000Y-44184000D01*
D52*
X54850000Y-44184000D02*
X54800000Y-44134000D01*
X68480134Y-32259734D02*
X68478400Y-32258000D01*
X69467300Y-32259734D02*
X68480134Y-32259734D01*
%TO.N,+3.3V*%
X109491500Y-45424800D02*
X108804000Y-44737300D01*
%TO.N,GND*%
X111026400Y-47424800D02*
X111810800Y-48209200D01*
X109491500Y-47424800D02*
X111026400Y-47424800D01*
D53*
X113233200Y-32715200D02*
X113233200Y-33790100D01*
D58*
X113245900Y-33439100D02*
X112522000Y-32715200D01*
D52*
X113245900Y-33802800D02*
X113245900Y-33439100D01*
D53*
X112522000Y-32715200D02*
X113233200Y-32715200D01*
X112522000Y-32715200D02*
X111760000Y-32715200D01*
X111760000Y-32715200D02*
X111401200Y-32715200D01*
X111401200Y-32715200D02*
X110933600Y-33182800D01*
X100764600Y-32293000D02*
X100764600Y-31800800D01*
X101396800Y-31902400D02*
X101295200Y-31800800D01*
X101295200Y-31800800D02*
X100764600Y-31800800D01*
X100685600Y-32512000D02*
X101396800Y-33223200D01*
X100685600Y-32512000D02*
X100787200Y-32512000D01*
X100787200Y-32512000D02*
X101396800Y-31902400D01*
X100685600Y-33223200D02*
X100685600Y-32512000D01*
X100685600Y-33223200D02*
X101396800Y-33223200D01*
X101396800Y-32531200D02*
X101396800Y-33223200D01*
X101396800Y-31902400D02*
X101396800Y-32531200D01*
X101396800Y-32531200D02*
X100526400Y-32531200D01*
%TO.N,+3.3V*%
X98907600Y-31699200D02*
X99354000Y-31699200D01*
X99506400Y-32531200D02*
X99506400Y-31851600D01*
X98907600Y-32512000D02*
X98907600Y-32450400D01*
X99506400Y-31851600D02*
X99506400Y-31597600D01*
X98907600Y-32450400D02*
X99506400Y-31851600D01*
X99506400Y-31597600D02*
X99506400Y-31205200D01*
X98907600Y-30937200D02*
X98907600Y-30998800D01*
X98907600Y-30998800D02*
X99506400Y-31597600D01*
X98145600Y-31699200D02*
X98907600Y-30937200D01*
X98145600Y-30886400D02*
X98145600Y-31750000D01*
X98145600Y-31750000D02*
X98907600Y-32512000D01*
X98907600Y-30937200D02*
X98907600Y-31800800D01*
X98907600Y-31800800D02*
X98145600Y-32562800D01*
X98145600Y-31699200D02*
X98907600Y-31699200D01*
X98145600Y-30886400D02*
X98145600Y-31699200D01*
X98145600Y-32562800D02*
X98145600Y-31699200D01*
X98907600Y-32512000D02*
X98907600Y-31699200D01*
X98907600Y-30937200D02*
X98907600Y-31699200D01*
D52*
%TO.N,GND*%
X105924700Y-33752000D02*
X105924700Y-35022000D01*
X110474800Y-33641600D02*
X110933600Y-33182800D01*
X113245900Y-33802800D02*
X113245900Y-35022000D01*
D53*
%TO.N,+3.3V*%
X98181200Y-30922000D02*
X98145600Y-30886400D01*
X99789600Y-30922000D02*
X98181200Y-30922000D01*
X98177200Y-32531200D02*
X98145600Y-32562800D01*
X99506400Y-32531200D02*
X98177200Y-32531200D01*
D52*
%TO.N,GND*%
X92204000Y-41863300D02*
X92204000Y-40995600D01*
X92204000Y-40995600D02*
X92204000Y-40255300D01*
X92204000Y-40255300D02*
X92194000Y-40245300D01*
%TO.N,+3.3V*%
X72865866Y-41623866D02*
X72847200Y-41605200D01*
X72874900Y-41623866D02*
X72865866Y-41623866D01*
D56*
%TO.N,GND*%
X55750000Y-32284000D02*
X55750000Y-30553200D01*
X55016400Y-29819600D02*
X55750000Y-30553200D01*
D52*
%TO.N,+3.3V*%
X49051500Y-47286400D02*
X49671500Y-47906400D01*
X49671500Y-47906400D02*
X50393600Y-47906400D01*
X48400000Y-44134000D02*
X48400000Y-45919717D01*
X48400000Y-45919717D02*
X49051500Y-46571217D01*
X49051500Y-47286400D02*
X48431500Y-47906400D01*
D56*
%TO.N,GND*%
X48818800Y-40215200D02*
X46318800Y-40215200D01*
X46318800Y-40215200D02*
X45900000Y-40634000D01*
X48830000Y-36264000D02*
X46330000Y-36264000D01*
X46330000Y-36264000D02*
X45900000Y-35834000D01*
X48830000Y-38234000D02*
X45900000Y-38234000D01*
X46800000Y-32334000D02*
X45900000Y-32334000D01*
X45900000Y-32334000D02*
X45850000Y-32284000D01*
X45900000Y-41434000D02*
X45900000Y-32334000D01*
X47600000Y-44134000D02*
X46800000Y-44134000D01*
X46800000Y-44134000D02*
X45900000Y-44134000D01*
X45850000Y-44184000D02*
X45850000Y-43084000D01*
X45900000Y-41434000D02*
X45900000Y-42234000D01*
X45900000Y-43034000D02*
X45900000Y-42234000D01*
X47600000Y-44134000D02*
X47600000Y-46054900D01*
X47600000Y-46054900D02*
X48431500Y-46886400D01*
X46469400Y-46886400D02*
X46800000Y-46555800D01*
X46800000Y-46555800D02*
X46800000Y-44134000D01*
D52*
%TO.N,Net-(D3-K)*%
X108574800Y-33641600D02*
X108574800Y-33119048D01*
X108574800Y-33119048D02*
X109801000Y-31892848D01*
X109801000Y-31892848D02*
X109801000Y-28959100D01*
X109801000Y-28959100D02*
X110693200Y-28066900D01*
%TO.N,Net-(D2-K)*%
X109423200Y-28981300D02*
X108508800Y-28066900D01*
X109423200Y-31808200D02*
X109423200Y-28981300D01*
X108014800Y-33216600D02*
X109423200Y-31808200D01*
X108014800Y-34066600D02*
X108014800Y-33216600D01*
X108574800Y-34141600D02*
X108089800Y-34141600D01*
D53*
%TO.N,VBUS*%
X113907620Y-37855200D02*
X110999100Y-37855200D01*
X122447600Y-39350400D02*
X122447600Y-37482420D01*
X122447600Y-37482420D02*
X120271180Y-35306000D01*
X116456820Y-35306000D02*
X113907620Y-37855200D01*
X120271180Y-35306000D02*
X116456820Y-35306000D01*
X110999100Y-37855200D02*
X110045500Y-36901600D01*
D54*
%TO.N,Hard_reset*%
X61204400Y-35722000D02*
X61264800Y-35661600D01*
X59240400Y-35722000D02*
X61204400Y-35722000D01*
X58570400Y-35052000D02*
X59240400Y-35722000D01*
X58570400Y-35052000D02*
X55718000Y-35052000D01*
X55718000Y-35052000D02*
X55700000Y-35034000D01*
%TO.N,GPIO9*%
X62836266Y-46891734D02*
X62534800Y-47193200D01*
X97790000Y-46891734D02*
X62836266Y-46891734D01*
X99524900Y-48452800D02*
X97963834Y-46891734D01*
%TO.N,CHIP_PU*%
X97804566Y-46464734D02*
X61891666Y-46464734D01*
X99524900Y-44744400D02*
X97804566Y-46464734D01*
X59588400Y-43360125D02*
X59979200Y-42969325D01*
X61891666Y-46464734D02*
X61214000Y-47142400D01*
X59588400Y-45212000D02*
X59588400Y-43360125D01*
D52*
X54317800Y-46886400D02*
X55887248Y-46886400D01*
X55887248Y-46886400D02*
X59804323Y-42969325D01*
%TO.N,ADC_lvl_BAT*%
X58928000Y-43383200D02*
X56692800Y-45618400D01*
X66852800Y-40894000D02*
X59779525Y-40894000D01*
X58928000Y-41745525D02*
X58928000Y-43383200D01*
X69467300Y-38279500D02*
X66852800Y-40894000D01*
X56692800Y-45618400D02*
X53746400Y-45618400D01*
X69467300Y-37542934D02*
X69467300Y-38279500D01*
D54*
%TO.N,Net-(D4-A)*%
X69467300Y-42644900D02*
X68173600Y-41351200D01*
X69467300Y-42826134D02*
X69467300Y-42644900D01*
D52*
%TO.N,GPIO9*%
X59979200Y-32961725D02*
X58706925Y-34234000D01*
X58706925Y-34234000D02*
X55700000Y-34234000D01*
D54*
%TO.N,Net-(JP3-B)*%
X56603200Y-29679200D02*
X55930800Y-29006800D01*
X57390200Y-29679200D02*
X56603200Y-29679200D01*
%TO.N,Net-(JP2-B)*%
X57390200Y-27990800D02*
X55825200Y-27990800D01*
X55825200Y-27990800D02*
X53996400Y-29819600D01*
D57*
%TO.N,Net-(U1-VBUS)*%
X108304000Y-44737300D02*
X108304000Y-43637200D01*
D53*
X108304000Y-43637200D02*
X108304000Y-42416300D01*
%TO.N,VBUS*%
X108246500Y-40597500D02*
X109220000Y-39624000D01*
X108246500Y-41338800D02*
X108246500Y-40597500D01*
D52*
%TO.N,GPIO7*%
X57556400Y-35661600D02*
X55872400Y-35661600D01*
X55872400Y-35661600D02*
X55700000Y-35834000D01*
%TO.N,Net-(JP4-A)*%
X105616500Y-46424800D02*
X104146400Y-46424800D01*
X104146400Y-46424800D02*
X104038400Y-46532800D01*
D57*
%TO.N,DTR*%
X108508800Y-49987200D02*
X108304000Y-49782400D01*
X108304000Y-49782400D02*
X108304000Y-48612300D01*
%TO.N,U0RXD*%
X107304000Y-49072808D02*
X107304000Y-48612300D01*
X107467400Y-50012600D02*
X107467400Y-49236208D01*
%TO.N,RTS*%
X106304000Y-48612300D02*
X105152700Y-48612300D01*
X105152700Y-48612300D02*
X104648000Y-48107600D01*
D52*
%TO.N,Net-(Q8-B)*%
X100914400Y-45694400D02*
X100076000Y-46532800D01*
X101524900Y-45694400D02*
X100914400Y-45694400D01*
D57*
%TO.N,DTR*%
X101524900Y-47502800D02*
X102710500Y-47502800D01*
X102710500Y-47502800D02*
X103150500Y-47942800D01*
%TO.N,RTS*%
X101524900Y-43794400D02*
X102710500Y-43794400D01*
X102710500Y-43794400D02*
X103150500Y-44234400D01*
D52*
%TO.N,VBAT*%
X70487300Y-35790900D02*
X71170800Y-36474400D01*
X71170800Y-36474400D02*
X72425600Y-37729200D01*
D53*
%TO.N,GND*%
X102089600Y-29972000D02*
X101349600Y-29972000D01*
X101114600Y-29737000D02*
X101114600Y-27610400D01*
X101114600Y-27610400D02*
X101324600Y-27400400D01*
%TO.N,+3.3V*%
X99506400Y-31205200D02*
X99789600Y-30922000D01*
%TO.N,Net-(IC5-EN)*%
X102089600Y-30922000D02*
X102829600Y-30922000D01*
D52*
%TO.N,Net-(Q5-D)*%
X69467300Y-34901334D02*
X69467300Y-34418700D01*
X71221600Y-33883600D02*
X72874900Y-35536900D01*
X69467300Y-34418700D02*
X70002400Y-33883600D01*
X70002400Y-33883600D02*
X71221600Y-33883600D01*
%TO.N,ADC_lvl_BAT*%
X69467300Y-37361700D02*
X68630800Y-36525200D01*
%TO.N,Net-(Q7-D)*%
X74749900Y-44568534D02*
X74749900Y-43355500D01*
X74015600Y-42621200D02*
X72186800Y-42621200D01*
X72186800Y-42621200D02*
X72136000Y-42570400D01*
%TO.N,Net-(Q7-G)*%
X72874900Y-43618534D02*
X72874900Y-44371500D01*
X72491600Y-44754800D02*
X69697600Y-44754800D01*
X69467300Y-44985100D02*
X69467300Y-45467734D01*
%TO.N,Net-(Q3-G)*%
X70487300Y-40184534D02*
X70661066Y-40184534D01*
X72368634Y-39217600D02*
X72874900Y-39723866D01*
X70661066Y-40184534D02*
X71628000Y-39217600D01*
X71628000Y-39217600D02*
X72368634Y-39217600D01*
%TO.N,Net-(Q3-D)*%
X74749900Y-40673866D02*
X72451004Y-40673866D01*
X72451004Y-40673866D02*
X70487300Y-42637570D01*
X70487300Y-42637570D02*
X70487300Y-42826134D01*
%TO.N,VBAT*%
X70487300Y-34901334D02*
X70487300Y-35790900D01*
X72425600Y-37729200D02*
X72874900Y-37729200D01*
%TO.N,Net-(Q6-D)*%
X70487300Y-37542934D02*
X71653966Y-38709600D01*
X74749900Y-38026100D02*
X74749900Y-36779200D01*
X71653966Y-38709600D02*
X74066400Y-38709600D01*
%TO.N,Net-(Q5-D)*%
X74749900Y-32884534D02*
X74749900Y-35130500D01*
X74051200Y-35829200D02*
X72874900Y-35829200D01*
%TO.N,EN_lvl_BAT*%
X72874900Y-31934534D02*
X71332234Y-33477200D01*
X62912400Y-36554000D02*
X55780000Y-36554000D01*
X55780000Y-36554000D02*
X55700000Y-36634000D01*
X71332234Y-33477200D02*
X65989200Y-33477200D01*
%TO.N,ADC_lvl_BAT*%
X51358800Y-45770800D02*
X50800000Y-45212000D01*
X50800000Y-45212000D02*
X50800000Y-44134000D01*
%TO.N,Net-(Q7-D)*%
X70713600Y-41249600D02*
X70532366Y-41249600D01*
X70532366Y-41249600D02*
X69467300Y-40184534D01*
%TO.N,SDA*%
X87020400Y-35458400D02*
X87550400Y-34928400D01*
X88255734Y-35131400D02*
X89944600Y-35131400D01*
X87550400Y-34928400D02*
X88052734Y-34928400D01*
X89944600Y-35131400D02*
X90373200Y-35560000D01*
%TO.N,Net-(U3-DVI)*%
X91694000Y-37385300D02*
X91694000Y-36880800D01*
X93595600Y-37118466D02*
X93595600Y-38327300D01*
X92410652Y-36706200D02*
X93183334Y-36706200D01*
X91744500Y-36830300D02*
X92286552Y-36830300D01*
X93595600Y-38327300D02*
X93624400Y-38356100D01*
%TO.N,SDA*%
X93065600Y-37338000D02*
X92760800Y-37033200D01*
X92546100Y-37033200D02*
X92194000Y-37385300D01*
%TO.N,SCL*%
X87833200Y-35458400D02*
X89458800Y-35458400D01*
X89458800Y-35458400D02*
X91194000Y-37193600D01*
X91194000Y-37193600D02*
X91194000Y-37385300D01*
X87833200Y-35458400D02*
X87833200Y-35610800D01*
X87833200Y-35610800D02*
X86594800Y-36849200D01*
X86594800Y-36849200D02*
X86594800Y-37353300D01*
%TO.N,SDA*%
X87020400Y-35458400D02*
X87020400Y-35960238D01*
X87020400Y-35960238D02*
X85794800Y-37185838D01*
X85794800Y-37185838D02*
X85794800Y-37353300D01*
X58267600Y-38557200D02*
X57944400Y-38234000D01*
X57944400Y-38234000D02*
X55700000Y-38234000D01*
%TO.N,SCL*%
X58318400Y-37084000D02*
X57968400Y-37434000D01*
X57968400Y-37434000D02*
X55700000Y-37434000D01*
%TO.N,Net-(JP2-B)*%
X54000000Y-29823200D02*
X54000000Y-32334000D01*
%TO.N,Net-(JP3-B)*%
X53035200Y-29819600D02*
X53200000Y-29984400D01*
X53200000Y-29984400D02*
X53200000Y-32334000D01*
D53*
%TO.N,GND*%
X62689200Y-30624925D02*
X62689200Y-31271725D01*
X62689200Y-31271725D02*
X64379200Y-32961725D01*
D52*
%TO.N,GPIO9*%
X61669200Y-30624925D02*
X61669200Y-31271725D01*
X61669200Y-31271725D02*
X59979200Y-32961725D01*
%TO.N,GND*%
X62638400Y-45356925D02*
X62638400Y-44710125D01*
X62638400Y-44710125D02*
X64379200Y-42969325D01*
%TO.N,CHIP_PU*%
X61618400Y-45356925D02*
X61618400Y-44608525D01*
X61618400Y-44608525D02*
X59979200Y-42969325D01*
X52355700Y-46886400D02*
X54317800Y-46886400D01*
X52400000Y-46842100D02*
X52400000Y-44134000D01*
%TO.N,BAT_lvl_LED*%
X50393600Y-46886400D02*
X50000000Y-46492800D01*
X50000000Y-46492800D02*
X50000000Y-44134000D01*
D53*
%TO.N,+3.3V*%
X80621600Y-39370000D02*
X83411500Y-39370000D01*
X83411500Y-39370000D02*
X84194800Y-40153300D01*
X80621600Y-37896800D02*
X80978100Y-38253300D01*
X80978100Y-38253300D02*
X84682700Y-38253300D01*
X84994800Y-37941200D02*
X84994800Y-37353300D01*
%TO.N,GND*%
X84194800Y-37353300D02*
X84194800Y-35583300D01*
X84194800Y-35583300D02*
X84281600Y-35496500D01*
X84994800Y-41692100D02*
X84994800Y-40153300D01*
%TO.N,+3.3V*%
X84129200Y-41846500D02*
X84129200Y-40218900D01*
X84994800Y-37353300D02*
X84994800Y-35803300D01*
X84994800Y-35803300D02*
X85301600Y-35496500D01*
D52*
%TO.N,Net-(U3-ADDR)*%
X91694000Y-40245300D02*
X91694000Y-41353300D01*
X91694000Y-41353300D02*
X91184000Y-41863300D01*
%TO.N,Net-(U3-DVI)*%
X91694000Y-37385300D02*
X91694000Y-36429700D01*
X91694000Y-36429700D02*
X91184000Y-35919700D01*
%TO.N,Net-(U1-~{RST})*%
X105350900Y-42358800D02*
X106070500Y-43078400D01*
X106070500Y-43078400D02*
X107137200Y-43078400D01*
X107804000Y-43745200D02*
X107804000Y-44737300D01*
X105350900Y-42358800D02*
X105554000Y-42358800D01*
D53*
%TO.N,Net-(U1-VBUS)*%
X109618100Y-42358800D02*
X108246500Y-42358800D01*
X106874900Y-42358800D02*
X108246500Y-42358800D01*
%TO.N,VBUS*%
X121552400Y-40245600D02*
X120283000Y-38976200D01*
X122529600Y-41222800D02*
X121552400Y-40245600D01*
X110045500Y-36901600D02*
X110474800Y-36472300D01*
X110474800Y-36472300D02*
X110474800Y-35216600D01*
D52*
%TO.N,Net-(IC2-VSET)*%
X108574800Y-34641600D02*
X107834300Y-34641600D01*
X107834300Y-34641600D02*
X106944700Y-33752000D01*
%TO.N,Net-(IC2-ISET)*%
X110474800Y-34641600D02*
X111845500Y-34641600D01*
X111845500Y-34641600D02*
X112225900Y-35022000D01*
%TO.N,Net-(IC2-TS)*%
X110474800Y-34141600D02*
X111887100Y-34141600D01*
X111887100Y-34141600D02*
X112225900Y-33802800D01*
%TO.N,Net-(D2-A)*%
X108508800Y-29641900D02*
X107282300Y-29641900D01*
X107282300Y-29641900D02*
X106984800Y-29344400D01*
%TO.N,Net-(D3-A)*%
X110693200Y-29641900D02*
X111970500Y-29641900D01*
X111970500Y-29641900D02*
X112268000Y-29344400D01*
D57*
%TO.N,U0TXD*%
X106804000Y-48612300D02*
X106804000Y-49507600D01*
X106804000Y-49507600D02*
X106375200Y-49936400D01*
D52*
%TO.N,Net-(U1-VIO)*%
X109491500Y-45924800D02*
X109916652Y-45924800D01*
X110490000Y-45351452D02*
X110490000Y-43535600D01*
X109916652Y-45924800D02*
X110490000Y-45351452D01*
X111861600Y-46888400D02*
X112016000Y-46888400D01*
X112016000Y-46888400D02*
X112623600Y-46280800D01*
D53*
%TO.N,GND*%
X120804400Y-41704800D02*
X120802400Y-41706800D01*
X121716800Y-41704800D02*
X120804400Y-41704800D01*
X116482400Y-41704800D02*
X116484400Y-41706800D01*
X115417600Y-41704800D02*
X116482400Y-41704800D01*
%TO.N,VBUS*%
X120283000Y-38976200D02*
X119176800Y-38976200D01*
X121068000Y-43917436D02*
X121540636Y-43444800D01*
X122529600Y-43059315D02*
X122529600Y-41222800D01*
X121540636Y-43444800D02*
X122144115Y-43444800D01*
X121068000Y-44882500D02*
X121068000Y-43917436D01*
X119176800Y-38976200D02*
X118618000Y-38417400D01*
X118618000Y-38417400D02*
X118618000Y-37661200D01*
D52*
%TO.N,USB_D+*%
X121122497Y-38033903D02*
X121122497Y-37468297D01*
X121122497Y-37468297D02*
X119925400Y-36271200D01*
X59526151Y-29060000D02*
X58906951Y-29679200D01*
X120853200Y-38303200D02*
X121122497Y-38033903D01*
X114291600Y-38782200D02*
X106180400Y-38782200D01*
X119925400Y-36271200D02*
X116802600Y-36271200D01*
X87587600Y-34413400D02*
X82234200Y-29060000D01*
X106180400Y-38782200D02*
X101811600Y-34413400D01*
X116802600Y-36271200D02*
X114291600Y-38782200D01*
X101811600Y-34413400D02*
X87587600Y-34413400D01*
X82234200Y-29060000D02*
X59526151Y-29060000D01*
X58906951Y-29679200D02*
X58369200Y-29679200D01*
%TO.N,USB_D-*%
X120104600Y-35814000D02*
X116623400Y-35814000D01*
X121767600Y-38354000D02*
X121572499Y-38158899D01*
X114105200Y-38332200D02*
X106366800Y-38332200D01*
X121572499Y-38158899D02*
X121572499Y-37281899D01*
X82420600Y-28610000D02*
X59526151Y-28610000D01*
X121572499Y-37281899D02*
X120104600Y-35814000D01*
X116623400Y-35814000D02*
X114105200Y-38332200D01*
X106366800Y-38332200D02*
X101998000Y-33963400D01*
X101998000Y-33963400D02*
X87774000Y-33963400D01*
X87774000Y-33963400D02*
X82420600Y-28610000D01*
X59526151Y-28610000D02*
X58906951Y-27990800D01*
X58906951Y-27990800D02*
X58369200Y-27990800D01*
D53*
%TO.N,VBUS*%
X116168000Y-44882500D02*
X116168000Y-43757500D01*
X116098500Y-43688000D02*
X115160800Y-43688000D01*
X114647600Y-41281600D02*
X116953000Y-38976200D01*
X116953000Y-38976200D02*
X118053000Y-38976200D01*
X114647600Y-43174800D02*
X114647600Y-41281600D01*
X118053000Y-38976200D02*
X118618000Y-38411200D01*
X118618000Y-38411200D02*
X118618000Y-37661200D01*
D57*
%TO.N,Net-(J1-CC1)*%
X117368000Y-44882500D02*
X117368000Y-43857500D01*
X117368000Y-43857500D02*
X116235300Y-42724800D01*
X116235300Y-42724800D02*
X115417600Y-42724800D01*
%TO.N,Net-(J1-CC2)*%
X120368000Y-44882500D02*
X120368000Y-43907500D01*
X121550700Y-42724800D02*
X121716800Y-42724800D01*
X120368000Y-43907500D02*
X121550700Y-42724800D01*
D52*
%TO.N,USB_D-*%
X111027000Y-45779200D02*
X110356400Y-46449800D01*
X111027000Y-42883600D02*
X111027000Y-45779200D01*
X110110251Y-46424800D02*
X109491500Y-46424800D01*
X110356400Y-46449800D02*
X110135251Y-46449800D01*
X117084400Y-36826200D02*
X111027000Y-42883600D01*
X119568000Y-37661200D02*
X119183000Y-37276200D01*
X119183000Y-36826200D02*
X117097800Y-36826200D01*
%TO.N,USB_D+*%
X111477000Y-45965600D02*
X110542800Y-46899800D01*
X110542800Y-46899800D02*
X110135251Y-46899800D01*
X117668000Y-37661200D02*
X116885800Y-37661200D01*
X116885800Y-37661200D02*
X111477000Y-43070000D01*
X111477000Y-43070000D02*
X111477000Y-45965600D01*
X110110251Y-46924800D02*
X109491500Y-46924800D01*
%TO.N,/D-*%
X118868000Y-44882500D02*
X118868000Y-45857500D01*
X118751500Y-45974000D02*
X117984500Y-45974000D01*
X117868000Y-45857500D02*
X117868000Y-44882500D01*
%TO.N,/D+*%
X119368000Y-44882500D02*
X119368000Y-43738800D01*
X119368000Y-43738800D02*
X119368000Y-40161200D01*
X118368000Y-44882500D02*
X118368000Y-43907500D01*
X118536700Y-43738800D02*
X119368000Y-43738800D01*
X119368000Y-40161200D02*
X119568000Y-39961200D01*
%TO.N,/D-*%
X117868000Y-44882500D02*
X117868000Y-40161200D01*
X117868000Y-40161200D02*
X117668000Y-39961200D01*
%TD*%
M02*
