%TF.GenerationSoftware,KiCad,Pcbnew,7.0.5-0*%
%TF.CreationDate,2024-04-12T00:02:12+02:00*%
%TF.ProjectId,MTR_C3_TempHum,4d54525f-4333-45f5-9465-6d7048756d2e,rev?*%
%TF.SameCoordinates,Original*%
%TF.FileFunction,Copper,L4,Bot*%
%TF.FilePolarity,Positive*%
%FSLAX46Y46*%
G04 Gerber Fmt 4.6, Leading zero omitted, Abs format (unit mm)*
G04 Created by KiCad (PCBNEW 7.0.5-0) date 2024-04-12 00:02:12*
%MOMM*%
%LPD*%
G01*
G04 APERTURE LIST*
%TA.AperFunction,ComponentPad*%
%ADD10O,1.000000X1.000000*%
%TD*%
%TA.AperFunction,ComponentPad*%
%ADD11R,1.000000X1.000000*%
%TD*%
%TA.AperFunction,ComponentPad*%
%ADD12O,1.000000X2.100000*%
%TD*%
%TA.AperFunction,ComponentPad*%
%ADD13O,1.000000X1.600000*%
%TD*%
%TA.AperFunction,ComponentPad*%
%ADD14C,2.400000*%
%TD*%
%TA.AperFunction,SMDPad,CuDef*%
%ADD15R,5.080000X7.620000*%
%TD*%
%TA.AperFunction,ViaPad*%
%ADD16C,0.450000*%
%TD*%
%TA.AperFunction,Conductor*%
%ADD17C,0.500000*%
%TD*%
%TA.AperFunction,Conductor*%
%ADD18C,0.700000*%
%TD*%
%TA.AperFunction,Conductor*%
%ADD19C,0.300000*%
%TD*%
%TA.AperFunction,Conductor*%
%ADD20C,0.250000*%
%TD*%
%TA.AperFunction,Conductor*%
%ADD21C,0.200000*%
%TD*%
G04 APERTURE END LIST*
D10*
%TO.P,J4,5*%
%TO.N,+3.3V*%
X86360000Y-28498800D03*
%TO.P,J4,4*%
%TO.N,GND*%
X87630000Y-28498800D03*
%TO.P,J4,3*%
%TO.N,U0TXD*%
X88900000Y-28498800D03*
%TO.P,J4,2*%
%TO.N,U0RXD*%
X90170000Y-28498800D03*
D11*
%TO.P,J4,1*%
%TO.N,GPIO7*%
X91440000Y-28498800D03*
%TD*%
D12*
%TO.P,J1,S1,SHIELD*%
%TO.N,GND*%
X114298000Y-45797500D03*
D13*
X114298000Y-49977500D03*
D12*
X122938000Y-45797500D03*
D13*
X122938000Y-49977500D03*
%TD*%
D14*
%TO.P,BT1,*%
%TO.N,*%
X119342500Y-30671500D03*
D15*
%TO.P,BT1,1,+*%
%TO.N,VBAT*%
X42192500Y-38671500D03*
%TO.P,BT1,2,-*%
%TO.N,GND*%
X124812500Y-38671500D03*
%TD*%
D16*
%TO.N,VBUS*%
X80670400Y-35864800D03*
%TO.N,GPIO10*%
X57200800Y-39827200D03*
X78536800Y-35915600D03*
%TO.N,VBAT*%
X78536800Y-31191200D03*
%TO.N,+3.3V*%
X80670400Y-31191200D03*
%TO.N,VBAT*%
X98094800Y-34950400D03*
%TO.N,Net-(IC2-OUT)*%
X106172000Y-36880800D03*
X106553000Y-36499800D03*
X103835200Y-39217600D03*
X104190800Y-38862000D03*
%TO.N,Net-(IC5-EN)*%
X102819200Y-33375600D03*
X102819200Y-32816800D03*
X102514400Y-36271200D03*
X102514400Y-36830000D03*
%TO.N,GND*%
X103606600Y-37566600D03*
X103632000Y-38100000D03*
X103733600Y-41097200D03*
X103733600Y-41656000D03*
X103174800Y-41656000D03*
X103174800Y-41097200D03*
X103073200Y-38100000D03*
X103047800Y-37566600D03*
%TO.N,VBAT*%
X98704400Y-36474400D03*
%TO.N,Net-(IC2-OUT)*%
X104546400Y-38506400D03*
%TO.N,Net-(IC5-EN)*%
X102819200Y-32258000D03*
X101803200Y-36830000D03*
%TO.N,VBAT*%
X98704400Y-35560000D03*
%TO.N,GND*%
X56794400Y-43332400D03*
X56794400Y-42214800D03*
X52781200Y-38201600D03*
X52781200Y-36220400D03*
X110528400Y-41338800D03*
X103022400Y-46532800D03*
X62829200Y-39359600D03*
%TO.N,+3.3V*%
X85301600Y-35496500D03*
%TO.N,GND*%
X84281600Y-35496500D03*
X108305600Y-36901600D03*
X55016400Y-47906400D03*
X56794400Y-42722800D03*
X68478400Y-32258000D03*
X73914000Y-33834534D03*
X106874900Y-40538400D03*
%TO.N,+3.3V*%
X105350900Y-40589200D03*
X109042200Y-43764200D03*
%TO.N,GND*%
X111810800Y-48209200D03*
%TO.N,+3.3V*%
X112623600Y-44551600D03*
X86360000Y-30530800D03*
%TO.N,GND*%
X111760000Y-32715200D03*
X112522000Y-32715200D03*
X113233200Y-32715200D03*
X101396800Y-31902400D03*
X101396800Y-33223200D03*
X100685600Y-33223200D03*
X100685600Y-32512000D03*
X101396800Y-32531200D03*
X105924700Y-33020000D03*
X110933600Y-33182800D03*
%TO.N,+3.3V*%
X113030000Y-28324400D03*
X106222800Y-28324400D03*
X98907600Y-32512000D03*
X98907600Y-30937200D03*
X98907600Y-31699200D03*
X98145600Y-31699200D03*
X98145600Y-30886400D03*
X98145600Y-32562800D03*
%TO.N,GND*%
X92786200Y-35280600D03*
%TO.N,+3.3V*%
X93624400Y-40081200D03*
X90678000Y-40741600D03*
%TO.N,GND*%
X92456000Y-40995600D03*
X86563200Y-41046400D03*
%TO.N,+3.3V*%
X85794800Y-41046400D03*
X84129200Y-42367200D03*
%TO.N,GND*%
X85149200Y-42418000D03*
%TO.N,+3.3V*%
X72847200Y-41605200D03*
%TO.N,GND*%
X55750000Y-30553200D03*
X66598800Y-36372800D03*
%TO.N,+3.3V*%
X71120000Y-45467734D03*
%TO.N,GND*%
X64379200Y-42969325D03*
X64379200Y-32961725D03*
%TO.N,+3.3V*%
X60756800Y-35052000D03*
X53035200Y-47906400D03*
X50393600Y-48564800D03*
X48431500Y-48615600D03*
X46469400Y-48615600D03*
%TO.N,GND*%
X48818800Y-40215200D03*
X48830000Y-36264000D03*
X48830000Y-38234000D03*
%TO.N,Hard_reset*%
X61264800Y-35661600D03*
X61529200Y-39346312D03*
%TO.N,GPIO9*%
X59979200Y-32961725D03*
X62534800Y-47193200D03*
%TO.N,CHIP_PU*%
X59588400Y-45212000D03*
X61214000Y-47142400D03*
%TO.N,Net-(D4-A)*%
X68173600Y-41351200D03*
X66598800Y-38938300D03*
%TO.N,Net-(JP3-B)*%
X55930800Y-29006800D03*
X53035200Y-29819600D03*
%TO.N,VBUS*%
X109220000Y-39624000D03*
X110045500Y-36901600D03*
%TO.N,Net-(IC2-OUT)*%
X106944700Y-36108100D03*
%TO.N,GPIO7*%
X57556400Y-35661600D03*
%TO.N,DTR*%
X108508800Y-49987200D03*
X103150500Y-47942800D03*
%TO.N,RTS*%
X104648000Y-48107600D03*
X103150500Y-44234400D03*
%TO.N,Net-(Q8-B)*%
X100076000Y-46532800D03*
X103150500Y-48962800D03*
%TO.N,VBAT*%
X71170800Y-36474400D03*
%TO.N,ADC_lvl_BAT*%
X68630800Y-36525200D03*
X70487300Y-32259734D03*
X51358800Y-45770800D03*
X53746400Y-45618400D03*
%TO.N,Net-(Q7-D)*%
X70713600Y-41249600D03*
X72136000Y-42570400D03*
%TO.N,SDA*%
X93065600Y-37338000D03*
X90373200Y-35560000D03*
%TO.N,SCL*%
X87833200Y-35458400D03*
%TO.N,SDA*%
X87020400Y-35458400D03*
X79601600Y-37896800D03*
%TO.N,SCL*%
X79552800Y-39370000D03*
%TO.N,SDA*%
X58267600Y-38557200D03*
%TO.N,SCL*%
X58318400Y-37084000D03*
%TO.N,U0TXD*%
X50038000Y-30632400D03*
X106375200Y-49936400D03*
%TO.N,U0RXD*%
X50800000Y-30632400D03*
X107467400Y-50012600D03*
%TO.N,Net-(U1-VIO)*%
X111861600Y-46888400D03*
X110490000Y-43535600D03*
%TO.N,GND*%
X120802400Y-41706800D03*
X118618000Y-40792400D03*
X116484400Y-41706800D03*
%TO.N,USB_D+*%
X117668000Y-37661200D03*
%TO.N,USB_D-*%
X119568000Y-37661200D03*
%TO.N,USB_D+*%
X120853200Y-38303200D03*
%TO.N,USB_D-*%
X121767600Y-38354000D03*
%TD*%
D17*
%TO.N,VBUS*%
X84613200Y-39807600D02*
X92389134Y-39807600D01*
X94917534Y-42336000D02*
X106508000Y-42336000D01*
X80670400Y-35864800D02*
X84613200Y-39807600D01*
X92389134Y-39807600D02*
X94917534Y-42336000D01*
X106508000Y-42336000D02*
X109220000Y-39624000D01*
%TO.N,VBAT*%
X78536800Y-31191200D02*
X78536800Y-26670000D01*
D18*
X72440800Y-26670000D02*
X78536800Y-26670000D01*
X78536800Y-26670000D02*
X93421200Y-26670000D01*
D19*
%TO.N,Hard_reset*%
X61061600Y-35864800D02*
X61264800Y-35661600D01*
X61529200Y-39346312D02*
X61061600Y-38878712D01*
X61061600Y-38878712D02*
X61061600Y-35864800D01*
D18*
%TO.N,VBAT*%
X93421200Y-26670000D02*
X95453200Y-28702000D01*
D20*
%TO.N,U0TXD*%
X50570111Y-29925000D02*
X51029889Y-29925000D01*
X51409600Y-30835600D02*
X51177000Y-31068200D01*
D18*
%TO.N,VBAT*%
X98704400Y-35560000D02*
X98704400Y-36474400D01*
D17*
%TO.N,Net-(IC2-OUT)*%
X104546400Y-38506400D02*
X106944700Y-36108100D01*
X104190800Y-38862000D02*
X103835200Y-39217600D01*
X104546400Y-38506400D02*
X104190800Y-38862000D01*
%TO.N,Net-(IC5-EN)*%
X102819200Y-32816800D02*
X102819200Y-32258000D01*
X102819200Y-33375600D02*
X102819200Y-32816800D01*
X102819200Y-32258000D02*
X102819200Y-35814000D01*
X102819200Y-35814000D02*
X101803200Y-36830000D01*
D18*
%TO.N,VBAT*%
X95453200Y-28702000D02*
X95453200Y-32308800D01*
X95453200Y-32308800D02*
X98704400Y-35560000D01*
D21*
%TO.N,GND*%
X87630000Y-28498800D02*
X87630000Y-29006800D01*
D20*
%TO.N,U0TXD*%
X62741758Y-50118200D02*
X106193400Y-50118200D01*
X106193400Y-50118200D02*
X106375200Y-49936400D01*
X50038000Y-30632400D02*
X50038000Y-30457111D01*
X50038000Y-30457111D02*
X50570111Y-29925000D01*
X51029889Y-29925000D02*
X51409600Y-30304711D01*
X51177000Y-31068200D02*
X51177000Y-38553442D01*
X51409600Y-30304711D02*
X51409600Y-30835600D01*
X51177000Y-38553442D02*
X62741758Y-50118200D01*
%TO.N,U0RXD*%
X50800000Y-30632400D02*
X50800000Y-38709600D01*
X62585600Y-50495200D02*
X106984800Y-50495200D01*
X50800000Y-38709600D02*
X62585600Y-50495200D01*
X106984800Y-50495200D02*
X107467400Y-50012600D01*
D21*
%TO.N,USB_D+*%
X120853200Y-38303200D02*
X120802400Y-38354000D01*
X120802400Y-38354000D02*
X118360800Y-38354000D01*
X118360800Y-38354000D02*
X117668000Y-37661200D01*
D19*
%TO.N,GPIO9*%
X62534800Y-47193200D02*
X60147200Y-44805600D01*
X60147200Y-44805600D02*
X60147200Y-33129725D01*
X60147200Y-33129725D02*
X59979200Y-32961725D01*
%TO.N,CHIP_PU*%
X61214000Y-47142400D02*
X61214000Y-46837600D01*
X61214000Y-46837600D02*
X59588400Y-45212000D01*
%TO.N,Net-(D4-A)*%
X68173600Y-41351200D02*
X66598800Y-39776400D01*
X66598800Y-39776400D02*
X66598800Y-38938300D01*
%TO.N,Net-(JP3-B)*%
X55930800Y-29006800D02*
X53848000Y-29006800D01*
X53848000Y-29006800D02*
X53035200Y-29819600D01*
D17*
%TO.N,VBUS*%
X109220000Y-37727100D02*
X110045500Y-36901600D01*
X109220000Y-39624000D02*
X109220000Y-37727100D01*
D20*
%TO.N,DTR*%
X108508800Y-49987200D02*
X107903000Y-49381400D01*
X107903000Y-49381400D02*
X104589100Y-49381400D01*
X104589100Y-49381400D02*
X103150500Y-47942800D01*
%TO.N,RTS*%
X104648000Y-48107600D02*
X103784400Y-47244000D01*
X103784400Y-44868300D02*
X103150500Y-44234400D01*
X103784400Y-47244000D02*
X103784400Y-44868300D01*
D21*
%TO.N,Net-(Q8-B)*%
X100076000Y-46532800D02*
X102506000Y-48962800D01*
X102506000Y-48962800D02*
X103150500Y-48962800D01*
D18*
%TO.N,VBAT*%
X72440800Y-26670000D02*
X45720000Y-26670000D01*
D19*
X72440800Y-26670000D02*
X72440800Y-35204400D01*
X72440800Y-35204400D02*
X71170800Y-36474400D01*
D18*
X45720000Y-26670000D02*
X42192500Y-30197500D01*
X42192500Y-30197500D02*
X42192500Y-38671500D01*
D21*
%TO.N,ADC_lvl_BAT*%
X68630800Y-36525200D02*
X68630800Y-34116234D01*
X68630800Y-34116234D02*
X70487300Y-32259734D01*
X51511200Y-45618400D02*
X51358800Y-45770800D01*
X53746400Y-45618400D02*
X51511200Y-45618400D01*
%TO.N,Net-(Q7-D)*%
X72034400Y-42570400D02*
X70713600Y-41249600D01*
X72136000Y-42570400D02*
X72034400Y-42570400D01*
%TO.N,SDA*%
X90373200Y-35560000D02*
X92151200Y-37338000D01*
X92151200Y-37338000D02*
X93065600Y-37338000D01*
%TO.N,Net-(U1-VIO)*%
X110490000Y-45516800D02*
X111861600Y-46888400D01*
X110490000Y-43535600D02*
X110490000Y-45516800D01*
%TO.N,USB_D-*%
X121767600Y-38354000D02*
X121074800Y-37661200D01*
X121074800Y-37661200D02*
X119568000Y-37661200D01*
%TD*%
%TA.AperFunction,Conductor*%
%TO.N,GND*%
G36*
X128213039Y-26689685D02*
G01*
X128258794Y-26742489D01*
X128270000Y-26794000D01*
X128270000Y-50676000D01*
X128250315Y-50743039D01*
X128197511Y-50788794D01*
X128146000Y-50800000D01*
X123990115Y-50800000D01*
X123923076Y-50780315D01*
X123877321Y-50727511D01*
X123867377Y-50658353D01*
X123876164Y-50627099D01*
X123897060Y-50578405D01*
X123938000Y-50379190D01*
X123938000Y-50227500D01*
X123238000Y-50227500D01*
X123238000Y-49727500D01*
X123938000Y-49727500D01*
X123938000Y-49626786D01*
X123922581Y-49475161D01*
X123861700Y-49281118D01*
X123861695Y-49281108D01*
X123762994Y-49103284D01*
X123762994Y-49103283D01*
X123630521Y-48948969D01*
X123630520Y-48948968D01*
X123469695Y-48824481D01*
X123287093Y-48734911D01*
X123188000Y-48709253D01*
X123188000Y-49511389D01*
X123163543Y-49471890D01*
X123074038Y-49404299D01*
X122966160Y-49373605D01*
X122854479Y-49383954D01*
X122754078Y-49433948D01*
X122688000Y-49506430D01*
X122688000Y-48704133D01*
X122686053Y-48704431D01*
X122686047Y-48704433D01*
X122495342Y-48775062D01*
X122495335Y-48775065D01*
X122322732Y-48882649D01*
X122175331Y-49022764D01*
X122175330Y-49022766D01*
X122059143Y-49189695D01*
X121978940Y-49376592D01*
X121938000Y-49575809D01*
X121938000Y-49727500D01*
X122638000Y-49727500D01*
X122638000Y-50227500D01*
X121938000Y-50227500D01*
X121938000Y-50328213D01*
X121953418Y-50479838D01*
X122003318Y-50638879D01*
X122004606Y-50708737D01*
X121967920Y-50768201D01*
X121904910Y-50798392D01*
X121885005Y-50800000D01*
X115350115Y-50800000D01*
X115283076Y-50780315D01*
X115237321Y-50727511D01*
X115227377Y-50658353D01*
X115236164Y-50627099D01*
X115257060Y-50578405D01*
X115298000Y-50379190D01*
X115298000Y-50227500D01*
X114598000Y-50227500D01*
X114598000Y-49727500D01*
X115298000Y-49727500D01*
X115298000Y-49626786D01*
X115282581Y-49475161D01*
X115221700Y-49281118D01*
X115221695Y-49281108D01*
X115122994Y-49103284D01*
X115122994Y-49103283D01*
X114990521Y-48948969D01*
X114990520Y-48948968D01*
X114829695Y-48824481D01*
X114647093Y-48734911D01*
X114548000Y-48709253D01*
X114548000Y-49511389D01*
X114523543Y-49471890D01*
X114434038Y-49404299D01*
X114326160Y-49373605D01*
X114214479Y-49383954D01*
X114114078Y-49433948D01*
X114048000Y-49506430D01*
X114048000Y-48704133D01*
X114046053Y-48704431D01*
X114046047Y-48704433D01*
X113855342Y-48775062D01*
X113855335Y-48775065D01*
X113682732Y-48882649D01*
X113535331Y-49022764D01*
X113535330Y-49022766D01*
X113419143Y-49189695D01*
X113338940Y-49376592D01*
X113298000Y-49575809D01*
X113298000Y-49727500D01*
X113998000Y-49727500D01*
X113998000Y-50227500D01*
X113298000Y-50227500D01*
X113298000Y-50328213D01*
X113313418Y-50479838D01*
X113363318Y-50638879D01*
X113364606Y-50708737D01*
X113327920Y-50768201D01*
X113264910Y-50798392D01*
X113245005Y-50800000D01*
X109009290Y-50800000D01*
X108942251Y-50780315D01*
X108896496Y-50727511D01*
X108886552Y-50658353D01*
X108915577Y-50594797D01*
X108943317Y-50571007D01*
X108950313Y-50566610D01*
X108964004Y-50558008D01*
X109079608Y-50442404D01*
X109166589Y-50303975D01*
X109220586Y-50149661D01*
X109238891Y-49987200D01*
X109220586Y-49824739D01*
X109166589Y-49670425D01*
X109079608Y-49531996D01*
X108964004Y-49416392D01*
X108923724Y-49391082D01*
X108825577Y-49329412D01*
X108825573Y-49329410D01*
X108713884Y-49290328D01*
X108667158Y-49260968D01*
X108403803Y-48997612D01*
X108393980Y-48985350D01*
X108393759Y-48985534D01*
X108388786Y-48979522D01*
X108339066Y-48932832D01*
X108337666Y-48931475D01*
X108317476Y-48911284D01*
X108311986Y-48907025D01*
X108307561Y-48903247D01*
X108273582Y-48871338D01*
X108273580Y-48871336D01*
X108273577Y-48871335D01*
X108256029Y-48861688D01*
X108239763Y-48851004D01*
X108223933Y-48838725D01*
X108181168Y-48820218D01*
X108175922Y-48817648D01*
X108135093Y-48795203D01*
X108135092Y-48795202D01*
X108115693Y-48790222D01*
X108097281Y-48783918D01*
X108078898Y-48775962D01*
X108078892Y-48775960D01*
X108032874Y-48768672D01*
X108027152Y-48767487D01*
X107982021Y-48755900D01*
X107982019Y-48755900D01*
X107961984Y-48755900D01*
X107942586Y-48754373D01*
X107935162Y-48753197D01*
X107922805Y-48751240D01*
X107922804Y-48751240D01*
X107876416Y-48755625D01*
X107870578Y-48755900D01*
X105321839Y-48755900D01*
X105254800Y-48736215D01*
X105209045Y-48683411D01*
X105199101Y-48614253D01*
X105216845Y-48565928D01*
X105218808Y-48562804D01*
X105305789Y-48424375D01*
X105359786Y-48270061D01*
X105365069Y-48223174D01*
X105378091Y-48107603D01*
X105378091Y-48107596D01*
X105359787Y-47945144D01*
X105359786Y-47945142D01*
X105359786Y-47945139D01*
X105305789Y-47790825D01*
X105218808Y-47652396D01*
X105103204Y-47536792D01*
X105060524Y-47509974D01*
X104964777Y-47449812D01*
X104964773Y-47449810D01*
X104853084Y-47410728D01*
X104806358Y-47381368D01*
X104446219Y-47021228D01*
X104412734Y-46959905D01*
X104409900Y-46933547D01*
X104409900Y-44951042D01*
X104411624Y-44935422D01*
X104411339Y-44935396D01*
X104412073Y-44927633D01*
X104409931Y-44859452D01*
X104409900Y-44857505D01*
X104409900Y-44828954D01*
X104409900Y-44828950D01*
X104409031Y-44822072D01*
X104408572Y-44816243D01*
X104407109Y-44769672D01*
X104401522Y-44750444D01*
X104397574Y-44731384D01*
X104395386Y-44714061D01*
X104395064Y-44711508D01*
X104395063Y-44711506D01*
X104395063Y-44711504D01*
X104377912Y-44668187D01*
X104376019Y-44662658D01*
X104363018Y-44617909D01*
X104363016Y-44617906D01*
X104352823Y-44600671D01*
X104344261Y-44583194D01*
X104336887Y-44564570D01*
X104336886Y-44564568D01*
X104309479Y-44526845D01*
X104306288Y-44521986D01*
X104304503Y-44518968D01*
X104282570Y-44481880D01*
X104282568Y-44481878D01*
X104282565Y-44481874D01*
X104268406Y-44467715D01*
X104255768Y-44452919D01*
X104255572Y-44452649D01*
X104243994Y-44436713D01*
X104208088Y-44407009D01*
X104203776Y-44403086D01*
X103876732Y-44076041D01*
X103847371Y-44029315D01*
X103830392Y-43980792D01*
X103808289Y-43917625D01*
X103721308Y-43779196D01*
X103706315Y-43764203D01*
X108312109Y-43764203D01*
X108330412Y-43926655D01*
X108384410Y-44080974D01*
X108465347Y-44209783D01*
X108471392Y-44219404D01*
X108586996Y-44335008D01*
X108725425Y-44421989D01*
X108879739Y-44475986D01*
X108879742Y-44475986D01*
X108879744Y-44475987D01*
X109042196Y-44494291D01*
X109042200Y-44494291D01*
X109042204Y-44494291D01*
X109204655Y-44475987D01*
X109204656Y-44475986D01*
X109204661Y-44475986D01*
X109358975Y-44421989D01*
X109497404Y-44335008D01*
X109613008Y-44219404D01*
X109660506Y-44143810D01*
X109712841Y-44097520D01*
X109781894Y-44086872D01*
X109845743Y-44115247D01*
X109884115Y-44173637D01*
X109889500Y-44209783D01*
X109889500Y-45473371D01*
X109888969Y-45481473D01*
X109884318Y-45516799D01*
X109884318Y-45516800D01*
X109889500Y-45556160D01*
X109904955Y-45673560D01*
X109904956Y-45673562D01*
X109958450Y-45802709D01*
X109965464Y-45819641D01*
X110061718Y-45945082D01*
X110089995Y-45966780D01*
X110096085Y-45972120D01*
X110609964Y-46485999D01*
X111117156Y-46993191D01*
X111145741Y-47044910D01*
X111147515Y-47044290D01*
X111149813Y-47050859D01*
X111149814Y-47050861D01*
X111165318Y-47095171D01*
X111203810Y-47205174D01*
X111231135Y-47248661D01*
X111290792Y-47343604D01*
X111406396Y-47459208D01*
X111544825Y-47546189D01*
X111699139Y-47600186D01*
X111699142Y-47600186D01*
X111699144Y-47600187D01*
X111861596Y-47618491D01*
X111861600Y-47618491D01*
X111861604Y-47618491D01*
X112024055Y-47600187D01*
X112024056Y-47600186D01*
X112024061Y-47600186D01*
X112178375Y-47546189D01*
X112316804Y-47459208D01*
X112432408Y-47343604D01*
X112519389Y-47205175D01*
X112573386Y-47050861D01*
X112574057Y-47044910D01*
X112591691Y-46888403D01*
X112591691Y-46888396D01*
X112573387Y-46725944D01*
X112573386Y-46725942D01*
X112573386Y-46725939D01*
X112519389Y-46571625D01*
X112432408Y-46433196D01*
X112316804Y-46317592D01*
X112178374Y-46230610D01*
X112060052Y-46189208D01*
X112024061Y-46176614D01*
X112024059Y-46176613D01*
X112017490Y-46174315D01*
X112018110Y-46172541D01*
X111966391Y-46143956D01*
X111126818Y-45304383D01*
X111093333Y-45243060D01*
X111090499Y-45216702D01*
X111090499Y-44551603D01*
X111893509Y-44551603D01*
X111911812Y-44714055D01*
X111965810Y-44868374D01*
X112011204Y-44940618D01*
X112052792Y-45006804D01*
X112168396Y-45122408D01*
X112306825Y-45209389D01*
X112461139Y-45263386D01*
X112461142Y-45263386D01*
X112461144Y-45263387D01*
X112623596Y-45281691D01*
X112623600Y-45281691D01*
X112623604Y-45281691D01*
X112786055Y-45263387D01*
X112786056Y-45263386D01*
X112786061Y-45263386D01*
X112940375Y-45209389D01*
X113078804Y-45122408D01*
X113086318Y-45114893D01*
X113147642Y-45081408D01*
X113217334Y-45086392D01*
X113273267Y-45128264D01*
X113297684Y-45193728D01*
X113298000Y-45202574D01*
X113298000Y-45547500D01*
X113998000Y-45547500D01*
X113998000Y-46047500D01*
X113298000Y-46047500D01*
X113298000Y-46398213D01*
X113313418Y-46549838D01*
X113374299Y-46743881D01*
X113374304Y-46743891D01*
X113473005Y-46921715D01*
X113473005Y-46921716D01*
X113605478Y-47076030D01*
X113605479Y-47076031D01*
X113766304Y-47200518D01*
X113948907Y-47290089D01*
X114048000Y-47315744D01*
X114048000Y-46513610D01*
X114072457Y-46553110D01*
X114161962Y-46620701D01*
X114269840Y-46651395D01*
X114381521Y-46641046D01*
X114481922Y-46591052D01*
X114547999Y-46518570D01*
X114547999Y-47320865D01*
X114549943Y-47320568D01*
X114549952Y-47320566D01*
X114740657Y-47249937D01*
X114740664Y-47249934D01*
X114913267Y-47142350D01*
X115060668Y-47002235D01*
X115060669Y-47002233D01*
X115176857Y-46835303D01*
X115198715Y-46784367D01*
X115243241Y-46730523D01*
X115309809Y-46709299D01*
X115377284Y-46727434D01*
X115390921Y-46737078D01*
X115393241Y-46738965D01*
X115393245Y-46738969D01*
X115516672Y-46814026D01*
X115655772Y-46853000D01*
X115655773Y-46853000D01*
X115763950Y-46853000D01*
X115775502Y-46851411D01*
X115871111Y-46838271D01*
X116003609Y-46780719D01*
X116115665Y-46689554D01*
X116198971Y-46571537D01*
X116229371Y-46485999D01*
X116247345Y-46435425D01*
X116247345Y-46435423D01*
X116247346Y-46435421D01*
X116252252Y-46363699D01*
X120978796Y-46363699D01*
X120993700Y-46435421D01*
X121008186Y-46505134D01*
X121008187Y-46505136D01*
X121074645Y-46633393D01*
X121074649Y-46633399D01*
X121162472Y-46727434D01*
X121173245Y-46738969D01*
X121296672Y-46814026D01*
X121435772Y-46853000D01*
X121435773Y-46853000D01*
X121543950Y-46853000D01*
X121555502Y-46851411D01*
X121651111Y-46838271D01*
X121783609Y-46780719D01*
X121841786Y-46733387D01*
X121906212Y-46706349D01*
X121975028Y-46718433D01*
X122026387Y-46765804D01*
X122028461Y-46769397D01*
X122113005Y-46921715D01*
X122113005Y-46921716D01*
X122245478Y-47076030D01*
X122245479Y-47076031D01*
X122406304Y-47200518D01*
X122588907Y-47290089D01*
X122688000Y-47315744D01*
X122688000Y-46513610D01*
X122712457Y-46553110D01*
X122801962Y-46620701D01*
X122909840Y-46651395D01*
X123021521Y-46641046D01*
X123121922Y-46591052D01*
X123187999Y-46518570D01*
X123187999Y-47320865D01*
X123189943Y-47320568D01*
X123189952Y-47320566D01*
X123380657Y-47249937D01*
X123380664Y-47249934D01*
X123553267Y-47142350D01*
X123700668Y-47002235D01*
X123700669Y-47002233D01*
X123816856Y-46835304D01*
X123897059Y-46648407D01*
X123937999Y-46449190D01*
X123938000Y-46047500D01*
X123238000Y-46047500D01*
X123238000Y-45547500D01*
X123938000Y-45547500D01*
X123938000Y-45196786D01*
X123922581Y-45045161D01*
X123861700Y-44851118D01*
X123861695Y-44851108D01*
X123762994Y-44673284D01*
X123762994Y-44673283D01*
X123630521Y-44518969D01*
X123630520Y-44518968D01*
X123469695Y-44394481D01*
X123287097Y-44304912D01*
X123187999Y-44279254D01*
X123187999Y-45081387D01*
X123163543Y-45041890D01*
X123074038Y-44974299D01*
X122966160Y-44943605D01*
X122854479Y-44953954D01*
X122754078Y-45003948D01*
X122688000Y-45076430D01*
X122688000Y-44274133D01*
X122686053Y-44274431D01*
X122686047Y-44274433D01*
X122495342Y-44345062D01*
X122495335Y-44345065D01*
X122322732Y-44452649D01*
X122175331Y-44592764D01*
X122175330Y-44592766D01*
X122059143Y-44759695D01*
X121978940Y-44946592D01*
X121937999Y-45145809D01*
X121938000Y-45547500D01*
X122638000Y-45547500D01*
X122638000Y-46047500D01*
X122019399Y-46047500D01*
X121952360Y-46027815D01*
X121928776Y-46008137D01*
X121842754Y-45916030D01*
X121719330Y-45840975D01*
X121719329Y-45840974D01*
X121719328Y-45840974D01*
X121580228Y-45802000D01*
X121472051Y-45802000D01*
X121472050Y-45802000D01*
X121364889Y-45816729D01*
X121232389Y-45874281D01*
X121232389Y-45874282D01*
X121120338Y-45965443D01*
X121120333Y-45965448D01*
X121037028Y-46083463D01*
X120988654Y-46219574D01*
X120988654Y-46219577D01*
X120988215Y-46226004D01*
X120978796Y-46363699D01*
X116252252Y-46363699D01*
X116257204Y-46291301D01*
X116227814Y-46149866D01*
X116161354Y-46021605D01*
X116161351Y-46021602D01*
X116161350Y-46021600D01*
X116062754Y-45916030D01*
X115939330Y-45840975D01*
X115939329Y-45840974D01*
X115939328Y-45840974D01*
X115800228Y-45802000D01*
X115692051Y-45802000D01*
X115692050Y-45802000D01*
X115584889Y-45816729D01*
X115452389Y-45874281D01*
X115452389Y-45874282D01*
X115340338Y-45965443D01*
X115340333Y-45965448D01*
X115319467Y-45995009D01*
X115264725Y-46038426D01*
X115218163Y-46047500D01*
X114598000Y-46047500D01*
X114598000Y-45547500D01*
X115298000Y-45547500D01*
X115298000Y-45196786D01*
X115282581Y-45045161D01*
X115221700Y-44851118D01*
X115221695Y-44851108D01*
X115122994Y-44673284D01*
X115122994Y-44673283D01*
X114990521Y-44518969D01*
X114990520Y-44518968D01*
X114829695Y-44394481D01*
X114647097Y-44304912D01*
X114547999Y-44279254D01*
X114547999Y-45081387D01*
X114523543Y-45041890D01*
X114434038Y-44974299D01*
X114326160Y-44943605D01*
X114214479Y-44953954D01*
X114114078Y-45003948D01*
X114048000Y-45076430D01*
X114048000Y-44274133D01*
X114046053Y-44274431D01*
X114046047Y-44274433D01*
X113855342Y-44345062D01*
X113855335Y-44345065D01*
X113682732Y-44452649D01*
X113556184Y-44572942D01*
X113494033Y-44604862D01*
X113424490Y-44598113D01*
X113369635Y-44554838D01*
X113347533Y-44496949D01*
X113346163Y-44484792D01*
X113339087Y-44421989D01*
X113335387Y-44389145D01*
X113335386Y-44389143D01*
X113335386Y-44389139D01*
X113281389Y-44234825D01*
X113194408Y-44096396D01*
X113078804Y-43980792D01*
X113076387Y-43979273D01*
X112940374Y-43893810D01*
X112786055Y-43839812D01*
X112623604Y-43821509D01*
X112623596Y-43821509D01*
X112461144Y-43839812D01*
X112306825Y-43893810D01*
X112168395Y-43980792D01*
X112052792Y-44096395D01*
X111965810Y-44234825D01*
X111911812Y-44389144D01*
X111893509Y-44551596D01*
X111893509Y-44551603D01*
X111090499Y-44551603D01*
X111090499Y-43979273D01*
X111109505Y-43913301D01*
X111147789Y-43852375D01*
X111201786Y-43698061D01*
X111201786Y-43698059D01*
X111201787Y-43698057D01*
X111220091Y-43535603D01*
X111220091Y-43535596D01*
X111201787Y-43373144D01*
X111201786Y-43373142D01*
X111201786Y-43373139D01*
X111147789Y-43218825D01*
X111060808Y-43080396D01*
X110945204Y-42964792D01*
X110887780Y-42928710D01*
X110806774Y-42877810D01*
X110672026Y-42830660D01*
X110652461Y-42823814D01*
X110652460Y-42823813D01*
X110652455Y-42823812D01*
X110490004Y-42805509D01*
X110489996Y-42805509D01*
X110327544Y-42823812D01*
X110173225Y-42877810D01*
X110034795Y-42964792D01*
X109919192Y-43080395D01*
X109832209Y-43218827D01*
X109817195Y-43261735D01*
X109776474Y-43318511D01*
X109711521Y-43344258D01*
X109642959Y-43330802D01*
X109612473Y-43308461D01*
X109497404Y-43193392D01*
X109358974Y-43106410D01*
X109204655Y-43052412D01*
X109042204Y-43034109D01*
X109042196Y-43034109D01*
X108879744Y-43052412D01*
X108725425Y-43106410D01*
X108586995Y-43193392D01*
X108471392Y-43308995D01*
X108384410Y-43447425D01*
X108330412Y-43601744D01*
X108312109Y-43764196D01*
X108312109Y-43764203D01*
X103706315Y-43764203D01*
X103605704Y-43663592D01*
X103507266Y-43601739D01*
X103467274Y-43576610D01*
X103312955Y-43522612D01*
X103150504Y-43504309D01*
X103150496Y-43504309D01*
X102988044Y-43522612D01*
X102833725Y-43576610D01*
X102695295Y-43663592D01*
X102579692Y-43779195D01*
X102492710Y-43917625D01*
X102438712Y-44071944D01*
X102420409Y-44234396D01*
X102420409Y-44234403D01*
X102438712Y-44396855D01*
X102492710Y-44551174D01*
X102566235Y-44668187D01*
X102579692Y-44689604D01*
X102695296Y-44805208D01*
X102833725Y-44892189D01*
X102945415Y-44931270D01*
X102992140Y-44960630D01*
X103122580Y-45091071D01*
X103156065Y-45152393D01*
X103158899Y-45178751D01*
X103158899Y-47100948D01*
X103139214Y-47167987D01*
X103086410Y-47213742D01*
X103048785Y-47224168D01*
X102988044Y-47231012D01*
X102833725Y-47285010D01*
X102695295Y-47371992D01*
X102579692Y-47487595D01*
X102492710Y-47626025D01*
X102483483Y-47652396D01*
X102438714Y-47780339D01*
X102438713Y-47780341D01*
X102436415Y-47786911D01*
X102434654Y-47786294D01*
X102405092Y-47839120D01*
X102343423Y-47871965D01*
X102273787Y-47866255D01*
X102230647Y-47838212D01*
X100820443Y-46428008D01*
X100791861Y-46376289D01*
X100790085Y-46376911D01*
X100787786Y-46370341D01*
X100787786Y-46370339D01*
X100733789Y-46216025D01*
X100646808Y-46077596D01*
X100531204Y-45961992D01*
X100485479Y-45933261D01*
X100392774Y-45875010D01*
X100238455Y-45821012D01*
X100076004Y-45802709D01*
X100075996Y-45802709D01*
X99913544Y-45821012D01*
X99759225Y-45875010D01*
X99620795Y-45961992D01*
X99505192Y-46077595D01*
X99418210Y-46216025D01*
X99364212Y-46370344D01*
X99345909Y-46532796D01*
X99345909Y-46532803D01*
X99364212Y-46695255D01*
X99418210Y-46849574D01*
X99418211Y-46849575D01*
X99505192Y-46988004D01*
X99620796Y-47103608D01*
X99759225Y-47190589D01*
X99913539Y-47244586D01*
X99913541Y-47244586D01*
X99920111Y-47246885D01*
X99919489Y-47248661D01*
X99971208Y-47277243D01*
X101974984Y-49281019D01*
X102008469Y-49342342D01*
X102003485Y-49412034D01*
X101961613Y-49467967D01*
X101896149Y-49492384D01*
X101887303Y-49492700D01*
X63052210Y-49492700D01*
X62985171Y-49473015D01*
X62964529Y-49456381D01*
X61504120Y-47995972D01*
X61470635Y-47934649D01*
X61475619Y-47864957D01*
X61517491Y-47809024D01*
X61525829Y-47803297D01*
X61562366Y-47780339D01*
X61669204Y-47713208D01*
X61765300Y-47617111D01*
X61826619Y-47583629D01*
X61896311Y-47588613D01*
X61952245Y-47630484D01*
X61957971Y-47638822D01*
X61963990Y-47648402D01*
X61963992Y-47648404D01*
X62079596Y-47764008D01*
X62218025Y-47850989D01*
X62372339Y-47904986D01*
X62372342Y-47904986D01*
X62372344Y-47904987D01*
X62534796Y-47923291D01*
X62534800Y-47923291D01*
X62534804Y-47923291D01*
X62697255Y-47904987D01*
X62697256Y-47904986D01*
X62697261Y-47904986D01*
X62851575Y-47850989D01*
X62990004Y-47764008D01*
X63105608Y-47648404D01*
X63192589Y-47509975D01*
X63246586Y-47355661D01*
X63247945Y-47343604D01*
X63264891Y-47193203D01*
X63264891Y-47193196D01*
X63246587Y-47030744D01*
X63246586Y-47030742D01*
X63246586Y-47030739D01*
X63192589Y-46876425D01*
X63105608Y-46737996D01*
X62990004Y-46622392D01*
X62909069Y-46571537D01*
X62851577Y-46535412D01*
X62851573Y-46535410D01*
X62794271Y-46515359D01*
X62747545Y-46485999D01*
X61729283Y-45467737D01*
X70389909Y-45467737D01*
X70408212Y-45630189D01*
X70462210Y-45784508D01*
X70497690Y-45840974D01*
X70549192Y-45922938D01*
X70664796Y-46038542D01*
X70803225Y-46125523D01*
X70957539Y-46179520D01*
X70957542Y-46179520D01*
X70957544Y-46179521D01*
X71119996Y-46197825D01*
X71120000Y-46197825D01*
X71120004Y-46197825D01*
X71282455Y-46179521D01*
X71282456Y-46179520D01*
X71282461Y-46179520D01*
X71436775Y-46125523D01*
X71575204Y-46038542D01*
X71690808Y-45922938D01*
X71777789Y-45784509D01*
X71831786Y-45630195D01*
X71833115Y-45618400D01*
X71850091Y-45467737D01*
X71850091Y-45467730D01*
X71831787Y-45305278D01*
X71831786Y-45305276D01*
X71831786Y-45305273D01*
X71777789Y-45150959D01*
X71690808Y-45012530D01*
X71575204Y-44896926D01*
X71561490Y-44888309D01*
X71436774Y-44809944D01*
X71284884Y-44756796D01*
X71282461Y-44755948D01*
X71282460Y-44755947D01*
X71282455Y-44755946D01*
X71120004Y-44737643D01*
X71119996Y-44737643D01*
X70957544Y-44755946D01*
X70803225Y-44809944D01*
X70664795Y-44896926D01*
X70549192Y-45012529D01*
X70462210Y-45150959D01*
X70408212Y-45305278D01*
X70389909Y-45467730D01*
X70389909Y-45467737D01*
X61729283Y-45467737D01*
X60834019Y-44572473D01*
X60800534Y-44511150D01*
X60797700Y-44484792D01*
X60797700Y-39940186D01*
X60817385Y-39873147D01*
X60870189Y-39827392D01*
X60939347Y-39817448D01*
X61002903Y-39846473D01*
X61009381Y-39852505D01*
X61073996Y-39917120D01*
X61212425Y-40004101D01*
X61366739Y-40058098D01*
X61366742Y-40058098D01*
X61366744Y-40058099D01*
X61529196Y-40076403D01*
X61529200Y-40076403D01*
X61529204Y-40076403D01*
X61691655Y-40058099D01*
X61691656Y-40058098D01*
X61691661Y-40058098D01*
X61845975Y-40004101D01*
X61984404Y-39917120D01*
X62100008Y-39801516D01*
X62186989Y-39663087D01*
X62240986Y-39508773D01*
X62241191Y-39506954D01*
X62259291Y-39346315D01*
X62259291Y-39346308D01*
X62240987Y-39183856D01*
X62240986Y-39183854D01*
X62240986Y-39183851D01*
X62186989Y-39029537D01*
X62129663Y-38938303D01*
X65868709Y-38938303D01*
X65887012Y-39100757D01*
X65941341Y-39256018D01*
X65948300Y-39296973D01*
X65948300Y-39690894D01*
X65946532Y-39706905D01*
X65946774Y-39706928D01*
X65946039Y-39714694D01*
X65948269Y-39785635D01*
X65948300Y-39787583D01*
X65948300Y-39817320D01*
X65948301Y-39817340D01*
X65949218Y-39824606D01*
X65949676Y-39830424D01*
X65951202Y-39878967D01*
X65951203Y-39878970D01*
X65957123Y-39899348D01*
X65961068Y-39918396D01*
X65963728Y-39939454D01*
X65963731Y-39939464D01*
X65981613Y-39984630D01*
X65983505Y-39990158D01*
X65997054Y-40036795D01*
X65997055Y-40036797D01*
X66007860Y-40055066D01*
X66016417Y-40072534D01*
X66019849Y-40081200D01*
X66024232Y-40092272D01*
X66052783Y-40131570D01*
X66055988Y-40136449D01*
X66067303Y-40155581D01*
X66077963Y-40173606D01*
X66080719Y-40178265D01*
X66080723Y-40178269D01*
X66095725Y-40193271D01*
X66108363Y-40208069D01*
X66120833Y-40225233D01*
X66120836Y-40225236D01*
X66120837Y-40225237D01*
X66158276Y-40256209D01*
X66162576Y-40260122D01*
X66835279Y-40932825D01*
X67466399Y-41563945D01*
X67495759Y-41610671D01*
X67515810Y-41667973D01*
X67515812Y-41667977D01*
X67572495Y-41758187D01*
X67602792Y-41806404D01*
X67718396Y-41922008D01*
X67856825Y-42008989D01*
X68011139Y-42062986D01*
X68011142Y-42062986D01*
X68011144Y-42062987D01*
X68173596Y-42081291D01*
X68173600Y-42081291D01*
X68173604Y-42081291D01*
X68336055Y-42062987D01*
X68336056Y-42062986D01*
X68336061Y-42062986D01*
X68490375Y-42008989D01*
X68628804Y-41922008D01*
X68744408Y-41806404D01*
X68831389Y-41667975D01*
X68885386Y-41513661D01*
X68890115Y-41471691D01*
X68903691Y-41351203D01*
X68903691Y-41351196D01*
X68892244Y-41249603D01*
X69983509Y-41249603D01*
X70001812Y-41412055D01*
X70055810Y-41566374D01*
X70096955Y-41631855D01*
X70142792Y-41704804D01*
X70258396Y-41820408D01*
X70396825Y-41907389D01*
X70551139Y-41961386D01*
X70551141Y-41961386D01*
X70557711Y-41963685D01*
X70557089Y-41965461D01*
X70608808Y-41994043D01*
X71445425Y-42830660D01*
X71474784Y-42877382D01*
X71478211Y-42887175D01*
X71565192Y-43025604D01*
X71680796Y-43141208D01*
X71819225Y-43228189D01*
X71973539Y-43282186D01*
X71973542Y-43282186D01*
X71973544Y-43282187D01*
X72135996Y-43300491D01*
X72136000Y-43300491D01*
X72136004Y-43300491D01*
X72298455Y-43282187D01*
X72298456Y-43282186D01*
X72298461Y-43282186D01*
X72452775Y-43228189D01*
X72591204Y-43141208D01*
X72706808Y-43025604D01*
X72793789Y-42887175D01*
X72847786Y-42732861D01*
X72848803Y-42723835D01*
X72866091Y-42570403D01*
X72866091Y-42570396D01*
X72853580Y-42459356D01*
X72865635Y-42390534D01*
X72887136Y-42367203D01*
X83399109Y-42367203D01*
X83417412Y-42529655D01*
X83471410Y-42683974D01*
X83496452Y-42723828D01*
X83558392Y-42822404D01*
X83673996Y-42938008D01*
X83812425Y-43024989D01*
X83966739Y-43078986D01*
X83966742Y-43078986D01*
X83966744Y-43078987D01*
X84129196Y-43097291D01*
X84129200Y-43097291D01*
X84129204Y-43097291D01*
X84291655Y-43078987D01*
X84291656Y-43078986D01*
X84291661Y-43078986D01*
X84445975Y-43024989D01*
X84584404Y-42938008D01*
X84700008Y-42822404D01*
X84786989Y-42683975D01*
X84840986Y-42529661D01*
X84840987Y-42529655D01*
X84859291Y-42367203D01*
X84859291Y-42367196D01*
X84840987Y-42204744D01*
X84840986Y-42204742D01*
X84840986Y-42204739D01*
X84786989Y-42050425D01*
X84700008Y-41911996D01*
X84584404Y-41796392D01*
X84538679Y-41767661D01*
X84445974Y-41709410D01*
X84291655Y-41655412D01*
X84129204Y-41637109D01*
X84129196Y-41637109D01*
X83966744Y-41655412D01*
X83812425Y-41709410D01*
X83673995Y-41796392D01*
X83558392Y-41911995D01*
X83471410Y-42050425D01*
X83417412Y-42204744D01*
X83399109Y-42367196D01*
X83399109Y-42367203D01*
X72887136Y-42367203D01*
X72912984Y-42339155D01*
X72962918Y-42322253D01*
X73009654Y-42316987D01*
X73009654Y-42316986D01*
X73009661Y-42316986D01*
X73163975Y-42262989D01*
X73302404Y-42176008D01*
X73418008Y-42060404D01*
X73504989Y-41921975D01*
X73558986Y-41767661D01*
X73558987Y-41767655D01*
X73577291Y-41605203D01*
X73577291Y-41605196D01*
X73558987Y-41442744D01*
X73558986Y-41442742D01*
X73558986Y-41442739D01*
X73504989Y-41288425D01*
X73418008Y-41149996D01*
X73302404Y-41034392D01*
X73163974Y-40947410D01*
X73009655Y-40893412D01*
X72847204Y-40875109D01*
X72847196Y-40875109D01*
X72684744Y-40893412D01*
X72530425Y-40947410D01*
X72391995Y-41034392D01*
X72276392Y-41149995D01*
X72189410Y-41288425D01*
X72135412Y-41442744D01*
X72125819Y-41527886D01*
X72098752Y-41592300D01*
X72041157Y-41631855D01*
X71971320Y-41633992D01*
X71914918Y-41601683D01*
X71458043Y-41144808D01*
X71429461Y-41093089D01*
X71427685Y-41093711D01*
X71425386Y-41087141D01*
X71425386Y-41087139D01*
X71371389Y-40932825D01*
X71284408Y-40794396D01*
X71168804Y-40678792D01*
X71128194Y-40653275D01*
X71030374Y-40591810D01*
X70883997Y-40540591D01*
X70876061Y-40537814D01*
X70876060Y-40537813D01*
X70876055Y-40537812D01*
X70713604Y-40519509D01*
X70713596Y-40519509D01*
X70551144Y-40537812D01*
X70396825Y-40591810D01*
X70258395Y-40678792D01*
X70142792Y-40794395D01*
X70055810Y-40932825D01*
X70001812Y-41087144D01*
X69983509Y-41249596D01*
X69983509Y-41249603D01*
X68892244Y-41249603D01*
X68885387Y-41188744D01*
X68885386Y-41188742D01*
X68885386Y-41188739D01*
X68831389Y-41034425D01*
X68744408Y-40895996D01*
X68628804Y-40780392D01*
X68583079Y-40751661D01*
X68490377Y-40693412D01*
X68490373Y-40693410D01*
X68433071Y-40673359D01*
X68386345Y-40643999D01*
X67285619Y-39543272D01*
X67252134Y-39481949D01*
X67249300Y-39455591D01*
X67249300Y-39370003D01*
X78822709Y-39370003D01*
X78841012Y-39532455D01*
X78895010Y-39686774D01*
X78912555Y-39714696D01*
X78981992Y-39825204D01*
X79097596Y-39940808D01*
X79236025Y-40027789D01*
X79390339Y-40081786D01*
X79390342Y-40081786D01*
X79390344Y-40081787D01*
X79552796Y-40100091D01*
X79552800Y-40100091D01*
X79552804Y-40100091D01*
X79715255Y-40081787D01*
X79715256Y-40081786D01*
X79715261Y-40081786D01*
X79869575Y-40027789D01*
X80008004Y-39940808D01*
X80123608Y-39825204D01*
X80210589Y-39686775D01*
X80264586Y-39532461D01*
X80267460Y-39506954D01*
X80282891Y-39370003D01*
X80282891Y-39369996D01*
X80264587Y-39207544D01*
X80264586Y-39207542D01*
X80264586Y-39207539D01*
X80210589Y-39053225D01*
X80123608Y-38914796D01*
X80008004Y-38799192D01*
X80008001Y-38799190D01*
X79935644Y-38753724D01*
X79889353Y-38701389D01*
X79878706Y-38632336D01*
X79907082Y-38568487D01*
X79935642Y-38543738D01*
X80056804Y-38467608D01*
X80172408Y-38352004D01*
X80259389Y-38213575D01*
X80313386Y-38059261D01*
X80313387Y-38059255D01*
X80331691Y-37896803D01*
X80331691Y-37896796D01*
X80313387Y-37734344D01*
X80313386Y-37734342D01*
X80313386Y-37734339D01*
X80259389Y-37580025D01*
X80172408Y-37441596D01*
X80056804Y-37325992D01*
X80012230Y-37297984D01*
X79918374Y-37239010D01*
X79764055Y-37185012D01*
X79601604Y-37166709D01*
X79601596Y-37166709D01*
X79439144Y-37185012D01*
X79284825Y-37239010D01*
X79146395Y-37325992D01*
X79030792Y-37441595D01*
X78943810Y-37580025D01*
X78889812Y-37734344D01*
X78871509Y-37896796D01*
X78871509Y-37896803D01*
X78889812Y-38059255D01*
X78943810Y-38213574D01*
X79030792Y-38352004D01*
X79146397Y-38467609D01*
X79218755Y-38513075D01*
X79265045Y-38565410D01*
X79275693Y-38634463D01*
X79247318Y-38698311D01*
X79218755Y-38723061D01*
X79097598Y-38799190D01*
X79097595Y-38799192D01*
X78981992Y-38914795D01*
X78895010Y-39053225D01*
X78841012Y-39207544D01*
X78822709Y-39369996D01*
X78822709Y-39370003D01*
X67249300Y-39370003D01*
X67249300Y-39296973D01*
X67256259Y-39256018D01*
X67270616Y-39214987D01*
X67310586Y-39100761D01*
X67310586Y-39100759D01*
X67310587Y-39100757D01*
X67328891Y-38938303D01*
X67328891Y-38938296D01*
X67310587Y-38775844D01*
X67310586Y-38775842D01*
X67310586Y-38775839D01*
X67256589Y-38621525D01*
X67169608Y-38483096D01*
X67054004Y-38367492D01*
X67029355Y-38352004D01*
X66915574Y-38280510D01*
X66761255Y-38226512D01*
X66598804Y-38208209D01*
X66598796Y-38208209D01*
X66436344Y-38226512D01*
X66282025Y-38280510D01*
X66143595Y-38367492D01*
X66027992Y-38483095D01*
X65941010Y-38621525D01*
X65887012Y-38775844D01*
X65868709Y-38938296D01*
X65868709Y-38938303D01*
X62129663Y-38938303D01*
X62100008Y-38891108D01*
X61984404Y-38775504D01*
X61962356Y-38761650D01*
X61845977Y-38688524D01*
X61845976Y-38688523D01*
X61795144Y-38670736D01*
X61738368Y-38630014D01*
X61712622Y-38565061D01*
X61712100Y-38553695D01*
X61712100Y-36525203D01*
X67900709Y-36525203D01*
X67919012Y-36687655D01*
X67973010Y-36841974D01*
X68023008Y-36921544D01*
X68059992Y-36980404D01*
X68175596Y-37096008D01*
X68314025Y-37182989D01*
X68468339Y-37236986D01*
X68468342Y-37236986D01*
X68468344Y-37236987D01*
X68630796Y-37255291D01*
X68630800Y-37255291D01*
X68630804Y-37255291D01*
X68793255Y-37236987D01*
X68793256Y-37236986D01*
X68793261Y-37236986D01*
X68947575Y-37182989D01*
X69086004Y-37096008D01*
X69201608Y-36980404D01*
X69288589Y-36841975D01*
X69342586Y-36687661D01*
X69342587Y-36687655D01*
X69360891Y-36525203D01*
X69360891Y-36525196D01*
X69342587Y-36362744D01*
X69342586Y-36362742D01*
X69342586Y-36362739D01*
X69298418Y-36236514D01*
X69288589Y-36208424D01*
X69250306Y-36147497D01*
X69231300Y-36081525D01*
X69231300Y-34416330D01*
X69250985Y-34349291D01*
X69267614Y-34328654D01*
X70592091Y-33004176D01*
X70643809Y-32975599D01*
X70643187Y-32973820D01*
X70649759Y-32971520D01*
X70649761Y-32971520D01*
X70804075Y-32917523D01*
X70942504Y-32830542D01*
X71058108Y-32714938D01*
X71145089Y-32576509D01*
X71199086Y-32422195D01*
X71200213Y-32412192D01*
X71217391Y-32259737D01*
X71217391Y-32259730D01*
X71199087Y-32097278D01*
X71199086Y-32097276D01*
X71199086Y-32097273D01*
X71145089Y-31942959D01*
X71058108Y-31804530D01*
X70942504Y-31688926D01*
X70804074Y-31601944D01*
X70649755Y-31547946D01*
X70487304Y-31529643D01*
X70487296Y-31529643D01*
X70324844Y-31547946D01*
X70170525Y-31601944D01*
X70032095Y-31688926D01*
X69916492Y-31804529D01*
X69829510Y-31942959D01*
X69797445Y-32034597D01*
X69775514Y-32097273D01*
X69775513Y-32097275D01*
X69773215Y-32103845D01*
X69771444Y-32103225D01*
X69742856Y-32154941D01*
X68236896Y-33660902D01*
X68230794Y-33666253D01*
X68202516Y-33687952D01*
X68138227Y-33771737D01*
X68113562Y-33803882D01*
X68109913Y-33808637D01*
X68106264Y-33813392D01*
X68045756Y-33959471D01*
X68045755Y-33959473D01*
X68025118Y-34116232D01*
X68025118Y-34116233D01*
X68029769Y-34151560D01*
X68030300Y-34159662D01*
X68030300Y-36081525D01*
X68011294Y-36147497D01*
X67973010Y-36208424D01*
X67919012Y-36362744D01*
X67900709Y-36525196D01*
X67900709Y-36525203D01*
X61712100Y-36525203D01*
X61712100Y-36291674D01*
X61731785Y-36224635D01*
X61748419Y-36203993D01*
X61790811Y-36161601D01*
X61835608Y-36116804D01*
X61922589Y-35978375D01*
X61976586Y-35824061D01*
X61976587Y-35824055D01*
X61994891Y-35661603D01*
X61994891Y-35661596D01*
X61976587Y-35499144D01*
X61976586Y-35499142D01*
X61976586Y-35499139D01*
X61922589Y-35344825D01*
X61835608Y-35206396D01*
X61720004Y-35090792D01*
X61581577Y-35003812D01*
X61581573Y-35003810D01*
X61550894Y-34993075D01*
X61494118Y-34952353D01*
X61471154Y-34896101D01*
X61470137Y-34896334D01*
X61468725Y-34890152D01*
X61468628Y-34889913D01*
X61468586Y-34889541D01*
X61468586Y-34889539D01*
X61414589Y-34735225D01*
X61327608Y-34596796D01*
X61212004Y-34481192D01*
X61110961Y-34417702D01*
X61073574Y-34394210D01*
X60919256Y-34340212D01*
X60907811Y-34338923D01*
X60843398Y-34311854D01*
X60803845Y-34254257D01*
X60797699Y-34215703D01*
X60797699Y-33803882D01*
X60797699Y-33215218D01*
X60799468Y-33199214D01*
X60799226Y-33199192D01*
X60799960Y-33191430D01*
X60797731Y-33120488D01*
X60797700Y-33118540D01*
X60797700Y-33088802D01*
X60797700Y-33088800D01*
X60796779Y-33081513D01*
X60796322Y-33075704D01*
X60794797Y-33027156D01*
X60788876Y-33006778D01*
X60784931Y-32987729D01*
X60782271Y-32966667D01*
X60764385Y-32921494D01*
X60762496Y-32915974D01*
X60748943Y-32869325D01*
X60738140Y-32851059D01*
X60729578Y-32833581D01*
X60721768Y-32813854D01*
X60721764Y-32813847D01*
X60693217Y-32774556D01*
X60690008Y-32769671D01*
X60683018Y-32757852D01*
X60673295Y-32741410D01*
X60662985Y-32719243D01*
X60636989Y-32644950D01*
X60603755Y-32592059D01*
X60550008Y-32506521D01*
X60434404Y-32390917D01*
X60373313Y-32352531D01*
X60295974Y-32303935D01*
X60141655Y-32249937D01*
X59979204Y-32231634D01*
X59979196Y-32231634D01*
X59816744Y-32249937D01*
X59662425Y-32303935D01*
X59523995Y-32390917D01*
X59408392Y-32506520D01*
X59321410Y-32644950D01*
X59267412Y-32799269D01*
X59249109Y-32961721D01*
X59249109Y-32961728D01*
X59267412Y-33124180D01*
X59321410Y-33278499D01*
X59408394Y-33416932D01*
X59460380Y-33468918D01*
X59493865Y-33530241D01*
X59496699Y-33556599D01*
X59496699Y-44387471D01*
X59477014Y-44454510D01*
X59424210Y-44500265D01*
X59413659Y-44504510D01*
X59356525Y-44524503D01*
X59271624Y-44554211D01*
X59133195Y-44641192D01*
X59017592Y-44756795D01*
X58930610Y-44895225D01*
X58876612Y-45049544D01*
X58873147Y-45080301D01*
X58846080Y-45144715D01*
X58788485Y-45184270D01*
X58718648Y-45186407D01*
X58662246Y-45154098D01*
X55328556Y-41820408D01*
X53335352Y-39827203D01*
X56470709Y-39827203D01*
X56489012Y-39989655D01*
X56543010Y-40143974D01*
X56583284Y-40208069D01*
X56629992Y-40282404D01*
X56745596Y-40398008D01*
X56884025Y-40484989D01*
X57038339Y-40538986D01*
X57038342Y-40538986D01*
X57038344Y-40538987D01*
X57200796Y-40557291D01*
X57200800Y-40557291D01*
X57200804Y-40557291D01*
X57363255Y-40538987D01*
X57363256Y-40538986D01*
X57363261Y-40538986D01*
X57517575Y-40484989D01*
X57656004Y-40398008D01*
X57771608Y-40282404D01*
X57858589Y-40143975D01*
X57912586Y-39989661D01*
X57916844Y-39951871D01*
X57930891Y-39827203D01*
X57930891Y-39827196D01*
X57912587Y-39664744D01*
X57912586Y-39664742D01*
X57912586Y-39664739D01*
X57858589Y-39510425D01*
X57858568Y-39510392D01*
X57780719Y-39386496D01*
X57761718Y-39319259D01*
X57782085Y-39252424D01*
X57835353Y-39207209D01*
X57904609Y-39197971D01*
X57944184Y-39212732D01*
X57944552Y-39211969D01*
X57950819Y-39214987D01*
X57950825Y-39214989D01*
X58105139Y-39268986D01*
X58105142Y-39268986D01*
X58105144Y-39268987D01*
X58267596Y-39287291D01*
X58267600Y-39287291D01*
X58267604Y-39287291D01*
X58430055Y-39268987D01*
X58430056Y-39268986D01*
X58430061Y-39268986D01*
X58584375Y-39214989D01*
X58722804Y-39128008D01*
X58838408Y-39012404D01*
X58925389Y-38873975D01*
X58979386Y-38719661D01*
X58979594Y-38717816D01*
X58997691Y-38557203D01*
X58997691Y-38557196D01*
X58979387Y-38394744D01*
X58979386Y-38394742D01*
X58979386Y-38394739D01*
X58925389Y-38240425D01*
X58838408Y-38101996D01*
X58722804Y-37986392D01*
X58651445Y-37941554D01*
X58605154Y-37889219D01*
X58594506Y-37820165D01*
X58622881Y-37756317D01*
X58651445Y-37731566D01*
X58674338Y-37717181D01*
X58773604Y-37654808D01*
X58889208Y-37539204D01*
X58976189Y-37400775D01*
X59030186Y-37246461D01*
X59030187Y-37246455D01*
X59048491Y-37084003D01*
X59048491Y-37083996D01*
X59030187Y-36921544D01*
X59030186Y-36921542D01*
X59030186Y-36921539D01*
X58976189Y-36767225D01*
X58889208Y-36628796D01*
X58773604Y-36513192D01*
X58702000Y-36468200D01*
X58635174Y-36426210D01*
X58480855Y-36372212D01*
X58318404Y-36353909D01*
X58318396Y-36353909D01*
X58187860Y-36368616D01*
X58119038Y-36356561D01*
X58067659Y-36309212D01*
X58050035Y-36241601D01*
X58071762Y-36175196D01*
X58086292Y-36157719D01*
X58127208Y-36116804D01*
X58214189Y-35978375D01*
X58268186Y-35824061D01*
X58268187Y-35824055D01*
X58286491Y-35661603D01*
X58286491Y-35661596D01*
X58268187Y-35499144D01*
X58268186Y-35499142D01*
X58268186Y-35499139D01*
X58214189Y-35344825D01*
X58127208Y-35206396D01*
X58011604Y-35090792D01*
X57873174Y-35003810D01*
X57718855Y-34949812D01*
X57556404Y-34931509D01*
X57556396Y-34931509D01*
X57393944Y-34949812D01*
X57239625Y-35003810D01*
X57101195Y-35090792D01*
X56985592Y-35206395D01*
X56898610Y-35344825D01*
X56844612Y-35499144D01*
X56826309Y-35661596D01*
X56826309Y-35661603D01*
X56844612Y-35824055D01*
X56898610Y-35978374D01*
X56948986Y-36058546D01*
X56985592Y-36116804D01*
X57101196Y-36232408D01*
X57239625Y-36319389D01*
X57393939Y-36373386D01*
X57393942Y-36373386D01*
X57393944Y-36373387D01*
X57556396Y-36391691D01*
X57556400Y-36391691D01*
X57556403Y-36391691D01*
X57686938Y-36376983D01*
X57755760Y-36389037D01*
X57807140Y-36436386D01*
X57824764Y-36503997D01*
X57803038Y-36570402D01*
X57788504Y-36587883D01*
X57747592Y-36628795D01*
X57660610Y-36767225D01*
X57606612Y-36921544D01*
X57588309Y-37083996D01*
X57588309Y-37084003D01*
X57606612Y-37246455D01*
X57606613Y-37246460D01*
X57606614Y-37246461D01*
X57609704Y-37255291D01*
X57660610Y-37400774D01*
X57730390Y-37511827D01*
X57747592Y-37539204D01*
X57863196Y-37654808D01*
X57934554Y-37699645D01*
X57980845Y-37751980D01*
X57991493Y-37821033D01*
X57963118Y-37884882D01*
X57934555Y-37909632D01*
X57812398Y-37986390D01*
X57812395Y-37986392D01*
X57696792Y-38101995D01*
X57609810Y-38240425D01*
X57555812Y-38394744D01*
X57537509Y-38557196D01*
X57537509Y-38557203D01*
X57555812Y-38719655D01*
X57609810Y-38873974D01*
X57687681Y-38997904D01*
X57706681Y-39065140D01*
X57686313Y-39131976D01*
X57633046Y-39177190D01*
X57563789Y-39186428D01*
X57524215Y-39171668D01*
X57523848Y-39172431D01*
X57517580Y-39169412D01*
X57381339Y-39121739D01*
X57363261Y-39115414D01*
X57363260Y-39115413D01*
X57363255Y-39115412D01*
X57200804Y-39097109D01*
X57200796Y-39097109D01*
X57038344Y-39115412D01*
X56884025Y-39169410D01*
X56745595Y-39256392D01*
X56629992Y-39371995D01*
X56543010Y-39510425D01*
X56489012Y-39664744D01*
X56470709Y-39827196D01*
X56470709Y-39827203D01*
X53335352Y-39827203D01*
X51838819Y-38330670D01*
X51805334Y-38269347D01*
X51802500Y-38242989D01*
X51802500Y-31380040D01*
X51822185Y-31313001D01*
X51836103Y-31295161D01*
X51858192Y-31271638D01*
X51859463Y-31270326D01*
X51879720Y-31250071D01*
X51883979Y-31244578D01*
X51887752Y-31240161D01*
X51919662Y-31206182D01*
X51929315Y-31188620D01*
X51939989Y-31172370D01*
X51952273Y-31156536D01*
X51970780Y-31113767D01*
X51973349Y-31108524D01*
X51977152Y-31101607D01*
X51995797Y-31067692D01*
X52000777Y-31048291D01*
X52007078Y-31029888D01*
X52015038Y-31011496D01*
X52022330Y-30965449D01*
X52023511Y-30959752D01*
X52023685Y-30959076D01*
X52035100Y-30914619D01*
X52035100Y-30894582D01*
X52036627Y-30875182D01*
X52036747Y-30874425D01*
X52039760Y-30855404D01*
X52035375Y-30809015D01*
X52035100Y-30803177D01*
X52035100Y-30387448D01*
X52036824Y-30371834D01*
X52036538Y-30371807D01*
X52037272Y-30364044D01*
X52035131Y-30295881D01*
X52035100Y-30293934D01*
X52035100Y-30265362D01*
X52035100Y-30265361D01*
X52034229Y-30258470D01*
X52033772Y-30252656D01*
X52032558Y-30214025D01*
X52032309Y-30206083D01*
X52026720Y-30186848D01*
X52022774Y-30167795D01*
X52020264Y-30147919D01*
X52003101Y-30104570D01*
X52001214Y-30099057D01*
X52000037Y-30095007D01*
X51988217Y-30054321D01*
X51988216Y-30054319D01*
X51978021Y-30037080D01*
X51969460Y-30019604D01*
X51963375Y-30004235D01*
X51962086Y-30000979D01*
X51962086Y-30000978D01*
X51948337Y-29982055D01*
X51934683Y-29963261D01*
X51931500Y-29958416D01*
X51907770Y-29918290D01*
X51907765Y-29918284D01*
X51893605Y-29904124D01*
X51880970Y-29889331D01*
X51869193Y-29873123D01*
X51833293Y-29843424D01*
X51828981Y-29839501D01*
X51809083Y-29819603D01*
X52305109Y-29819603D01*
X52323412Y-29982055D01*
X52377410Y-30136374D01*
X52421213Y-30206085D01*
X52464392Y-30274804D01*
X52579996Y-30390408D01*
X52718425Y-30477389D01*
X52872739Y-30531386D01*
X52872742Y-30531386D01*
X52872744Y-30531387D01*
X53035196Y-30549691D01*
X53035200Y-30549691D01*
X53035204Y-30549691D01*
X53197655Y-30531387D01*
X53197656Y-30531386D01*
X53197661Y-30531386D01*
X53351975Y-30477389D01*
X53490404Y-30390408D01*
X53606008Y-30274804D01*
X53692989Y-30136375D01*
X53713040Y-30079069D01*
X53742399Y-30032345D01*
X54081125Y-29693619D01*
X54142449Y-29660134D01*
X54168807Y-29657300D01*
X55572127Y-29657300D01*
X55613082Y-29664259D01*
X55614024Y-29664588D01*
X55614025Y-29664589D01*
X55746339Y-29710888D01*
X55768342Y-29718587D01*
X55930796Y-29736891D01*
X55930800Y-29736891D01*
X55930804Y-29736891D01*
X56093255Y-29718587D01*
X56093256Y-29718586D01*
X56093261Y-29718586D01*
X56247575Y-29664589D01*
X56386004Y-29577608D01*
X56501608Y-29462004D01*
X56588589Y-29323575D01*
X56642586Y-29169261D01*
X56642587Y-29169255D01*
X56660891Y-29006803D01*
X56660891Y-29006796D01*
X56642587Y-28844344D01*
X56642586Y-28844342D01*
X56642586Y-28844339D01*
X56588589Y-28690025D01*
X56501608Y-28551596D01*
X56386004Y-28435992D01*
X56336768Y-28405055D01*
X56247574Y-28349010D01*
X56093255Y-28295012D01*
X55930804Y-28276709D01*
X55930796Y-28276709D01*
X55768342Y-28295012D01*
X55613082Y-28349341D01*
X55572127Y-28356300D01*
X53933506Y-28356300D01*
X53917495Y-28354532D01*
X53917473Y-28354774D01*
X53909705Y-28354039D01*
X53838750Y-28356269D01*
X53836803Y-28356300D01*
X53807075Y-28356300D01*
X53807071Y-28356300D01*
X53807060Y-28356301D01*
X53799804Y-28357217D01*
X53793986Y-28357675D01*
X53745432Y-28359201D01*
X53745431Y-28359201D01*
X53725041Y-28365125D01*
X53705996Y-28369069D01*
X53684942Y-28371729D01*
X53639774Y-28389611D01*
X53634248Y-28391503D01*
X53587602Y-28405055D01*
X53587595Y-28405058D01*
X53569329Y-28415861D01*
X53551861Y-28424419D01*
X53532128Y-28432232D01*
X53492830Y-28460783D01*
X53487953Y-28463986D01*
X53474281Y-28472072D01*
X53446132Y-28488720D01*
X53431126Y-28503726D01*
X53416336Y-28516358D01*
X53399167Y-28528832D01*
X53399165Y-28528834D01*
X53368194Y-28566270D01*
X53364262Y-28570591D01*
X52822453Y-29112399D01*
X52775729Y-29141759D01*
X52718421Y-29161812D01*
X52579995Y-29248792D01*
X52464392Y-29364395D01*
X52377410Y-29502825D01*
X52323412Y-29657144D01*
X52305109Y-29819596D01*
X52305109Y-29819603D01*
X51809083Y-29819603D01*
X51530692Y-29541212D01*
X51520869Y-29528950D01*
X51520648Y-29529134D01*
X51515675Y-29523122D01*
X51465955Y-29476432D01*
X51464555Y-29475075D01*
X51444365Y-29454884D01*
X51438875Y-29450625D01*
X51434450Y-29446847D01*
X51400471Y-29414938D01*
X51400469Y-29414936D01*
X51400466Y-29414935D01*
X51382918Y-29405288D01*
X51366652Y-29394604D01*
X51350822Y-29382325D01*
X51308057Y-29363818D01*
X51302811Y-29361248D01*
X51261982Y-29338803D01*
X51261981Y-29338802D01*
X51242582Y-29333822D01*
X51224170Y-29327518D01*
X51205787Y-29319562D01*
X51205781Y-29319560D01*
X51159763Y-29312272D01*
X51154041Y-29311087D01*
X51108910Y-29299500D01*
X51108908Y-29299500D01*
X51088873Y-29299500D01*
X51069475Y-29297973D01*
X51062051Y-29296797D01*
X51049694Y-29294840D01*
X51049693Y-29294840D01*
X51003305Y-29299225D01*
X50997467Y-29299500D01*
X50652854Y-29299500D01*
X50637233Y-29297775D01*
X50637206Y-29298061D01*
X50629444Y-29297326D01*
X50561251Y-29299469D01*
X50559304Y-29299500D01*
X50530760Y-29299500D01*
X50523889Y-29300367D01*
X50518070Y-29300825D01*
X50471485Y-29302289D01*
X50471479Y-29302290D01*
X50452237Y-29307880D01*
X50433198Y-29311823D01*
X50413328Y-29314334D01*
X50413314Y-29314337D01*
X50369994Y-29331488D01*
X50364469Y-29333380D01*
X50319724Y-29346380D01*
X50319721Y-29346381D01*
X50302477Y-29356579D01*
X50285016Y-29365133D01*
X50266385Y-29372510D01*
X50266373Y-29372517D01*
X50228681Y-29399902D01*
X50223798Y-29403109D01*
X50183691Y-29426829D01*
X50169525Y-29440995D01*
X50154735Y-29453627D01*
X50138525Y-29465404D01*
X50138522Y-29465407D01*
X50108821Y-29501309D01*
X50104888Y-29505631D01*
X49654208Y-29956310D01*
X49641951Y-29966131D01*
X49642134Y-29966352D01*
X49636122Y-29971325D01*
X49589432Y-30021043D01*
X49588079Y-30022440D01*
X49567889Y-30042630D01*
X49567877Y-30042643D01*
X49563621Y-30048128D01*
X49559837Y-30052558D01*
X49527937Y-30086529D01*
X49527936Y-30086531D01*
X49518284Y-30104087D01*
X49507610Y-30120337D01*
X49495329Y-30136172D01*
X49495325Y-30136178D01*
X49494884Y-30137198D01*
X49493638Y-30139031D01*
X49491356Y-30142890D01*
X49491113Y-30142746D01*
X49471447Y-30171684D01*
X49471533Y-30171753D01*
X49470636Y-30172877D01*
X49468784Y-30175603D01*
X49467195Y-30177191D01*
X49467191Y-30177196D01*
X49380210Y-30315625D01*
X49326212Y-30469944D01*
X49307909Y-30632396D01*
X49307909Y-30632403D01*
X49326212Y-30794855D01*
X49380210Y-30949174D01*
X49430208Y-31028744D01*
X49467192Y-31087604D01*
X49582796Y-31203208D01*
X49721225Y-31290189D01*
X49875539Y-31344186D01*
X49875542Y-31344186D01*
X49875544Y-31344187D01*
X50037996Y-31362491D01*
X50044964Y-31362491D01*
X50044964Y-31364109D01*
X50105433Y-31374699D01*
X50156815Y-31422046D01*
X50174500Y-31485867D01*
X50174500Y-38626855D01*
X50172775Y-38642472D01*
X50173061Y-38642499D01*
X50172326Y-38650266D01*
X50174469Y-38718446D01*
X50174500Y-38720393D01*
X50174500Y-38748943D01*
X50174501Y-38748960D01*
X50175368Y-38755831D01*
X50175826Y-38761650D01*
X50177290Y-38808224D01*
X50177291Y-38808227D01*
X50182880Y-38827467D01*
X50186824Y-38846511D01*
X50189336Y-38866392D01*
X50206490Y-38909719D01*
X50208382Y-38915247D01*
X50221381Y-38959988D01*
X50231580Y-38977234D01*
X50240138Y-38994703D01*
X50247514Y-39013332D01*
X50274898Y-39051023D01*
X50278106Y-39055907D01*
X50301827Y-39096016D01*
X50301833Y-39096024D01*
X50315990Y-39110180D01*
X50328627Y-39124975D01*
X50340406Y-39141187D01*
X50374523Y-39169411D01*
X50376309Y-39170888D01*
X50380620Y-39174810D01*
X58949748Y-47743939D01*
X61794128Y-50588319D01*
X61827613Y-50649642D01*
X61822629Y-50719334D01*
X61780757Y-50775267D01*
X61715293Y-50799684D01*
X61706447Y-50800000D01*
X39494000Y-50800000D01*
X39426961Y-50780315D01*
X39381206Y-50727511D01*
X39370000Y-50676000D01*
X39370000Y-48615603D01*
X45739309Y-48615603D01*
X45757612Y-48778055D01*
X45757613Y-48778060D01*
X45757614Y-48778061D01*
X45761020Y-48787795D01*
X45811610Y-48932374D01*
X45898592Y-49070803D01*
X45898592Y-49070804D01*
X46014196Y-49186408D01*
X46152625Y-49273389D01*
X46306939Y-49327386D01*
X46306942Y-49327386D01*
X46306944Y-49327387D01*
X46469396Y-49345691D01*
X46469400Y-49345691D01*
X46469404Y-49345691D01*
X46631855Y-49327387D01*
X46631856Y-49327386D01*
X46631861Y-49327386D01*
X46786175Y-49273389D01*
X46924604Y-49186408D01*
X47040208Y-49070804D01*
X47127189Y-48932375D01*
X47181186Y-48778061D01*
X47182244Y-48768672D01*
X47199491Y-48615603D01*
X47701409Y-48615603D01*
X47719712Y-48778055D01*
X47719713Y-48778060D01*
X47719714Y-48778061D01*
X47723120Y-48787795D01*
X47773710Y-48932374D01*
X47860692Y-49070803D01*
X47860692Y-49070804D01*
X47976296Y-49186408D01*
X48114725Y-49273389D01*
X48269039Y-49327386D01*
X48269042Y-49327386D01*
X48269044Y-49327387D01*
X48431496Y-49345691D01*
X48431500Y-49345691D01*
X48431504Y-49345691D01*
X48593955Y-49327387D01*
X48593956Y-49327386D01*
X48593961Y-49327386D01*
X48748275Y-49273389D01*
X48886704Y-49186408D01*
X49002308Y-49070804D01*
X49089289Y-48932375D01*
X49143286Y-48778061D01*
X49144344Y-48768672D01*
X49161591Y-48615603D01*
X49161591Y-48615596D01*
X49155868Y-48564803D01*
X49663509Y-48564803D01*
X49681812Y-48727255D01*
X49735810Y-48881574D01*
X49808722Y-48997612D01*
X49822792Y-49020004D01*
X49938396Y-49135608D01*
X50076825Y-49222589D01*
X50231139Y-49276586D01*
X50231142Y-49276586D01*
X50231144Y-49276587D01*
X50393596Y-49294891D01*
X50393600Y-49294891D01*
X50393604Y-49294891D01*
X50556055Y-49276587D01*
X50556056Y-49276586D01*
X50556061Y-49276586D01*
X50710375Y-49222589D01*
X50848804Y-49135608D01*
X50964408Y-49020004D01*
X51051389Y-48881575D01*
X51105386Y-48727261D01*
X51107958Y-48704433D01*
X51123691Y-48564803D01*
X51123691Y-48564796D01*
X51105387Y-48402344D01*
X51105386Y-48402342D01*
X51105386Y-48402339D01*
X51051389Y-48248025D01*
X50964408Y-48109596D01*
X50848804Y-47993992D01*
X50848803Y-47993992D01*
X50710374Y-47907010D01*
X50708639Y-47906403D01*
X52305109Y-47906403D01*
X52323412Y-48068855D01*
X52377410Y-48223174D01*
X52424945Y-48298825D01*
X52464392Y-48361604D01*
X52579996Y-48477208D01*
X52718425Y-48564189D01*
X52872739Y-48618186D01*
X52872742Y-48618186D01*
X52872744Y-48618187D01*
X53035196Y-48636491D01*
X53035200Y-48636491D01*
X53035204Y-48636491D01*
X53197655Y-48618187D01*
X53197656Y-48618186D01*
X53197661Y-48618186D01*
X53351975Y-48564189D01*
X53490404Y-48477208D01*
X53606008Y-48361604D01*
X53692989Y-48223175D01*
X53746986Y-48068861D01*
X53749698Y-48044792D01*
X53765291Y-47906403D01*
X53765291Y-47906396D01*
X53746987Y-47743944D01*
X53746986Y-47743942D01*
X53746986Y-47743939D01*
X53692989Y-47589625D01*
X53606008Y-47451196D01*
X53490404Y-47335592D01*
X53409905Y-47285011D01*
X53351974Y-47248610D01*
X53197655Y-47194612D01*
X53035204Y-47176309D01*
X53035196Y-47176309D01*
X52872744Y-47194612D01*
X52718425Y-47248610D01*
X52579995Y-47335592D01*
X52464392Y-47451195D01*
X52377410Y-47589625D01*
X52323412Y-47743944D01*
X52305109Y-47906396D01*
X52305109Y-47906403D01*
X50708639Y-47906403D01*
X50556055Y-47853012D01*
X50393604Y-47834709D01*
X50393596Y-47834709D01*
X50231144Y-47853012D01*
X50076825Y-47907010D01*
X49938395Y-47993992D01*
X49822792Y-48109595D01*
X49735810Y-48248025D01*
X49681812Y-48402344D01*
X49663509Y-48564796D01*
X49663509Y-48564803D01*
X49155868Y-48564803D01*
X49143287Y-48453144D01*
X49143286Y-48453142D01*
X49143286Y-48453139D01*
X49089289Y-48298825D01*
X49002308Y-48160396D01*
X48886704Y-48044792D01*
X48805857Y-47993992D01*
X48748274Y-47957810D01*
X48603097Y-47907011D01*
X48593961Y-47903814D01*
X48593960Y-47903813D01*
X48593955Y-47903812D01*
X48431504Y-47885509D01*
X48431496Y-47885509D01*
X48269044Y-47903812D01*
X48114725Y-47957810D01*
X47976295Y-48044792D01*
X47860692Y-48160395D01*
X47773710Y-48298825D01*
X47719712Y-48453144D01*
X47701409Y-48615596D01*
X47701409Y-48615603D01*
X47199491Y-48615603D01*
X47199491Y-48615596D01*
X47181187Y-48453144D01*
X47181186Y-48453142D01*
X47181186Y-48453139D01*
X47127189Y-48298825D01*
X47040208Y-48160396D01*
X46924604Y-48044792D01*
X46843757Y-47993992D01*
X46786174Y-47957810D01*
X46640997Y-47907011D01*
X46631861Y-47903814D01*
X46631860Y-47903813D01*
X46631855Y-47903812D01*
X46469404Y-47885509D01*
X46469396Y-47885509D01*
X46306944Y-47903812D01*
X46152625Y-47957810D01*
X46014195Y-48044792D01*
X45898592Y-48160395D01*
X45811610Y-48298825D01*
X45757612Y-48453144D01*
X45739309Y-48615596D01*
X45739309Y-48615603D01*
X39370000Y-48615603D01*
X39370000Y-45770803D01*
X50628709Y-45770803D01*
X50647012Y-45933255D01*
X50701010Y-46087574D01*
X50756958Y-46176614D01*
X50787992Y-46226004D01*
X50903596Y-46341608D01*
X51042025Y-46428589D01*
X51196339Y-46482586D01*
X51196342Y-46482586D01*
X51196344Y-46482587D01*
X51358796Y-46500891D01*
X51358800Y-46500891D01*
X51358804Y-46500891D01*
X51521255Y-46482587D01*
X51521256Y-46482586D01*
X51521261Y-46482586D01*
X51675575Y-46428589D01*
X51814004Y-46341608D01*
X51900393Y-46255218D01*
X51961718Y-46221734D01*
X51988075Y-46218900D01*
X53302726Y-46218900D01*
X53368697Y-46237905D01*
X53429625Y-46276189D01*
X53583939Y-46330186D01*
X53583942Y-46330186D01*
X53583944Y-46330187D01*
X53746396Y-46348491D01*
X53746400Y-46348491D01*
X53746404Y-46348491D01*
X53908855Y-46330187D01*
X53908856Y-46330186D01*
X53908861Y-46330186D01*
X54063175Y-46276189D01*
X54201604Y-46189208D01*
X54317208Y-46073604D01*
X54404189Y-45935175D01*
X54458186Y-45780861D01*
X54458187Y-45780855D01*
X54476491Y-45618403D01*
X54476491Y-45618396D01*
X54458187Y-45455944D01*
X54458186Y-45455942D01*
X54458186Y-45455939D01*
X54404189Y-45301625D01*
X54317208Y-45163196D01*
X54201604Y-45047592D01*
X54146103Y-45012718D01*
X54063174Y-44960610D01*
X53908855Y-44906612D01*
X53746404Y-44888309D01*
X53746396Y-44888309D01*
X53583944Y-44906612D01*
X53429625Y-44960610D01*
X53368698Y-44998894D01*
X53302726Y-45017900D01*
X51554628Y-45017900D01*
X51546529Y-45017369D01*
X51511200Y-45012718D01*
X51471839Y-45017900D01*
X51442488Y-45021764D01*
X51354435Y-45033356D01*
X51354433Y-45033357D01*
X51344589Y-45037434D01*
X51311029Y-45046090D01*
X51196344Y-45059012D01*
X51042025Y-45113010D01*
X50903595Y-45199992D01*
X50787992Y-45315595D01*
X50701010Y-45454025D01*
X50647012Y-45608344D01*
X50628709Y-45770796D01*
X50628709Y-45770803D01*
X39370000Y-45770803D01*
X39370000Y-43088907D01*
X39389685Y-43021868D01*
X39442489Y-42976113D01*
X39511647Y-42966169D01*
X39537335Y-42972726D01*
X39545016Y-42975591D01*
X39549872Y-42976113D01*
X39604627Y-42982000D01*
X44780372Y-42981999D01*
X44839983Y-42975591D01*
X44974831Y-42925296D01*
X45090046Y-42839046D01*
X45176296Y-42723831D01*
X45226591Y-42588983D01*
X45233000Y-42529373D01*
X45232999Y-34813628D01*
X45226591Y-34754017D01*
X45176384Y-34619406D01*
X45176297Y-34619171D01*
X45176293Y-34619164D01*
X45090047Y-34503955D01*
X45090044Y-34503952D01*
X44974835Y-34417706D01*
X44974828Y-34417702D01*
X44839982Y-34367408D01*
X44839983Y-34367408D01*
X44780383Y-34361001D01*
X44780381Y-34361000D01*
X44780373Y-34361000D01*
X44780365Y-34361000D01*
X43167000Y-34361000D01*
X43099961Y-34341315D01*
X43054206Y-34288511D01*
X43043000Y-34237000D01*
X43043000Y-30601150D01*
X43062685Y-30534111D01*
X43079314Y-30513474D01*
X46035970Y-27556818D01*
X46097293Y-27523334D01*
X46123651Y-27520500D01*
X71666300Y-27520500D01*
X71733339Y-27540185D01*
X71779094Y-27592989D01*
X71790300Y-27644500D01*
X71790300Y-34883591D01*
X71770615Y-34950630D01*
X71753981Y-34971272D01*
X70958053Y-35767199D01*
X70911329Y-35796559D01*
X70854021Y-35816612D01*
X70715595Y-35903592D01*
X70599992Y-36019195D01*
X70513010Y-36157625D01*
X70459012Y-36311944D01*
X70440709Y-36474396D01*
X70440709Y-36474403D01*
X70459012Y-36636855D01*
X70513010Y-36791174D01*
X70539683Y-36833623D01*
X70599992Y-36929604D01*
X70715596Y-37045208D01*
X70854025Y-37132189D01*
X71008339Y-37186186D01*
X71008342Y-37186186D01*
X71008344Y-37186187D01*
X71170796Y-37204491D01*
X71170800Y-37204491D01*
X71170804Y-37204491D01*
X71333255Y-37186187D01*
X71333256Y-37186186D01*
X71333261Y-37186186D01*
X71487575Y-37132189D01*
X71626004Y-37045208D01*
X71741608Y-36929604D01*
X71828589Y-36791175D01*
X71848639Y-36733872D01*
X71877998Y-36687146D01*
X72649541Y-35915603D01*
X77806709Y-35915603D01*
X77825012Y-36078055D01*
X77879010Y-36232374D01*
X77929008Y-36311944D01*
X77965992Y-36370804D01*
X78081596Y-36486408D01*
X78220025Y-36573389D01*
X78374339Y-36627386D01*
X78374342Y-36627386D01*
X78374344Y-36627387D01*
X78536796Y-36645691D01*
X78536800Y-36645691D01*
X78536804Y-36645691D01*
X78699255Y-36627387D01*
X78699256Y-36627386D01*
X78699261Y-36627386D01*
X78853575Y-36573389D01*
X78992004Y-36486408D01*
X79107608Y-36370804D01*
X79194589Y-36232375D01*
X79248586Y-36078061D01*
X79249798Y-36067307D01*
X79266891Y-35915603D01*
X79266891Y-35915596D01*
X79258692Y-35842827D01*
X79915110Y-35842827D01*
X79930400Y-36017595D01*
X79985585Y-36184131D01*
X79985587Y-36184136D01*
X80013390Y-36229211D01*
X80071609Y-36323601D01*
X80077689Y-36333457D01*
X84037467Y-40293234D01*
X84049248Y-40306866D01*
X84063590Y-40326130D01*
X84103620Y-40359719D01*
X84107592Y-40363359D01*
X84110512Y-40366279D01*
X84113420Y-40369188D01*
X84138452Y-40388981D01*
X84139849Y-40390119D01*
X84149213Y-40397976D01*
X84197986Y-40438902D01*
X84197994Y-40438906D01*
X84204024Y-40442873D01*
X84203990Y-40442923D01*
X84210337Y-40446966D01*
X84210369Y-40446916D01*
X84216521Y-40450710D01*
X84216522Y-40450710D01*
X84216523Y-40450711D01*
X84285343Y-40482802D01*
X84286892Y-40483552D01*
X84354767Y-40517640D01*
X84354776Y-40517642D01*
X84361555Y-40520110D01*
X84361534Y-40520167D01*
X84368651Y-40522640D01*
X84368670Y-40522584D01*
X84375524Y-40524854D01*
X84375527Y-40524856D01*
X84449915Y-40540215D01*
X84451552Y-40540578D01*
X84525479Y-40558100D01*
X84525485Y-40558100D01*
X84532652Y-40558938D01*
X84532645Y-40558997D01*
X84540146Y-40559763D01*
X84540152Y-40559704D01*
X84547341Y-40560333D01*
X84547343Y-40560332D01*
X84547344Y-40560333D01*
X84568964Y-40559704D01*
X84623212Y-40558126D01*
X84625015Y-40558100D01*
X85022268Y-40558100D01*
X85089307Y-40577785D01*
X85135062Y-40630589D01*
X85145006Y-40699747D01*
X85139310Y-40723054D01*
X85083012Y-40883944D01*
X85064709Y-41046396D01*
X85064709Y-41046403D01*
X85083012Y-41208855D01*
X85137010Y-41363174D01*
X85193695Y-41453387D01*
X85223992Y-41501604D01*
X85339596Y-41617208D01*
X85478025Y-41704189D01*
X85632339Y-41758186D01*
X85632342Y-41758186D01*
X85632344Y-41758187D01*
X85794796Y-41776491D01*
X85794800Y-41776491D01*
X85794804Y-41776491D01*
X85957255Y-41758187D01*
X85957256Y-41758186D01*
X85957261Y-41758186D01*
X86111575Y-41704189D01*
X86250004Y-41617208D01*
X86365608Y-41501604D01*
X86452589Y-41363175D01*
X86506586Y-41208861D01*
X86508853Y-41188744D01*
X86524891Y-41046403D01*
X86524891Y-41046396D01*
X86506587Y-40883944D01*
X86506586Y-40883942D01*
X86506586Y-40883939D01*
X86456779Y-40741600D01*
X86450290Y-40723054D01*
X86446729Y-40653275D01*
X86481458Y-40592648D01*
X86543451Y-40560421D01*
X86567332Y-40558100D01*
X89829828Y-40558100D01*
X89896867Y-40577785D01*
X89942622Y-40630589D01*
X89953048Y-40695983D01*
X89947909Y-40741595D01*
X89947909Y-40741603D01*
X89966212Y-40904055D01*
X90020210Y-41058374D01*
X90077780Y-41149995D01*
X90107192Y-41196804D01*
X90222796Y-41312408D01*
X90361225Y-41399389D01*
X90515539Y-41453386D01*
X90515542Y-41453386D01*
X90515544Y-41453387D01*
X90677996Y-41471691D01*
X90678000Y-41471691D01*
X90678004Y-41471691D01*
X90840455Y-41453387D01*
X90840456Y-41453386D01*
X90840461Y-41453386D01*
X90994775Y-41399389D01*
X91133204Y-41312408D01*
X91248808Y-41196804D01*
X91335789Y-41058375D01*
X91389786Y-40904061D01*
X91392053Y-40883944D01*
X91408091Y-40741603D01*
X91408091Y-40741595D01*
X91402952Y-40695983D01*
X91415007Y-40627161D01*
X91462356Y-40575782D01*
X91526172Y-40558100D01*
X92026904Y-40558100D01*
X92093943Y-40577785D01*
X92114585Y-40594419D01*
X94341801Y-42821634D01*
X94353582Y-42835266D01*
X94367924Y-42854530D01*
X94407954Y-42888119D01*
X94411926Y-42891759D01*
X94414846Y-42894679D01*
X94417755Y-42897589D01*
X94442784Y-42917379D01*
X94444180Y-42918517D01*
X94502320Y-42967302D01*
X94502321Y-42967302D01*
X94502323Y-42967304D01*
X94508352Y-42971270D01*
X94508319Y-42971319D01*
X94514677Y-42975369D01*
X94514709Y-42975319D01*
X94520851Y-42979107D01*
X94520853Y-42979108D01*
X94520857Y-42979111D01*
X94589666Y-43011197D01*
X94591288Y-43011983D01*
X94656409Y-43044688D01*
X94659101Y-43046040D01*
X94659103Y-43046040D01*
X94665895Y-43048513D01*
X94665874Y-43048570D01*
X94672989Y-43051043D01*
X94673009Y-43050986D01*
X94679858Y-43053256D01*
X94679861Y-43053256D01*
X94679862Y-43053257D01*
X94754239Y-43068613D01*
X94755948Y-43068993D01*
X94770842Y-43072523D01*
X94829807Y-43086499D01*
X94829810Y-43086499D01*
X94829813Y-43086500D01*
X94829816Y-43086500D01*
X94836986Y-43087338D01*
X94836978Y-43087397D01*
X94844479Y-43088164D01*
X94844485Y-43088105D01*
X94851674Y-43088734D01*
X94851678Y-43088733D01*
X94851679Y-43088734D01*
X94879764Y-43087916D01*
X94927567Y-43086526D01*
X94929370Y-43086500D01*
X106444295Y-43086500D01*
X106462265Y-43087809D01*
X106486023Y-43091289D01*
X106538068Y-43086735D01*
X106543470Y-43086500D01*
X106551704Y-43086500D01*
X106551709Y-43086500D01*
X106583458Y-43082788D01*
X106585075Y-43082622D01*
X106660797Y-43075999D01*
X106660805Y-43075996D01*
X106667866Y-43074539D01*
X106667878Y-43074598D01*
X106675243Y-43072965D01*
X106675229Y-43072906D01*
X106682251Y-43071241D01*
X106682255Y-43071241D01*
X106753587Y-43045277D01*
X106755286Y-43044688D01*
X106827334Y-43020814D01*
X106827342Y-43020808D01*
X106833882Y-43017760D01*
X106833908Y-43017816D01*
X106840690Y-43014532D01*
X106840663Y-43014478D01*
X106847109Y-43011239D01*
X106847117Y-43011237D01*
X106910612Y-42969475D01*
X106911977Y-42968605D01*
X106976656Y-42928712D01*
X106976661Y-42928706D01*
X106982325Y-42924229D01*
X106982362Y-42924277D01*
X106988204Y-42919518D01*
X106988164Y-42919471D01*
X106993686Y-42914835D01*
X106993696Y-42914830D01*
X107045800Y-42859601D01*
X107046994Y-42858372D01*
X109705638Y-40199727D01*
X109719267Y-40187950D01*
X109738530Y-40173610D01*
X109738532Y-40173606D01*
X109738534Y-40173606D01*
X109763397Y-40143974D01*
X109772113Y-40133585D01*
X109775767Y-40129599D01*
X109781590Y-40123777D01*
X109801376Y-40098750D01*
X109802494Y-40097378D01*
X109851302Y-40039214D01*
X109851303Y-40039211D01*
X109855272Y-40033179D01*
X109855323Y-40033212D01*
X109859369Y-40026860D01*
X109859317Y-40026828D01*
X109863109Y-40020679D01*
X109863111Y-40020677D01*
X109895195Y-39951869D01*
X109895958Y-39950292D01*
X109930040Y-39882433D01*
X109930043Y-39882417D01*
X109932510Y-39875644D01*
X109932568Y-39875665D01*
X109935041Y-39868551D01*
X109934983Y-39868532D01*
X109937252Y-39861680D01*
X109937256Y-39861673D01*
X109952617Y-39787278D01*
X109952983Y-39785625D01*
X109970500Y-39711721D01*
X109970500Y-39711716D01*
X109971339Y-39704547D01*
X109971397Y-39704553D01*
X109972164Y-39697056D01*
X109972104Y-39697051D01*
X109972733Y-39689860D01*
X109970526Y-39613988D01*
X109970500Y-39612185D01*
X109970500Y-38089328D01*
X109990185Y-38022289D01*
X110006814Y-38001652D01*
X110347264Y-37661203D01*
X116937909Y-37661203D01*
X116956212Y-37823655D01*
X117010210Y-37977974D01*
X117066835Y-38068091D01*
X117097192Y-38116404D01*
X117212796Y-38232008D01*
X117351225Y-38318989D01*
X117505539Y-38372986D01*
X117505541Y-38372986D01*
X117512111Y-38375285D01*
X117511489Y-38377061D01*
X117563208Y-38405643D01*
X117905469Y-38747904D01*
X117910820Y-38754005D01*
X117932518Y-38782282D01*
X118016233Y-38846518D01*
X118033855Y-38860040D01*
X118033856Y-38860041D01*
X118057959Y-38878536D01*
X118057963Y-38878538D01*
X118130998Y-38908789D01*
X118204038Y-38939044D01*
X118282419Y-38949363D01*
X118360799Y-38959682D01*
X118360800Y-38959682D01*
X118396129Y-38955030D01*
X118404228Y-38954500D01*
X120496813Y-38954500D01*
X120537762Y-38961457D01*
X120690739Y-39014986D01*
X120690745Y-39014986D01*
X120690746Y-39014987D01*
X120853196Y-39033291D01*
X120853200Y-39033291D01*
X120853204Y-39033291D01*
X121015657Y-39014987D01*
X121015659Y-39014986D01*
X121015661Y-39014986D01*
X121169975Y-38960989D01*
X121204003Y-38939607D01*
X121271238Y-38920606D01*
X121335947Y-38939606D01*
X121369978Y-38960989D01*
X121409196Y-38985632D01*
X121450825Y-39011789D01*
X121605139Y-39065786D01*
X121605142Y-39065786D01*
X121605144Y-39065787D01*
X121662382Y-39072236D01*
X121726796Y-39099302D01*
X121766351Y-39156896D01*
X121772499Y-39195456D01*
X121772499Y-42529327D01*
X121772500Y-42529344D01*
X121778901Y-42588872D01*
X121778903Y-42588879D01*
X121829145Y-42723586D01*
X121829149Y-42723593D01*
X121915309Y-42838687D01*
X121915312Y-42838690D01*
X122030406Y-42924850D01*
X122030413Y-42924854D01*
X122165120Y-42975096D01*
X122165127Y-42975098D01*
X122224655Y-42981499D01*
X122224672Y-42981500D01*
X124562500Y-42981500D01*
X124562500Y-38921500D01*
X125062500Y-38921500D01*
X125062500Y-42981500D01*
X127400328Y-42981500D01*
X127400344Y-42981499D01*
X127459872Y-42975098D01*
X127459879Y-42975096D01*
X127594586Y-42924854D01*
X127594593Y-42924850D01*
X127709687Y-42838690D01*
X127709690Y-42838687D01*
X127795850Y-42723593D01*
X127795854Y-42723586D01*
X127846096Y-42588879D01*
X127846098Y-42588872D01*
X127852499Y-42529344D01*
X127852500Y-42529327D01*
X127852500Y-38921500D01*
X125062500Y-38921500D01*
X124562500Y-38921500D01*
X124562500Y-34361500D01*
X125062500Y-34361500D01*
X125062500Y-38421500D01*
X127852500Y-38421500D01*
X127852500Y-34813672D01*
X127852499Y-34813655D01*
X127846098Y-34754127D01*
X127846096Y-34754120D01*
X127795854Y-34619413D01*
X127795850Y-34619406D01*
X127709690Y-34504312D01*
X127709687Y-34504309D01*
X127594593Y-34418149D01*
X127594586Y-34418145D01*
X127459879Y-34367903D01*
X127459872Y-34367901D01*
X127400344Y-34361500D01*
X125062500Y-34361500D01*
X124562500Y-34361500D01*
X122224655Y-34361500D01*
X122165127Y-34367901D01*
X122165120Y-34367903D01*
X122030413Y-34418145D01*
X122030406Y-34418149D01*
X121915312Y-34504309D01*
X121915309Y-34504312D01*
X121829149Y-34619406D01*
X121829145Y-34619413D01*
X121778903Y-34754120D01*
X121778901Y-34754127D01*
X121772500Y-34813655D01*
X121772500Y-37210303D01*
X121752815Y-37277342D01*
X121700011Y-37323097D01*
X121630853Y-37333041D01*
X121567297Y-37304016D01*
X121560819Y-37297984D01*
X121548039Y-37285204D01*
X121530120Y-37267285D01*
X121524780Y-37261195D01*
X121503082Y-37232918D01*
X121377641Y-37136664D01*
X121366837Y-37132189D01*
X121310794Y-37108975D01*
X121231562Y-37076156D01*
X121205486Y-37072723D01*
X121205485Y-37072722D01*
X121074801Y-37055518D01*
X121074800Y-37055518D01*
X121039470Y-37060169D01*
X121031372Y-37060700D01*
X120011674Y-37060700D01*
X119945702Y-37041694D01*
X119884774Y-37003410D01*
X119730455Y-36949412D01*
X119568004Y-36931109D01*
X119567996Y-36931109D01*
X119405544Y-36949412D01*
X119251225Y-37003410D01*
X119112795Y-37090392D01*
X118997192Y-37205995D01*
X118910210Y-37344425D01*
X118856212Y-37498744D01*
X118839916Y-37643383D01*
X118812850Y-37707797D01*
X118755255Y-37747353D01*
X118716696Y-37753500D01*
X118660897Y-37753500D01*
X118593858Y-37733815D01*
X118573216Y-37717181D01*
X118412443Y-37556408D01*
X118383861Y-37504689D01*
X118382085Y-37505311D01*
X118379786Y-37498741D01*
X118379786Y-37498739D01*
X118325789Y-37344425D01*
X118238808Y-37205996D01*
X118123204Y-37090392D01*
X118095084Y-37072723D01*
X117984774Y-37003410D01*
X117830455Y-36949412D01*
X117668004Y-36931109D01*
X117667996Y-36931109D01*
X117505544Y-36949412D01*
X117351225Y-37003410D01*
X117212795Y-37090392D01*
X117097192Y-37205995D01*
X117010210Y-37344425D01*
X116956212Y-37498744D01*
X116937909Y-37661196D01*
X116937909Y-37661203D01*
X110347264Y-37661203D01*
X110607090Y-37401377D01*
X110607100Y-37401364D01*
X110607104Y-37401360D01*
X110688606Y-37298283D01*
X110688611Y-37298277D01*
X110762756Y-37139273D01*
X110769012Y-37108975D01*
X110798233Y-36967458D01*
X110793131Y-36792088D01*
X110747723Y-36622624D01*
X110664460Y-36468202D01*
X110664459Y-36468200D01*
X110547826Y-36337141D01*
X110522473Y-36319389D01*
X110404116Y-36236515D01*
X110404114Y-36236514D01*
X110404112Y-36236513D01*
X110241066Y-36171738D01*
X110241062Y-36171737D01*
X110067471Y-36146310D01*
X109892703Y-36161601D01*
X109892701Y-36161602D01*
X109726169Y-36216783D01*
X109576842Y-36308889D01*
X108734358Y-37151372D01*
X108720729Y-37163151D01*
X108701468Y-37177490D01*
X108667898Y-37217497D01*
X108664253Y-37221476D01*
X108658407Y-37227323D01*
X108638618Y-37252351D01*
X108637481Y-37253747D01*
X108588694Y-37311890D01*
X108584729Y-37317919D01*
X108584682Y-37317888D01*
X108580630Y-37324247D01*
X108580679Y-37324277D01*
X108576889Y-37330421D01*
X108544812Y-37399210D01*
X108544027Y-37400831D01*
X108509957Y-37468672D01*
X108507488Y-37475457D01*
X108507432Y-37475436D01*
X108504960Y-37482550D01*
X108505015Y-37482569D01*
X108502743Y-37489425D01*
X108487391Y-37563770D01*
X108487001Y-37565528D01*
X108469499Y-37639379D01*
X108468661Y-37646554D01*
X108468601Y-37646547D01*
X108467835Y-37654045D01*
X108467895Y-37654051D01*
X108467265Y-37661240D01*
X108469474Y-37737130D01*
X108469500Y-37738933D01*
X108469500Y-39261770D01*
X108449815Y-39328809D01*
X108433181Y-39349451D01*
X106233451Y-41549181D01*
X106172128Y-41582666D01*
X106145770Y-41585500D01*
X95279763Y-41585500D01*
X95212724Y-41565815D01*
X95192082Y-41549181D01*
X94258995Y-40616094D01*
X94244311Y-40589203D01*
X104620809Y-40589203D01*
X104639112Y-40751655D01*
X104693110Y-40905974D01*
X104693111Y-40905975D01*
X104780092Y-41044404D01*
X104895696Y-41160008D01*
X105034125Y-41246989D01*
X105188439Y-41300986D01*
X105188442Y-41300986D01*
X105188444Y-41300987D01*
X105350896Y-41319291D01*
X105350900Y-41319291D01*
X105350904Y-41319291D01*
X105513355Y-41300987D01*
X105513356Y-41300986D01*
X105513361Y-41300986D01*
X105667675Y-41246989D01*
X105806104Y-41160008D01*
X105921708Y-41044404D01*
X106008689Y-40905975D01*
X106062686Y-40751661D01*
X106062687Y-40751655D01*
X106080991Y-40589203D01*
X106080991Y-40589196D01*
X106062687Y-40426744D01*
X106062686Y-40426742D01*
X106062686Y-40426739D01*
X106008689Y-40272425D01*
X105921708Y-40133996D01*
X105806104Y-40018392D01*
X105760379Y-39989661D01*
X105667674Y-39931410D01*
X105513355Y-39877412D01*
X105350904Y-39859109D01*
X105350896Y-39859109D01*
X105188444Y-39877412D01*
X105034125Y-39931410D01*
X104895695Y-40018392D01*
X104780092Y-40133995D01*
X104693110Y-40272425D01*
X104639112Y-40426744D01*
X104620809Y-40589196D01*
X104620809Y-40589203D01*
X94244311Y-40589203D01*
X94225510Y-40554771D01*
X94230494Y-40485079D01*
X94241683Y-40462440D01*
X94282188Y-40397976D01*
X94282189Y-40397975D01*
X94336186Y-40243661D01*
X94338262Y-40225236D01*
X94354491Y-40081203D01*
X94354491Y-40081196D01*
X94336187Y-39918744D01*
X94336186Y-39918742D01*
X94336186Y-39918739D01*
X94282189Y-39764425D01*
X94195208Y-39625996D01*
X94079604Y-39510392D01*
X94057616Y-39496576D01*
X93941174Y-39423410D01*
X93788544Y-39370003D01*
X93786861Y-39369414D01*
X93786860Y-39369413D01*
X93786855Y-39369412D01*
X93624404Y-39351109D01*
X93624396Y-39351109D01*
X93461944Y-39369412D01*
X93307622Y-39423411D01*
X93243157Y-39463917D01*
X93175920Y-39482917D01*
X93109085Y-39462549D01*
X93089511Y-39446609D01*
X92964855Y-39321953D01*
X92953083Y-39308330D01*
X92944628Y-39296973D01*
X92938746Y-39289072D01*
X92938744Y-39289070D01*
X92898721Y-39255486D01*
X92894746Y-39251844D01*
X92891824Y-39248922D01*
X92888913Y-39246010D01*
X92863870Y-39226209D01*
X92862472Y-39225070D01*
X92804348Y-39176298D01*
X92798314Y-39172329D01*
X92798346Y-39172280D01*
X92791987Y-39168228D01*
X92791956Y-39168279D01*
X92785814Y-39164491D01*
X92785812Y-39164490D01*
X92785811Y-39164489D01*
X92758480Y-39151744D01*
X103082466Y-39151744D01*
X103087569Y-39327112D01*
X103087569Y-39327115D01*
X103087570Y-39327116D01*
X103132976Y-39496575D01*
X103202759Y-39625996D01*
X103216241Y-39651000D01*
X103332874Y-39782059D01*
X103476588Y-39882688D01*
X103476593Y-39882690D01*
X103476595Y-39882691D01*
X103639629Y-39947461D01*
X103639631Y-39947461D01*
X103639633Y-39947462D01*
X103813223Y-39972889D01*
X103987997Y-39957599D01*
X104154534Y-39902414D01*
X104303856Y-39810312D01*
X104659453Y-39454713D01*
X104659456Y-39454712D01*
X105004849Y-39109316D01*
X105004854Y-39109313D01*
X105015054Y-39099112D01*
X105015056Y-39099112D01*
X107506290Y-36607877D01*
X107587811Y-36504777D01*
X107661956Y-36345773D01*
X107661957Y-36345769D01*
X107697433Y-36173958D01*
X107692331Y-35998588D01*
X107646923Y-35829124D01*
X107563660Y-35674702D01*
X107563659Y-35674700D01*
X107447026Y-35543641D01*
X107411559Y-35518807D01*
X107303316Y-35443015D01*
X107303314Y-35443014D01*
X107303312Y-35443013D01*
X107140266Y-35378238D01*
X107140262Y-35378237D01*
X106966671Y-35352810D01*
X106791903Y-35368101D01*
X106625367Y-35423285D01*
X106625356Y-35423290D01*
X106476047Y-35515386D01*
X106476043Y-35515389D01*
X104060303Y-37931128D01*
X103273614Y-38717816D01*
X103192087Y-38820925D01*
X103117942Y-38979928D01*
X103082466Y-39151741D01*
X103082466Y-39151743D01*
X103082466Y-39151744D01*
X92758480Y-39151744D01*
X92717006Y-39132404D01*
X92715386Y-39131619D01*
X92670969Y-39109313D01*
X92647567Y-39097560D01*
X92647565Y-39097559D01*
X92647564Y-39097559D01*
X92640779Y-39095089D01*
X92640799Y-39095033D01*
X92633683Y-39092559D01*
X92633665Y-39092615D01*
X92626808Y-39090343D01*
X92552462Y-39074991D01*
X92550703Y-39074601D01*
X92476852Y-39057099D01*
X92469681Y-39056261D01*
X92469687Y-39056201D01*
X92462189Y-39055435D01*
X92462184Y-39055495D01*
X92454994Y-39054865D01*
X92379102Y-39057074D01*
X92377299Y-39057100D01*
X84975430Y-39057100D01*
X84908391Y-39037415D01*
X84887749Y-39020781D01*
X81363472Y-35496503D01*
X84571509Y-35496503D01*
X84589812Y-35658955D01*
X84589813Y-35658960D01*
X84589814Y-35658961D01*
X84593407Y-35669229D01*
X84643810Y-35813274D01*
X84653770Y-35829125D01*
X84730792Y-35951704D01*
X84846396Y-36067308D01*
X84984825Y-36154289D01*
X85139139Y-36208286D01*
X85139142Y-36208286D01*
X85139144Y-36208287D01*
X85301596Y-36226591D01*
X85301600Y-36226591D01*
X85301604Y-36226591D01*
X85464055Y-36208287D01*
X85464056Y-36208286D01*
X85464061Y-36208286D01*
X85618375Y-36154289D01*
X85756804Y-36067308D01*
X85872408Y-35951704D01*
X85959389Y-35813275D01*
X86013386Y-35658961D01*
X86013511Y-35657856D01*
X86031691Y-35496503D01*
X86031691Y-35496496D01*
X86027399Y-35458403D01*
X86290309Y-35458403D01*
X86308612Y-35620855D01*
X86308613Y-35620860D01*
X86308614Y-35620861D01*
X86313712Y-35635430D01*
X86362610Y-35775174D01*
X86396510Y-35829125D01*
X86449592Y-35913604D01*
X86565196Y-36029208D01*
X86703625Y-36116189D01*
X86857939Y-36170186D01*
X86857942Y-36170186D01*
X86857944Y-36170187D01*
X87020396Y-36188491D01*
X87020400Y-36188491D01*
X87020404Y-36188491D01*
X87182857Y-36170187D01*
X87182859Y-36170186D01*
X87182861Y-36170186D01*
X87337175Y-36116189D01*
X87360829Y-36101325D01*
X87428061Y-36082325D01*
X87492770Y-36101325D01*
X87516425Y-36116189D01*
X87516427Y-36116190D01*
X87670742Y-36170187D01*
X87833196Y-36188491D01*
X87833200Y-36188491D01*
X87833204Y-36188491D01*
X87995655Y-36170187D01*
X87995656Y-36170186D01*
X87995661Y-36170186D01*
X88149975Y-36116189D01*
X88288404Y-36029208D01*
X88404008Y-35913604D01*
X88490989Y-35775175D01*
X88544986Y-35620861D01*
X88548232Y-35592052D01*
X88551843Y-35560003D01*
X89643109Y-35560003D01*
X89661412Y-35722455D01*
X89715410Y-35876774D01*
X89732261Y-35903592D01*
X89802392Y-36015204D01*
X89917996Y-36130808D01*
X90056425Y-36217789D01*
X90210739Y-36271786D01*
X90210741Y-36271786D01*
X90217311Y-36274085D01*
X90216689Y-36275861D01*
X90268408Y-36304443D01*
X91695869Y-37731904D01*
X91701220Y-37738005D01*
X91722918Y-37766282D01*
X91785224Y-37814091D01*
X91848357Y-37862535D01*
X91848358Y-37862535D01*
X91848359Y-37862536D01*
X91994438Y-37923044D01*
X92072819Y-37933363D01*
X92151199Y-37943682D01*
X92151200Y-37943682D01*
X92186529Y-37939030D01*
X92194628Y-37938500D01*
X92621926Y-37938500D01*
X92687897Y-37957505D01*
X92748825Y-37995789D01*
X92903139Y-38049786D01*
X92903142Y-38049786D01*
X92903144Y-38049787D01*
X93065596Y-38068091D01*
X93065600Y-38068091D01*
X93065604Y-38068091D01*
X93228055Y-38049787D01*
X93228056Y-38049786D01*
X93228061Y-38049786D01*
X93382375Y-37995789D01*
X93520804Y-37908808D01*
X93636408Y-37793204D01*
X93723389Y-37654775D01*
X93777386Y-37500461D01*
X93777402Y-37500319D01*
X93795691Y-37338003D01*
X93795691Y-37337996D01*
X93777387Y-37175544D01*
X93777386Y-37175542D01*
X93777386Y-37175539D01*
X93723389Y-37021225D01*
X93636408Y-36882796D01*
X93520804Y-36767192D01*
X93473550Y-36737500D01*
X93382374Y-36680210D01*
X93228055Y-36626212D01*
X93065604Y-36607909D01*
X93065596Y-36607909D01*
X92903144Y-36626212D01*
X92748825Y-36680210D01*
X92687898Y-36718494D01*
X92621926Y-36737500D01*
X92451297Y-36737500D01*
X92384258Y-36717815D01*
X92363616Y-36701181D01*
X91117643Y-35455208D01*
X91089061Y-35403489D01*
X91087285Y-35404111D01*
X91084986Y-35397541D01*
X91084986Y-35397539D01*
X91030989Y-35243225D01*
X90944008Y-35104796D01*
X90828404Y-34989192D01*
X90799885Y-34971272D01*
X90689974Y-34902210D01*
X90535655Y-34848212D01*
X90373204Y-34829909D01*
X90373196Y-34829909D01*
X90210744Y-34848212D01*
X90056425Y-34902210D01*
X89917995Y-34989192D01*
X89802392Y-35104795D01*
X89715410Y-35243225D01*
X89661412Y-35397544D01*
X89643109Y-35559996D01*
X89643109Y-35560003D01*
X88551843Y-35560003D01*
X88563291Y-35458403D01*
X88563291Y-35458396D01*
X88544987Y-35295944D01*
X88544986Y-35295942D01*
X88544986Y-35295939D01*
X88490989Y-35141625D01*
X88404008Y-35003196D01*
X88288404Y-34887592D01*
X88239600Y-34856926D01*
X88149974Y-34800610D01*
X87995655Y-34746612D01*
X87833204Y-34728309D01*
X87833196Y-34728309D01*
X87670744Y-34746612D01*
X87516423Y-34800611D01*
X87492770Y-34815473D01*
X87425533Y-34834472D01*
X87360830Y-34815473D01*
X87337176Y-34800611D01*
X87182855Y-34746612D01*
X87020404Y-34728309D01*
X87020396Y-34728309D01*
X86857944Y-34746612D01*
X86703625Y-34800610D01*
X86565195Y-34887592D01*
X86449592Y-35003195D01*
X86362610Y-35141625D01*
X86308612Y-35295944D01*
X86290309Y-35458396D01*
X86290309Y-35458403D01*
X86027399Y-35458403D01*
X86013387Y-35334044D01*
X86013386Y-35334042D01*
X86013386Y-35334039D01*
X85959389Y-35179725D01*
X85872408Y-35041296D01*
X85756804Y-34925692D01*
X85710081Y-34896334D01*
X85618374Y-34838710D01*
X85464055Y-34784712D01*
X85301604Y-34766409D01*
X85301596Y-34766409D01*
X85139144Y-34784712D01*
X84984825Y-34838710D01*
X84846395Y-34925692D01*
X84730792Y-35041295D01*
X84643810Y-35179725D01*
X84589812Y-35334044D01*
X84571509Y-35496496D01*
X84571509Y-35496503D01*
X81363472Y-35496503D01*
X81170183Y-35303214D01*
X81170177Y-35303209D01*
X81067077Y-35221689D01*
X81067075Y-35221688D01*
X81067074Y-35221687D01*
X80908071Y-35147542D01*
X80736258Y-35112066D01*
X80736256Y-35112066D01*
X80560888Y-35117169D01*
X80560884Y-35117169D01*
X80560883Y-35117170D01*
X80391424Y-35162576D01*
X80236999Y-35245841D01*
X80105941Y-35362473D01*
X80105939Y-35362476D01*
X80005313Y-35506186D01*
X80005308Y-35506195D01*
X79940538Y-35669229D01*
X79915110Y-35842827D01*
X79258692Y-35842827D01*
X79248587Y-35753144D01*
X79248586Y-35753142D01*
X79248586Y-35753139D01*
X79194589Y-35598825D01*
X79107608Y-35460396D01*
X78992004Y-35344792D01*
X78925833Y-35303214D01*
X78853574Y-35257810D01*
X78699255Y-35203812D01*
X78536804Y-35185509D01*
X78536796Y-35185509D01*
X78374344Y-35203812D01*
X78220025Y-35257810D01*
X78081595Y-35344792D01*
X77965992Y-35460395D01*
X77879010Y-35598825D01*
X77825012Y-35753144D01*
X77806709Y-35915596D01*
X77806709Y-35915603D01*
X72649541Y-35915603D01*
X72840313Y-35724831D01*
X72852879Y-35714765D01*
X72852725Y-35714578D01*
X72858733Y-35709605D01*
X72858740Y-35709602D01*
X72907332Y-35657856D01*
X72908656Y-35656488D01*
X72929711Y-35635435D01*
X72934201Y-35629645D01*
X72937983Y-35625215D01*
X72971248Y-35589793D01*
X72981474Y-35571190D01*
X72992153Y-35554933D01*
X73005162Y-35538164D01*
X73024456Y-35493575D01*
X73027012Y-35488356D01*
X73050427Y-35445768D01*
X73055705Y-35425206D01*
X73062007Y-35406799D01*
X73070435Y-35387327D01*
X73078033Y-35339353D01*
X73079214Y-35333647D01*
X73091300Y-35286577D01*
X73091300Y-35265349D01*
X73092827Y-35245949D01*
X73092844Y-35245841D01*
X73096146Y-35224995D01*
X73091575Y-35176638D01*
X73091300Y-35170800D01*
X73091300Y-27644500D01*
X73110985Y-27577461D01*
X73163789Y-27531706D01*
X73215300Y-27520500D01*
X77662300Y-27520500D01*
X77729339Y-27540185D01*
X77775094Y-27592989D01*
X77786300Y-27644500D01*
X77786300Y-31234909D01*
X77796408Y-31321386D01*
X77801559Y-31365456D01*
X77801560Y-31365459D01*
X77861562Y-31530315D01*
X77861564Y-31530319D01*
X77957967Y-31676893D01*
X77957968Y-31676894D01*
X78085578Y-31797289D01*
X78085580Y-31797290D01*
X78085582Y-31797292D01*
X78237519Y-31885012D01*
X78405590Y-31935330D01*
X78580735Y-31945531D01*
X78753511Y-31915065D01*
X78914604Y-31845577D01*
X79055330Y-31740810D01*
X79168102Y-31606414D01*
X79246840Y-31449633D01*
X79287300Y-31278921D01*
X79287300Y-31191203D01*
X79940309Y-31191203D01*
X79958612Y-31353655D01*
X80012610Y-31507974D01*
X80078451Y-31612758D01*
X80099592Y-31646404D01*
X80215196Y-31762008D01*
X80353625Y-31848989D01*
X80507939Y-31902986D01*
X80507942Y-31902986D01*
X80507944Y-31902987D01*
X80670396Y-31921291D01*
X80670400Y-31921291D01*
X80670404Y-31921291D01*
X80832855Y-31902987D01*
X80832856Y-31902986D01*
X80832861Y-31902986D01*
X80987175Y-31848989D01*
X81125604Y-31762008D01*
X81241208Y-31646404D01*
X81328189Y-31507975D01*
X81382186Y-31353661D01*
X81382924Y-31347111D01*
X81400491Y-31191203D01*
X81400491Y-31191196D01*
X81382187Y-31028744D01*
X81382186Y-31028742D01*
X81382186Y-31028739D01*
X81328189Y-30874425D01*
X81241208Y-30735996D01*
X81125604Y-30620392D01*
X81044809Y-30569625D01*
X80987174Y-30533410D01*
X80979724Y-30530803D01*
X85629909Y-30530803D01*
X85648212Y-30693255D01*
X85702210Y-30847574D01*
X85751270Y-30925652D01*
X85789192Y-30986004D01*
X85904796Y-31101608D01*
X86043225Y-31188589D01*
X86197539Y-31242586D01*
X86197542Y-31242586D01*
X86197544Y-31242587D01*
X86359996Y-31260891D01*
X86360000Y-31260891D01*
X86360004Y-31260891D01*
X86522455Y-31242587D01*
X86522456Y-31242586D01*
X86522461Y-31242586D01*
X86676775Y-31188589D01*
X86815204Y-31101608D01*
X86930808Y-30986004D01*
X87017789Y-30847575D01*
X87071786Y-30693261D01*
X87071787Y-30693255D01*
X87090091Y-30530803D01*
X87090091Y-30530796D01*
X87071787Y-30368344D01*
X87071786Y-30368342D01*
X87071786Y-30368339D01*
X87017789Y-30214025D01*
X86930808Y-30075596D01*
X86815204Y-29959992D01*
X86770031Y-29931608D01*
X86676774Y-29873010D01*
X86524144Y-29819603D01*
X86522461Y-29819014D01*
X86522460Y-29819013D01*
X86522455Y-29819012D01*
X86360004Y-29800709D01*
X86359996Y-29800709D01*
X86197544Y-29819012D01*
X86043225Y-29873010D01*
X85904795Y-29959992D01*
X85789192Y-30075595D01*
X85702210Y-30214025D01*
X85648212Y-30368344D01*
X85629909Y-30530796D01*
X85629909Y-30530803D01*
X80979724Y-30530803D01*
X80832855Y-30479412D01*
X80670404Y-30461109D01*
X80670396Y-30461109D01*
X80507944Y-30479412D01*
X80353625Y-30533410D01*
X80215195Y-30620392D01*
X80099592Y-30735995D01*
X80012610Y-30874425D01*
X79958612Y-31028744D01*
X79940309Y-31191196D01*
X79940309Y-31191203D01*
X79287300Y-31191203D01*
X79287300Y-27644500D01*
X79306985Y-27577461D01*
X79359789Y-27531706D01*
X79411300Y-27520500D01*
X85628408Y-27520500D01*
X85695447Y-27540185D01*
X85741202Y-27592989D01*
X85751146Y-27662147D01*
X85722121Y-27725703D01*
X85707073Y-27740353D01*
X85649116Y-27787916D01*
X85524090Y-27940260D01*
X85524086Y-27940267D01*
X85431188Y-28114066D01*
X85373975Y-28302670D01*
X85354659Y-28498800D01*
X85373975Y-28694929D01*
X85373976Y-28694932D01*
X85419298Y-28844339D01*
X85431188Y-28883533D01*
X85524086Y-29057332D01*
X85524090Y-29057339D01*
X85649116Y-29209683D01*
X85801460Y-29334709D01*
X85801467Y-29334713D01*
X85975266Y-29427611D01*
X85975269Y-29427611D01*
X85975273Y-29427614D01*
X86163868Y-29484824D01*
X86360000Y-29504141D01*
X86556132Y-29484824D01*
X86744727Y-29427614D01*
X86918538Y-29334710D01*
X86918544Y-29334704D01*
X86923607Y-29331323D01*
X86924624Y-29332845D01*
X86981021Y-29308884D01*
X87049890Y-29320666D01*
X87066424Y-29331289D01*
X87066678Y-29330910D01*
X87071738Y-29334291D01*
X87245465Y-29427149D01*
X87380000Y-29467959D01*
X87380000Y-28747738D01*
X87461115Y-28810872D01*
X87571595Y-28848800D01*
X87659005Y-28848800D01*
X87745216Y-28834414D01*
X87847947Y-28778819D01*
X87880000Y-28744000D01*
X87880000Y-29467959D01*
X88014534Y-29427149D01*
X88188259Y-29334292D01*
X88193320Y-29330911D01*
X88194444Y-29332593D01*
X88250203Y-29308886D01*
X88319075Y-29320651D01*
X88336186Y-29331643D01*
X88336399Y-29331326D01*
X88341457Y-29334706D01*
X88341462Y-29334710D01*
X88469427Y-29403109D01*
X88513147Y-29426478D01*
X88515273Y-29427614D01*
X88703868Y-29484824D01*
X88900000Y-29504141D01*
X89096132Y-29484824D01*
X89284727Y-29427614D01*
X89458538Y-29334710D01*
X89458544Y-29334704D01*
X89463607Y-29331323D01*
X89464703Y-29332964D01*
X89520639Y-29309205D01*
X89589507Y-29320994D01*
X89606148Y-29331688D01*
X89606393Y-29331323D01*
X89611458Y-29334707D01*
X89611462Y-29334710D01*
X89743504Y-29405288D01*
X89783147Y-29426478D01*
X89785273Y-29427614D01*
X89973868Y-29484824D01*
X90170000Y-29504141D01*
X90366132Y-29484824D01*
X90554727Y-29427614D01*
X90556853Y-29426477D01*
X90558095Y-29426218D01*
X90560355Y-29425283D01*
X90560532Y-29425711D01*
X90625254Y-29412235D01*
X90689615Y-29436567D01*
X90697669Y-29442596D01*
X90758826Y-29465406D01*
X90832517Y-29492891D01*
X90832516Y-29492891D01*
X90839444Y-29493635D01*
X90892127Y-29499300D01*
X91987872Y-29499299D01*
X92047483Y-29492891D01*
X92182331Y-29442596D01*
X92297546Y-29356346D01*
X92383796Y-29241131D01*
X92434091Y-29106283D01*
X92440500Y-29046673D01*
X92440499Y-27950928D01*
X92434091Y-27891317D01*
X92425840Y-27869196D01*
X92383797Y-27756471D01*
X92383793Y-27756464D01*
X92355606Y-27718811D01*
X92331188Y-27653347D01*
X92346039Y-27585074D01*
X92395444Y-27535668D01*
X92454872Y-27520500D01*
X93017549Y-27520500D01*
X93084588Y-27540185D01*
X93105230Y-27556819D01*
X94566380Y-29017969D01*
X94599865Y-29079292D01*
X94602699Y-29105650D01*
X94602699Y-32271711D01*
X94602494Y-32276744D01*
X94597998Y-32331962D01*
X94608815Y-32411363D01*
X94609019Y-32413028D01*
X94617686Y-32492712D01*
X94617910Y-32493730D01*
X94622725Y-32514273D01*
X94622974Y-32515271D01*
X94650602Y-32590478D01*
X94651159Y-32592059D01*
X94676757Y-32668025D01*
X94677201Y-32668985D01*
X94686346Y-32688066D01*
X94686764Y-32688909D01*
X94729919Y-32756426D01*
X94730803Y-32757852D01*
X94772127Y-32826533D01*
X94772738Y-32827336D01*
X94785778Y-32844016D01*
X94786397Y-32844786D01*
X94843060Y-32901449D01*
X94844231Y-32902652D01*
X94899351Y-32960841D01*
X94899355Y-32960843D01*
X94900183Y-32961547D01*
X94917319Y-32975708D01*
X97817580Y-35875969D01*
X97851065Y-35937292D01*
X97853899Y-35963650D01*
X97853899Y-36520506D01*
X97853900Y-36520516D01*
X97868886Y-36658311D01*
X97927957Y-36833623D01*
X97927958Y-36833625D01*
X97957543Y-36882796D01*
X98016271Y-36980404D01*
X98023331Y-36992137D01*
X98023332Y-36992138D01*
X98150549Y-37126440D01*
X98165627Y-37136663D01*
X98303670Y-37230258D01*
X98303673Y-37230259D01*
X98303676Y-37230261D01*
X98475522Y-37298730D01*
X98475525Y-37298731D01*
X98658083Y-37328660D01*
X98842807Y-37318645D01*
X98842811Y-37318644D01*
X99021056Y-37269155D01*
X99021056Y-37269154D01*
X99021059Y-37269154D01*
X99184504Y-37182500D01*
X99325500Y-37062737D01*
X99437454Y-36915464D01*
X99507463Y-36764144D01*
X101050466Y-36764144D01*
X101055569Y-36939512D01*
X101055569Y-36939515D01*
X101055570Y-36939516D01*
X101100976Y-37108975D01*
X101161636Y-37221476D01*
X101184241Y-37263400D01*
X101300874Y-37394459D01*
X101444588Y-37495088D01*
X101444593Y-37495090D01*
X101444595Y-37495091D01*
X101607629Y-37559861D01*
X101607631Y-37559861D01*
X101607633Y-37559862D01*
X101781223Y-37585289D01*
X101955997Y-37569999D01*
X102122534Y-37514814D01*
X102127377Y-37511826D01*
X102194766Y-37493381D01*
X102233432Y-37500318D01*
X102309475Y-37526927D01*
X102351942Y-37541787D01*
X102514396Y-37560091D01*
X102514400Y-37560091D01*
X102514404Y-37560091D01*
X102676855Y-37541787D01*
X102676856Y-37541786D01*
X102676861Y-37541786D01*
X102831175Y-37487789D01*
X102969604Y-37400808D01*
X103085208Y-37285204D01*
X103172189Y-37146775D01*
X103226186Y-36992461D01*
X103226187Y-36992455D01*
X103244491Y-36830003D01*
X103244491Y-36829996D01*
X103226187Y-36667542D01*
X103200295Y-36593547D01*
X103196733Y-36523768D01*
X103229653Y-36464913D01*
X103304842Y-36389724D01*
X103318471Y-36377947D01*
X103319766Y-36376983D01*
X103337730Y-36363610D01*
X103363032Y-36333456D01*
X103371301Y-36323601D01*
X103374961Y-36319606D01*
X103380788Y-36313780D01*
X103380788Y-36313779D01*
X103380791Y-36313777D01*
X103400580Y-36288747D01*
X103401709Y-36287362D01*
X103404079Y-36284536D01*
X103450502Y-36229214D01*
X103450505Y-36229207D01*
X103454474Y-36223175D01*
X103454525Y-36223208D01*
X103458572Y-36216856D01*
X103458520Y-36216824D01*
X103462311Y-36210677D01*
X103474687Y-36184136D01*
X103494426Y-36141804D01*
X103495152Y-36140305D01*
X103529240Y-36072433D01*
X103529243Y-36072417D01*
X103531709Y-36065646D01*
X103531767Y-36065667D01*
X103534243Y-36058546D01*
X103534186Y-36058528D01*
X103536456Y-36051677D01*
X103541095Y-36029208D01*
X103551826Y-35977234D01*
X103552176Y-35975655D01*
X103569700Y-35901721D01*
X103569700Y-35901712D01*
X103570538Y-35894548D01*
X103570598Y-35894555D01*
X103571364Y-35887055D01*
X103571305Y-35887050D01*
X103571934Y-35879860D01*
X103569726Y-35803968D01*
X103569700Y-35802165D01*
X103569700Y-32214298D01*
X103569700Y-32214297D01*
X103569700Y-32214291D01*
X103554441Y-32083745D01*
X103494437Y-31918883D01*
X103459232Y-31865356D01*
X103398032Y-31772306D01*
X103398031Y-31772305D01*
X103270421Y-31651910D01*
X103260884Y-31646404D01*
X103118481Y-31564188D01*
X103118482Y-31564188D01*
X102950410Y-31513870D01*
X102950405Y-31513869D01*
X102775266Y-31503669D01*
X102775265Y-31503669D01*
X102717420Y-31513869D01*
X102602493Y-31534134D01*
X102602491Y-31534134D01*
X102602489Y-31534135D01*
X102602485Y-31534136D01*
X102602487Y-31534136D01*
X102441398Y-31603622D01*
X102441390Y-31603626D01*
X102300669Y-31708390D01*
X102187898Y-31842785D01*
X102187897Y-31842787D01*
X102109161Y-31999562D01*
X102105272Y-32015972D01*
X102072336Y-32154941D01*
X102068700Y-32170281D01*
X102068700Y-35451768D01*
X102049015Y-35518807D01*
X102032381Y-35539449D01*
X101241614Y-36330216D01*
X101160087Y-36433325D01*
X101085942Y-36592328D01*
X101050466Y-36764141D01*
X101050466Y-36764143D01*
X101050466Y-36764144D01*
X99507463Y-36764144D01*
X99515132Y-36747567D01*
X99554900Y-36566897D01*
X99554900Y-35597086D01*
X99555105Y-35592052D01*
X99557714Y-35560003D01*
X99559601Y-35536833D01*
X99548780Y-35457418D01*
X99548577Y-35455754D01*
X99547192Y-35443014D01*
X99539914Y-35376090D01*
X99539913Y-35376086D01*
X99539680Y-35375026D01*
X99534897Y-35354621D01*
X99534627Y-35353531D01*
X99506988Y-35278298D01*
X99506430Y-35276715D01*
X99502600Y-35265349D01*
X99480844Y-35200779D01*
X99480841Y-35200775D01*
X99480841Y-35200773D01*
X99480406Y-35199831D01*
X99471295Y-35180818D01*
X99470831Y-35179882D01*
X99430745Y-35117170D01*
X99427660Y-35112343D01*
X99426810Y-35110973D01*
X99385470Y-35042264D01*
X99385468Y-35042262D01*
X99385467Y-35042260D01*
X99384855Y-35041455D01*
X99371903Y-35024889D01*
X99371202Y-35024017D01*
X99371199Y-35024011D01*
X99314519Y-34967331D01*
X99313384Y-34966164D01*
X99258248Y-34907957D01*
X99257508Y-34907328D01*
X99240275Y-34893087D01*
X97811421Y-33464233D01*
X97777936Y-33402910D01*
X97782920Y-33333218D01*
X97824792Y-33277285D01*
X97890256Y-33252868D01*
X97940052Y-33259509D01*
X97983139Y-33274586D01*
X97983145Y-33274586D01*
X97983146Y-33274587D01*
X98145596Y-33292891D01*
X98145600Y-33292891D01*
X98145604Y-33292891D01*
X98308057Y-33274587D01*
X98308059Y-33274586D01*
X98308061Y-33274586D01*
X98462375Y-33220589D01*
X98509688Y-33190859D01*
X98576920Y-33171859D01*
X98616609Y-33178811D01*
X98720679Y-33215227D01*
X98745142Y-33223787D01*
X98907596Y-33242091D01*
X98907600Y-33242091D01*
X98907604Y-33242091D01*
X99070055Y-33223787D01*
X99070056Y-33223786D01*
X99070061Y-33223786D01*
X99224375Y-33169789D01*
X99362804Y-33082808D01*
X99478408Y-32967204D01*
X99565389Y-32828775D01*
X99619386Y-32674461D01*
X99622711Y-32644950D01*
X99637691Y-32512003D01*
X99637691Y-32511996D01*
X99619387Y-32349542D01*
X99565390Y-32195227D01*
X99565389Y-32195225D01*
X99550525Y-32171570D01*
X99531525Y-32104339D01*
X99550525Y-32039629D01*
X99565389Y-32015975D01*
X99619386Y-31861661D01*
X99619386Y-31861659D01*
X99619387Y-31861657D01*
X99637691Y-31699203D01*
X99637691Y-31699196D01*
X99619387Y-31536744D01*
X99619386Y-31536742D01*
X99619386Y-31536739D01*
X99565389Y-31382425D01*
X99565388Y-31382423D01*
X99565387Y-31382419D01*
X99562369Y-31376152D01*
X99564000Y-31375366D01*
X99547486Y-31316942D01*
X99563917Y-31260999D01*
X99562366Y-31260252D01*
X99565382Y-31253984D01*
X99565389Y-31253975D01*
X99619386Y-31099661D01*
X99619386Y-31099659D01*
X99619387Y-31099657D01*
X99637691Y-30937203D01*
X99637691Y-30937196D01*
X99619387Y-30774744D01*
X99619386Y-30774742D01*
X99619386Y-30774739D01*
X99583262Y-30671504D01*
X117637232Y-30671504D01*
X117644352Y-30766514D01*
X117644480Y-30768772D01*
X117648248Y-30867092D01*
X117648249Y-30867097D01*
X117653490Y-30894123D01*
X117654451Y-30901295D01*
X117656278Y-30925655D01*
X117656279Y-30925664D01*
X117678195Y-31021686D01*
X117678615Y-31023676D01*
X117697961Y-31123425D01*
X117706177Y-31146303D01*
X117708273Y-31153465D01*
X117708974Y-31156536D01*
X117712991Y-31174136D01*
X117750142Y-31268793D01*
X117750778Y-31270487D01*
X117786220Y-31369167D01*
X117796295Y-31387696D01*
X117799543Y-31394666D01*
X117806104Y-31411382D01*
X117806105Y-31411384D01*
X117806107Y-31411388D01*
X117828190Y-31449637D01*
X117858573Y-31502263D01*
X117859346Y-31503643D01*
X117910958Y-31598556D01*
X117921783Y-31612758D01*
X117926167Y-31619343D01*
X117932866Y-31630944D01*
X117933541Y-31632112D01*
X117958825Y-31663817D01*
X118000974Y-31716671D01*
X118001809Y-31717742D01*
X118067964Y-31804530D01*
X118069250Y-31806216D01*
X118079793Y-31816362D01*
X118085274Y-31822379D01*
X118092450Y-31831377D01*
X118092455Y-31831381D01*
X118092458Y-31831385D01*
X118174468Y-31907479D01*
X118255269Y-31985241D01*
X118257386Y-31987278D01*
X118266713Y-31993838D01*
X118273214Y-31999101D01*
X118279281Y-32004731D01*
X118279284Y-32004733D01*
X118374310Y-32069520D01*
X118470953Y-32137497D01*
X118470956Y-32137499D01*
X118478278Y-32141124D01*
X118485695Y-32145461D01*
X118489866Y-32148305D01*
X118596283Y-32199553D01*
X118704953Y-32253359D01*
X118705446Y-32253515D01*
X118715108Y-32257348D01*
X118715170Y-32257191D01*
X118719491Y-32258886D01*
X118719496Y-32258889D01*
X118835330Y-32294619D01*
X118953895Y-32332141D01*
X118954605Y-32332250D01*
X118954646Y-32332257D01*
X118958981Y-32333086D01*
X118963035Y-32334010D01*
X118963042Y-32334013D01*
X119086001Y-32352546D01*
X119211945Y-32372000D01*
X119211948Y-32372000D01*
X119469930Y-32372000D01*
X119469935Y-32372000D01*
X119532357Y-32362590D01*
X119536802Y-32362085D01*
X119602844Y-32357016D01*
X119661053Y-32343393D01*
X119665933Y-32342456D01*
X119721958Y-32334013D01*
X119777271Y-32316950D01*
X119785336Y-32314463D01*
X119789454Y-32313346D01*
X119857086Y-32297521D01*
X119909566Y-32276369D01*
X119914416Y-32274647D01*
X119965504Y-32258889D01*
X120028154Y-32228717D01*
X120031849Y-32227084D01*
X120099266Y-32199914D01*
X120145117Y-32172653D01*
X120149878Y-32170097D01*
X120195134Y-32148305D01*
X120195139Y-32148301D01*
X120195142Y-32148300D01*
X120255236Y-32107327D01*
X120258481Y-32105259D01*
X120294669Y-32083745D01*
X120323708Y-32066482D01*
X120362372Y-32034595D01*
X120366881Y-32031209D01*
X120405717Y-32004732D01*
X120461427Y-31953040D01*
X120464120Y-31950683D01*
X120525152Y-31900352D01*
X120556348Y-31865344D01*
X120560458Y-31861153D01*
X120577245Y-31845577D01*
X120592550Y-31831377D01*
X120641965Y-31769410D01*
X120644093Y-31766888D01*
X120698875Y-31705420D01*
X120722624Y-31668745D01*
X120726154Y-31663842D01*
X120751459Y-31632112D01*
X120792678Y-31560715D01*
X120794294Y-31558073D01*
X120840806Y-31486253D01*
X120857357Y-31449329D01*
X120860226Y-31443717D01*
X120878893Y-31411388D01*
X120910179Y-31331668D01*
X120911304Y-31328990D01*
X120947618Y-31247989D01*
X120957480Y-31212099D01*
X120959547Y-31205884D01*
X120972008Y-31174137D01*
X120991786Y-31087481D01*
X120992434Y-31084903D01*
X121016807Y-30996213D01*
X121020705Y-30962441D01*
X121021850Y-30955762D01*
X121028722Y-30925657D01*
X121035603Y-30833819D01*
X121035830Y-30831419D01*
X121046752Y-30736825D01*
X121045573Y-30706075D01*
X121045700Y-30699083D01*
X121047768Y-30671500D01*
X121040642Y-30576428D01*
X121040520Y-30574268D01*
X121036751Y-30475907D01*
X121031508Y-30448872D01*
X121030546Y-30441692D01*
X121028722Y-30417343D01*
X121006801Y-30321302D01*
X121006380Y-30319309D01*
X120996892Y-30270387D01*
X120987038Y-30219573D01*
X120978820Y-30196693D01*
X120976726Y-30189537D01*
X120972008Y-30168863D01*
X120934823Y-30074120D01*
X120934231Y-30072544D01*
X120898779Y-29973832D01*
X120888705Y-29955307D01*
X120885459Y-29948343D01*
X120878893Y-29931612D01*
X120874691Y-29924333D01*
X120826441Y-29840761D01*
X120825667Y-29839380D01*
X120774041Y-29744443D01*
X120768172Y-29736744D01*
X120763212Y-29730236D01*
X120758832Y-29723658D01*
X120751459Y-29710888D01*
X120684024Y-29626327D01*
X120683189Y-29625256D01*
X120644781Y-29574869D01*
X120615750Y-29536784D01*
X120605211Y-29526641D01*
X120599722Y-29520616D01*
X120592551Y-29511624D01*
X120592548Y-29511621D01*
X120510530Y-29435519D01*
X120427616Y-29355723D01*
X120418285Y-29349160D01*
X120411788Y-29343901D01*
X120405717Y-29338268D01*
X120405714Y-29338266D01*
X120405712Y-29338264D01*
X120310673Y-29273468D01*
X120219990Y-29209683D01*
X120214042Y-29205499D01*
X120206721Y-29201874D01*
X120199308Y-29197540D01*
X120195136Y-29194696D01*
X120144557Y-29170338D01*
X120088716Y-29143446D01*
X120066431Y-29132412D01*
X119980046Y-29089640D01*
X119980041Y-29089638D01*
X119979530Y-29089477D01*
X119969879Y-29085649D01*
X119969819Y-29085804D01*
X119965510Y-29084113D01*
X119849625Y-29048366D01*
X119835993Y-29044052D01*
X119731105Y-29010859D01*
X119731101Y-29010858D01*
X119731100Y-29010858D01*
X119731087Y-29010855D01*
X119730342Y-29010740D01*
X119726039Y-29009918D01*
X119721965Y-29008988D01*
X119599013Y-28990454D01*
X119473055Y-28971000D01*
X119469935Y-28971000D01*
X119215065Y-28971000D01*
X119215057Y-28971000D01*
X119152668Y-28980404D01*
X119148173Y-28980915D01*
X119082161Y-28985983D01*
X119082152Y-28985985D01*
X119023960Y-28999601D01*
X119019075Y-29000540D01*
X118963042Y-29008986D01*
X118899675Y-29028532D01*
X118895528Y-29029655D01*
X118844670Y-29041557D01*
X118827914Y-29045479D01*
X118827911Y-29045479D01*
X118827907Y-29045481D01*
X118775455Y-29066620D01*
X118770557Y-29068359D01*
X118763778Y-29070450D01*
X118719505Y-29084107D01*
X118719495Y-29084111D01*
X118656852Y-29114276D01*
X118653131Y-29115920D01*
X118585731Y-29143087D01*
X118539893Y-29170338D01*
X118535111Y-29172904D01*
X118489869Y-29194692D01*
X118429756Y-29235677D01*
X118426513Y-29237743D01*
X118361297Y-29276514D01*
X118361286Y-29276521D01*
X118322629Y-29308401D01*
X118318109Y-29311794D01*
X118279282Y-29338268D01*
X118279276Y-29338273D01*
X118223578Y-29389952D01*
X118220867Y-29392324D01*
X118196725Y-29412235D01*
X118159852Y-29442644D01*
X118159844Y-29442651D01*
X118128655Y-29477648D01*
X118124538Y-29481849D01*
X118092452Y-29511620D01*
X118092448Y-29511624D01*
X118043071Y-29573541D01*
X118040884Y-29576134D01*
X117986126Y-29637578D01*
X117986124Y-29637580D01*
X117962392Y-29674224D01*
X117958826Y-29679179D01*
X117933543Y-29710884D01*
X117892337Y-29782254D01*
X117890685Y-29784954D01*
X117844195Y-29856744D01*
X117827651Y-29893646D01*
X117824770Y-29899284D01*
X117806106Y-29931613D01*
X117774826Y-30011313D01*
X117773687Y-30014023D01*
X117737383Y-30095007D01*
X117727519Y-30130895D01*
X117725450Y-30137116D01*
X117712990Y-30168867D01*
X117693217Y-30255497D01*
X117692555Y-30258129D01*
X117668193Y-30346783D01*
X117668193Y-30346788D01*
X117664294Y-30380549D01*
X117663149Y-30387234D01*
X117656278Y-30417341D01*
X117656276Y-30417349D01*
X117649397Y-30509152D01*
X117649162Y-30511629D01*
X117638248Y-30606172D01*
X117638248Y-30606173D01*
X117639425Y-30636910D01*
X117639297Y-30643919D01*
X117637232Y-30671501D01*
X117637232Y-30671504D01*
X99583262Y-30671504D01*
X99565389Y-30620425D01*
X99478408Y-30481996D01*
X99362804Y-30366392D01*
X99250587Y-30295881D01*
X99224374Y-30279410D01*
X99079197Y-30228611D01*
X99070061Y-30225414D01*
X99070060Y-30225413D01*
X99070055Y-30225412D01*
X98907604Y-30207109D01*
X98907596Y-30207109D01*
X98745144Y-30225412D01*
X98616613Y-30270387D01*
X98546834Y-30273948D01*
X98509687Y-30258339D01*
X98462374Y-30228610D01*
X98315440Y-30177196D01*
X98308061Y-30174614D01*
X98308060Y-30174613D01*
X98308055Y-30174612D01*
X98145604Y-30156309D01*
X98145596Y-30156309D01*
X97983144Y-30174612D01*
X97828825Y-30228610D01*
X97690395Y-30315592D01*
X97574792Y-30431195D01*
X97487810Y-30569625D01*
X97433812Y-30723944D01*
X97415509Y-30886396D01*
X97415509Y-30886403D01*
X97433812Y-31048855D01*
X97487811Y-31203176D01*
X97502673Y-31226830D01*
X97521672Y-31294067D01*
X97502673Y-31358770D01*
X97487811Y-31382423D01*
X97433812Y-31536744D01*
X97415509Y-31699196D01*
X97415509Y-31699203D01*
X97433812Y-31861657D01*
X97487810Y-32015974D01*
X97487813Y-32015979D01*
X97518632Y-32065026D01*
X97537633Y-32132262D01*
X97518633Y-32196970D01*
X97496854Y-32231634D01*
X97487810Y-32246027D01*
X97433812Y-32400344D01*
X97415509Y-32562796D01*
X97415509Y-32562803D01*
X97433812Y-32725256D01*
X97448889Y-32768344D01*
X97452450Y-32838123D01*
X97417720Y-32898750D01*
X97355727Y-32930976D01*
X97286151Y-32924570D01*
X97244166Y-32896978D01*
X96340018Y-31992830D01*
X96306533Y-31931507D01*
X96303699Y-31905149D01*
X96303699Y-30346783D01*
X96303699Y-28739061D01*
X96303903Y-28734068D01*
X96308401Y-28678833D01*
X96297580Y-28599418D01*
X96297377Y-28597754D01*
X96294423Y-28570591D01*
X96288714Y-28518090D01*
X96288713Y-28518086D01*
X96288480Y-28517026D01*
X96283697Y-28496621D01*
X96283427Y-28495531D01*
X96255788Y-28420298D01*
X96255230Y-28418715D01*
X96245786Y-28390687D01*
X96229644Y-28342779D01*
X96229641Y-28342775D01*
X96229641Y-28342773D01*
X96229206Y-28341831D01*
X96220855Y-28324403D01*
X105492709Y-28324403D01*
X105511012Y-28486855D01*
X105511013Y-28486860D01*
X105511014Y-28486861D01*
X105514048Y-28495531D01*
X105565010Y-28641174D01*
X105651499Y-28778819D01*
X105651992Y-28779604D01*
X105767596Y-28895208D01*
X105906025Y-28982189D01*
X106060339Y-29036186D01*
X106060342Y-29036186D01*
X106060344Y-29036187D01*
X106222796Y-29054491D01*
X106222800Y-29054491D01*
X106222804Y-29054491D01*
X106385255Y-29036187D01*
X106385256Y-29036186D01*
X106385261Y-29036186D01*
X106539575Y-28982189D01*
X106678004Y-28895208D01*
X106793608Y-28779604D01*
X106880589Y-28641175D01*
X106934586Y-28486861D01*
X106934587Y-28486855D01*
X106952891Y-28324403D01*
X112299909Y-28324403D01*
X112318212Y-28486855D01*
X112318213Y-28486860D01*
X112318214Y-28486861D01*
X112321248Y-28495531D01*
X112372210Y-28641174D01*
X112458699Y-28778819D01*
X112459192Y-28779604D01*
X112574796Y-28895208D01*
X112713225Y-28982189D01*
X112867539Y-29036186D01*
X112867542Y-29036186D01*
X112867544Y-29036187D01*
X113029996Y-29054491D01*
X113030000Y-29054491D01*
X113030004Y-29054491D01*
X113192455Y-29036187D01*
X113192456Y-29036186D01*
X113192461Y-29036186D01*
X113346775Y-28982189D01*
X113485204Y-28895208D01*
X113600808Y-28779604D01*
X113687789Y-28641175D01*
X113741786Y-28486861D01*
X113741787Y-28486855D01*
X113760091Y-28324403D01*
X113760091Y-28324396D01*
X113741787Y-28161944D01*
X113741786Y-28161942D01*
X113741786Y-28161939D01*
X113687789Y-28007625D01*
X113600808Y-27869196D01*
X113485204Y-27753592D01*
X113440819Y-27725703D01*
X113346774Y-27666610D01*
X113192455Y-27612612D01*
X113030004Y-27594309D01*
X113029996Y-27594309D01*
X112867544Y-27612612D01*
X112713225Y-27666610D01*
X112574795Y-27753592D01*
X112459192Y-27869195D01*
X112372210Y-28007625D01*
X112318212Y-28161944D01*
X112299909Y-28324396D01*
X112299909Y-28324403D01*
X106952891Y-28324403D01*
X106952891Y-28324396D01*
X106934587Y-28161944D01*
X106934586Y-28161942D01*
X106934586Y-28161939D01*
X106880589Y-28007625D01*
X106793608Y-27869196D01*
X106678004Y-27753592D01*
X106633619Y-27725703D01*
X106539574Y-27666610D01*
X106385255Y-27612612D01*
X106222804Y-27594309D01*
X106222796Y-27594309D01*
X106060344Y-27612612D01*
X105906025Y-27666610D01*
X105767595Y-27753592D01*
X105651992Y-27869195D01*
X105565010Y-28007625D01*
X105511012Y-28161944D01*
X105492709Y-28324396D01*
X105492709Y-28324403D01*
X96220855Y-28324403D01*
X96220095Y-28322818D01*
X96219633Y-28321887D01*
X96219632Y-28321884D01*
X96180080Y-28260006D01*
X96176469Y-28254356D01*
X96175602Y-28252960D01*
X96134270Y-28184264D01*
X96134269Y-28184263D01*
X96134268Y-28184261D01*
X96133657Y-28183458D01*
X96120693Y-28166874D01*
X96120003Y-28166016D01*
X96120000Y-28166011D01*
X96063301Y-28109312D01*
X96062166Y-28108145D01*
X96007049Y-28049958D01*
X96006288Y-28049312D01*
X95989081Y-28035092D01*
X94835670Y-26881681D01*
X94802185Y-26820358D01*
X94807169Y-26750666D01*
X94849041Y-26694733D01*
X94914505Y-26670316D01*
X94923351Y-26670000D01*
X128146000Y-26670000D01*
X128213039Y-26689685D01*
G37*
%TD.AperFunction*%
%TD*%
M02*
