%TF.GenerationSoftware,KiCad,Pcbnew,7.0.5-0*%
%TF.CreationDate,2024-03-24T16:19:33+01:00*%
%TF.ProjectId,MTR_C3_TempHum,4d54525f-4333-45f5-9465-6d7048756d2e,rev?*%
%TF.SameCoordinates,Original*%
%TF.FileFunction,Copper,L2,Inr*%
%TF.FilePolarity,Positive*%
%FSLAX46Y46*%
G04 Gerber Fmt 4.6, Leading zero omitted, Abs format (unit mm)*
G04 Created by KiCad (PCBNEW 7.0.5-0) date 2024-03-24 16:19:33*
%MOMM*%
%LPD*%
G01*
G04 APERTURE LIST*
%TA.AperFunction,ComponentPad*%
%ADD10O,1.000000X2.100000*%
%TD*%
%TA.AperFunction,ComponentPad*%
%ADD11O,1.000000X1.600000*%
%TD*%
%TA.AperFunction,ComponentPad*%
%ADD12R,1.416000X1.416000*%
%TD*%
%TA.AperFunction,ComponentPad*%
%ADD13C,1.416000*%
%TD*%
%TA.AperFunction,ComponentPad*%
%ADD14R,1.700000X1.700000*%
%TD*%
%TA.AperFunction,ComponentPad*%
%ADD15O,1.700000X1.700000*%
%TD*%
%TA.AperFunction,ComponentPad*%
%ADD16C,2.400000*%
%TD*%
%TA.AperFunction,ViaPad*%
%ADD17C,0.450000*%
%TD*%
%TA.AperFunction,Conductor*%
%ADD18C,0.500000*%
%TD*%
%TA.AperFunction,Conductor*%
%ADD19C,0.200000*%
%TD*%
G04 APERTURE END LIST*
D10*
%TO.N,GND*%
%TO.C,J1*%
X115060000Y-46460000D03*
D11*
X115060000Y-50640000D03*
D10*
X123700000Y-46460000D03*
D11*
X123700000Y-50640000D03*
%TD*%
D12*
%TO.N,+3.3V*%
%TO.C,IC4*%
X104150000Y-43568000D03*
D13*
%TO.N,DHT22_DATA*%
X104150000Y-41068000D03*
%TO.N,unconnected-(IC4-NULL-Pad3)*%
X104150000Y-38568000D03*
%TO.N,GND*%
X104150000Y-36068000D03*
%TD*%
D14*
%TO.N,GPIO9*%
%TO.C,J2*%
X68326000Y-46223000D03*
D15*
%TO.N,GND*%
X68326000Y-48763000D03*
%TD*%
D14*
%TO.N,GPIO7*%
%TO.C,J4*%
X110744000Y-34803000D03*
D15*
%TO.N,UART_RX*%
X110744000Y-37343000D03*
%TO.N,UART_TX*%
X110744000Y-39883000D03*
%TO.N,GND*%
X110744000Y-42423000D03*
%TO.N,+3.3V*%
X110744000Y-44963000D03*
%TD*%
D16*
%TO.N,*%
%TO.C,BT1*%
X117720000Y-31370000D03*
%TD*%
D17*
%TO.N,VBAT*%
X59436000Y-31242000D03*
X116840000Y-43180000D03*
X116840000Y-43815000D03*
X117475000Y-43180000D03*
X62210000Y-50693000D03*
X116205000Y-43180000D03*
%TO.N,VBUS*%
X71247000Y-48895000D03*
X119380000Y-43688000D03*
%TO.N,USB_D+*%
X52705000Y-32385000D03*
X54610000Y-32449500D03*
%TO.N,+3.3V*%
X81915000Y-28067000D03*
X101727000Y-43688000D03*
X74168000Y-30226000D03*
X74168000Y-29591000D03*
X74168000Y-31496000D03*
X81280000Y-28067000D03*
X54102000Y-48768000D03*
X80645000Y-28067000D03*
X59309000Y-36449000D03*
X55880000Y-49784000D03*
X58674000Y-42799000D03*
X74168000Y-30861000D03*
X82550000Y-28067000D03*
%TO.N,GND*%
X44831000Y-49784000D03*
X45339000Y-32131000D03*
X46228000Y-31242000D03*
X57531000Y-33528000D03*
X70231000Y-29784000D03*
X122174000Y-38608000D03*
X69469000Y-34163000D03*
X56261000Y-30988000D03*
X55245000Y-47371000D03*
X71882000Y-43561000D03*
X123190000Y-39370000D03*
X115062000Y-39751000D03*
X50292000Y-37465000D03*
X123190000Y-39370000D03*
X39751000Y-29210000D03*
X76835000Y-49403000D03*
X50292000Y-41402000D03*
X65024000Y-48768000D03*
X50292000Y-39497000D03*
X56261000Y-48768000D03*
X72771000Y-37211000D03*
%TO.N,ADC_lvl_BAT*%
X50546000Y-48006000D03*
X65278000Y-34290000D03*
%TO.N,EN*%
X48387000Y-29083000D03*
X50673000Y-49784000D03*
%TO.N,DHT22_DATA*%
X56896000Y-41021000D03*
X101727000Y-42164000D03*
%TO.N,SDA*%
X74041000Y-38862000D03*
X56388000Y-39751000D03*
%TO.N,SCL*%
X56388000Y-38735000D03*
X68707000Y-38862000D03*
%TO.N,GPIO7*%
X56515000Y-37084000D03*
%TO.N,GPIO9*%
X65913000Y-46228000D03*
X56515000Y-35433000D03*
%TO.N,UART_RX*%
X50292000Y-31496000D03*
%TO.N,UART_TX*%
X49403000Y-31496000D03*
%TO.N,Hard_reset*%
X55286000Y-29210000D03*
X58057721Y-32149721D03*
%TO.N,Net-(D4-A)*%
X65913000Y-44450000D03*
X114173000Y-36576000D03*
%TD*%
D18*
%TO.N,+3.3V*%
X74676000Y-30734000D02*
X78613000Y-30734000D01*
X78613000Y-30734000D02*
X81280000Y-28067000D01*
X74168000Y-30861000D02*
X74422000Y-31115000D01*
X79121000Y-31496000D02*
X82550000Y-28067000D01*
X74168000Y-29591000D02*
X74930000Y-30353000D01*
X74930000Y-30353000D02*
X78359000Y-30353000D01*
X74168000Y-30226000D02*
X74676000Y-30734000D01*
X78867000Y-31115000D02*
X81915000Y-28067000D01*
X74168000Y-31496000D02*
X79121000Y-31496000D01*
X78359000Y-30353000D02*
X80645000Y-28067000D01*
X74422000Y-31115000D02*
X78867000Y-31115000D01*
D19*
%TO.N,GND*%
X56261000Y-30988000D02*
X56261000Y-32258000D01*
X56261000Y-32258000D02*
X57531000Y-33528000D01*
%TO.N,SDA*%
X56388000Y-39751000D02*
X57004000Y-39135000D01*
X57004000Y-39135000D02*
X67564000Y-39135000D01*
X73516000Y-39387000D02*
X74041000Y-38862000D01*
X67816000Y-39387000D02*
X73516000Y-39387000D01*
X67564000Y-39135000D02*
X67816000Y-39387000D01*
%TO.N,SCL*%
X68580000Y-38735000D02*
X68707000Y-38862000D01*
X56388000Y-38735000D02*
X68580000Y-38735000D01*
%TO.N,GPIO7*%
X56515000Y-37084000D02*
X58539000Y-35060000D01*
X58539000Y-35060000D02*
X110487000Y-35060000D01*
X110487000Y-35060000D02*
X110744000Y-34803000D01*
%TO.N,Net-(D4-A)*%
X104138528Y-40005000D02*
X70358000Y-40005000D01*
X105410528Y-38733000D02*
X104138528Y-40005000D01*
X70358000Y-40005000D02*
X65913000Y-44450000D01*
X114173000Y-36576000D02*
X112016000Y-38733000D01*
X112016000Y-38733000D02*
X105410528Y-38733000D01*
%TD*%
M02*
