M48
; DRILL file {KiCad 7.0.9} date Mon Feb 12 22:59:23 2024
; FORMAT={-:-/ absolute / inch / decimal}
; #@! TF.CreationDate,2024-02-12T22:59:23+01:00
; #@! TF.GenerationSoftware,Kicad,Pcbnew,7.0.9
; #@! TF.FileFunction,Plated,1,4,PTH
FMAT,2
INCH
; #@! TA.AperFunction,Plated,PTH,ViaDrill
T1C0.0079
; #@! TA.AperFunction,Plated,PTH,ComponentDrill
T2C0.0236
; #@! TA.AperFunction,Plated,PTH,ComponentDrill
T3C0.0358
; #@! TA.AperFunction,Plated,PTH,ComponentDrill
T4C0.0394
; #@! TA.AperFunction,Plated,PTH,ComponentDrill
T5C0.0945
%
G90
G05
T1
X1.565Y-1.15
X1.765Y-1.96
X1.785Y-1.265
X1.82Y-1.23
X1.905Y-1.145
X1.945Y-1.24
X1.98Y-1.24
X1.98Y-1.475
X1.98Y-1.555
X1.98Y-1.63
X1.99Y-1.89
X1.995Y-1.96
X2.075Y-1.275
X2.13Y-1.92
X2.15Y-1.2775
X2.175Y-1.865
X2.1766Y-1.15
X2.2Y-1.96
X2.215Y-1.22
X2.215Y-1.92
X2.22Y-1.525
X2.22Y-1.565
X2.225Y-1.395
X2.225Y-1.46
X2.24Y-1.615
X2.265Y-1.32
X2.2857Y-1.2657
X2.31Y-1.685
X2.335Y-1.435
X2.34Y-1.23
X2.4492Y-1.9958
X2.56Y-1.92
X2.57Y-1.35
X2.595Y-1.75
X2.595Y-1.82
X2.705Y-1.53
X2.735Y-1.345
X2.765Y-1.1726
X2.805Y-1.925
X2.83Y-1.715
X2.865Y-1.465
X2.915Y-1.53
X2.92Y-1.165
X2.92Y-1.19
X2.92Y-1.215
X2.92Y-1.24
X3.025Y-1.945
X3.175Y-1.105
X3.2Y-1.105
X3.225Y-1.105
X3.25Y-1.105
X4.005Y-1.66
X4.005Y-1.72
X4.495Y-1.44
X4.53Y-1.565
X4.575Y-1.7
X4.6Y-1.7
X4.6Y-1.725
X4.625Y-1.7
X4.7Y-1.72
X4.81Y-1.52
X4.85Y-1.55
X4.85Y-1.55
T3
X4.1004Y-1.42
X4.1004Y-1.5184
X4.1004Y-1.6169
X4.1004Y-1.7153
T4
X2.69Y-1.8198
X2.69Y-1.9198
X4.36Y-1.3702
X4.36Y-1.4702
X4.36Y-1.5702
X4.36Y-1.6702
X4.36Y-1.7702
T5
X4.6346Y-1.235
T2
G00X4.5299Y-1.8075
M15
G01X4.5299Y-1.8508
M16
G05
G00X4.5299Y-1.9819
M15
G01X4.5299Y-2.0055
M16
G05
G00X4.8701Y-1.8075
M15
G01X4.8701Y-1.8508
M16
G05
G00X4.8701Y-1.9819
M15
G01X4.8701Y-2.0055
M16
G05
T0
M30
