%TF.GenerationSoftware,KiCad,Pcbnew,7.0.5-0*%
%TF.CreationDate,2024-04-12T00:02:12+02:00*%
%TF.ProjectId,MTR_C3_TempHum,4d54525f-4333-45f5-9465-6d7048756d2e,rev?*%
%TF.SameCoordinates,Original*%
%TF.FileFunction,Copper,L3,Inr*%
%TF.FilePolarity,Positive*%
%FSLAX46Y46*%
G04 Gerber Fmt 4.6, Leading zero omitted, Abs format (unit mm)*
G04 Created by KiCad (PCBNEW 7.0.5-0) date 2024-04-12 00:02:12*
%MOMM*%
%LPD*%
G01*
G04 APERTURE LIST*
%TA.AperFunction,ComponentPad*%
%ADD10O,1.000000X1.000000*%
%TD*%
%TA.AperFunction,ComponentPad*%
%ADD11R,1.000000X1.000000*%
%TD*%
%TA.AperFunction,ComponentPad*%
%ADD12O,1.000000X2.100000*%
%TD*%
%TA.AperFunction,ComponentPad*%
%ADD13O,1.000000X1.600000*%
%TD*%
%TA.AperFunction,ComponentPad*%
%ADD14C,2.400000*%
%TD*%
%TA.AperFunction,ViaPad*%
%ADD15C,0.450000*%
%TD*%
%TA.AperFunction,Conductor*%
%ADD16C,0.200000*%
%TD*%
G04 APERTURE END LIST*
D10*
%TO.N,+3.3V*%
%TO.C,J4*%
X86360000Y-28498800D03*
%TO.N,GND*%
X87630000Y-28498800D03*
%TO.N,U0TXD*%
X88900000Y-28498800D03*
%TO.N,U0RXD*%
X90170000Y-28498800D03*
D11*
%TO.N,GPIO7*%
X91440000Y-28498800D03*
%TD*%
D12*
%TO.N,GND*%
%TO.C,J1*%
X114298000Y-45797500D03*
D13*
X114298000Y-49977500D03*
D12*
X122938000Y-45797500D03*
D13*
X122938000Y-49977500D03*
%TD*%
D14*
%TO.N,*%
%TO.C,BT1*%
X119342500Y-30671500D03*
%TD*%
D15*
%TO.N,VBUS*%
X80670400Y-35864800D03*
%TO.N,GPIO10*%
X57200800Y-39827200D03*
X78536800Y-35915600D03*
%TO.N,VBAT*%
X78536800Y-31191200D03*
%TO.N,+3.3V*%
X80670400Y-31191200D03*
%TO.N,VBAT*%
X98094800Y-34950400D03*
%TO.N,Net-(IC2-OUT)*%
X106172000Y-36880800D03*
X106553000Y-36499800D03*
X103835200Y-39217600D03*
X104190800Y-38862000D03*
%TO.N,Net-(IC5-EN)*%
X102819200Y-33375600D03*
X102819200Y-32816800D03*
X102514400Y-36271200D03*
X102514400Y-36830000D03*
%TO.N,GND*%
X103606600Y-37566600D03*
X103632000Y-38100000D03*
X103733600Y-41097200D03*
X103733600Y-41656000D03*
X103174800Y-41656000D03*
X103174800Y-41097200D03*
X103073200Y-38100000D03*
X103047800Y-37566600D03*
%TO.N,VBAT*%
X98704400Y-36474400D03*
%TO.N,Net-(IC2-OUT)*%
X104546400Y-38506400D03*
%TO.N,Net-(IC5-EN)*%
X102819200Y-32258000D03*
X101803200Y-36830000D03*
%TO.N,VBAT*%
X98704400Y-35560000D03*
%TO.N,GND*%
X56794400Y-43332400D03*
X56794400Y-42214800D03*
X52781200Y-38201600D03*
X52781200Y-36220400D03*
X110528400Y-41338800D03*
X103022400Y-46532800D03*
X62829200Y-39359600D03*
%TO.N,+3.3V*%
X85301600Y-35496500D03*
%TO.N,GND*%
X84281600Y-35496500D03*
X108305600Y-36901600D03*
X55016400Y-47906400D03*
X56794400Y-42722800D03*
X68478400Y-32258000D03*
X73914000Y-33834534D03*
X106874900Y-40538400D03*
%TO.N,+3.3V*%
X105350900Y-40589200D03*
X109042200Y-43764200D03*
%TO.N,GND*%
X111810800Y-48209200D03*
%TO.N,+3.3V*%
X112623600Y-44551600D03*
X86360000Y-30530800D03*
%TO.N,GND*%
X111760000Y-32715200D03*
X112522000Y-32715200D03*
X113233200Y-32715200D03*
X101396800Y-31902400D03*
X101396800Y-33223200D03*
X100685600Y-33223200D03*
X100685600Y-32512000D03*
X101396800Y-32531200D03*
X105924700Y-33020000D03*
X110933600Y-33182800D03*
%TO.N,+3.3V*%
X113030000Y-28324400D03*
X106222800Y-28324400D03*
X98907600Y-32512000D03*
X98907600Y-30937200D03*
X98907600Y-31699200D03*
X98145600Y-31699200D03*
X98145600Y-30886400D03*
X98145600Y-32562800D03*
%TO.N,GND*%
X92786200Y-35280600D03*
%TO.N,+3.3V*%
X93624400Y-40081200D03*
X90678000Y-40741600D03*
%TO.N,GND*%
X92456000Y-40995600D03*
X86563200Y-41046400D03*
%TO.N,+3.3V*%
X85794800Y-41046400D03*
X84129200Y-42367200D03*
%TO.N,GND*%
X85149200Y-42418000D03*
%TO.N,+3.3V*%
X72847200Y-41605200D03*
%TO.N,GND*%
X55750000Y-30553200D03*
X66598800Y-36372800D03*
%TO.N,+3.3V*%
X71120000Y-45467734D03*
%TO.N,GND*%
X64379200Y-42969325D03*
X64379200Y-32961725D03*
%TO.N,+3.3V*%
X60756800Y-35052000D03*
X53035200Y-47906400D03*
X50393600Y-48564800D03*
X48431500Y-48615600D03*
X46469400Y-48615600D03*
%TO.N,GND*%
X48818800Y-40215200D03*
X48830000Y-36264000D03*
X48830000Y-38234000D03*
%TO.N,Hard_reset*%
X61264800Y-35661600D03*
X61529200Y-39346312D03*
%TO.N,GPIO9*%
X59979200Y-32961725D03*
X62534800Y-47193200D03*
%TO.N,CHIP_PU*%
X59588400Y-45212000D03*
X61214000Y-47142400D03*
%TO.N,Net-(D4-A)*%
X68173600Y-41351200D03*
X66598800Y-38938300D03*
%TO.N,Net-(JP3-B)*%
X55930800Y-29006800D03*
X53035200Y-29819600D03*
%TO.N,VBUS*%
X109220000Y-39624000D03*
X110045500Y-36901600D03*
%TO.N,Net-(IC2-OUT)*%
X106944700Y-36108100D03*
%TO.N,GPIO7*%
X57556400Y-35661600D03*
%TO.N,DTR*%
X108508800Y-49987200D03*
X103150500Y-47942800D03*
%TO.N,RTS*%
X104648000Y-48107600D03*
X103150500Y-44234400D03*
%TO.N,Net-(Q8-B)*%
X100076000Y-46532800D03*
X103150500Y-48962800D03*
%TO.N,VBAT*%
X71170800Y-36474400D03*
%TO.N,ADC_lvl_BAT*%
X68630800Y-36525200D03*
X70487300Y-32259734D03*
X51358800Y-45770800D03*
X53746400Y-45618400D03*
%TO.N,Net-(Q7-D)*%
X70713600Y-41249600D03*
X72136000Y-42570400D03*
%TO.N,SDA*%
X93065600Y-37338000D03*
X90373200Y-35560000D03*
%TO.N,SCL*%
X87833200Y-35458400D03*
%TO.N,SDA*%
X87020400Y-35458400D03*
X79601600Y-37896800D03*
%TO.N,SCL*%
X79552800Y-39370000D03*
%TO.N,SDA*%
X58267600Y-38557200D03*
%TO.N,SCL*%
X58318400Y-37084000D03*
%TO.N,U0TXD*%
X50038000Y-30632400D03*
X106375200Y-49936400D03*
%TO.N,U0RXD*%
X50800000Y-30632400D03*
X107467400Y-50012600D03*
%TO.N,Net-(U1-VIO)*%
X111861600Y-46888400D03*
X110490000Y-43535600D03*
%TO.N,GND*%
X120802400Y-41706800D03*
X118618000Y-40792400D03*
X116484400Y-41706800D03*
%TO.N,USB_D+*%
X117668000Y-37661200D03*
%TO.N,USB_D-*%
X119568000Y-37661200D03*
%TO.N,USB_D+*%
X120853200Y-38303200D03*
%TO.N,USB_D-*%
X121767600Y-38354000D03*
%TD*%
D16*
%TO.N,SDA*%
X76250800Y-37592000D02*
X77114400Y-38455600D01*
X58267600Y-38557200D02*
X59232800Y-37592000D01*
X59232800Y-37592000D02*
X76250800Y-37592000D01*
X79042800Y-38455600D02*
X79601600Y-37896800D01*
X77114400Y-38455600D02*
X79042800Y-38455600D01*
%TD*%
M02*
