%TF.GenerationSoftware,KiCad,Pcbnew,7.0.5-0*%
%TF.CreationDate,2024-04-12T00:02:12+02:00*%
%TF.ProjectId,MTR_C3_TempHum,4d54525f-4333-45f5-9465-6d7048756d2e,rev?*%
%TF.SameCoordinates,Original*%
%TF.FileFunction,Copper,L2,Inr*%
%TF.FilePolarity,Positive*%
%FSLAX46Y46*%
G04 Gerber Fmt 4.6, Leading zero omitted, Abs format (unit mm)*
G04 Created by KiCad (PCBNEW 7.0.5-0) date 2024-04-12 00:02:12*
%MOMM*%
%LPD*%
G01*
G04 APERTURE LIST*
%TA.AperFunction,ComponentPad*%
%ADD10O,1.000000X1.000000*%
%TD*%
%TA.AperFunction,ComponentPad*%
%ADD11R,1.000000X1.000000*%
%TD*%
%TA.AperFunction,ComponentPad*%
%ADD12O,1.000000X2.100000*%
%TD*%
%TA.AperFunction,ComponentPad*%
%ADD13O,1.000000X1.600000*%
%TD*%
%TA.AperFunction,ComponentPad*%
%ADD14C,2.400000*%
%TD*%
%TA.AperFunction,ViaPad*%
%ADD15C,0.450000*%
%TD*%
%TA.AperFunction,Conductor*%
%ADD16C,0.200000*%
%TD*%
%TA.AperFunction,Conductor*%
%ADD17C,0.250000*%
%TD*%
G04 APERTURE END LIST*
D10*
%TO.N,+3.3V*%
%TO.C,J4*%
X86360000Y-28498800D03*
%TO.N,GND*%
X87630000Y-28498800D03*
%TO.N,U0TXD*%
X88900000Y-28498800D03*
%TO.N,U0RXD*%
X90170000Y-28498800D03*
D11*
%TO.N,GPIO7*%
X91440000Y-28498800D03*
%TD*%
D12*
%TO.N,GND*%
%TO.C,J1*%
X114298000Y-45797500D03*
D13*
X114298000Y-49977500D03*
D12*
X122938000Y-45797500D03*
D13*
X122938000Y-49977500D03*
%TD*%
D14*
%TO.N,*%
%TO.C,BT1*%
X119342500Y-30671500D03*
%TD*%
D15*
%TO.N,VBUS*%
X80670400Y-35864800D03*
%TO.N,GPIO10*%
X57200800Y-39827200D03*
X78536800Y-35915600D03*
%TO.N,VBAT*%
X78536800Y-31191200D03*
%TO.N,+3.3V*%
X80670400Y-31191200D03*
%TO.N,VBAT*%
X98094800Y-34950400D03*
%TO.N,Net-(IC2-OUT)*%
X106172000Y-36880800D03*
X106553000Y-36499800D03*
X103835200Y-39217600D03*
X104190800Y-38862000D03*
%TO.N,Net-(IC5-EN)*%
X102819200Y-33375600D03*
X102819200Y-32816800D03*
X102514400Y-36271200D03*
X102514400Y-36830000D03*
%TO.N,GND*%
X103606600Y-37566600D03*
X103632000Y-38100000D03*
X103733600Y-41097200D03*
X103733600Y-41656000D03*
X103174800Y-41656000D03*
X103174800Y-41097200D03*
X103073200Y-38100000D03*
X103047800Y-37566600D03*
%TO.N,VBAT*%
X98704400Y-36474400D03*
%TO.N,Net-(IC2-OUT)*%
X104546400Y-38506400D03*
%TO.N,Net-(IC5-EN)*%
X102819200Y-32258000D03*
X101803200Y-36830000D03*
%TO.N,VBAT*%
X98704400Y-35560000D03*
%TO.N,GND*%
X56794400Y-43332400D03*
X56794400Y-42214800D03*
X52781200Y-38201600D03*
X52781200Y-36220400D03*
X110528400Y-41338800D03*
X103022400Y-46532800D03*
X62829200Y-39359600D03*
%TO.N,+3.3V*%
X85301600Y-35496500D03*
%TO.N,GND*%
X84281600Y-35496500D03*
X108305600Y-36901600D03*
X55016400Y-47906400D03*
X56794400Y-42722800D03*
X68478400Y-32258000D03*
X73914000Y-33834534D03*
X106874900Y-40538400D03*
%TO.N,+3.3V*%
X105350900Y-40589200D03*
X109042200Y-43764200D03*
%TO.N,GND*%
X111810800Y-48209200D03*
%TO.N,+3.3V*%
X112623600Y-44551600D03*
X86360000Y-30530800D03*
%TO.N,GND*%
X111760000Y-32715200D03*
X112522000Y-32715200D03*
X113233200Y-32715200D03*
X101396800Y-31902400D03*
X101396800Y-33223200D03*
X100685600Y-33223200D03*
X100685600Y-32512000D03*
X101396800Y-32531200D03*
X105924700Y-33020000D03*
X110933600Y-33182800D03*
%TO.N,+3.3V*%
X113030000Y-28324400D03*
X106222800Y-28324400D03*
X98907600Y-32512000D03*
X98907600Y-30937200D03*
X98907600Y-31699200D03*
X98145600Y-31699200D03*
X98145600Y-30886400D03*
X98145600Y-32562800D03*
%TO.N,GND*%
X92786200Y-35280600D03*
%TO.N,+3.3V*%
X93624400Y-40081200D03*
X90678000Y-40741600D03*
%TO.N,GND*%
X92456000Y-40995600D03*
X86563200Y-41046400D03*
%TO.N,+3.3V*%
X85794800Y-41046400D03*
X84129200Y-42367200D03*
%TO.N,GND*%
X85149200Y-42418000D03*
%TO.N,+3.3V*%
X72847200Y-41605200D03*
%TO.N,GND*%
X55750000Y-30553200D03*
X66598800Y-36372800D03*
%TO.N,+3.3V*%
X71120000Y-45467734D03*
%TO.N,GND*%
X64379200Y-42969325D03*
X64379200Y-32961725D03*
%TO.N,+3.3V*%
X60756800Y-35052000D03*
X53035200Y-47906400D03*
X50393600Y-48564800D03*
X48431500Y-48615600D03*
X46469400Y-48615600D03*
%TO.N,GND*%
X48818800Y-40215200D03*
X48830000Y-36264000D03*
X48830000Y-38234000D03*
%TO.N,Hard_reset*%
X61264800Y-35661600D03*
X61529200Y-39346312D03*
%TO.N,GPIO9*%
X59979200Y-32961725D03*
X62534800Y-47193200D03*
%TO.N,CHIP_PU*%
X59588400Y-45212000D03*
X61214000Y-47142400D03*
%TO.N,Net-(D4-A)*%
X68173600Y-41351200D03*
X66598800Y-38938300D03*
%TO.N,Net-(JP3-B)*%
X55930800Y-29006800D03*
X53035200Y-29819600D03*
%TO.N,VBUS*%
X109220000Y-39624000D03*
X110045500Y-36901600D03*
%TO.N,Net-(IC2-OUT)*%
X106944700Y-36108100D03*
%TO.N,GPIO7*%
X57556400Y-35661600D03*
%TO.N,DTR*%
X108508800Y-49987200D03*
X103150500Y-47942800D03*
%TO.N,RTS*%
X104648000Y-48107600D03*
X103150500Y-44234400D03*
%TO.N,Net-(Q8-B)*%
X100076000Y-46532800D03*
X103150500Y-48962800D03*
%TO.N,VBAT*%
X71170800Y-36474400D03*
%TO.N,ADC_lvl_BAT*%
X68630800Y-36525200D03*
X70487300Y-32259734D03*
X51358800Y-45770800D03*
X53746400Y-45618400D03*
%TO.N,Net-(Q7-D)*%
X70713600Y-41249600D03*
X72136000Y-42570400D03*
%TO.N,SDA*%
X93065600Y-37338000D03*
X90373200Y-35560000D03*
%TO.N,SCL*%
X87833200Y-35458400D03*
%TO.N,SDA*%
X87020400Y-35458400D03*
X79601600Y-37896800D03*
%TO.N,SCL*%
X79552800Y-39370000D03*
%TO.N,SDA*%
X58267600Y-38557200D03*
%TO.N,SCL*%
X58318400Y-37084000D03*
%TO.N,U0TXD*%
X50038000Y-30632400D03*
X106375200Y-49936400D03*
%TO.N,U0RXD*%
X50800000Y-30632400D03*
X107467400Y-50012600D03*
%TO.N,Net-(U1-VIO)*%
X111861600Y-46888400D03*
X110490000Y-43535600D03*
%TO.N,GND*%
X120802400Y-41706800D03*
X118618000Y-40792400D03*
X116484400Y-41706800D03*
%TO.N,USB_D+*%
X117668000Y-37661200D03*
%TO.N,USB_D-*%
X119568000Y-37661200D03*
%TO.N,USB_D+*%
X120853200Y-38303200D03*
%TO.N,USB_D-*%
X121767600Y-38354000D03*
%TD*%
D16*
%TO.N,GPIO10*%
X57200800Y-37452066D02*
X57200800Y-39827200D01*
X61845600Y-35842800D02*
X61134400Y-36554000D01*
X78536800Y-35915600D02*
X78464000Y-35842800D01*
X58098866Y-36554000D02*
X57200800Y-37452066D01*
X78464000Y-35842800D02*
X61845600Y-35842800D01*
X61134400Y-36554000D02*
X58098866Y-36554000D01*
D17*
%TO.N,U0RXD*%
X84707173Y-28012700D02*
X86018273Y-29323800D01*
D16*
%TO.N,GPIO7*%
X85888251Y-29637700D02*
X84577151Y-28326600D01*
%TO.N,SCL*%
X86898966Y-35988400D02*
X87303200Y-35988400D01*
X76047600Y-37998400D02*
X76911200Y-38862000D01*
D17*
%TO.N,U0TXD*%
X50038000Y-30632400D02*
X50038000Y-30457111D01*
X52821311Y-27673800D02*
X88075000Y-27673800D01*
X88075000Y-27673800D02*
X88900000Y-28498800D01*
X50038000Y-30457111D02*
X52821311Y-27673800D01*
%TO.N,U0RXD*%
X86018273Y-29323800D02*
X89345000Y-29323800D01*
X89345000Y-29323800D02*
X90170000Y-28498800D01*
X50800000Y-30632400D02*
X50800000Y-30174387D01*
X50800000Y-30174387D02*
X52961687Y-28012700D01*
X52961687Y-28012700D02*
X84707173Y-28012700D01*
D16*
%TO.N,GPIO7*%
X91440000Y-28498800D02*
X90301100Y-29637700D01*
X60878200Y-28326600D02*
X57556400Y-31648400D01*
X57556400Y-31648400D02*
X57556400Y-35661600D01*
X90301100Y-29637700D02*
X85888251Y-29637700D01*
X84577151Y-28326600D02*
X60878200Y-28326600D01*
%TO.N,SCL*%
X79552800Y-39370000D02*
X80111600Y-38811200D01*
X87303200Y-35988400D02*
X87833200Y-35458400D01*
X80111600Y-38811200D02*
X84076166Y-38811200D01*
X84076166Y-38811200D02*
X86898966Y-35988400D01*
%TO.N,SDA*%
X79601600Y-37896800D02*
X80227100Y-38522300D01*
X83956500Y-38522300D02*
X87020400Y-35458400D01*
X80227100Y-38522300D02*
X83956500Y-38522300D01*
%TO.N,SCL*%
X58318400Y-37084000D02*
X59232800Y-37998400D01*
X59232800Y-37998400D02*
X76047600Y-37998400D01*
X76911200Y-38862000D02*
X79044800Y-38862000D01*
X79044800Y-38862000D02*
X79552800Y-39370000D01*
%TD*%
%TA.AperFunction,Conductor*%
%TO.N,+3.3V*%
G36*
X128213039Y-26689685D02*
G01*
X128258794Y-26742489D01*
X128270000Y-26794000D01*
X128270000Y-50676000D01*
X128250315Y-50743039D01*
X128197511Y-50788794D01*
X128146000Y-50800000D01*
X123990660Y-50800000D01*
X123923621Y-50780315D01*
X123877866Y-50727511D01*
X123867922Y-50658353D01*
X123876709Y-50627100D01*
X123890832Y-50594189D01*
X123897540Y-50578558D01*
X123938500Y-50379241D01*
X123938500Y-49626758D01*
X123923074Y-49475062D01*
X123923074Y-49475060D01*
X123862162Y-49280920D01*
X123862160Y-49280916D01*
X123862159Y-49280912D01*
X123763409Y-49102998D01*
X123763408Y-49102997D01*
X123763407Y-49102995D01*
X123630867Y-48948606D01*
X123630865Y-48948604D01*
X123469962Y-48824054D01*
X123469959Y-48824053D01*
X123469958Y-48824052D01*
X123287271Y-48734440D01*
X123090285Y-48683437D01*
X123090287Y-48683437D01*
X122954804Y-48676566D01*
X122887064Y-48673131D01*
X122887063Y-48673131D01*
X122887061Y-48673131D01*
X122685936Y-48703942D01*
X122685924Y-48703945D01*
X122495118Y-48774611D01*
X122495111Y-48774615D01*
X122322432Y-48882245D01*
X122322427Y-48882249D01*
X122174949Y-49022438D01*
X122174948Y-49022440D01*
X122058705Y-49189449D01*
X121978459Y-49376443D01*
X121937500Y-49575758D01*
X121937500Y-50328243D01*
X121952925Y-50479939D01*
X122002794Y-50638879D01*
X122004082Y-50708737D01*
X121967397Y-50768201D01*
X121904387Y-50798392D01*
X121884481Y-50800000D01*
X115350660Y-50800000D01*
X115283621Y-50780315D01*
X115237866Y-50727511D01*
X115227922Y-50658353D01*
X115236709Y-50627100D01*
X115250832Y-50594189D01*
X115257540Y-50578558D01*
X115298500Y-50379241D01*
X115298500Y-49626758D01*
X115283074Y-49475062D01*
X115283074Y-49475060D01*
X115222162Y-49280920D01*
X115222160Y-49280916D01*
X115222159Y-49280912D01*
X115123409Y-49102998D01*
X115123408Y-49102997D01*
X115123407Y-49102995D01*
X114990867Y-48948606D01*
X114990865Y-48948604D01*
X114829962Y-48824054D01*
X114829959Y-48824053D01*
X114829958Y-48824052D01*
X114647271Y-48734440D01*
X114450285Y-48683437D01*
X114450287Y-48683437D01*
X114314804Y-48676566D01*
X114247064Y-48673131D01*
X114247063Y-48673131D01*
X114247061Y-48673131D01*
X114045936Y-48703942D01*
X114045924Y-48703945D01*
X113855118Y-48774611D01*
X113855111Y-48774615D01*
X113682432Y-48882245D01*
X113682427Y-48882249D01*
X113534949Y-49022438D01*
X113534948Y-49022440D01*
X113418705Y-49189449D01*
X113338459Y-49376443D01*
X113297500Y-49575758D01*
X113297500Y-50328243D01*
X113312925Y-50479939D01*
X113362794Y-50638879D01*
X113364082Y-50708737D01*
X113327397Y-50768201D01*
X113264387Y-50798392D01*
X113244481Y-50800000D01*
X109009290Y-50800000D01*
X108942251Y-50780315D01*
X108896496Y-50727511D01*
X108886552Y-50658353D01*
X108915577Y-50594797D01*
X108943317Y-50571007D01*
X108950313Y-50566610D01*
X108964004Y-50558008D01*
X109079608Y-50442404D01*
X109166589Y-50303975D01*
X109220586Y-50149661D01*
X109226310Y-50098861D01*
X109238891Y-49987203D01*
X109238891Y-49987196D01*
X109220587Y-49824744D01*
X109220586Y-49824742D01*
X109220586Y-49824739D01*
X109166589Y-49670425D01*
X109079608Y-49531996D01*
X108964004Y-49416392D01*
X108865999Y-49354811D01*
X108825574Y-49329410D01*
X108683152Y-49279575D01*
X108671261Y-49275414D01*
X108671260Y-49275413D01*
X108671255Y-49275412D01*
X108508804Y-49257109D01*
X108508796Y-49257109D01*
X108346344Y-49275412D01*
X108192025Y-49329410D01*
X108053596Y-49416392D01*
X108048153Y-49420733D01*
X108046445Y-49418592D01*
X107995997Y-49446111D01*
X107926308Y-49441096D01*
X107903719Y-49429926D01*
X107901543Y-49428559D01*
X107867591Y-49407225D01*
X107784176Y-49354811D01*
X107629855Y-49300812D01*
X107467404Y-49282509D01*
X107467396Y-49282509D01*
X107304944Y-49300812D01*
X107150625Y-49354810D01*
X107031079Y-49429927D01*
X106963843Y-49448927D01*
X106897007Y-49428559D01*
X106877426Y-49412614D01*
X106830404Y-49365592D01*
X106691974Y-49278610D01*
X106537655Y-49224612D01*
X106375204Y-49206309D01*
X106375196Y-49206309D01*
X106212744Y-49224612D01*
X106058425Y-49278610D01*
X105919995Y-49365592D01*
X105804392Y-49481195D01*
X105717410Y-49619625D01*
X105663412Y-49773944D01*
X105645109Y-49936396D01*
X105645109Y-49936403D01*
X105663412Y-50098855D01*
X105717410Y-50253174D01*
X105804392Y-50391604D01*
X105919997Y-50507209D01*
X106021530Y-50571007D01*
X106067820Y-50623341D01*
X106078468Y-50692395D01*
X106050093Y-50756243D01*
X105991703Y-50794615D01*
X105955557Y-50800000D01*
X39494000Y-50800000D01*
X39426961Y-50780315D01*
X39381206Y-50727511D01*
X39370000Y-50676000D01*
X39370000Y-47906403D01*
X54286309Y-47906403D01*
X54304612Y-48068855D01*
X54358610Y-48223174D01*
X54409578Y-48304289D01*
X54445592Y-48361604D01*
X54561196Y-48477208D01*
X54699625Y-48564189D01*
X54853939Y-48618186D01*
X54853942Y-48618186D01*
X54853944Y-48618187D01*
X55016396Y-48636491D01*
X55016400Y-48636491D01*
X55016404Y-48636491D01*
X55178855Y-48618187D01*
X55178856Y-48618186D01*
X55178861Y-48618186D01*
X55333175Y-48564189D01*
X55471604Y-48477208D01*
X55587208Y-48361604D01*
X55674189Y-48223175D01*
X55728186Y-48068861D01*
X55742126Y-47945139D01*
X55746491Y-47906403D01*
X55746491Y-47906396D01*
X55728187Y-47743944D01*
X55728186Y-47743942D01*
X55728186Y-47743939D01*
X55674189Y-47589625D01*
X55587208Y-47451196D01*
X55471604Y-47335592D01*
X55407496Y-47295310D01*
X55333174Y-47248610D01*
X55178855Y-47194612D01*
X55016404Y-47176309D01*
X55016396Y-47176309D01*
X54853944Y-47194612D01*
X54699625Y-47248610D01*
X54561195Y-47335592D01*
X54445592Y-47451195D01*
X54358610Y-47589625D01*
X54304612Y-47743944D01*
X54286309Y-47906396D01*
X54286309Y-47906403D01*
X39370000Y-47906403D01*
X39370000Y-47142403D01*
X60483909Y-47142403D01*
X60502212Y-47304855D01*
X60556210Y-47459174D01*
X60574069Y-47487596D01*
X60643192Y-47597604D01*
X60758796Y-47713208D01*
X60897225Y-47800189D01*
X61051539Y-47854186D01*
X61051542Y-47854186D01*
X61051544Y-47854187D01*
X61213996Y-47872491D01*
X61214000Y-47872491D01*
X61214004Y-47872491D01*
X61376455Y-47854187D01*
X61376456Y-47854186D01*
X61376461Y-47854186D01*
X61530775Y-47800189D01*
X61669204Y-47713208D01*
X61765300Y-47617111D01*
X61826619Y-47583629D01*
X61896311Y-47588613D01*
X61952245Y-47630484D01*
X61957971Y-47638822D01*
X61963990Y-47648402D01*
X61963992Y-47648404D01*
X62079596Y-47764008D01*
X62218025Y-47850989D01*
X62372339Y-47904986D01*
X62372342Y-47904986D01*
X62372344Y-47904987D01*
X62534796Y-47923291D01*
X62534800Y-47923291D01*
X62534804Y-47923291D01*
X62697255Y-47904987D01*
X62697256Y-47904986D01*
X62697261Y-47904986D01*
X62851575Y-47850989D01*
X62990004Y-47764008D01*
X63105608Y-47648404D01*
X63192589Y-47509975D01*
X63246586Y-47355661D01*
X63246587Y-47355655D01*
X63264891Y-47193203D01*
X63264891Y-47193196D01*
X63246587Y-47030744D01*
X63246586Y-47030742D01*
X63246586Y-47030739D01*
X63192589Y-46876425D01*
X63105608Y-46737996D01*
X62990004Y-46622392D01*
X62990002Y-46622391D01*
X62851574Y-46535410D01*
X62844124Y-46532803D01*
X99345909Y-46532803D01*
X99364212Y-46695255D01*
X99418210Y-46849574D01*
X99418211Y-46849575D01*
X99505192Y-46988004D01*
X99620796Y-47103608D01*
X99759225Y-47190589D01*
X99913539Y-47244586D01*
X99913542Y-47244586D01*
X99913544Y-47244587D01*
X100075996Y-47262891D01*
X100076000Y-47262891D01*
X100076004Y-47262891D01*
X100238455Y-47244587D01*
X100238456Y-47244586D01*
X100238461Y-47244586D01*
X100392775Y-47190589D01*
X100531204Y-47103608D01*
X100646808Y-46988004D01*
X100733789Y-46849575D01*
X100787786Y-46695261D01*
X100788429Y-46689554D01*
X100806091Y-46532803D01*
X102292309Y-46532803D01*
X102310612Y-46695255D01*
X102364610Y-46849574D01*
X102364611Y-46849575D01*
X102451592Y-46988004D01*
X102567196Y-47103608D01*
X102679100Y-47173922D01*
X102725391Y-47226257D01*
X102736039Y-47295310D01*
X102707664Y-47359159D01*
X102699875Y-47366723D01*
X102700220Y-47367068D01*
X102579692Y-47487595D01*
X102492710Y-47626025D01*
X102438712Y-47780344D01*
X102420409Y-47942796D01*
X102420409Y-47942803D01*
X102438712Y-48105255D01*
X102438713Y-48105260D01*
X102438714Y-48105261D01*
X102439534Y-48107603D01*
X102492710Y-48259574D01*
X102572669Y-48386828D01*
X102591669Y-48454065D01*
X102572669Y-48518772D01*
X102492710Y-48646025D01*
X102438712Y-48800344D01*
X102420409Y-48962796D01*
X102420409Y-48962803D01*
X102438712Y-49125255D01*
X102492710Y-49279574D01*
X102524025Y-49329411D01*
X102579692Y-49418004D01*
X102695296Y-49533608D01*
X102833725Y-49620589D01*
X102988039Y-49674586D01*
X102988042Y-49674586D01*
X102988044Y-49674587D01*
X103150496Y-49692891D01*
X103150500Y-49692891D01*
X103150504Y-49692891D01*
X103312955Y-49674587D01*
X103312956Y-49674586D01*
X103312961Y-49674586D01*
X103467275Y-49620589D01*
X103605704Y-49533608D01*
X103721308Y-49418004D01*
X103808289Y-49279575D01*
X103862286Y-49125261D01*
X103862287Y-49125255D01*
X103880591Y-48962803D01*
X103880591Y-48962796D01*
X103862287Y-48800344D01*
X103862286Y-48800342D01*
X103862286Y-48800339D01*
X103808289Y-48646025D01*
X103802298Y-48636491D01*
X103728331Y-48518773D01*
X103709330Y-48451536D01*
X103728329Y-48386830D01*
X103728330Y-48386828D01*
X103751107Y-48350579D01*
X103803439Y-48304289D01*
X103872492Y-48293639D01*
X103936341Y-48322013D01*
X103973141Y-48375595D01*
X103990209Y-48424373D01*
X104023408Y-48477208D01*
X104077192Y-48562804D01*
X104192796Y-48678408D01*
X104331225Y-48765389D01*
X104485539Y-48819386D01*
X104485542Y-48819386D01*
X104485544Y-48819387D01*
X104647996Y-48837691D01*
X104648000Y-48837691D01*
X104648004Y-48837691D01*
X104810455Y-48819387D01*
X104810456Y-48819386D01*
X104810461Y-48819386D01*
X104964775Y-48765389D01*
X105103204Y-48678408D01*
X105218808Y-48562804D01*
X105305789Y-48424375D01*
X105359786Y-48270061D01*
X105359787Y-48270055D01*
X105366643Y-48209203D01*
X111080709Y-48209203D01*
X111099012Y-48371655D01*
X111153010Y-48525974D01*
X111210951Y-48618186D01*
X111239992Y-48664404D01*
X111355596Y-48780008D01*
X111494025Y-48866989D01*
X111648339Y-48920986D01*
X111648342Y-48920986D01*
X111648344Y-48920987D01*
X111810796Y-48939291D01*
X111810800Y-48939291D01*
X111810804Y-48939291D01*
X111973255Y-48920987D01*
X111973256Y-48920986D01*
X111973261Y-48920986D01*
X112127575Y-48866989D01*
X112266004Y-48780008D01*
X112381608Y-48664404D01*
X112468589Y-48525975D01*
X112522586Y-48371661D01*
X112534034Y-48270061D01*
X112540891Y-48209203D01*
X112540891Y-48209196D01*
X112522587Y-48046744D01*
X112522586Y-48046742D01*
X112522586Y-48046739D01*
X112468589Y-47892425D01*
X112381608Y-47753996D01*
X112285514Y-47657902D01*
X112252029Y-47596579D01*
X112257013Y-47526887D01*
X112298885Y-47470954D01*
X112307215Y-47465232D01*
X112316804Y-47459208D01*
X112432408Y-47343604D01*
X112519389Y-47205175D01*
X112573386Y-47050861D01*
X112575653Y-47030744D01*
X112591691Y-46888403D01*
X112591691Y-46888396D01*
X112573387Y-46725944D01*
X112573386Y-46725942D01*
X112573386Y-46725939D01*
X112519389Y-46571625D01*
X112432408Y-46433196D01*
X112397455Y-46398243D01*
X113297500Y-46398243D01*
X113312925Y-46549939D01*
X113373837Y-46744079D01*
X113373844Y-46744094D01*
X113472589Y-46921999D01*
X113472592Y-46922004D01*
X113605132Y-47076393D01*
X113605134Y-47076395D01*
X113766037Y-47200945D01*
X113766038Y-47200945D01*
X113766042Y-47200948D01*
X113948729Y-47290560D01*
X114145715Y-47341563D01*
X114348936Y-47351869D01*
X114550071Y-47321056D01*
X114740887Y-47250386D01*
X114913571Y-47142752D01*
X115061053Y-47002559D01*
X115177295Y-46835549D01*
X115199118Y-46784693D01*
X115243644Y-46730851D01*
X115310212Y-46709627D01*
X115377687Y-46727762D01*
X115391323Y-46737405D01*
X115393241Y-46738965D01*
X115393245Y-46738969D01*
X115516672Y-46814026D01*
X115655772Y-46853000D01*
X115655773Y-46853000D01*
X115763950Y-46853000D01*
X115775502Y-46851411D01*
X115871111Y-46838271D01*
X116003609Y-46780719D01*
X116115665Y-46689554D01*
X116198971Y-46571537D01*
X116229864Y-46484611D01*
X116247345Y-46435425D01*
X116247345Y-46435423D01*
X116247346Y-46435421D01*
X116252252Y-46363699D01*
X120978796Y-46363699D01*
X120993700Y-46435421D01*
X121008186Y-46505134D01*
X121008187Y-46505136D01*
X121074645Y-46633393D01*
X121074649Y-46633399D01*
X121162778Y-46727762D01*
X121173245Y-46738969D01*
X121296672Y-46814026D01*
X121435772Y-46853000D01*
X121435773Y-46853000D01*
X121543950Y-46853000D01*
X121555502Y-46851411D01*
X121651111Y-46838271D01*
X121783609Y-46780719D01*
X121841393Y-46733707D01*
X121905818Y-46706670D01*
X121974635Y-46718754D01*
X122025993Y-46766126D01*
X122028067Y-46769719D01*
X122112589Y-46921999D01*
X122112592Y-46922004D01*
X122245132Y-47076393D01*
X122245134Y-47076395D01*
X122406037Y-47200945D01*
X122406038Y-47200945D01*
X122406042Y-47200948D01*
X122588729Y-47290560D01*
X122785715Y-47341563D01*
X122988936Y-47351869D01*
X123190071Y-47321056D01*
X123380887Y-47250386D01*
X123553571Y-47142752D01*
X123701053Y-47002559D01*
X123817295Y-46835549D01*
X123897540Y-46648558D01*
X123938500Y-46449241D01*
X123938500Y-45196758D01*
X123923074Y-45045062D01*
X123923074Y-45045060D01*
X123862162Y-44850920D01*
X123862160Y-44850916D01*
X123862159Y-44850912D01*
X123763409Y-44672998D01*
X123763408Y-44672997D01*
X123763407Y-44672995D01*
X123630867Y-44518606D01*
X123630865Y-44518604D01*
X123469962Y-44394054D01*
X123469959Y-44394053D01*
X123469958Y-44394052D01*
X123287271Y-44304440D01*
X123090285Y-44253437D01*
X123090287Y-44253437D01*
X122954804Y-44246566D01*
X122887064Y-44243131D01*
X122887063Y-44243131D01*
X122887061Y-44243131D01*
X122685936Y-44273942D01*
X122685924Y-44273945D01*
X122495118Y-44344611D01*
X122495111Y-44344615D01*
X122322432Y-44452245D01*
X122322427Y-44452249D01*
X122174949Y-44592438D01*
X122174948Y-44592440D01*
X122058705Y-44759449D01*
X121978459Y-44946443D01*
X121937500Y-45145758D01*
X121937500Y-45753113D01*
X121917815Y-45820152D01*
X121865011Y-45865907D01*
X121795853Y-45875851D01*
X121749073Y-45859062D01*
X121724725Y-45844256D01*
X121719328Y-45840974D01*
X121580228Y-45802000D01*
X121472051Y-45802000D01*
X121472050Y-45802000D01*
X121364889Y-45816729D01*
X121232389Y-45874281D01*
X121232389Y-45874282D01*
X121120338Y-45965443D01*
X121120333Y-45965448D01*
X121037028Y-46083463D01*
X120988654Y-46219574D01*
X120988654Y-46219577D01*
X120988215Y-46226004D01*
X120978796Y-46363699D01*
X116252252Y-46363699D01*
X116257204Y-46291301D01*
X116227814Y-46149866D01*
X116161354Y-46021605D01*
X116161351Y-46021602D01*
X116161350Y-46021600D01*
X116062754Y-45916030D01*
X115939330Y-45840975D01*
X115939329Y-45840974D01*
X115939328Y-45840974D01*
X115800228Y-45802000D01*
X115692051Y-45802000D01*
X115692050Y-45802000D01*
X115584891Y-45816728D01*
X115471900Y-45865807D01*
X115402568Y-45874460D01*
X115339564Y-45844256D01*
X115302892Y-45784784D01*
X115298499Y-45752072D01*
X115298499Y-45618396D01*
X115298500Y-45196758D01*
X115283074Y-45045062D01*
X115283074Y-45045060D01*
X115222162Y-44850920D01*
X115222160Y-44850916D01*
X115222159Y-44850912D01*
X115123409Y-44672998D01*
X115123408Y-44672997D01*
X115123407Y-44672995D01*
X114990867Y-44518606D01*
X114990865Y-44518604D01*
X114829962Y-44394054D01*
X114829959Y-44394053D01*
X114829958Y-44394052D01*
X114647271Y-44304440D01*
X114450285Y-44253437D01*
X114450287Y-44253437D01*
X114314804Y-44246566D01*
X114247064Y-44243131D01*
X114247063Y-44243131D01*
X114247061Y-44243131D01*
X114045936Y-44273942D01*
X114045924Y-44273945D01*
X113855118Y-44344611D01*
X113855111Y-44344615D01*
X113682432Y-44452245D01*
X113682427Y-44452249D01*
X113534949Y-44592438D01*
X113534948Y-44592440D01*
X113418705Y-44759449D01*
X113338459Y-44946443D01*
X113297500Y-45145758D01*
X113297500Y-46398243D01*
X112397455Y-46398243D01*
X112316804Y-46317592D01*
X112178374Y-46230610D01*
X112024055Y-46176612D01*
X111861604Y-46158309D01*
X111861596Y-46158309D01*
X111699144Y-46176612D01*
X111544825Y-46230610D01*
X111406395Y-46317592D01*
X111290792Y-46433195D01*
X111203810Y-46571625D01*
X111149812Y-46725944D01*
X111131509Y-46888396D01*
X111131509Y-46888403D01*
X111149812Y-47050855D01*
X111203810Y-47205174D01*
X111290792Y-47343604D01*
X111386885Y-47439697D01*
X111420370Y-47501020D01*
X111415386Y-47570712D01*
X111373514Y-47626645D01*
X111365180Y-47632369D01*
X111355600Y-47638388D01*
X111355595Y-47638392D01*
X111239992Y-47753995D01*
X111153010Y-47892425D01*
X111099012Y-48046744D01*
X111080709Y-48209196D01*
X111080709Y-48209203D01*
X105366643Y-48209203D01*
X105378091Y-48107603D01*
X105378091Y-48107596D01*
X105359787Y-47945144D01*
X105359786Y-47945142D01*
X105359786Y-47945139D01*
X105305789Y-47790825D01*
X105218808Y-47652396D01*
X105103204Y-47536792D01*
X105060524Y-47509974D01*
X104964774Y-47449810D01*
X104810455Y-47395812D01*
X104648004Y-47377509D01*
X104647996Y-47377509D01*
X104485544Y-47395812D01*
X104331225Y-47449810D01*
X104192795Y-47536792D01*
X104077192Y-47652395D01*
X104077190Y-47652398D01*
X104047392Y-47699821D01*
X103995057Y-47746112D01*
X103926003Y-47756759D01*
X103862155Y-47728383D01*
X103825357Y-47674802D01*
X103808289Y-47626025D01*
X103761406Y-47551411D01*
X103721308Y-47487596D01*
X103605704Y-47371992D01*
X103597318Y-47366723D01*
X103493799Y-47301677D01*
X103447508Y-47249342D01*
X103436860Y-47180288D01*
X103465235Y-47116440D01*
X103473030Y-47108882D01*
X103472680Y-47108532D01*
X103530357Y-47050855D01*
X103593208Y-46988004D01*
X103680189Y-46849575D01*
X103734186Y-46695261D01*
X103734829Y-46689554D01*
X103752491Y-46532803D01*
X103752491Y-46532796D01*
X103734187Y-46370344D01*
X103734186Y-46370342D01*
X103734186Y-46370339D01*
X103680189Y-46216025D01*
X103593208Y-46077596D01*
X103477604Y-45961992D01*
X103431879Y-45933261D01*
X103339174Y-45875010D01*
X103184855Y-45821012D01*
X103022404Y-45802709D01*
X103022396Y-45802709D01*
X102859944Y-45821012D01*
X102705625Y-45875010D01*
X102567195Y-45961992D01*
X102451592Y-46077595D01*
X102364610Y-46216025D01*
X102310612Y-46370344D01*
X102292309Y-46532796D01*
X102292309Y-46532803D01*
X100806091Y-46532803D01*
X100806091Y-46532796D01*
X100787787Y-46370344D01*
X100787786Y-46370342D01*
X100787786Y-46370339D01*
X100733789Y-46216025D01*
X100646808Y-46077596D01*
X100531204Y-45961992D01*
X100485479Y-45933261D01*
X100392774Y-45875010D01*
X100238455Y-45821012D01*
X100076004Y-45802709D01*
X100075996Y-45802709D01*
X99913544Y-45821012D01*
X99759225Y-45875010D01*
X99620795Y-45961992D01*
X99505192Y-46077595D01*
X99418210Y-46216025D01*
X99364212Y-46370344D01*
X99345909Y-46532796D01*
X99345909Y-46532803D01*
X62844124Y-46532803D01*
X62706397Y-46484611D01*
X62697261Y-46481414D01*
X62697260Y-46481413D01*
X62697255Y-46481412D01*
X62534804Y-46463109D01*
X62534796Y-46463109D01*
X62372344Y-46481412D01*
X62218025Y-46535410D01*
X62079597Y-46622391D01*
X61983502Y-46718486D01*
X61922178Y-46751970D01*
X61852487Y-46746986D01*
X61796554Y-46705114D01*
X61790827Y-46696775D01*
X61786291Y-46689556D01*
X61784808Y-46687196D01*
X61669204Y-46571592D01*
X61634742Y-46549938D01*
X61530774Y-46484610D01*
X61390201Y-46435422D01*
X61376461Y-46430614D01*
X61376460Y-46430613D01*
X61376455Y-46430612D01*
X61214004Y-46412309D01*
X61213996Y-46412309D01*
X61051544Y-46430612D01*
X60897225Y-46484610D01*
X60758795Y-46571592D01*
X60643192Y-46687195D01*
X60556210Y-46825625D01*
X60502212Y-46979944D01*
X60483909Y-47142396D01*
X60483909Y-47142403D01*
X39370000Y-47142403D01*
X39370000Y-45770803D01*
X50628709Y-45770803D01*
X50647012Y-45933255D01*
X50701010Y-46087574D01*
X50740151Y-46149866D01*
X50787992Y-46226004D01*
X50903596Y-46341608D01*
X51042025Y-46428589D01*
X51196339Y-46482586D01*
X51196342Y-46482586D01*
X51196344Y-46482587D01*
X51358796Y-46500891D01*
X51358800Y-46500891D01*
X51358804Y-46500891D01*
X51521255Y-46482587D01*
X51521256Y-46482586D01*
X51521261Y-46482586D01*
X51675575Y-46428589D01*
X51814004Y-46341608D01*
X51929608Y-46226004D01*
X52016589Y-46087575D01*
X52070586Y-45933261D01*
X52070587Y-45933255D01*
X52088891Y-45770803D01*
X52088891Y-45770796D01*
X52071720Y-45618403D01*
X53016309Y-45618403D01*
X53034612Y-45780855D01*
X53088610Y-45935174D01*
X53142919Y-46021605D01*
X53175592Y-46073604D01*
X53291196Y-46189208D01*
X53429625Y-46276189D01*
X53583939Y-46330186D01*
X53583942Y-46330186D01*
X53583944Y-46330187D01*
X53746396Y-46348491D01*
X53746400Y-46348491D01*
X53746404Y-46348491D01*
X53908855Y-46330187D01*
X53908856Y-46330186D01*
X53908861Y-46330186D01*
X54063175Y-46276189D01*
X54201604Y-46189208D01*
X54317208Y-46073604D01*
X54404189Y-45935175D01*
X54458186Y-45780861D01*
X54458187Y-45780855D01*
X54476491Y-45618403D01*
X54476491Y-45618396D01*
X54458187Y-45455944D01*
X54458186Y-45455942D01*
X54458186Y-45455939D01*
X54404189Y-45301625D01*
X54347876Y-45212003D01*
X58858309Y-45212003D01*
X58876612Y-45374455D01*
X58930610Y-45528774D01*
X58980608Y-45608344D01*
X59017592Y-45667204D01*
X59133196Y-45782808D01*
X59271625Y-45869789D01*
X59425939Y-45923786D01*
X59425942Y-45923786D01*
X59425944Y-45923787D01*
X59588396Y-45942091D01*
X59588400Y-45942091D01*
X59588404Y-45942091D01*
X59750855Y-45923787D01*
X59750856Y-45923786D01*
X59750861Y-45923786D01*
X59905175Y-45869789D01*
X60043604Y-45782808D01*
X60159208Y-45667204D01*
X60246189Y-45528775D01*
X60300186Y-45374461D01*
X60318491Y-45212000D01*
X60316773Y-45196756D01*
X60300187Y-45049544D01*
X60300186Y-45049542D01*
X60300186Y-45049539D01*
X60246189Y-44895225D01*
X60159208Y-44756796D01*
X60043604Y-44641192D01*
X59905174Y-44554210D01*
X59750855Y-44500212D01*
X59588404Y-44481909D01*
X59588396Y-44481909D01*
X59425944Y-44500212D01*
X59271625Y-44554210D01*
X59133195Y-44641192D01*
X59017592Y-44756795D01*
X58930610Y-44895225D01*
X58876612Y-45049544D01*
X58858309Y-45211996D01*
X58858309Y-45212003D01*
X54347876Y-45212003D01*
X54317208Y-45163196D01*
X54201604Y-45047592D01*
X54190650Y-45040709D01*
X54063174Y-44960610D01*
X53908855Y-44906612D01*
X53746404Y-44888309D01*
X53746396Y-44888309D01*
X53583944Y-44906612D01*
X53429625Y-44960610D01*
X53291195Y-45047592D01*
X53175592Y-45163195D01*
X53088610Y-45301625D01*
X53034612Y-45455944D01*
X53016309Y-45618396D01*
X53016309Y-45618403D01*
X52071720Y-45618403D01*
X52070587Y-45608344D01*
X52070586Y-45608342D01*
X52070586Y-45608339D01*
X52016589Y-45454025D01*
X51929608Y-45315596D01*
X51814004Y-45199992D01*
X51727693Y-45145759D01*
X51675574Y-45113010D01*
X51521255Y-45059012D01*
X51358804Y-45040709D01*
X51358796Y-45040709D01*
X51196344Y-45059012D01*
X51042025Y-45113010D01*
X50903595Y-45199992D01*
X50787992Y-45315595D01*
X50701010Y-45454025D01*
X50647012Y-45608344D01*
X50628709Y-45770796D01*
X50628709Y-45770803D01*
X39370000Y-45770803D01*
X39370000Y-44234403D01*
X102420409Y-44234403D01*
X102438712Y-44396855D01*
X102492710Y-44551174D01*
X102569256Y-44672995D01*
X102579692Y-44689604D01*
X102695296Y-44805208D01*
X102833725Y-44892189D01*
X102988039Y-44946186D01*
X102988042Y-44946186D01*
X102988044Y-44946187D01*
X103150496Y-44964491D01*
X103150500Y-44964491D01*
X103150504Y-44964491D01*
X103312955Y-44946187D01*
X103312956Y-44946186D01*
X103312961Y-44946186D01*
X103467275Y-44892189D01*
X103605704Y-44805208D01*
X103721308Y-44689604D01*
X103808289Y-44551175D01*
X103862286Y-44396861D01*
X103862287Y-44396855D01*
X103880591Y-44234403D01*
X103880591Y-44234396D01*
X103862287Y-44071944D01*
X103862286Y-44071942D01*
X103862286Y-44071939D01*
X103808289Y-43917625D01*
X103721308Y-43779196D01*
X103605704Y-43663592D01*
X103547650Y-43627114D01*
X103467274Y-43576610D01*
X103350082Y-43535603D01*
X109759909Y-43535603D01*
X109778212Y-43698055D01*
X109832210Y-43852374D01*
X109873210Y-43917625D01*
X109919192Y-43990804D01*
X110034796Y-44106408D01*
X110173225Y-44193389D01*
X110327539Y-44247386D01*
X110327542Y-44247386D01*
X110327544Y-44247387D01*
X110489996Y-44265691D01*
X110490000Y-44265691D01*
X110490004Y-44265691D01*
X110652455Y-44247387D01*
X110652456Y-44247386D01*
X110652461Y-44247386D01*
X110806775Y-44193389D01*
X110945204Y-44106408D01*
X111060808Y-43990804D01*
X111147789Y-43852375D01*
X111201786Y-43698061D01*
X111207294Y-43649175D01*
X111220091Y-43535603D01*
X111220091Y-43535596D01*
X111201787Y-43373144D01*
X111201786Y-43373142D01*
X111201786Y-43373139D01*
X111147789Y-43218825D01*
X111060808Y-43080396D01*
X110945204Y-42964792D01*
X110821678Y-42887175D01*
X110806774Y-42877810D01*
X110652455Y-42823812D01*
X110490004Y-42805509D01*
X110489996Y-42805509D01*
X110327544Y-42823812D01*
X110173225Y-42877810D01*
X110034795Y-42964792D01*
X109919192Y-43080395D01*
X109832210Y-43218825D01*
X109778212Y-43373144D01*
X109759909Y-43535596D01*
X109759909Y-43535603D01*
X103350082Y-43535603D01*
X103312955Y-43522612D01*
X103150504Y-43504309D01*
X103150496Y-43504309D01*
X102988044Y-43522612D01*
X102833725Y-43576610D01*
X102695295Y-43663592D01*
X102579692Y-43779195D01*
X102492710Y-43917625D01*
X102438712Y-44071944D01*
X102420409Y-44234396D01*
X102420409Y-44234403D01*
X39370000Y-44234403D01*
X39370000Y-43332403D01*
X56064309Y-43332403D01*
X56082612Y-43494855D01*
X56136610Y-43649174D01*
X56218308Y-43779195D01*
X56223592Y-43787604D01*
X56339196Y-43903208D01*
X56477625Y-43990189D01*
X56631939Y-44044186D01*
X56631942Y-44044186D01*
X56631944Y-44044187D01*
X56794396Y-44062491D01*
X56794400Y-44062491D01*
X56794404Y-44062491D01*
X56956855Y-44044187D01*
X56956856Y-44044186D01*
X56956861Y-44044186D01*
X57111175Y-43990189D01*
X57249604Y-43903208D01*
X57365208Y-43787604D01*
X57452189Y-43649175D01*
X57506186Y-43494861D01*
X57514111Y-43424529D01*
X57524491Y-43332403D01*
X57524491Y-43332396D01*
X57506187Y-43169944D01*
X57506186Y-43169940D01*
X57506186Y-43169939D01*
X57470708Y-43068551D01*
X57467148Y-42998773D01*
X57470708Y-42986649D01*
X57476769Y-42969328D01*
X63649109Y-42969328D01*
X63667412Y-43131780D01*
X63721410Y-43286099D01*
X63808392Y-43424529D01*
X63923996Y-43540133D01*
X64062425Y-43627114D01*
X64216739Y-43681111D01*
X64216742Y-43681111D01*
X64216744Y-43681112D01*
X64379196Y-43699416D01*
X64379200Y-43699416D01*
X64379204Y-43699416D01*
X64541655Y-43681112D01*
X64541656Y-43681111D01*
X64541661Y-43681111D01*
X64695975Y-43627114D01*
X64834404Y-43540133D01*
X64950008Y-43424529D01*
X65036989Y-43286100D01*
X65090986Y-43131786D01*
X65090987Y-43131780D01*
X65109291Y-42969328D01*
X65109291Y-42969321D01*
X65090987Y-42806869D01*
X65090986Y-42806867D01*
X65090986Y-42806864D01*
X65036989Y-42652550D01*
X64985372Y-42570403D01*
X71405909Y-42570403D01*
X71424212Y-42732855D01*
X71478210Y-42887174D01*
X71478211Y-42887175D01*
X71565192Y-43025604D01*
X71680796Y-43141208D01*
X71819225Y-43228189D01*
X71973539Y-43282186D01*
X71973542Y-43282186D01*
X71973544Y-43282187D01*
X72135996Y-43300491D01*
X72136000Y-43300491D01*
X72136004Y-43300491D01*
X72298455Y-43282187D01*
X72298456Y-43282186D01*
X72298461Y-43282186D01*
X72452775Y-43228189D01*
X72591204Y-43141208D01*
X72706808Y-43025604D01*
X72793789Y-42887175D01*
X72847786Y-42732861D01*
X72847787Y-42732855D01*
X72866091Y-42570403D01*
X72866091Y-42570396D01*
X72848920Y-42418003D01*
X84419109Y-42418003D01*
X84437412Y-42580455D01*
X84491410Y-42734774D01*
X84536711Y-42806869D01*
X84578392Y-42873204D01*
X84693996Y-42988808D01*
X84832425Y-43075789D01*
X84986739Y-43129786D01*
X84986742Y-43129786D01*
X84986744Y-43129787D01*
X85149196Y-43148091D01*
X85149200Y-43148091D01*
X85149204Y-43148091D01*
X85311655Y-43129787D01*
X85311656Y-43129786D01*
X85311661Y-43129786D01*
X85465975Y-43075789D01*
X85604404Y-42988808D01*
X85720008Y-42873204D01*
X85806989Y-42734775D01*
X85860986Y-42580461D01*
X85860987Y-42580455D01*
X85879291Y-42418003D01*
X85879291Y-42417996D01*
X85860987Y-42255544D01*
X85860986Y-42255542D01*
X85860986Y-42255539D01*
X85806989Y-42101225D01*
X85720008Y-41962796D01*
X85604404Y-41847192D01*
X85558679Y-41818461D01*
X85465974Y-41760210D01*
X85313344Y-41706803D01*
X85311661Y-41706214D01*
X85311660Y-41706213D01*
X85311655Y-41706212D01*
X85149204Y-41687909D01*
X85149196Y-41687909D01*
X84986744Y-41706212D01*
X84832425Y-41760210D01*
X84693995Y-41847192D01*
X84578392Y-41962795D01*
X84491410Y-42101225D01*
X84437412Y-42255544D01*
X84419109Y-42417996D01*
X84419109Y-42418003D01*
X72848920Y-42418003D01*
X72847787Y-42407944D01*
X72847786Y-42407942D01*
X72847786Y-42407939D01*
X72793789Y-42253625D01*
X72706808Y-42115196D01*
X72591204Y-41999592D01*
X72532642Y-41962795D01*
X72452774Y-41912610D01*
X72298455Y-41858612D01*
X72136004Y-41840309D01*
X72135996Y-41840309D01*
X71973544Y-41858612D01*
X71819225Y-41912610D01*
X71680795Y-41999592D01*
X71565192Y-42115195D01*
X71478210Y-42253625D01*
X71424212Y-42407944D01*
X71405909Y-42570396D01*
X71405909Y-42570403D01*
X64985372Y-42570403D01*
X64950008Y-42514121D01*
X64834404Y-42398517D01*
X64814628Y-42386091D01*
X64695974Y-42311535D01*
X64541655Y-42257537D01*
X64379204Y-42239234D01*
X64379196Y-42239234D01*
X64216744Y-42257537D01*
X64062425Y-42311535D01*
X63923995Y-42398517D01*
X63808392Y-42514120D01*
X63721410Y-42652550D01*
X63667412Y-42806869D01*
X63649109Y-42969321D01*
X63649109Y-42969328D01*
X57476769Y-42969328D01*
X57506186Y-42885261D01*
X57506186Y-42885259D01*
X57506187Y-42885257D01*
X57524491Y-42722803D01*
X57524491Y-42722796D01*
X57506187Y-42560341D01*
X57488485Y-42509752D01*
X57484924Y-42439973D01*
X57488482Y-42427854D01*
X57506186Y-42377261D01*
X57506187Y-42377255D01*
X57524491Y-42214803D01*
X57524491Y-42214796D01*
X57506187Y-42052344D01*
X57506186Y-42052342D01*
X57506186Y-42052339D01*
X57452189Y-41898025D01*
X57365208Y-41759596D01*
X57249604Y-41643992D01*
X57206976Y-41617207D01*
X57111174Y-41557010D01*
X56956855Y-41503012D01*
X56794404Y-41484709D01*
X56794396Y-41484709D01*
X56631944Y-41503012D01*
X56477625Y-41557010D01*
X56339195Y-41643992D01*
X56223592Y-41759595D01*
X56136610Y-41898025D01*
X56082612Y-42052344D01*
X56064309Y-42214796D01*
X56064309Y-42214803D01*
X56082612Y-42377258D01*
X56093348Y-42407939D01*
X56096867Y-42417996D01*
X56100314Y-42427845D01*
X56103875Y-42497623D01*
X56100314Y-42509752D01*
X56082613Y-42560339D01*
X56082613Y-42560340D01*
X56064309Y-42722796D01*
X56064309Y-42722803D01*
X56082612Y-42885255D01*
X56082614Y-42885263D01*
X56118089Y-42986645D01*
X56121650Y-43056424D01*
X56118089Y-43068552D01*
X56082613Y-43169939D01*
X56082613Y-43169940D01*
X56064309Y-43332396D01*
X56064309Y-43332403D01*
X39370000Y-43332403D01*
X39370000Y-41351203D01*
X67443509Y-41351203D01*
X67461812Y-41513655D01*
X67515810Y-41667974D01*
X67572495Y-41758187D01*
X67602792Y-41806404D01*
X67718396Y-41922008D01*
X67856825Y-42008989D01*
X68011139Y-42062986D01*
X68011142Y-42062986D01*
X68011144Y-42062987D01*
X68173596Y-42081291D01*
X68173600Y-42081291D01*
X68173604Y-42081291D01*
X68336055Y-42062987D01*
X68336056Y-42062986D01*
X68336061Y-42062986D01*
X68490375Y-42008989D01*
X68628804Y-41922008D01*
X68744408Y-41806404D01*
X68831389Y-41667975D01*
X68885386Y-41513661D01*
X68885387Y-41513655D01*
X68903691Y-41351203D01*
X68903691Y-41351196D01*
X68892244Y-41249603D01*
X69983509Y-41249603D01*
X70001812Y-41412055D01*
X70055810Y-41566374D01*
X70104581Y-41643992D01*
X70142792Y-41704804D01*
X70258396Y-41820408D01*
X70396825Y-41907389D01*
X70551139Y-41961386D01*
X70551142Y-41961386D01*
X70551144Y-41961387D01*
X70713596Y-41979691D01*
X70713600Y-41979691D01*
X70713604Y-41979691D01*
X70876055Y-41961387D01*
X70876056Y-41961386D01*
X70876061Y-41961386D01*
X71030375Y-41907389D01*
X71168804Y-41820408D01*
X71284408Y-41704804D01*
X71371389Y-41566375D01*
X71425386Y-41412061D01*
X71429382Y-41376599D01*
X71443691Y-41249603D01*
X71443691Y-41249596D01*
X71425387Y-41087144D01*
X71425386Y-41087142D01*
X71425386Y-41087139D01*
X71411132Y-41046403D01*
X85833109Y-41046403D01*
X85851412Y-41208855D01*
X85905410Y-41363174D01*
X85960086Y-41450189D01*
X85992392Y-41501604D01*
X86107996Y-41617208D01*
X86246425Y-41704189D01*
X86400739Y-41758186D01*
X86400742Y-41758186D01*
X86400744Y-41758187D01*
X86563196Y-41776491D01*
X86563200Y-41776491D01*
X86563204Y-41776491D01*
X86725655Y-41758187D01*
X86725656Y-41758186D01*
X86725661Y-41758186D01*
X86879975Y-41704189D01*
X87018404Y-41617208D01*
X87134008Y-41501604D01*
X87220989Y-41363175D01*
X87274986Y-41208861D01*
X87277253Y-41188744D01*
X87293291Y-41046403D01*
X87293291Y-41046396D01*
X87287568Y-40995603D01*
X91725909Y-40995603D01*
X91744212Y-41158055D01*
X91798210Y-41312374D01*
X91884806Y-41450189D01*
X91885192Y-41450804D01*
X92000796Y-41566408D01*
X92139225Y-41653389D01*
X92293539Y-41707386D01*
X92293542Y-41707386D01*
X92293544Y-41707387D01*
X92455996Y-41725691D01*
X92456000Y-41725691D01*
X92456004Y-41725691D01*
X92618455Y-41707387D01*
X92618456Y-41707386D01*
X92618461Y-41707386D01*
X92765305Y-41656003D01*
X102444709Y-41656003D01*
X102463012Y-41818455D01*
X102517010Y-41972774D01*
X102573695Y-42062987D01*
X102603992Y-42111204D01*
X102719596Y-42226808D01*
X102858025Y-42313789D01*
X103012339Y-42367786D01*
X103012342Y-42367786D01*
X103012344Y-42367787D01*
X103174796Y-42386091D01*
X103174800Y-42386091D01*
X103174804Y-42386091D01*
X103337255Y-42367787D01*
X103337256Y-42367786D01*
X103337261Y-42367786D01*
X103413248Y-42341196D01*
X103483021Y-42337634D01*
X103495144Y-42341194D01*
X103562003Y-42364589D01*
X103571142Y-42367787D01*
X103733596Y-42386091D01*
X103733600Y-42386091D01*
X103733604Y-42386091D01*
X103896055Y-42367787D01*
X103896056Y-42367786D01*
X103896061Y-42367786D01*
X104050375Y-42313789D01*
X104188804Y-42226808D01*
X104304408Y-42111204D01*
X104391389Y-41972775D01*
X104445386Y-41818461D01*
X104450115Y-41776491D01*
X104463691Y-41656003D01*
X104463691Y-41655996D01*
X104445387Y-41493542D01*
X104430217Y-41450189D01*
X104418796Y-41417552D01*
X104415234Y-41347776D01*
X104417868Y-41338803D01*
X109798309Y-41338803D01*
X109816612Y-41501255D01*
X109870610Y-41655574D01*
X109902795Y-41706796D01*
X109957592Y-41794004D01*
X110073196Y-41909608D01*
X110211625Y-41996589D01*
X110365939Y-42050586D01*
X110365942Y-42050586D01*
X110365944Y-42050587D01*
X110528396Y-42068891D01*
X110528400Y-42068891D01*
X110528404Y-42068891D01*
X110690855Y-42050587D01*
X110690856Y-42050586D01*
X110690861Y-42050586D01*
X110845175Y-41996589D01*
X110983604Y-41909608D01*
X111099208Y-41794004D01*
X111154000Y-41706803D01*
X115754309Y-41706803D01*
X115772612Y-41869255D01*
X115826610Y-42023574D01*
X115851375Y-42062987D01*
X115913592Y-42162004D01*
X116029196Y-42277608D01*
X116167625Y-42364589D01*
X116321939Y-42418586D01*
X116321942Y-42418586D01*
X116321944Y-42418587D01*
X116484396Y-42436891D01*
X116484400Y-42436891D01*
X116484404Y-42436891D01*
X116646855Y-42418587D01*
X116646856Y-42418586D01*
X116646861Y-42418586D01*
X116801175Y-42364589D01*
X116939604Y-42277608D01*
X117055208Y-42162004D01*
X117142189Y-42023575D01*
X117196186Y-41869261D01*
X117199448Y-41840309D01*
X117214491Y-41706803D01*
X120072309Y-41706803D01*
X120090612Y-41869255D01*
X120144610Y-42023574D01*
X120169375Y-42062987D01*
X120231592Y-42162004D01*
X120347196Y-42277608D01*
X120485625Y-42364589D01*
X120639939Y-42418586D01*
X120639942Y-42418586D01*
X120639944Y-42418587D01*
X120802396Y-42436891D01*
X120802400Y-42436891D01*
X120802404Y-42436891D01*
X120964855Y-42418587D01*
X120964856Y-42418586D01*
X120964861Y-42418586D01*
X121119175Y-42364589D01*
X121257604Y-42277608D01*
X121373208Y-42162004D01*
X121460189Y-42023575D01*
X121514186Y-41869261D01*
X121517448Y-41840309D01*
X121532491Y-41706803D01*
X121532491Y-41706796D01*
X121514187Y-41544344D01*
X121514186Y-41544342D01*
X121514186Y-41544339D01*
X121460189Y-41390025D01*
X121373208Y-41251596D01*
X121257604Y-41135992D01*
X121179855Y-41087139D01*
X121119174Y-41049010D01*
X120966544Y-40995603D01*
X120964861Y-40995014D01*
X120964860Y-40995013D01*
X120964855Y-40995012D01*
X120802404Y-40976709D01*
X120802396Y-40976709D01*
X120639944Y-40995012D01*
X120485625Y-41049010D01*
X120347195Y-41135992D01*
X120231592Y-41251595D01*
X120144610Y-41390025D01*
X120090612Y-41544344D01*
X120072309Y-41706796D01*
X120072309Y-41706803D01*
X117214491Y-41706803D01*
X117214491Y-41706796D01*
X117196187Y-41544344D01*
X117196186Y-41544342D01*
X117196186Y-41544339D01*
X117142189Y-41390025D01*
X117055208Y-41251596D01*
X116939604Y-41135992D01*
X116861855Y-41087139D01*
X116801174Y-41049010D01*
X116648544Y-40995603D01*
X116646861Y-40995014D01*
X116646860Y-40995013D01*
X116646855Y-40995012D01*
X116484404Y-40976709D01*
X116484396Y-40976709D01*
X116321944Y-40995012D01*
X116167625Y-41049010D01*
X116029195Y-41135992D01*
X115913592Y-41251595D01*
X115826610Y-41390025D01*
X115772612Y-41544344D01*
X115754309Y-41706796D01*
X115754309Y-41706803D01*
X111154000Y-41706803D01*
X111186189Y-41655575D01*
X111240186Y-41501261D01*
X111245871Y-41450804D01*
X111258491Y-41338803D01*
X111258491Y-41338796D01*
X111240187Y-41176344D01*
X111240186Y-41176342D01*
X111240186Y-41176339D01*
X111186189Y-41022025D01*
X111099208Y-40883596D01*
X111008015Y-40792403D01*
X117887909Y-40792403D01*
X117906212Y-40954855D01*
X117960210Y-41109174D01*
X118010208Y-41188744D01*
X118047192Y-41247604D01*
X118162796Y-41363208D01*
X118301225Y-41450189D01*
X118455539Y-41504186D01*
X118455542Y-41504186D01*
X118455544Y-41504187D01*
X118617996Y-41522491D01*
X118618000Y-41522491D01*
X118618004Y-41522491D01*
X118780455Y-41504187D01*
X118780456Y-41504186D01*
X118780461Y-41504186D01*
X118934775Y-41450189D01*
X119073204Y-41363208D01*
X119188808Y-41247604D01*
X119275789Y-41109175D01*
X119329786Y-40954861D01*
X119329787Y-40954855D01*
X119348091Y-40792403D01*
X119348091Y-40792396D01*
X119329787Y-40629944D01*
X119329786Y-40629942D01*
X119329786Y-40629939D01*
X119275789Y-40475625D01*
X119188808Y-40337196D01*
X119073204Y-40221592D01*
X118949678Y-40143975D01*
X118934774Y-40134610D01*
X118780455Y-40080612D01*
X118618004Y-40062309D01*
X118617996Y-40062309D01*
X118455544Y-40080612D01*
X118301225Y-40134610D01*
X118162795Y-40221592D01*
X118047192Y-40337195D01*
X117960210Y-40475625D01*
X117906212Y-40629944D01*
X117887909Y-40792396D01*
X117887909Y-40792403D01*
X111008015Y-40792403D01*
X110983604Y-40767992D01*
X110983603Y-40767992D01*
X110845174Y-40681010D01*
X110690855Y-40627012D01*
X110528404Y-40608709D01*
X110528396Y-40608709D01*
X110365944Y-40627012D01*
X110211625Y-40681010D01*
X110073195Y-40767992D01*
X109957592Y-40883595D01*
X109870610Y-41022025D01*
X109816612Y-41176344D01*
X109798309Y-41338796D01*
X109798309Y-41338803D01*
X104417868Y-41338803D01*
X104418788Y-41335670D01*
X104445386Y-41259661D01*
X104446295Y-41251595D01*
X104463691Y-41097203D01*
X104463691Y-41097196D01*
X104445387Y-40934744D01*
X104445386Y-40934742D01*
X104445386Y-40934739D01*
X104391389Y-40780425D01*
X104304408Y-40641996D01*
X104200815Y-40538403D01*
X106144809Y-40538403D01*
X106163112Y-40700855D01*
X106217110Y-40855174D01*
X106267108Y-40934744D01*
X106304092Y-40993604D01*
X106419696Y-41109208D01*
X106558125Y-41196189D01*
X106712439Y-41250186D01*
X106712442Y-41250186D01*
X106712444Y-41250187D01*
X106874896Y-41268491D01*
X106874900Y-41268491D01*
X106874904Y-41268491D01*
X107037355Y-41250187D01*
X107037356Y-41250186D01*
X107037361Y-41250186D01*
X107191675Y-41196189D01*
X107330104Y-41109208D01*
X107445708Y-40993604D01*
X107532689Y-40855175D01*
X107586686Y-40700861D01*
X107586687Y-40700855D01*
X107604991Y-40538403D01*
X107604991Y-40538396D01*
X107586687Y-40375944D01*
X107586686Y-40375942D01*
X107586686Y-40375939D01*
X107532689Y-40221625D01*
X107445708Y-40083196D01*
X107330104Y-39967592D01*
X107270925Y-39930407D01*
X107191674Y-39880610D01*
X107039044Y-39827203D01*
X107037361Y-39826614D01*
X107037360Y-39826613D01*
X107037355Y-39826612D01*
X106874904Y-39808309D01*
X106874896Y-39808309D01*
X106712444Y-39826612D01*
X106558125Y-39880610D01*
X106419695Y-39967592D01*
X106304092Y-40083195D01*
X106217110Y-40221625D01*
X106163112Y-40375944D01*
X106144809Y-40538396D01*
X106144809Y-40538403D01*
X104200815Y-40538403D01*
X104188804Y-40526392D01*
X104107957Y-40475592D01*
X104050374Y-40439410D01*
X103905197Y-40388611D01*
X103896061Y-40385414D01*
X103896060Y-40385413D01*
X103896055Y-40385412D01*
X103733604Y-40367109D01*
X103733596Y-40367109D01*
X103571140Y-40385413D01*
X103571139Y-40385413D01*
X103495153Y-40412001D01*
X103425374Y-40415562D01*
X103413247Y-40412001D01*
X103337260Y-40385413D01*
X103174804Y-40367109D01*
X103174796Y-40367109D01*
X103012344Y-40385412D01*
X102858025Y-40439410D01*
X102719595Y-40526392D01*
X102603992Y-40641995D01*
X102517010Y-40780425D01*
X102463012Y-40934744D01*
X102444709Y-41097196D01*
X102444709Y-41097203D01*
X102463013Y-41259659D01*
X102463013Y-41259660D01*
X102489601Y-41335646D01*
X102493162Y-41405424D01*
X102489601Y-41417552D01*
X102463013Y-41493539D01*
X102463013Y-41493540D01*
X102444709Y-41655996D01*
X102444709Y-41656003D01*
X92765305Y-41656003D01*
X92772775Y-41653389D01*
X92911204Y-41566408D01*
X93026808Y-41450804D01*
X93113789Y-41312375D01*
X93167786Y-41158061D01*
X93170273Y-41135992D01*
X93186091Y-40995603D01*
X93186091Y-40995596D01*
X93167787Y-40833144D01*
X93167786Y-40833142D01*
X93167786Y-40833139D01*
X93113789Y-40678825D01*
X93026808Y-40540396D01*
X92911204Y-40424792D01*
X92868576Y-40398007D01*
X92772774Y-40337810D01*
X92618455Y-40283812D01*
X92456004Y-40265509D01*
X92455996Y-40265509D01*
X92293544Y-40283812D01*
X92139225Y-40337810D01*
X92000795Y-40424792D01*
X91885192Y-40540395D01*
X91798210Y-40678825D01*
X91744212Y-40833144D01*
X91725909Y-40995596D01*
X91725909Y-40995603D01*
X87287568Y-40995603D01*
X87274987Y-40883944D01*
X87274986Y-40883942D01*
X87274986Y-40883939D01*
X87220989Y-40729625D01*
X87134008Y-40591196D01*
X87018404Y-40475592D01*
X86879974Y-40388610D01*
X86734797Y-40337811D01*
X86725661Y-40334614D01*
X86725660Y-40334613D01*
X86725655Y-40334612D01*
X86563204Y-40316309D01*
X86563196Y-40316309D01*
X86400744Y-40334612D01*
X86246425Y-40388610D01*
X86107995Y-40475592D01*
X85992392Y-40591195D01*
X85905410Y-40729625D01*
X85851412Y-40883944D01*
X85833109Y-41046396D01*
X85833109Y-41046403D01*
X71411132Y-41046403D01*
X71371389Y-40932825D01*
X71284408Y-40794396D01*
X71168804Y-40678792D01*
X71110242Y-40641995D01*
X71030374Y-40591810D01*
X70877744Y-40538403D01*
X70876061Y-40537814D01*
X70876060Y-40537813D01*
X70876055Y-40537812D01*
X70713604Y-40519509D01*
X70713596Y-40519509D01*
X70551144Y-40537812D01*
X70396825Y-40591810D01*
X70258395Y-40678792D01*
X70142792Y-40794395D01*
X70055810Y-40932825D01*
X70001812Y-41087144D01*
X69983509Y-41249596D01*
X69983509Y-41249603D01*
X68892244Y-41249603D01*
X68885387Y-41188744D01*
X68885386Y-41188742D01*
X68885386Y-41188739D01*
X68831389Y-41034425D01*
X68744408Y-40895996D01*
X68628804Y-40780392D01*
X68502232Y-40700861D01*
X68490374Y-40693410D01*
X68336055Y-40639412D01*
X68173604Y-40621109D01*
X68173596Y-40621109D01*
X68011144Y-40639412D01*
X67856825Y-40693410D01*
X67718395Y-40780392D01*
X67602792Y-40895995D01*
X67515810Y-41034425D01*
X67461812Y-41188744D01*
X67443509Y-41351196D01*
X67443509Y-41351203D01*
X39370000Y-41351203D01*
X39370000Y-40215203D01*
X48088709Y-40215203D01*
X48107012Y-40377655D01*
X48161010Y-40531974D01*
X48209226Y-40608709D01*
X48247992Y-40670404D01*
X48363596Y-40786008D01*
X48502025Y-40872989D01*
X48656339Y-40926986D01*
X48656342Y-40926986D01*
X48656344Y-40926987D01*
X48818796Y-40945291D01*
X48818800Y-40945291D01*
X48818804Y-40945291D01*
X48981255Y-40926987D01*
X48981256Y-40926986D01*
X48981261Y-40926986D01*
X49135575Y-40872989D01*
X49274004Y-40786008D01*
X49389608Y-40670404D01*
X49476589Y-40531975D01*
X49530586Y-40377661D01*
X49530587Y-40377655D01*
X49548891Y-40215203D01*
X49548891Y-40215196D01*
X49530587Y-40052744D01*
X49530586Y-40052742D01*
X49530586Y-40052739D01*
X49476589Y-39898425D01*
X49389608Y-39759996D01*
X49274004Y-39644392D01*
X49241555Y-39624003D01*
X49135574Y-39557410D01*
X48981255Y-39503412D01*
X48818804Y-39485109D01*
X48818796Y-39485109D01*
X48656344Y-39503412D01*
X48502025Y-39557410D01*
X48363595Y-39644392D01*
X48247992Y-39759995D01*
X48161010Y-39898425D01*
X48107012Y-40052744D01*
X48088709Y-40215196D01*
X48088709Y-40215203D01*
X39370000Y-40215203D01*
X39370000Y-38234003D01*
X48099909Y-38234003D01*
X48118212Y-38396455D01*
X48172210Y-38550774D01*
X48214819Y-38618585D01*
X48259192Y-38689204D01*
X48374796Y-38804808D01*
X48513225Y-38891789D01*
X48667539Y-38945786D01*
X48667542Y-38945786D01*
X48667544Y-38945787D01*
X48829996Y-38964091D01*
X48830000Y-38964091D01*
X48830004Y-38964091D01*
X48992455Y-38945787D01*
X48992456Y-38945786D01*
X48992461Y-38945786D01*
X49146775Y-38891789D01*
X49285204Y-38804808D01*
X49400808Y-38689204D01*
X49487789Y-38550775D01*
X49541786Y-38396461D01*
X49545437Y-38364061D01*
X49560091Y-38234003D01*
X49560091Y-38233996D01*
X49556441Y-38201603D01*
X52051109Y-38201603D01*
X52069412Y-38364055D01*
X52123410Y-38518374D01*
X52189549Y-38623633D01*
X52210392Y-38656804D01*
X52325996Y-38772408D01*
X52464425Y-38859389D01*
X52618739Y-38913386D01*
X52618742Y-38913386D01*
X52618744Y-38913387D01*
X52781196Y-38931691D01*
X52781200Y-38931691D01*
X52781204Y-38931691D01*
X52943655Y-38913387D01*
X52943656Y-38913386D01*
X52943661Y-38913386D01*
X53097975Y-38859389D01*
X53236404Y-38772408D01*
X53352008Y-38656804D01*
X53438989Y-38518375D01*
X53492986Y-38364061D01*
X53492987Y-38364055D01*
X53511291Y-38201603D01*
X53511291Y-38201596D01*
X53492987Y-38039144D01*
X53492986Y-38039142D01*
X53492986Y-38039139D01*
X53438989Y-37884825D01*
X53352008Y-37746396D01*
X53236404Y-37630792D01*
X53204732Y-37610891D01*
X53097974Y-37543810D01*
X52959893Y-37495494D01*
X52943661Y-37489814D01*
X52943660Y-37489813D01*
X52943655Y-37489812D01*
X52781204Y-37471509D01*
X52781196Y-37471509D01*
X52618744Y-37489812D01*
X52464425Y-37543810D01*
X52325995Y-37630792D01*
X52210392Y-37746395D01*
X52123410Y-37884825D01*
X52069412Y-38039144D01*
X52051109Y-38201596D01*
X52051109Y-38201603D01*
X49556441Y-38201603D01*
X49541787Y-38071544D01*
X49541786Y-38071542D01*
X49541786Y-38071539D01*
X49487789Y-37917225D01*
X49400808Y-37778796D01*
X49285204Y-37663192D01*
X49271861Y-37654808D01*
X49146774Y-37576210D01*
X48992455Y-37522212D01*
X48830004Y-37503909D01*
X48829996Y-37503909D01*
X48667544Y-37522212D01*
X48513225Y-37576210D01*
X48374795Y-37663192D01*
X48259192Y-37778795D01*
X48172210Y-37917225D01*
X48118212Y-38071544D01*
X48099909Y-38233996D01*
X48099909Y-38234003D01*
X39370000Y-38234003D01*
X39370000Y-36264003D01*
X48099909Y-36264003D01*
X48118212Y-36426455D01*
X48172210Y-36580774D01*
X48226732Y-36667544D01*
X48259192Y-36719204D01*
X48374796Y-36834808D01*
X48513225Y-36921789D01*
X48667539Y-36975786D01*
X48667542Y-36975786D01*
X48667544Y-36975787D01*
X48829996Y-36994091D01*
X48830000Y-36994091D01*
X48830004Y-36994091D01*
X48992455Y-36975787D01*
X48992456Y-36975786D01*
X48992461Y-36975786D01*
X49146775Y-36921789D01*
X49285204Y-36834808D01*
X49400808Y-36719204D01*
X49487789Y-36580775D01*
X49541786Y-36426461D01*
X49541787Y-36426455D01*
X49560091Y-36264003D01*
X49560091Y-36263996D01*
X49555179Y-36220403D01*
X52051109Y-36220403D01*
X52069412Y-36382855D01*
X52123410Y-36537174D01*
X52180095Y-36627387D01*
X52210392Y-36675604D01*
X52325996Y-36791208D01*
X52464425Y-36878189D01*
X52618739Y-36932186D01*
X52618742Y-36932186D01*
X52618744Y-36932187D01*
X52781196Y-36950491D01*
X52781200Y-36950491D01*
X52781204Y-36950491D01*
X52943655Y-36932187D01*
X52943656Y-36932186D01*
X52943661Y-36932186D01*
X53097975Y-36878189D01*
X53236404Y-36791208D01*
X53352008Y-36675604D01*
X53438989Y-36537175D01*
X53492986Y-36382861D01*
X53493049Y-36382306D01*
X53511291Y-36220403D01*
X53511291Y-36220396D01*
X53492987Y-36057944D01*
X53492986Y-36057942D01*
X53492986Y-36057939D01*
X53438989Y-35903625D01*
X53352008Y-35765196D01*
X53236404Y-35649592D01*
X53190679Y-35620861D01*
X53097974Y-35562610D01*
X52943655Y-35508612D01*
X52781204Y-35490309D01*
X52781196Y-35490309D01*
X52618744Y-35508612D01*
X52464425Y-35562610D01*
X52325995Y-35649592D01*
X52210392Y-35765195D01*
X52123410Y-35903625D01*
X52069412Y-36057944D01*
X52051109Y-36220396D01*
X52051109Y-36220403D01*
X49555179Y-36220403D01*
X49541787Y-36101544D01*
X49541786Y-36101542D01*
X49541786Y-36101539D01*
X49487789Y-35947225D01*
X49400808Y-35808796D01*
X49285204Y-35693192D01*
X49245571Y-35668289D01*
X49146774Y-35606210D01*
X48992455Y-35552212D01*
X48830004Y-35533909D01*
X48829996Y-35533909D01*
X48667544Y-35552212D01*
X48513225Y-35606210D01*
X48374795Y-35693192D01*
X48259192Y-35808795D01*
X48172210Y-35947225D01*
X48118212Y-36101544D01*
X48099909Y-36263996D01*
X48099909Y-36264003D01*
X39370000Y-36264003D01*
X39370000Y-30632403D01*
X49307909Y-30632403D01*
X49326212Y-30794855D01*
X49380210Y-30949174D01*
X49430208Y-31028744D01*
X49467192Y-31087604D01*
X49582796Y-31203208D01*
X49721225Y-31290189D01*
X49875539Y-31344186D01*
X49875542Y-31344186D01*
X49875544Y-31344187D01*
X50037996Y-31362491D01*
X50038000Y-31362491D01*
X50038004Y-31362491D01*
X50200457Y-31344187D01*
X50200459Y-31344186D01*
X50200461Y-31344186D01*
X50354775Y-31290189D01*
X50354781Y-31290184D01*
X50361048Y-31287168D01*
X50361835Y-31288803D01*
X50420229Y-31272285D01*
X50476206Y-31288715D01*
X50476952Y-31287168D01*
X50483221Y-31290186D01*
X50483225Y-31290189D01*
X50637539Y-31344186D01*
X50637542Y-31344187D01*
X50799996Y-31362491D01*
X50800000Y-31362491D01*
X50800004Y-31362491D01*
X50962455Y-31344187D01*
X50962456Y-31344186D01*
X50962461Y-31344186D01*
X51116775Y-31290189D01*
X51255204Y-31203208D01*
X51370808Y-31087604D01*
X51457789Y-30949175D01*
X51511786Y-30794861D01*
X51518325Y-30736825D01*
X51530091Y-30632403D01*
X51530091Y-30632396D01*
X51511787Y-30469943D01*
X51508696Y-30461109D01*
X51505701Y-30452551D01*
X51502138Y-30382775D01*
X51535059Y-30323917D01*
X52096128Y-29762847D01*
X52157451Y-29729363D01*
X52227143Y-29734347D01*
X52283076Y-29776219D01*
X52307029Y-29836646D01*
X52323412Y-29982055D01*
X52377410Y-30136374D01*
X52429688Y-30219573D01*
X52464392Y-30274804D01*
X52579996Y-30390408D01*
X52718425Y-30477389D01*
X52872739Y-30531386D01*
X52872742Y-30531386D01*
X52872744Y-30531387D01*
X53035196Y-30549691D01*
X53035200Y-30549691D01*
X53035204Y-30549691D01*
X53197655Y-30531387D01*
X53197656Y-30531386D01*
X53197661Y-30531386D01*
X53351975Y-30477389D01*
X53490404Y-30390408D01*
X53606008Y-30274804D01*
X53692989Y-30136375D01*
X53746986Y-29982061D01*
X53746987Y-29982055D01*
X53765291Y-29819603D01*
X53765291Y-29819596D01*
X53746987Y-29657144D01*
X53746986Y-29657142D01*
X53746986Y-29657139D01*
X53692989Y-29502825D01*
X53606008Y-29364396D01*
X53490404Y-29248792D01*
X53409173Y-29197751D01*
X53351974Y-29161810D01*
X53197655Y-29107812D01*
X53052246Y-29091429D01*
X52987832Y-29064363D01*
X52948277Y-29006768D01*
X52946140Y-28936931D01*
X52978448Y-28880529D01*
X53184458Y-28674519D01*
X53245782Y-28641034D01*
X53272140Y-28638200D01*
X55116384Y-28638200D01*
X55183423Y-28657885D01*
X55229178Y-28710689D01*
X55239122Y-28779847D01*
X55233425Y-28803155D01*
X55219012Y-28844342D01*
X55200709Y-29006796D01*
X55200709Y-29006803D01*
X55219012Y-29169255D01*
X55273010Y-29323574D01*
X55315486Y-29391174D01*
X55359992Y-29462004D01*
X55475596Y-29577608D01*
X55567285Y-29635220D01*
X55613575Y-29687554D01*
X55624223Y-29756607D01*
X55595848Y-29820456D01*
X55542267Y-29857254D01*
X55433227Y-29895409D01*
X55294795Y-29982392D01*
X55179192Y-30097995D01*
X55092210Y-30236425D01*
X55038212Y-30390744D01*
X55019909Y-30553196D01*
X55019909Y-30553203D01*
X55038212Y-30715655D01*
X55092210Y-30869974D01*
X55127195Y-30925652D01*
X55179192Y-31008404D01*
X55294796Y-31124008D01*
X55433225Y-31210989D01*
X55587539Y-31264986D01*
X55587542Y-31264986D01*
X55587544Y-31264987D01*
X55749996Y-31283291D01*
X55750000Y-31283291D01*
X55750004Y-31283291D01*
X55912455Y-31264987D01*
X55912456Y-31264986D01*
X55912461Y-31264986D01*
X56066775Y-31210989D01*
X56205204Y-31124008D01*
X56320808Y-31008404D01*
X56407789Y-30869975D01*
X56461786Y-30715661D01*
X56462865Y-30706085D01*
X56480091Y-30553203D01*
X56480091Y-30553196D01*
X56461787Y-30390744D01*
X56461786Y-30390742D01*
X56461786Y-30390739D01*
X56407789Y-30236425D01*
X56320808Y-30097996D01*
X56205204Y-29982392D01*
X56113514Y-29924779D01*
X56067224Y-29872445D01*
X56056576Y-29803392D01*
X56084951Y-29739543D01*
X56138531Y-29702745D01*
X56247575Y-29664589D01*
X56386004Y-29577608D01*
X56501608Y-29462004D01*
X56588589Y-29323575D01*
X56642586Y-29169261D01*
X56642587Y-29169255D01*
X56660891Y-29006803D01*
X56660891Y-29006796D01*
X56642587Y-28844342D01*
X56628175Y-28803155D01*
X56624613Y-28733376D01*
X56659341Y-28672749D01*
X56721335Y-28640521D01*
X56745216Y-28638200D01*
X59418003Y-28638200D01*
X59485042Y-28657885D01*
X59530797Y-28710689D01*
X59540741Y-28779847D01*
X59511716Y-28843403D01*
X59505685Y-28849879D01*
X58333818Y-30021746D01*
X57162496Y-31193068D01*
X57156394Y-31198419D01*
X57128120Y-31220115D01*
X57128117Y-31220118D01*
X57128118Y-31220118D01*
X57096267Y-31261627D01*
X57096266Y-31261627D01*
X57031864Y-31345557D01*
X56971356Y-31491637D01*
X56971355Y-31491639D01*
X56950718Y-31648398D01*
X56955368Y-31683728D01*
X56955899Y-31691828D01*
X56955900Y-35217925D01*
X56936894Y-35283897D01*
X56898610Y-35344824D01*
X56844612Y-35499144D01*
X56826309Y-35661596D01*
X56826309Y-35661603D01*
X56844612Y-35824055D01*
X56844613Y-35824060D01*
X56844614Y-35824061D01*
X56849600Y-35838310D01*
X56898610Y-35978374D01*
X56964460Y-36083173D01*
X56985592Y-36116804D01*
X57101196Y-36232408D01*
X57239625Y-36319389D01*
X57239630Y-36319392D01*
X57245900Y-36322412D01*
X57244701Y-36324900D01*
X57291306Y-36358298D01*
X57317081Y-36423239D01*
X57303654Y-36491807D01*
X57281289Y-36522340D01*
X56806896Y-36996734D01*
X56800794Y-37002085D01*
X56772520Y-37023781D01*
X56772517Y-37023784D01*
X56772518Y-37023784D01*
X56729319Y-37080082D01*
X56729318Y-37080082D01*
X56676264Y-37149223D01*
X56615756Y-37295303D01*
X56615755Y-37295305D01*
X56595118Y-37452064D01*
X56595118Y-37452065D01*
X56599769Y-37487392D01*
X56600300Y-37495494D01*
X56600300Y-39383525D01*
X56581294Y-39449497D01*
X56543010Y-39510424D01*
X56489012Y-39664744D01*
X56470709Y-39827196D01*
X56470709Y-39827203D01*
X56489012Y-39989655D01*
X56543010Y-40143974D01*
X56591781Y-40221592D01*
X56629992Y-40282404D01*
X56745596Y-40398008D01*
X56884025Y-40484989D01*
X57038339Y-40538986D01*
X57038342Y-40538986D01*
X57038344Y-40538987D01*
X57200796Y-40557291D01*
X57200800Y-40557291D01*
X57200804Y-40557291D01*
X57363255Y-40538987D01*
X57363256Y-40538986D01*
X57363261Y-40538986D01*
X57517575Y-40484989D01*
X57656004Y-40398008D01*
X57771608Y-40282404D01*
X57858589Y-40143975D01*
X57912586Y-39989661D01*
X57917315Y-39947691D01*
X57930891Y-39827203D01*
X57930891Y-39827196D01*
X57912587Y-39664744D01*
X57912586Y-39664742D01*
X57912586Y-39664739D01*
X57872220Y-39549381D01*
X57858589Y-39510424D01*
X57820306Y-39449497D01*
X57801300Y-39383525D01*
X57801300Y-39337430D01*
X57820985Y-39270391D01*
X57873789Y-39224636D01*
X57942947Y-39214692D01*
X57966255Y-39220388D01*
X58105139Y-39268986D01*
X58105142Y-39268986D01*
X58105144Y-39268987D01*
X58267596Y-39287291D01*
X58267600Y-39287291D01*
X58267604Y-39287291D01*
X58430055Y-39268987D01*
X58430056Y-39268986D01*
X58430061Y-39268986D01*
X58584375Y-39214989D01*
X58722804Y-39128008D01*
X58838408Y-39012404D01*
X58925389Y-38873975D01*
X58979386Y-38719661D01*
X58981776Y-38698443D01*
X59008842Y-38634030D01*
X59066436Y-38594474D01*
X59121181Y-38589387D01*
X59232800Y-38604082D01*
X59268129Y-38599430D01*
X59276228Y-38598900D01*
X60951238Y-38598900D01*
X61018277Y-38618585D01*
X61064032Y-38671389D01*
X61073976Y-38740547D01*
X61044951Y-38804103D01*
X61038919Y-38810581D01*
X60958392Y-38891107D01*
X60871410Y-39029537D01*
X60817412Y-39183856D01*
X60799109Y-39346308D01*
X60799109Y-39346315D01*
X60817412Y-39508767D01*
X60871410Y-39663086D01*
X60948932Y-39786461D01*
X60958392Y-39801516D01*
X61073996Y-39917120D01*
X61212425Y-40004101D01*
X61366739Y-40058098D01*
X61366742Y-40058098D01*
X61366744Y-40058099D01*
X61529196Y-40076403D01*
X61529200Y-40076403D01*
X61529204Y-40076403D01*
X61691655Y-40058099D01*
X61691656Y-40058098D01*
X61691661Y-40058098D01*
X61845975Y-40004101D01*
X61984404Y-39917120D01*
X62084877Y-39816646D01*
X62146196Y-39783164D01*
X62215888Y-39788148D01*
X62260236Y-39816648D01*
X62373996Y-39930408D01*
X62512425Y-40017389D01*
X62666739Y-40071386D01*
X62666742Y-40071386D01*
X62666744Y-40071387D01*
X62829196Y-40089691D01*
X62829200Y-40089691D01*
X62829204Y-40089691D01*
X62991655Y-40071387D01*
X62991656Y-40071386D01*
X62991661Y-40071386D01*
X63145975Y-40017389D01*
X63284404Y-39930408D01*
X63400008Y-39814804D01*
X63486989Y-39676375D01*
X63540986Y-39522061D01*
X63542297Y-39510425D01*
X63559291Y-39359603D01*
X63559291Y-39359596D01*
X63540987Y-39197144D01*
X63540986Y-39197142D01*
X63540986Y-39197139D01*
X63486989Y-39042825D01*
X63400008Y-38904396D01*
X63306192Y-38810581D01*
X63272708Y-38749258D01*
X63277692Y-38679566D01*
X63319564Y-38623633D01*
X63385028Y-38599216D01*
X63393874Y-38598900D01*
X65774166Y-38598900D01*
X65841205Y-38618585D01*
X65886960Y-38671389D01*
X65896904Y-38740547D01*
X65891208Y-38763852D01*
X65887013Y-38775840D01*
X65887012Y-38775842D01*
X65868709Y-38938296D01*
X65868709Y-38938303D01*
X65887012Y-39100755D01*
X65887013Y-39100760D01*
X65887014Y-39100761D01*
X65894179Y-39121239D01*
X65941010Y-39255074D01*
X66019541Y-39380055D01*
X66027992Y-39393504D01*
X66143596Y-39509108D01*
X66282025Y-39596089D01*
X66436339Y-39650086D01*
X66436342Y-39650086D01*
X66436344Y-39650087D01*
X66598796Y-39668391D01*
X66598800Y-39668391D01*
X66598804Y-39668391D01*
X66761255Y-39650087D01*
X66761256Y-39650086D01*
X66761261Y-39650086D01*
X66915575Y-39596089D01*
X67054004Y-39509108D01*
X67169608Y-39393504D01*
X67256589Y-39255075D01*
X67310586Y-39100761D01*
X67310587Y-39100755D01*
X67328891Y-38938303D01*
X67328891Y-38938296D01*
X67310587Y-38775842D01*
X67310586Y-38775840D01*
X67310468Y-38775504D01*
X67306392Y-38763852D01*
X67302831Y-38694074D01*
X67337561Y-38633447D01*
X67399555Y-38601221D01*
X67423434Y-38598900D01*
X75747503Y-38598900D01*
X75814542Y-38618585D01*
X75835184Y-38635219D01*
X76455869Y-39255904D01*
X76461220Y-39262005D01*
X76482918Y-39290282D01*
X76599918Y-39380059D01*
X76599919Y-39380060D01*
X76604431Y-39383521D01*
X76608359Y-39386536D01*
X76608362Y-39386537D01*
X76608365Y-39386539D01*
X76687337Y-39419250D01*
X76754438Y-39447044D01*
X76832819Y-39457363D01*
X76911199Y-39467682D01*
X76911200Y-39467682D01*
X76946529Y-39463030D01*
X76954628Y-39462500D01*
X78728551Y-39462500D01*
X78795590Y-39482185D01*
X78841345Y-39534989D01*
X78845590Y-39545539D01*
X78862688Y-39594403D01*
X78895010Y-39686774D01*
X78981991Y-39825204D01*
X78981992Y-39825204D01*
X79097596Y-39940808D01*
X79236025Y-40027789D01*
X79390339Y-40081786D01*
X79390342Y-40081786D01*
X79390344Y-40081787D01*
X79552796Y-40100091D01*
X79552800Y-40100091D01*
X79552804Y-40100091D01*
X79715255Y-40081787D01*
X79715256Y-40081786D01*
X79715261Y-40081786D01*
X79869575Y-40027789D01*
X80008004Y-39940808D01*
X80123608Y-39825204D01*
X80210589Y-39686775D01*
X80232555Y-39624000D01*
X80266887Y-39525888D01*
X80268665Y-39526510D01*
X80297245Y-39474788D01*
X80324019Y-39448015D01*
X80385344Y-39414533D01*
X80411698Y-39411700D01*
X84032738Y-39411700D01*
X84040836Y-39412230D01*
X84076166Y-39416882D01*
X84076167Y-39416882D01*
X84128420Y-39410002D01*
X84232928Y-39396244D01*
X84379007Y-39335736D01*
X84403158Y-39317204D01*
X84504448Y-39239482D01*
X84526150Y-39211198D01*
X84531476Y-39205123D01*
X86398597Y-37338003D01*
X92335509Y-37338003D01*
X92353812Y-37500455D01*
X92407810Y-37654774D01*
X92494792Y-37793204D01*
X92610396Y-37908808D01*
X92748825Y-37995789D01*
X92903139Y-38049786D01*
X92903142Y-38049786D01*
X92903144Y-38049787D01*
X93065596Y-38068091D01*
X93065600Y-38068091D01*
X93065604Y-38068091D01*
X93228055Y-38049787D01*
X93228056Y-38049786D01*
X93228061Y-38049786D01*
X93382375Y-37995789D01*
X93520804Y-37908808D01*
X93636408Y-37793204D01*
X93723389Y-37654775D01*
X93777386Y-37500461D01*
X93777387Y-37500455D01*
X93795691Y-37338003D01*
X93795691Y-37337996D01*
X93777387Y-37175544D01*
X93777386Y-37175542D01*
X93777386Y-37175539D01*
X93723389Y-37021225D01*
X93636408Y-36882796D01*
X93520804Y-36767192D01*
X93397278Y-36689575D01*
X93382374Y-36680210D01*
X93228055Y-36626212D01*
X93065604Y-36607909D01*
X93065596Y-36607909D01*
X92903144Y-36626212D01*
X92748825Y-36680210D01*
X92610395Y-36767192D01*
X92494792Y-36882795D01*
X92407810Y-37021225D01*
X92353812Y-37175544D01*
X92335509Y-37337996D01*
X92335509Y-37338003D01*
X86398597Y-37338003D01*
X87111381Y-36625219D01*
X87172705Y-36591734D01*
X87199063Y-36588900D01*
X87259772Y-36588900D01*
X87267870Y-36589430D01*
X87303200Y-36594082D01*
X87303201Y-36594082D01*
X87373514Y-36584825D01*
X87459962Y-36573444D01*
X87606041Y-36512936D01*
X87688264Y-36449844D01*
X87731482Y-36416682D01*
X87753183Y-36388399D01*
X87758511Y-36382322D01*
X87937990Y-36202843D01*
X87989709Y-36174261D01*
X87989088Y-36172487D01*
X88149972Y-36116190D01*
X88149971Y-36116190D01*
X88149975Y-36116189D01*
X88288404Y-36029208D01*
X88404008Y-35913604D01*
X88490989Y-35775175D01*
X88544986Y-35620861D01*
X88544987Y-35620855D01*
X88551843Y-35560003D01*
X89643109Y-35560003D01*
X89661412Y-35722455D01*
X89715410Y-35876774D01*
X89764202Y-35954425D01*
X89802392Y-36015204D01*
X89917996Y-36130808D01*
X90056425Y-36217789D01*
X90210739Y-36271786D01*
X90210742Y-36271786D01*
X90210744Y-36271787D01*
X90373196Y-36290091D01*
X90373200Y-36290091D01*
X90373204Y-36290091D01*
X90535655Y-36271787D01*
X90535656Y-36271786D01*
X90535661Y-36271786D01*
X90689975Y-36217789D01*
X90828404Y-36130808D01*
X90944008Y-36015204D01*
X91030989Y-35876775D01*
X91084986Y-35722461D01*
X91087253Y-35702344D01*
X91103291Y-35560003D01*
X91103291Y-35559996D01*
X91084987Y-35397544D01*
X91084986Y-35397542D01*
X91084986Y-35397539D01*
X91044068Y-35280603D01*
X92056109Y-35280603D01*
X92074412Y-35443055D01*
X92128410Y-35597374D01*
X92172969Y-35668289D01*
X92215392Y-35735804D01*
X92330996Y-35851408D01*
X92469425Y-35938389D01*
X92623739Y-35992386D01*
X92623742Y-35992386D01*
X92623744Y-35992387D01*
X92786196Y-36010691D01*
X92786200Y-36010691D01*
X92786204Y-36010691D01*
X92948655Y-35992387D01*
X92948656Y-35992386D01*
X92948661Y-35992386D01*
X93102975Y-35938389D01*
X93241404Y-35851408D01*
X93357008Y-35735804D01*
X93443989Y-35597375D01*
X93497986Y-35443061D01*
X93501757Y-35409595D01*
X93516291Y-35280603D01*
X93516291Y-35280596D01*
X93497987Y-35118144D01*
X93497986Y-35118142D01*
X93497986Y-35118139D01*
X93443989Y-34963825D01*
X93435555Y-34950403D01*
X97364709Y-34950403D01*
X97383012Y-35112855D01*
X97437010Y-35267174D01*
X97479028Y-35334044D01*
X97523992Y-35405604D01*
X97639596Y-35521208D01*
X97760813Y-35597374D01*
X97778025Y-35608189D01*
X97920625Y-35658087D01*
X97977402Y-35698809D01*
X97996713Y-35734175D01*
X98046610Y-35876774D01*
X98093393Y-35951228D01*
X98112393Y-36018464D01*
X98093393Y-36083172D01*
X98046610Y-36157625D01*
X97992612Y-36311944D01*
X97974309Y-36474396D01*
X97974309Y-36474403D01*
X97992612Y-36636855D01*
X98046610Y-36791174D01*
X98098206Y-36873288D01*
X98133592Y-36929604D01*
X98249196Y-37045208D01*
X98387625Y-37132189D01*
X98541939Y-37186186D01*
X98541942Y-37186186D01*
X98541944Y-37186187D01*
X98704396Y-37204491D01*
X98704400Y-37204491D01*
X98704404Y-37204491D01*
X98866855Y-37186187D01*
X98866856Y-37186186D01*
X98866861Y-37186186D01*
X99021175Y-37132189D01*
X99159604Y-37045208D01*
X99275208Y-36929604D01*
X99337792Y-36830003D01*
X101073109Y-36830003D01*
X101091412Y-36992455D01*
X101145410Y-37146774D01*
X101203366Y-37239010D01*
X101232392Y-37285204D01*
X101347996Y-37400808D01*
X101486425Y-37487789D01*
X101640739Y-37541786D01*
X101640742Y-37541786D01*
X101640744Y-37541787D01*
X101803196Y-37560091D01*
X101803200Y-37560091D01*
X101803204Y-37560091D01*
X101965657Y-37541787D01*
X101965659Y-37541786D01*
X101965661Y-37541786D01*
X102117846Y-37488533D01*
X102187623Y-37484972D01*
X102199749Y-37488532D01*
X102208022Y-37491427D01*
X102239852Y-37502565D01*
X102296627Y-37543287D01*
X102322116Y-37605722D01*
X102336013Y-37729058D01*
X102336013Y-37729060D01*
X102336014Y-37729061D01*
X102369113Y-37823655D01*
X102370858Y-37828640D01*
X102374419Y-37898418D01*
X102370858Y-37910547D01*
X102361413Y-37937539D01*
X102361413Y-37937540D01*
X102343109Y-38099996D01*
X102343109Y-38100003D01*
X102361412Y-38262455D01*
X102415410Y-38416774D01*
X102415411Y-38416775D01*
X102502392Y-38555204D01*
X102617996Y-38670808D01*
X102756425Y-38757789D01*
X102910739Y-38811786D01*
X102910742Y-38811786D01*
X102910744Y-38811787D01*
X103042756Y-38826661D01*
X103107170Y-38853727D01*
X103146725Y-38911322D01*
X103148863Y-38981159D01*
X103145915Y-38990835D01*
X103123412Y-39055144D01*
X103105109Y-39217596D01*
X103105109Y-39217603D01*
X103123412Y-39380055D01*
X103177410Y-39534374D01*
X103233724Y-39623996D01*
X103264392Y-39672804D01*
X103379996Y-39788408D01*
X103518425Y-39875389D01*
X103672739Y-39929386D01*
X103672742Y-39929386D01*
X103672744Y-39929387D01*
X103835196Y-39947691D01*
X103835200Y-39947691D01*
X103835204Y-39947691D01*
X103997655Y-39929387D01*
X103997656Y-39929386D01*
X103997661Y-39929386D01*
X104151975Y-39875389D01*
X104290404Y-39788408D01*
X104406008Y-39672804D01*
X104436671Y-39624003D01*
X108489909Y-39624003D01*
X108508212Y-39786455D01*
X108562210Y-39940774D01*
X108579061Y-39967592D01*
X108649192Y-40079204D01*
X108764796Y-40194808D01*
X108903225Y-40281789D01*
X109057539Y-40335786D01*
X109057542Y-40335786D01*
X109057544Y-40335787D01*
X109219996Y-40354091D01*
X109220000Y-40354091D01*
X109220004Y-40354091D01*
X109382455Y-40335787D01*
X109382456Y-40335786D01*
X109382461Y-40335786D01*
X109536775Y-40281789D01*
X109675204Y-40194808D01*
X109790808Y-40079204D01*
X109877789Y-39940775D01*
X109931786Y-39786461D01*
X109931787Y-39786455D01*
X109950091Y-39624003D01*
X109950091Y-39623996D01*
X109931787Y-39461544D01*
X109931786Y-39461542D01*
X109931786Y-39461539D01*
X109877789Y-39307225D01*
X109790808Y-39168796D01*
X109675204Y-39053192D01*
X109643532Y-39033291D01*
X109536774Y-38966210D01*
X109382455Y-38912212D01*
X109220004Y-38893909D01*
X109219996Y-38893909D01*
X109057544Y-38912212D01*
X108903225Y-38966210D01*
X108764795Y-39053192D01*
X108649192Y-39168795D01*
X108562210Y-39307225D01*
X108508212Y-39461544D01*
X108489909Y-39623996D01*
X108489909Y-39624003D01*
X104436671Y-39624003D01*
X104483561Y-39549378D01*
X104522578Y-39510361D01*
X104646004Y-39432808D01*
X104761608Y-39317204D01*
X104839161Y-39193778D01*
X104878178Y-39154761D01*
X105001604Y-39077208D01*
X105117208Y-38961604D01*
X105204189Y-38823175D01*
X105258186Y-38668861D01*
X105259545Y-38656804D01*
X105276491Y-38506403D01*
X105276491Y-38506396D01*
X105258187Y-38343944D01*
X105258186Y-38343942D01*
X105258186Y-38343939D01*
X105204189Y-38189625D01*
X105117208Y-38051196D01*
X105001604Y-37935592D01*
X104948326Y-37902115D01*
X104863174Y-37848610D01*
X104708855Y-37794612D01*
X104546404Y-37776309D01*
X104546395Y-37776309D01*
X104464574Y-37785527D01*
X104395752Y-37773472D01*
X104344374Y-37726122D01*
X104327451Y-37661203D01*
X116937909Y-37661203D01*
X116956212Y-37823655D01*
X117010210Y-37977974D01*
X117097191Y-38116403D01*
X117097192Y-38116404D01*
X117212796Y-38232008D01*
X117351225Y-38318989D01*
X117505539Y-38372986D01*
X117505542Y-38372986D01*
X117505544Y-38372987D01*
X117667996Y-38391291D01*
X117668000Y-38391291D01*
X117668004Y-38391291D01*
X117830455Y-38372987D01*
X117830456Y-38372986D01*
X117830461Y-38372986D01*
X117984775Y-38318989D01*
X118123204Y-38232008D01*
X118238808Y-38116404D01*
X118325789Y-37977975D01*
X118379786Y-37823661D01*
X118382569Y-37798962D01*
X118398091Y-37661203D01*
X118837909Y-37661203D01*
X118856212Y-37823655D01*
X118910210Y-37977974D01*
X118997192Y-38116404D01*
X119112796Y-38232008D01*
X119251225Y-38318989D01*
X119405539Y-38372986D01*
X119405542Y-38372986D01*
X119405544Y-38372987D01*
X119567996Y-38391291D01*
X119568000Y-38391291D01*
X119568004Y-38391291D01*
X119730455Y-38372987D01*
X119730456Y-38372986D01*
X119730461Y-38372986D01*
X119884775Y-38318989D01*
X119941914Y-38283085D01*
X120009151Y-38264085D01*
X120075986Y-38284452D01*
X120121200Y-38337720D01*
X120131107Y-38374195D01*
X120141412Y-38465655D01*
X120195410Y-38619974D01*
X120244717Y-38698445D01*
X120282392Y-38758404D01*
X120397996Y-38874008D01*
X120536425Y-38960989D01*
X120690739Y-39014986D01*
X120690742Y-39014986D01*
X120690744Y-39014987D01*
X120853196Y-39033291D01*
X120853200Y-39033291D01*
X120853204Y-39033291D01*
X121015657Y-39014987D01*
X121015659Y-39014986D01*
X121015661Y-39014986D01*
X121169975Y-38960989D01*
X121204003Y-38939607D01*
X121271238Y-38920606D01*
X121335947Y-38939606D01*
X121450825Y-39011789D01*
X121605139Y-39065786D01*
X121605142Y-39065786D01*
X121605144Y-39065787D01*
X121767596Y-39084091D01*
X121767600Y-39084091D01*
X121767604Y-39084091D01*
X121930055Y-39065787D01*
X121930056Y-39065786D01*
X121930061Y-39065786D01*
X122084375Y-39011789D01*
X122222804Y-38924808D01*
X122338408Y-38809204D01*
X122425389Y-38670775D01*
X122479386Y-38516461D01*
X122479387Y-38516455D01*
X122497691Y-38354003D01*
X122497691Y-38353996D01*
X122479387Y-38191544D01*
X122479386Y-38191542D01*
X122479386Y-38191539D01*
X122425389Y-38037225D01*
X122338408Y-37898796D01*
X122222804Y-37783192D01*
X122156912Y-37741789D01*
X122084374Y-37696210D01*
X121930055Y-37642212D01*
X121767604Y-37623909D01*
X121767596Y-37623909D01*
X121605144Y-37642212D01*
X121450824Y-37696211D01*
X121416793Y-37717594D01*
X121349556Y-37736593D01*
X121284850Y-37717592D01*
X121169976Y-37645411D01*
X121015655Y-37591412D01*
X120853204Y-37573109D01*
X120853196Y-37573109D01*
X120690744Y-37591412D01*
X120536422Y-37645411D01*
X120479283Y-37681314D01*
X120412046Y-37700314D01*
X120345211Y-37679946D01*
X120299998Y-37626677D01*
X120290092Y-37590203D01*
X120279787Y-37498744D01*
X120279786Y-37498742D01*
X120279786Y-37498739D01*
X120225789Y-37344425D01*
X120138808Y-37205996D01*
X120023204Y-37090392D01*
X119967703Y-37055518D01*
X119884774Y-37003410D01*
X119730455Y-36949412D01*
X119568004Y-36931109D01*
X119567996Y-36931109D01*
X119405544Y-36949412D01*
X119251225Y-37003410D01*
X119112795Y-37090392D01*
X118997192Y-37205995D01*
X118910210Y-37344425D01*
X118856212Y-37498744D01*
X118837909Y-37661196D01*
X118837909Y-37661203D01*
X118398091Y-37661203D01*
X118398091Y-37661196D01*
X118379787Y-37498744D01*
X118379786Y-37498742D01*
X118379786Y-37498739D01*
X118325789Y-37344425D01*
X118238808Y-37205996D01*
X118123204Y-37090392D01*
X118067703Y-37055518D01*
X117984774Y-37003410D01*
X117830455Y-36949412D01*
X117668004Y-36931109D01*
X117667996Y-36931109D01*
X117505544Y-36949412D01*
X117351225Y-37003410D01*
X117212795Y-37090392D01*
X117097192Y-37205995D01*
X117010210Y-37344425D01*
X116956212Y-37498744D01*
X116937909Y-37661196D01*
X116937909Y-37661203D01*
X104327451Y-37661203D01*
X104326750Y-37658512D01*
X104327472Y-37648423D01*
X104336691Y-37566602D01*
X104336691Y-37566596D01*
X104318387Y-37404144D01*
X104318386Y-37404142D01*
X104318386Y-37404139D01*
X104264389Y-37249825D01*
X104177408Y-37111396D01*
X104061804Y-36995792D01*
X104029965Y-36975786D01*
X103923374Y-36908810D01*
X103843334Y-36880803D01*
X105441909Y-36880803D01*
X105460212Y-37043255D01*
X105514210Y-37197574D01*
X105540246Y-37239010D01*
X105601192Y-37336004D01*
X105716796Y-37451608D01*
X105855225Y-37538589D01*
X106009539Y-37592586D01*
X106009542Y-37592586D01*
X106009544Y-37592587D01*
X106171996Y-37610891D01*
X106172000Y-37610891D01*
X106172004Y-37610891D01*
X106334455Y-37592587D01*
X106334456Y-37592586D01*
X106334461Y-37592586D01*
X106488775Y-37538589D01*
X106627204Y-37451608D01*
X106742808Y-37336004D01*
X106829789Y-37197575D01*
X106829790Y-37197571D01*
X106830160Y-37196983D01*
X106869183Y-37157960D01*
X106869771Y-37157590D01*
X106869775Y-37157589D01*
X107008204Y-37070608D01*
X107123808Y-36955004D01*
X107210789Y-36816575D01*
X107210789Y-36816573D01*
X107214494Y-36810678D01*
X107216842Y-36812153D01*
X107255239Y-36769610D01*
X107257632Y-36768302D01*
X107261468Y-36765891D01*
X107261475Y-36765889D01*
X107397870Y-36680185D01*
X107465105Y-36661186D01*
X107531941Y-36681554D01*
X107577155Y-36734821D01*
X107587061Y-36799063D01*
X107575509Y-36901595D01*
X107575509Y-36901603D01*
X107593812Y-37064055D01*
X107647810Y-37218374D01*
X107727014Y-37344425D01*
X107734792Y-37356804D01*
X107850396Y-37472408D01*
X107988825Y-37559389D01*
X108143139Y-37613386D01*
X108143142Y-37613386D01*
X108143144Y-37613387D01*
X108305596Y-37631691D01*
X108305600Y-37631691D01*
X108305604Y-37631691D01*
X108468055Y-37613387D01*
X108468056Y-37613386D01*
X108468061Y-37613386D01*
X108622375Y-37559389D01*
X108760804Y-37472408D01*
X108876408Y-37356804D01*
X108963389Y-37218375D01*
X109017386Y-37064061D01*
X109018349Y-37055518D01*
X109035691Y-36901603D01*
X109315409Y-36901603D01*
X109333712Y-37064055D01*
X109387710Y-37218374D01*
X109466914Y-37344425D01*
X109474692Y-37356804D01*
X109590296Y-37472408D01*
X109728725Y-37559389D01*
X109883039Y-37613386D01*
X109883042Y-37613386D01*
X109883044Y-37613387D01*
X110045496Y-37631691D01*
X110045500Y-37631691D01*
X110045504Y-37631691D01*
X110207955Y-37613387D01*
X110207956Y-37613386D01*
X110207961Y-37613386D01*
X110362275Y-37559389D01*
X110500704Y-37472408D01*
X110616308Y-37356804D01*
X110703289Y-37218375D01*
X110757286Y-37064061D01*
X110758249Y-37055518D01*
X110775591Y-36901603D01*
X110775591Y-36901596D01*
X110757287Y-36739144D01*
X110757286Y-36739142D01*
X110757286Y-36739139D01*
X110703289Y-36584825D01*
X110616308Y-36446396D01*
X110500704Y-36330792D01*
X110411716Y-36274877D01*
X110362274Y-36243810D01*
X110207955Y-36189812D01*
X110045504Y-36171509D01*
X110045496Y-36171509D01*
X109883044Y-36189812D01*
X109728725Y-36243810D01*
X109590295Y-36330792D01*
X109474692Y-36446395D01*
X109387710Y-36584825D01*
X109333712Y-36739144D01*
X109315409Y-36901596D01*
X109315409Y-36901603D01*
X109035691Y-36901603D01*
X109035691Y-36901596D01*
X109017387Y-36739144D01*
X109017386Y-36739142D01*
X109017386Y-36739139D01*
X108963389Y-36584825D01*
X108876408Y-36446396D01*
X108760804Y-36330792D01*
X108671816Y-36274877D01*
X108622374Y-36243810D01*
X108468055Y-36189812D01*
X108305604Y-36171509D01*
X108305596Y-36171509D01*
X108143144Y-36189812D01*
X107988824Y-36243810D01*
X107852430Y-36329513D01*
X107785193Y-36348513D01*
X107718358Y-36328145D01*
X107673144Y-36274877D01*
X107663238Y-36210635D01*
X107674791Y-36108102D01*
X107674791Y-36108096D01*
X107656487Y-35945644D01*
X107656486Y-35945642D01*
X107656486Y-35945639D01*
X107602489Y-35791325D01*
X107515508Y-35652896D01*
X107399904Y-35537292D01*
X107374305Y-35521207D01*
X107261474Y-35450310D01*
X107107155Y-35396312D01*
X106944704Y-35378009D01*
X106944696Y-35378009D01*
X106782244Y-35396312D01*
X106627925Y-35450310D01*
X106489495Y-35537292D01*
X106373892Y-35652895D01*
X106331470Y-35720408D01*
X106286911Y-35791325D01*
X106286910Y-35791327D01*
X106283207Y-35797221D01*
X106280863Y-35795748D01*
X106242429Y-35838310D01*
X106240042Y-35839613D01*
X106236226Y-35842010D01*
X106236225Y-35842011D01*
X106221270Y-35851408D01*
X106097795Y-35928992D01*
X105982192Y-36044595D01*
X105982190Y-36044598D01*
X105894837Y-36183617D01*
X105855817Y-36222637D01*
X105716798Y-36309990D01*
X105716795Y-36309992D01*
X105601192Y-36425595D01*
X105514210Y-36564025D01*
X105460212Y-36718344D01*
X105441909Y-36880796D01*
X105441909Y-36880803D01*
X103843334Y-36880803D01*
X103769055Y-36854812D01*
X103606604Y-36836509D01*
X103606596Y-36836509D01*
X103444140Y-36854813D01*
X103444139Y-36854813D01*
X103401517Y-36869727D01*
X103331738Y-36873288D01*
X103271111Y-36838558D01*
X103238885Y-36776564D01*
X103237344Y-36766568D01*
X103226187Y-36667544D01*
X103226186Y-36667542D01*
X103226186Y-36667539D01*
X103199596Y-36591551D01*
X103196034Y-36521777D01*
X103199590Y-36509665D01*
X103226186Y-36433661D01*
X103226187Y-36433655D01*
X103244491Y-36271203D01*
X103244491Y-36271196D01*
X103226187Y-36108744D01*
X103226186Y-36108742D01*
X103226186Y-36108739D01*
X103172189Y-35954425D01*
X103085208Y-35815996D01*
X102969604Y-35700392D01*
X102894015Y-35652896D01*
X102831174Y-35613410D01*
X102685997Y-35562611D01*
X102676861Y-35559414D01*
X102676860Y-35559413D01*
X102676855Y-35559412D01*
X102514404Y-35541109D01*
X102514396Y-35541109D01*
X102351944Y-35559412D01*
X102197625Y-35613410D01*
X102059195Y-35700392D01*
X101943592Y-35815995D01*
X101856612Y-35954422D01*
X101856611Y-35954423D01*
X101831539Y-36026074D01*
X101790816Y-36082850D01*
X101728382Y-36108338D01*
X101640744Y-36118212D01*
X101486425Y-36172210D01*
X101347995Y-36259192D01*
X101232392Y-36374795D01*
X101145410Y-36513225D01*
X101091412Y-36667544D01*
X101073109Y-36829996D01*
X101073109Y-36830003D01*
X99337792Y-36830003D01*
X99362189Y-36791175D01*
X99416186Y-36636861D01*
X99416187Y-36636855D01*
X99434491Y-36474403D01*
X99434491Y-36474396D01*
X99416187Y-36311944D01*
X99416186Y-36311942D01*
X99416186Y-36311939D01*
X99362189Y-36157625D01*
X99315406Y-36083171D01*
X99296406Y-36015937D01*
X99315406Y-35951228D01*
X99362189Y-35876775D01*
X99416186Y-35722461D01*
X99418453Y-35702344D01*
X99434491Y-35560003D01*
X99434491Y-35559996D01*
X99416187Y-35397544D01*
X99416186Y-35397542D01*
X99416186Y-35397539D01*
X99362189Y-35243225D01*
X99275208Y-35104796D01*
X99159604Y-34989192D01*
X99097861Y-34950396D01*
X99021174Y-34902210D01*
X98878575Y-34852313D01*
X98821798Y-34811591D01*
X98802487Y-34776225D01*
X98752589Y-34633625D01*
X98709233Y-34564625D01*
X98665608Y-34495196D01*
X98550004Y-34379592D01*
X98411574Y-34292610D01*
X98257255Y-34238612D01*
X98094804Y-34220309D01*
X98094796Y-34220309D01*
X97932344Y-34238612D01*
X97778025Y-34292610D01*
X97639595Y-34379592D01*
X97523992Y-34495195D01*
X97437010Y-34633625D01*
X97383012Y-34787944D01*
X97364709Y-34950396D01*
X97364709Y-34950403D01*
X93435555Y-34950403D01*
X93357008Y-34825396D01*
X93241404Y-34709792D01*
X93241403Y-34709792D01*
X93102974Y-34622810D01*
X92948655Y-34568812D01*
X92786204Y-34550509D01*
X92786196Y-34550509D01*
X92623744Y-34568812D01*
X92469425Y-34622810D01*
X92330995Y-34709792D01*
X92215392Y-34825395D01*
X92128410Y-34963825D01*
X92074412Y-35118144D01*
X92056109Y-35280596D01*
X92056109Y-35280603D01*
X91044068Y-35280603D01*
X91030989Y-35243225D01*
X90944008Y-35104796D01*
X90828404Y-34989192D01*
X90766661Y-34950396D01*
X90689974Y-34902210D01*
X90535655Y-34848212D01*
X90373204Y-34829909D01*
X90373196Y-34829909D01*
X90210744Y-34848212D01*
X90056425Y-34902210D01*
X89917995Y-34989192D01*
X89802392Y-35104795D01*
X89715410Y-35243225D01*
X89661412Y-35397544D01*
X89643109Y-35559996D01*
X89643109Y-35560003D01*
X88551843Y-35560003D01*
X88563291Y-35458403D01*
X88563291Y-35458396D01*
X88544987Y-35295944D01*
X88544986Y-35295942D01*
X88544986Y-35295939D01*
X88490989Y-35141625D01*
X88404008Y-35003196D01*
X88288404Y-34887592D01*
X88232258Y-34852313D01*
X88149974Y-34800610D01*
X87995655Y-34746612D01*
X87833204Y-34728309D01*
X87833196Y-34728309D01*
X87670744Y-34746612D01*
X87516423Y-34800611D01*
X87492770Y-34815473D01*
X87425533Y-34834472D01*
X87360830Y-34815473D01*
X87337176Y-34800611D01*
X87182855Y-34746612D01*
X87020404Y-34728309D01*
X87020396Y-34728309D01*
X86857944Y-34746612D01*
X86703625Y-34800610D01*
X86565195Y-34887592D01*
X86449592Y-35003195D01*
X86362610Y-35141625D01*
X86339731Y-35207011D01*
X86309296Y-35293992D01*
X86306315Y-35302510D01*
X86304543Y-35301890D01*
X86275956Y-35353607D01*
X83744084Y-37885481D01*
X83682761Y-37918966D01*
X83656403Y-37921800D01*
X80527197Y-37921800D01*
X80460158Y-37902115D01*
X80439516Y-37885481D01*
X80346043Y-37792008D01*
X80317461Y-37740289D01*
X80315685Y-37740911D01*
X80313386Y-37734341D01*
X80313386Y-37734339D01*
X80259389Y-37580025D01*
X80172408Y-37441596D01*
X80056804Y-37325992D01*
X80007966Y-37295305D01*
X79918374Y-37239010D01*
X79764055Y-37185012D01*
X79601604Y-37166709D01*
X79601596Y-37166709D01*
X79439144Y-37185012D01*
X79284825Y-37239010D01*
X79146395Y-37325992D01*
X79030792Y-37441595D01*
X78943810Y-37580025D01*
X78889812Y-37734344D01*
X78871509Y-37896796D01*
X78871509Y-37896803D01*
X78889812Y-38059255D01*
X78902861Y-38096546D01*
X78906422Y-38166325D01*
X78871693Y-38226952D01*
X78809699Y-38259179D01*
X78785819Y-38261500D01*
X77211297Y-38261500D01*
X77144258Y-38241815D01*
X77123616Y-38225181D01*
X76502928Y-37604493D01*
X76497574Y-37598388D01*
X76475886Y-37570122D01*
X76475883Y-37570120D01*
X76475882Y-37570118D01*
X76350441Y-37473864D01*
X76346923Y-37472407D01*
X76204362Y-37413356D01*
X76204360Y-37413355D01*
X76143444Y-37405336D01*
X76047601Y-37392718D01*
X76047600Y-37392718D01*
X76012270Y-37397369D01*
X76004172Y-37397900D01*
X71458029Y-37397900D01*
X71390990Y-37378215D01*
X71345235Y-37325411D01*
X71335291Y-37256253D01*
X71364316Y-37192697D01*
X71417075Y-37156858D01*
X71423814Y-37154500D01*
X71487575Y-37132189D01*
X71626004Y-37045208D01*
X71741608Y-36929604D01*
X71828589Y-36791175D01*
X71882586Y-36636861D01*
X71882587Y-36636855D01*
X71891989Y-36553416D01*
X71919056Y-36489002D01*
X71976651Y-36449447D01*
X72015209Y-36443300D01*
X77987126Y-36443300D01*
X78054165Y-36462985D01*
X78074807Y-36479619D01*
X78081596Y-36486408D01*
X78220025Y-36573389D01*
X78374339Y-36627386D01*
X78374342Y-36627386D01*
X78374344Y-36627387D01*
X78536796Y-36645691D01*
X78536800Y-36645691D01*
X78536804Y-36645691D01*
X78699255Y-36627387D01*
X78699256Y-36627386D01*
X78699261Y-36627386D01*
X78853575Y-36573389D01*
X78992004Y-36486408D01*
X79107608Y-36370804D01*
X79194589Y-36232375D01*
X79248586Y-36078061D01*
X79250853Y-36057944D01*
X79266891Y-35915603D01*
X79266891Y-35915596D01*
X79261168Y-35864803D01*
X79940309Y-35864803D01*
X79958612Y-36027255D01*
X80012610Y-36181574D01*
X80069295Y-36271787D01*
X80099592Y-36320004D01*
X80215196Y-36435608D01*
X80353625Y-36522589D01*
X80507939Y-36576586D01*
X80507942Y-36576586D01*
X80507944Y-36576587D01*
X80670396Y-36594891D01*
X80670400Y-36594891D01*
X80670404Y-36594891D01*
X80832855Y-36576587D01*
X80832856Y-36576586D01*
X80832861Y-36576586D01*
X80987175Y-36522589D01*
X81125604Y-36435608D01*
X81241208Y-36320004D01*
X81328189Y-36181575D01*
X81382186Y-36027261D01*
X81383095Y-36019196D01*
X81400491Y-35864803D01*
X81400491Y-35864796D01*
X81382187Y-35702344D01*
X81382186Y-35702342D01*
X81382186Y-35702339D01*
X81328189Y-35548025D01*
X81295815Y-35496503D01*
X83551509Y-35496503D01*
X83569812Y-35658955D01*
X83569813Y-35658960D01*
X83569814Y-35658961D01*
X83573078Y-35668289D01*
X83623810Y-35813274D01*
X83656184Y-35864796D01*
X83710792Y-35951704D01*
X83826396Y-36067308D01*
X83964825Y-36154289D01*
X84119139Y-36208286D01*
X84119142Y-36208286D01*
X84119144Y-36208287D01*
X84281596Y-36226591D01*
X84281600Y-36226591D01*
X84281604Y-36226591D01*
X84444055Y-36208287D01*
X84444056Y-36208286D01*
X84444061Y-36208286D01*
X84598375Y-36154289D01*
X84736804Y-36067308D01*
X84852408Y-35951704D01*
X84939389Y-35813275D01*
X84993386Y-35658961D01*
X84993387Y-35658955D01*
X85011691Y-35496503D01*
X85011691Y-35496496D01*
X84993387Y-35334044D01*
X84993386Y-35334042D01*
X84993386Y-35334039D01*
X84939389Y-35179725D01*
X84852408Y-35041296D01*
X84736804Y-34925692D01*
X84699433Y-34902210D01*
X84598374Y-34838710D01*
X84444055Y-34784712D01*
X84281604Y-34766409D01*
X84281596Y-34766409D01*
X84119144Y-34784712D01*
X83964825Y-34838710D01*
X83826395Y-34925692D01*
X83710792Y-35041295D01*
X83623810Y-35179725D01*
X83569812Y-35334044D01*
X83551509Y-35496496D01*
X83551509Y-35496503D01*
X81295815Y-35496503D01*
X81241208Y-35409596D01*
X81125604Y-35293992D01*
X81104291Y-35280600D01*
X80987174Y-35207010D01*
X80832855Y-35153012D01*
X80670404Y-35134709D01*
X80670396Y-35134709D01*
X80507944Y-35153012D01*
X80353625Y-35207010D01*
X80215195Y-35293992D01*
X80099592Y-35409595D01*
X80012610Y-35548025D01*
X79958612Y-35702344D01*
X79940309Y-35864796D01*
X79940309Y-35864803D01*
X79261168Y-35864803D01*
X79248587Y-35753144D01*
X79248586Y-35753142D01*
X79248586Y-35753139D01*
X79194589Y-35598825D01*
X79107608Y-35460396D01*
X78992004Y-35344792D01*
X78895092Y-35283898D01*
X78853574Y-35257810D01*
X78708397Y-35207011D01*
X78699261Y-35203814D01*
X78699260Y-35203813D01*
X78699255Y-35203812D01*
X78536804Y-35185509D01*
X78536796Y-35185509D01*
X78374342Y-35203812D01*
X78284241Y-35235341D01*
X78243286Y-35242300D01*
X61922874Y-35242300D01*
X61855835Y-35222615D01*
X61835193Y-35205981D01*
X61720004Y-35090792D01*
X61581574Y-35003810D01*
X61428944Y-34950403D01*
X61427261Y-34949814D01*
X61427260Y-34949813D01*
X61427255Y-34949812D01*
X61264804Y-34931509D01*
X61264796Y-34931509D01*
X61102344Y-34949812D01*
X60948025Y-35003810D01*
X60809595Y-35090792D01*
X60693992Y-35206395D01*
X60607010Y-35344825D01*
X60553012Y-35499144D01*
X60534709Y-35661596D01*
X60534709Y-35661603D01*
X60552062Y-35815617D01*
X60540008Y-35884438D01*
X60492658Y-35935818D01*
X60428842Y-35953500D01*
X58392358Y-35953500D01*
X58325319Y-35933815D01*
X58279564Y-35881011D01*
X58269138Y-35815617D01*
X58286491Y-35661603D01*
X58286491Y-35661596D01*
X58268187Y-35499142D01*
X58236853Y-35409595D01*
X58214189Y-35344825D01*
X58175904Y-35283896D01*
X58156899Y-35217926D01*
X58156899Y-33834537D01*
X73183909Y-33834537D01*
X73202212Y-33996989D01*
X73256210Y-34151308D01*
X73343191Y-34289737D01*
X73343192Y-34289738D01*
X73458796Y-34405342D01*
X73597225Y-34492323D01*
X73751539Y-34546320D01*
X73751542Y-34546320D01*
X73751544Y-34546321D01*
X73913996Y-34564625D01*
X73914000Y-34564625D01*
X73914004Y-34564625D01*
X74076455Y-34546321D01*
X74076456Y-34546320D01*
X74076461Y-34546320D01*
X74230775Y-34492323D01*
X74369204Y-34405342D01*
X74484808Y-34289738D01*
X74571789Y-34151309D01*
X74625786Y-33996995D01*
X74625787Y-33996989D01*
X74644091Y-33834537D01*
X74644091Y-33834530D01*
X74625787Y-33672078D01*
X74625786Y-33672076D01*
X74625786Y-33672073D01*
X74571789Y-33517759D01*
X74484808Y-33379330D01*
X74369204Y-33263726D01*
X74369204Y-33263725D01*
X74304713Y-33223203D01*
X99955509Y-33223203D01*
X99973812Y-33385655D01*
X100027810Y-33539974D01*
X100077789Y-33619514D01*
X100114792Y-33678404D01*
X100230396Y-33794008D01*
X100368825Y-33880989D01*
X100523139Y-33934986D01*
X100523142Y-33934986D01*
X100523144Y-33934987D01*
X100685596Y-33953291D01*
X100685600Y-33953291D01*
X100685604Y-33953291D01*
X100848057Y-33934987D01*
X100848059Y-33934986D01*
X100848061Y-33934986D01*
X101000246Y-33881733D01*
X101070024Y-33878172D01*
X101082149Y-33881732D01*
X101234339Y-33934986D01*
X101234342Y-33934987D01*
X101396796Y-33953291D01*
X101396800Y-33953291D01*
X101396804Y-33953291D01*
X101559255Y-33934987D01*
X101559256Y-33934986D01*
X101559261Y-33934986D01*
X101713575Y-33880989D01*
X101852004Y-33794008D01*
X101967608Y-33678404D01*
X101967611Y-33678398D01*
X101971285Y-33674725D01*
X102032608Y-33641240D01*
X102102300Y-33646224D01*
X102158234Y-33688095D01*
X102163960Y-33696433D01*
X102248390Y-33830802D01*
X102248391Y-33830804D01*
X102248392Y-33830804D01*
X102363996Y-33946408D01*
X102502425Y-34033389D01*
X102656739Y-34087386D01*
X102656742Y-34087386D01*
X102656744Y-34087387D01*
X102819196Y-34105691D01*
X102819200Y-34105691D01*
X102819204Y-34105691D01*
X102981655Y-34087387D01*
X102981656Y-34087386D01*
X102981661Y-34087386D01*
X103135975Y-34033389D01*
X103274404Y-33946408D01*
X103390008Y-33830804D01*
X103476989Y-33692375D01*
X103530986Y-33538061D01*
X103531609Y-33532532D01*
X103549291Y-33375603D01*
X103549291Y-33375596D01*
X103530987Y-33213142D01*
X103520368Y-33182796D01*
X103504396Y-33137151D01*
X103500836Y-33067373D01*
X103504392Y-33055259D01*
X103516729Y-33020003D01*
X105194609Y-33020003D01*
X105212912Y-33182455D01*
X105266910Y-33336774D01*
X105323595Y-33426987D01*
X105353892Y-33475204D01*
X105469496Y-33590808D01*
X105607925Y-33677789D01*
X105762239Y-33731786D01*
X105762242Y-33731786D01*
X105762244Y-33731787D01*
X105924696Y-33750091D01*
X105924700Y-33750091D01*
X105924704Y-33750091D01*
X106087155Y-33731787D01*
X106087156Y-33731786D01*
X106087161Y-33731786D01*
X106241475Y-33677789D01*
X106379904Y-33590808D01*
X106495508Y-33475204D01*
X106582489Y-33336775D01*
X106636366Y-33182803D01*
X110203509Y-33182803D01*
X110221812Y-33345255D01*
X110275810Y-33499574D01*
X110299993Y-33538061D01*
X110362792Y-33638004D01*
X110478396Y-33753608D01*
X110616825Y-33840589D01*
X110771139Y-33894586D01*
X110771142Y-33894586D01*
X110771144Y-33894587D01*
X110933596Y-33912891D01*
X110933600Y-33912891D01*
X110933604Y-33912891D01*
X111096055Y-33894587D01*
X111096056Y-33894586D01*
X111096061Y-33894586D01*
X111250375Y-33840589D01*
X111388804Y-33753608D01*
X111504408Y-33638004D01*
X111591389Y-33499575D01*
X111591390Y-33499569D01*
X111592937Y-33497109D01*
X111645271Y-33450818D01*
X111711813Y-33439861D01*
X111760000Y-33445291D01*
X111760000Y-33445290D01*
X111760001Y-33445291D01*
X111760004Y-33445291D01*
X111922457Y-33426987D01*
X111922459Y-33426986D01*
X111922461Y-33426986D01*
X112076775Y-33372989D01*
X112076781Y-33372984D01*
X112083048Y-33369968D01*
X112083834Y-33371601D01*
X112142243Y-33355085D01*
X112198205Y-33371517D01*
X112198952Y-33369968D01*
X112205221Y-33372986D01*
X112205225Y-33372989D01*
X112330798Y-33416929D01*
X112359542Y-33426987D01*
X112521996Y-33445291D01*
X112522000Y-33445291D01*
X112522004Y-33445291D01*
X112684457Y-33426987D01*
X112684459Y-33426986D01*
X112684461Y-33426986D01*
X112836646Y-33373733D01*
X112906424Y-33370172D01*
X112918549Y-33373732D01*
X113041998Y-33416929D01*
X113070742Y-33426987D01*
X113233196Y-33445291D01*
X113233200Y-33445291D01*
X113233204Y-33445291D01*
X113395655Y-33426987D01*
X113395656Y-33426986D01*
X113395661Y-33426986D01*
X113549975Y-33372989D01*
X113688404Y-33286008D01*
X113804008Y-33170404D01*
X113890989Y-33031975D01*
X113944986Y-32877661D01*
X113947253Y-32857544D01*
X113963291Y-32715203D01*
X113963291Y-32715196D01*
X113944987Y-32552744D01*
X113944986Y-32552742D01*
X113944986Y-32552739D01*
X113890989Y-32398425D01*
X113804008Y-32259996D01*
X113688404Y-32144392D01*
X113627686Y-32106240D01*
X113549974Y-32057410D01*
X113399430Y-32004733D01*
X113395661Y-32003414D01*
X113395660Y-32003413D01*
X113395655Y-32003412D01*
X113233204Y-31985109D01*
X113233196Y-31985109D01*
X113070744Y-32003412D01*
X112918554Y-32056666D01*
X112848775Y-32060227D01*
X112836646Y-32056666D01*
X112803246Y-32044978D01*
X112684461Y-32003414D01*
X112684460Y-32003413D01*
X112684455Y-32003412D01*
X112522004Y-31985109D01*
X112521996Y-31985109D01*
X112359544Y-32003412D01*
X112205228Y-32057409D01*
X112198957Y-32060430D01*
X112198173Y-32058802D01*
X112139722Y-32075312D01*
X112083785Y-32058888D01*
X112083043Y-32060430D01*
X112076771Y-32057409D01*
X111926230Y-32004733D01*
X111922461Y-32003414D01*
X111922460Y-32003413D01*
X111922455Y-32003412D01*
X111760004Y-31985109D01*
X111759996Y-31985109D01*
X111597544Y-32003412D01*
X111443225Y-32057410D01*
X111304795Y-32144392D01*
X111189192Y-32259995D01*
X111189190Y-32259998D01*
X111100660Y-32400890D01*
X111048325Y-32447181D01*
X110981785Y-32458137D01*
X110933605Y-32452709D01*
X110933596Y-32452709D01*
X110771144Y-32471012D01*
X110616825Y-32525010D01*
X110478395Y-32611992D01*
X110362792Y-32727595D01*
X110275810Y-32866025D01*
X110221812Y-33020344D01*
X110203509Y-33182796D01*
X110203509Y-33182803D01*
X106636366Y-33182803D01*
X106636486Y-33182461D01*
X106637130Y-33176744D01*
X106654791Y-33020003D01*
X106654791Y-33019996D01*
X106636487Y-32857544D01*
X106636486Y-32857542D01*
X106636486Y-32857539D01*
X106582489Y-32703225D01*
X106495508Y-32564796D01*
X106379904Y-32449192D01*
X106334179Y-32420461D01*
X106241474Y-32362210D01*
X106087155Y-32308212D01*
X105924704Y-32289909D01*
X105924696Y-32289909D01*
X105762244Y-32308212D01*
X105607925Y-32362210D01*
X105469495Y-32449192D01*
X105353892Y-32564795D01*
X105266910Y-32703225D01*
X105212912Y-32857544D01*
X105194609Y-33019996D01*
X105194609Y-33020003D01*
X103516729Y-33020003D01*
X103530986Y-32979261D01*
X103531858Y-32971521D01*
X103549291Y-32816803D01*
X103549291Y-32816796D01*
X103530987Y-32654342D01*
X103516168Y-32611992D01*
X103504396Y-32578352D01*
X103500834Y-32508576D01*
X103504388Y-32496470D01*
X103530986Y-32420461D01*
X103534315Y-32390917D01*
X103549291Y-32258003D01*
X103549291Y-32257996D01*
X103530987Y-32095544D01*
X103530986Y-32095542D01*
X103530986Y-32095539D01*
X103476989Y-31941225D01*
X103390008Y-31802796D01*
X103274404Y-31687192D01*
X103212664Y-31648398D01*
X103135974Y-31600210D01*
X102981655Y-31546212D01*
X102819204Y-31527909D01*
X102819196Y-31527909D01*
X102656744Y-31546212D01*
X102502425Y-31600210D01*
X102363997Y-31687191D01*
X102300662Y-31750526D01*
X102239338Y-31784010D01*
X102169647Y-31779025D01*
X102113713Y-31737154D01*
X102095940Y-31703801D01*
X102054589Y-31585625D01*
X101967608Y-31447196D01*
X101852004Y-31331592D01*
X101757618Y-31272285D01*
X101713574Y-31244610D01*
X101560944Y-31191203D01*
X101559261Y-31190614D01*
X101559260Y-31190613D01*
X101559255Y-31190612D01*
X101396804Y-31172309D01*
X101396796Y-31172309D01*
X101234344Y-31190612D01*
X101080025Y-31244610D01*
X100941595Y-31331592D01*
X100825992Y-31447195D01*
X100739011Y-31585624D01*
X100695435Y-31710158D01*
X100654713Y-31766934D01*
X100592277Y-31792423D01*
X100523144Y-31800212D01*
X100368825Y-31854210D01*
X100230395Y-31941192D01*
X100114792Y-32056795D01*
X100027810Y-32195225D01*
X99973812Y-32349544D01*
X99955509Y-32511996D01*
X99955509Y-32512003D01*
X99973812Y-32674453D01*
X99973813Y-32674457D01*
X99973814Y-32674461D01*
X100027066Y-32826646D01*
X100030627Y-32896423D01*
X100027066Y-32908553D01*
X99973812Y-33060744D01*
X99955509Y-33223196D01*
X99955509Y-33223203D01*
X74304713Y-33223203D01*
X74230774Y-33176744D01*
X74096939Y-33129913D01*
X74076461Y-33122748D01*
X74076460Y-33122747D01*
X74076455Y-33122746D01*
X73914004Y-33104443D01*
X73913996Y-33104443D01*
X73751544Y-33122746D01*
X73597225Y-33176744D01*
X73458795Y-33263726D01*
X73343192Y-33379329D01*
X73256210Y-33517759D01*
X73202212Y-33672078D01*
X73183909Y-33834530D01*
X73183909Y-33834537D01*
X58156899Y-33834537D01*
X58156899Y-33590807D01*
X58156899Y-32961728D01*
X59249109Y-32961728D01*
X59267412Y-33124180D01*
X59321410Y-33278499D01*
X59381251Y-33373734D01*
X59408392Y-33416929D01*
X59523996Y-33532533D01*
X59662425Y-33619514D01*
X59816739Y-33673511D01*
X59816742Y-33673511D01*
X59816744Y-33673512D01*
X59979196Y-33691816D01*
X59979200Y-33691816D01*
X59979204Y-33691816D01*
X60141655Y-33673512D01*
X60141656Y-33673511D01*
X60141661Y-33673511D01*
X60295975Y-33619514D01*
X60434404Y-33532533D01*
X60550008Y-33416929D01*
X60636989Y-33278500D01*
X60690986Y-33124186D01*
X60691148Y-33122748D01*
X60709291Y-32961728D01*
X63649109Y-32961728D01*
X63667412Y-33124180D01*
X63721410Y-33278499D01*
X63781251Y-33373734D01*
X63808392Y-33416929D01*
X63923996Y-33532533D01*
X64062425Y-33619514D01*
X64216739Y-33673511D01*
X64216742Y-33673511D01*
X64216744Y-33673512D01*
X64379196Y-33691816D01*
X64379200Y-33691816D01*
X64379204Y-33691816D01*
X64541655Y-33673512D01*
X64541656Y-33673511D01*
X64541661Y-33673511D01*
X64695975Y-33619514D01*
X64834404Y-33532533D01*
X64950008Y-33416929D01*
X65036989Y-33278500D01*
X65090986Y-33124186D01*
X65091148Y-33122748D01*
X65109291Y-32961728D01*
X65109291Y-32961721D01*
X65090987Y-32799269D01*
X65090986Y-32799267D01*
X65090986Y-32799264D01*
X65036989Y-32644950D01*
X64950008Y-32506521D01*
X64834404Y-32390917D01*
X64773313Y-32352531D01*
X64695974Y-32303935D01*
X64564707Y-32258003D01*
X67748309Y-32258003D01*
X67766612Y-32420455D01*
X67820610Y-32574774D01*
X67870606Y-32654342D01*
X67907592Y-32713204D01*
X68023196Y-32828808D01*
X68161625Y-32915789D01*
X68315939Y-32969786D01*
X68315942Y-32969786D01*
X68315944Y-32969787D01*
X68478396Y-32988091D01*
X68478400Y-32988091D01*
X68478404Y-32988091D01*
X68640855Y-32969787D01*
X68640856Y-32969786D01*
X68640861Y-32969786D01*
X68795175Y-32915789D01*
X68933604Y-32828808D01*
X69049208Y-32713204D01*
X69136189Y-32574775D01*
X69190186Y-32420461D01*
X69193515Y-32390917D01*
X69208296Y-32259737D01*
X69757209Y-32259737D01*
X69775512Y-32422189D01*
X69829510Y-32576508D01*
X69909132Y-32703225D01*
X69916492Y-32714938D01*
X70032096Y-32830542D01*
X70170525Y-32917523D01*
X70324839Y-32971520D01*
X70324842Y-32971520D01*
X70324844Y-32971521D01*
X70487296Y-32989825D01*
X70487300Y-32989825D01*
X70487304Y-32989825D01*
X70649755Y-32971521D01*
X70649756Y-32971520D01*
X70649761Y-32971520D01*
X70804075Y-32917523D01*
X70942504Y-32830542D01*
X71058108Y-32714938D01*
X71145089Y-32576509D01*
X71199086Y-32422195D01*
X71199087Y-32422189D01*
X71217391Y-32259737D01*
X71217391Y-32259730D01*
X71199087Y-32097278D01*
X71199086Y-32097276D01*
X71199086Y-32097273D01*
X71145089Y-31942959D01*
X71058108Y-31804530D01*
X70942504Y-31688926D01*
X70906347Y-31666207D01*
X70804074Y-31601944D01*
X70649755Y-31547946D01*
X70487304Y-31529643D01*
X70487296Y-31529643D01*
X70324844Y-31547946D01*
X70170525Y-31601944D01*
X70032095Y-31688926D01*
X69916492Y-31804529D01*
X69829510Y-31942959D01*
X69775512Y-32097278D01*
X69757209Y-32259730D01*
X69757209Y-32259737D01*
X69208296Y-32259737D01*
X69208491Y-32258003D01*
X69208491Y-32257996D01*
X69190187Y-32095544D01*
X69190186Y-32095542D01*
X69190186Y-32095539D01*
X69136189Y-31941225D01*
X69049208Y-31802796D01*
X68933604Y-31687192D01*
X68871864Y-31648398D01*
X68795174Y-31600210D01*
X68640855Y-31546212D01*
X68478404Y-31527909D01*
X68478396Y-31527909D01*
X68315944Y-31546212D01*
X68161625Y-31600210D01*
X68023195Y-31687192D01*
X67907592Y-31802795D01*
X67820610Y-31941225D01*
X67766612Y-32095544D01*
X67748309Y-32257996D01*
X67748309Y-32258003D01*
X64564707Y-32258003D01*
X64541655Y-32249937D01*
X64379204Y-32231634D01*
X64379196Y-32231634D01*
X64216744Y-32249937D01*
X64062425Y-32303935D01*
X63923995Y-32390917D01*
X63808392Y-32506520D01*
X63721410Y-32644950D01*
X63667412Y-32799269D01*
X63649109Y-32961721D01*
X63649109Y-32961728D01*
X60709291Y-32961728D01*
X60709291Y-32961721D01*
X60690987Y-32799269D01*
X60690986Y-32799267D01*
X60690986Y-32799264D01*
X60636989Y-32644950D01*
X60550008Y-32506521D01*
X60434404Y-32390917D01*
X60373313Y-32352531D01*
X60295974Y-32303935D01*
X60141655Y-32249937D01*
X59979204Y-32231634D01*
X59979196Y-32231634D01*
X59816744Y-32249937D01*
X59662425Y-32303935D01*
X59523995Y-32390917D01*
X59408392Y-32506520D01*
X59321410Y-32644950D01*
X59267412Y-32799269D01*
X59249109Y-32961721D01*
X59249109Y-32961728D01*
X58156899Y-32961728D01*
X58156899Y-31948493D01*
X58176584Y-31881458D01*
X58193213Y-31860821D01*
X58862831Y-31191203D01*
X77806709Y-31191203D01*
X77825012Y-31353655D01*
X77879010Y-31507974D01*
X77912173Y-31560752D01*
X77965992Y-31646404D01*
X78081596Y-31762008D01*
X78220025Y-31848989D01*
X78374339Y-31902986D01*
X78374342Y-31902986D01*
X78374344Y-31902987D01*
X78536796Y-31921291D01*
X78536800Y-31921291D01*
X78536804Y-31921291D01*
X78699255Y-31902987D01*
X78699256Y-31902986D01*
X78699261Y-31902986D01*
X78853575Y-31848989D01*
X78992004Y-31762008D01*
X79107608Y-31646404D01*
X79194589Y-31507975D01*
X79248586Y-31353661D01*
X79249499Y-31345557D01*
X79266891Y-31191203D01*
X79266891Y-31191196D01*
X79248587Y-31028744D01*
X79248586Y-31028742D01*
X79248586Y-31028739D01*
X79194589Y-30874425D01*
X79107608Y-30735996D01*
X79043116Y-30671504D01*
X117637232Y-30671504D01*
X117644352Y-30766514D01*
X117644480Y-30768772D01*
X117648248Y-30867092D01*
X117648249Y-30867100D01*
X117653490Y-30894123D01*
X117654451Y-30901295D01*
X117656278Y-30925655D01*
X117656279Y-30925664D01*
X117678195Y-31021686D01*
X117678615Y-31023676D01*
X117697961Y-31123425D01*
X117706177Y-31146303D01*
X117708274Y-31153468D01*
X117712991Y-31174136D01*
X117750142Y-31268793D01*
X117750778Y-31270487D01*
X117786220Y-31369167D01*
X117796295Y-31387696D01*
X117799543Y-31394666D01*
X117806104Y-31411382D01*
X117806105Y-31411384D01*
X117806107Y-31411388D01*
X117828023Y-31449348D01*
X117858573Y-31502263D01*
X117859346Y-31503643D01*
X117910958Y-31598556D01*
X117921783Y-31612758D01*
X117926167Y-31619343D01*
X117932866Y-31630944D01*
X117933541Y-31632112D01*
X117958825Y-31663817D01*
X118000974Y-31716671D01*
X118001809Y-31717742D01*
X118067964Y-31804530D01*
X118069250Y-31806216D01*
X118079793Y-31816362D01*
X118085274Y-31822379D01*
X118092450Y-31831377D01*
X118092455Y-31831381D01*
X118092458Y-31831385D01*
X118174468Y-31907479D01*
X118221829Y-31953058D01*
X118257386Y-31987278D01*
X118266713Y-31993838D01*
X118273214Y-31999101D01*
X118279281Y-32004731D01*
X118279284Y-32004733D01*
X118374310Y-32069520D01*
X118470953Y-32137497D01*
X118470956Y-32137499D01*
X118478278Y-32141124D01*
X118485695Y-32145461D01*
X118489866Y-32148305D01*
X118596283Y-32199553D01*
X118704953Y-32253359D01*
X118705446Y-32253515D01*
X118715108Y-32257348D01*
X118715170Y-32257191D01*
X118719491Y-32258886D01*
X118719496Y-32258889D01*
X118835330Y-32294619D01*
X118953895Y-32332141D01*
X118954605Y-32332250D01*
X118954646Y-32332257D01*
X118958981Y-32333086D01*
X118963035Y-32334010D01*
X118963042Y-32334013D01*
X119086001Y-32352546D01*
X119211945Y-32372000D01*
X119211948Y-32372000D01*
X119469930Y-32372000D01*
X119469935Y-32372000D01*
X119532357Y-32362590D01*
X119536802Y-32362085D01*
X119602844Y-32357016D01*
X119661053Y-32343393D01*
X119665933Y-32342456D01*
X119721958Y-32334013D01*
X119777271Y-32316950D01*
X119785336Y-32314463D01*
X119789454Y-32313346D01*
X119857086Y-32297521D01*
X119909566Y-32276369D01*
X119914416Y-32274647D01*
X119965504Y-32258889D01*
X120028154Y-32228717D01*
X120031849Y-32227084D01*
X120099266Y-32199914D01*
X120145117Y-32172653D01*
X120149878Y-32170097D01*
X120195134Y-32148305D01*
X120195139Y-32148301D01*
X120195142Y-32148300D01*
X120255236Y-32107327D01*
X120258481Y-32105259D01*
X120297931Y-32081806D01*
X120323708Y-32066482D01*
X120362372Y-32034595D01*
X120366881Y-32031209D01*
X120405717Y-32004732D01*
X120461427Y-31953040D01*
X120464120Y-31950683D01*
X120525152Y-31900352D01*
X120556348Y-31865344D01*
X120560458Y-31861153D01*
X120573568Y-31848989D01*
X120592550Y-31831377D01*
X120641965Y-31769410D01*
X120644093Y-31766888D01*
X120698875Y-31705420D01*
X120722624Y-31668745D01*
X120726154Y-31663842D01*
X120751459Y-31632112D01*
X120792678Y-31560715D01*
X120794294Y-31558073D01*
X120840806Y-31486253D01*
X120857357Y-31449329D01*
X120860226Y-31443717D01*
X120878893Y-31411388D01*
X120910179Y-31331668D01*
X120911304Y-31328990D01*
X120947618Y-31247989D01*
X120957480Y-31212099D01*
X120959547Y-31205884D01*
X120972008Y-31174137D01*
X120991786Y-31087481D01*
X120992434Y-31084903D01*
X121016807Y-30996213D01*
X121020705Y-30962441D01*
X121021850Y-30955762D01*
X121028722Y-30925657D01*
X121035603Y-30833819D01*
X121035830Y-30831419D01*
X121046752Y-30736825D01*
X121045573Y-30706075D01*
X121045700Y-30699083D01*
X121047768Y-30671500D01*
X121040642Y-30576428D01*
X121040520Y-30574268D01*
X121036751Y-30475907D01*
X121031508Y-30448872D01*
X121030546Y-30441692D01*
X121028722Y-30417349D01*
X121028722Y-30417343D01*
X121006801Y-30321302D01*
X121006380Y-30319309D01*
X120987038Y-30219573D01*
X120978822Y-30196698D01*
X120976726Y-30189537D01*
X120972008Y-30168863D01*
X120934823Y-30074120D01*
X120934231Y-30072544D01*
X120898779Y-29973832D01*
X120888705Y-29955307D01*
X120885459Y-29948343D01*
X120878893Y-29931612D01*
X120857993Y-29895411D01*
X120826441Y-29840761D01*
X120825667Y-29839380D01*
X120774041Y-29744443D01*
X120766345Y-29734347D01*
X120763212Y-29730236D01*
X120758832Y-29723658D01*
X120751459Y-29710888D01*
X120684024Y-29626327D01*
X120683189Y-29625256D01*
X120644781Y-29574869D01*
X120615750Y-29536784D01*
X120615749Y-29536783D01*
X120605211Y-29526641D01*
X120599722Y-29520616D01*
X120592551Y-29511624D01*
X120592548Y-29511621D01*
X120510530Y-29435519D01*
X120427616Y-29355723D01*
X120418285Y-29349160D01*
X120411788Y-29343901D01*
X120405717Y-29338268D01*
X120405714Y-29338266D01*
X120405712Y-29338264D01*
X120310673Y-29273468D01*
X120248025Y-29229402D01*
X120214042Y-29205499D01*
X120206721Y-29201874D01*
X120199308Y-29197540D01*
X120195136Y-29194696D01*
X120144557Y-29170338D01*
X120088716Y-29143446D01*
X120071150Y-29134748D01*
X119980046Y-29089640D01*
X119980041Y-29089638D01*
X119979530Y-29089477D01*
X119969879Y-29085649D01*
X119969819Y-29085804D01*
X119965510Y-29084113D01*
X119849625Y-29048366D01*
X119835993Y-29044052D01*
X119731105Y-29010859D01*
X119731101Y-29010858D01*
X119731100Y-29010858D01*
X119731087Y-29010855D01*
X119730342Y-29010740D01*
X119726039Y-29009918D01*
X119721965Y-29008988D01*
X119599013Y-28990454D01*
X119473055Y-28971000D01*
X119469935Y-28971000D01*
X119215065Y-28971000D01*
X119215057Y-28971000D01*
X119152668Y-28980404D01*
X119148173Y-28980915D01*
X119082161Y-28985983D01*
X119082152Y-28985985D01*
X119023960Y-28999601D01*
X119019075Y-29000540D01*
X118963042Y-29008986D01*
X118899675Y-29028532D01*
X118895528Y-29029655D01*
X118844670Y-29041557D01*
X118827914Y-29045479D01*
X118827911Y-29045479D01*
X118827907Y-29045481D01*
X118775455Y-29066620D01*
X118770557Y-29068359D01*
X118763778Y-29070450D01*
X118719505Y-29084107D01*
X118719495Y-29084111D01*
X118656852Y-29114276D01*
X118653131Y-29115920D01*
X118585731Y-29143087D01*
X118539893Y-29170338D01*
X118535111Y-29172904D01*
X118489869Y-29194692D01*
X118429756Y-29235677D01*
X118426513Y-29237743D01*
X118361297Y-29276514D01*
X118361286Y-29276521D01*
X118322629Y-29308401D01*
X118318109Y-29311794D01*
X118279282Y-29338268D01*
X118279276Y-29338273D01*
X118223578Y-29389952D01*
X118220867Y-29392324D01*
X118192211Y-29415957D01*
X118159852Y-29442644D01*
X118159844Y-29442651D01*
X118128655Y-29477648D01*
X118124538Y-29481849D01*
X118092452Y-29511620D01*
X118092448Y-29511624D01*
X118043071Y-29573541D01*
X118040884Y-29576134D01*
X117986126Y-29637578D01*
X117986124Y-29637580D01*
X117962392Y-29674224D01*
X117958826Y-29679179D01*
X117933543Y-29710884D01*
X117892337Y-29782254D01*
X117890685Y-29784954D01*
X117844195Y-29856744D01*
X117827651Y-29893646D01*
X117824770Y-29899284D01*
X117806106Y-29931613D01*
X117774826Y-30011313D01*
X117773687Y-30014023D01*
X117737383Y-30095007D01*
X117727519Y-30130895D01*
X117725450Y-30137116D01*
X117712990Y-30168867D01*
X117693217Y-30255497D01*
X117692555Y-30258129D01*
X117668193Y-30346783D01*
X117668193Y-30346788D01*
X117664294Y-30380549D01*
X117663149Y-30387234D01*
X117656278Y-30417341D01*
X117656276Y-30417349D01*
X117649397Y-30509152D01*
X117649162Y-30511629D01*
X117638248Y-30606172D01*
X117638248Y-30606173D01*
X117639425Y-30636910D01*
X117639297Y-30643919D01*
X117637232Y-30671501D01*
X117637232Y-30671504D01*
X79043116Y-30671504D01*
X78992004Y-30620392D01*
X78885063Y-30553196D01*
X78853574Y-30533410D01*
X78699255Y-30479412D01*
X78536804Y-30461109D01*
X78536796Y-30461109D01*
X78374344Y-30479412D01*
X78220025Y-30533410D01*
X78081595Y-30620392D01*
X77965992Y-30735995D01*
X77879010Y-30874425D01*
X77825012Y-31028744D01*
X77806709Y-31191196D01*
X77806709Y-31191203D01*
X58862831Y-31191203D01*
X61090616Y-28963419D01*
X61151939Y-28929934D01*
X61178297Y-28927100D01*
X84277054Y-28927100D01*
X84344093Y-28946785D01*
X84364735Y-28963419D01*
X85432920Y-30031604D01*
X85438271Y-30037705D01*
X85459969Y-30065982D01*
X85551447Y-30136175D01*
X85585410Y-30162236D01*
X85585412Y-30162236D01*
X85585414Y-30162238D01*
X85651299Y-30189528D01*
X85731489Y-30222744D01*
X85809869Y-30233063D01*
X85888250Y-30243382D01*
X85888251Y-30243382D01*
X85923580Y-30238730D01*
X85931679Y-30238200D01*
X90257672Y-30238200D01*
X90265770Y-30238730D01*
X90301100Y-30243382D01*
X90301101Y-30243382D01*
X90353944Y-30236425D01*
X90457862Y-30222744D01*
X90603941Y-30162236D01*
X90637904Y-30136175D01*
X90729382Y-30065982D01*
X90751083Y-30037699D01*
X90756419Y-30031614D01*
X91252416Y-29535617D01*
X91313739Y-29502133D01*
X91340097Y-29499299D01*
X91987871Y-29499299D01*
X91987872Y-29499299D01*
X92047483Y-29492891D01*
X92182331Y-29442596D01*
X92297546Y-29356346D01*
X92383796Y-29241131D01*
X92434091Y-29106283D01*
X92440500Y-29046673D01*
X92440499Y-27950928D01*
X92434091Y-27891317D01*
X92383796Y-27756469D01*
X92383795Y-27756468D01*
X92383793Y-27756464D01*
X92297547Y-27641255D01*
X92297544Y-27641252D01*
X92182335Y-27555006D01*
X92182328Y-27555002D01*
X92047482Y-27504708D01*
X92047483Y-27504708D01*
X91987883Y-27498301D01*
X91987881Y-27498300D01*
X91987873Y-27498300D01*
X91987864Y-27498300D01*
X90892129Y-27498300D01*
X90892123Y-27498301D01*
X90832516Y-27504708D01*
X90697671Y-27555002D01*
X90697666Y-27555005D01*
X90689614Y-27561033D01*
X90624149Y-27585448D01*
X90560530Y-27571904D01*
X90560359Y-27572318D01*
X90558123Y-27571392D01*
X90556850Y-27571121D01*
X90554729Y-27569987D01*
X90554728Y-27569986D01*
X90554727Y-27569986D01*
X90366132Y-27512776D01*
X90366129Y-27512775D01*
X90170000Y-27493459D01*
X89973870Y-27512775D01*
X89785266Y-27569988D01*
X89611467Y-27662886D01*
X89606399Y-27666273D01*
X89605305Y-27664636D01*
X89549337Y-27688396D01*
X89480471Y-27676595D01*
X89463843Y-27665909D01*
X89463601Y-27666273D01*
X89458532Y-27662886D01*
X89284733Y-27569988D01*
X89284727Y-27569986D01*
X89096132Y-27512776D01*
X89096129Y-27512775D01*
X88900000Y-27493459D01*
X88899997Y-27493459D01*
X88848437Y-27498536D01*
X88779791Y-27485516D01*
X88748605Y-27462814D01*
X88575803Y-27290012D01*
X88565980Y-27277750D01*
X88565759Y-27277934D01*
X88560786Y-27271922D01*
X88511066Y-27225232D01*
X88509666Y-27223875D01*
X88489476Y-27203684D01*
X88483986Y-27199425D01*
X88479561Y-27195647D01*
X88445582Y-27163738D01*
X88445580Y-27163736D01*
X88445577Y-27163735D01*
X88428029Y-27154088D01*
X88411763Y-27143404D01*
X88395933Y-27131125D01*
X88353168Y-27112618D01*
X88347922Y-27110048D01*
X88307093Y-27087603D01*
X88307092Y-27087602D01*
X88287693Y-27082622D01*
X88269281Y-27076318D01*
X88250898Y-27068362D01*
X88250892Y-27068360D01*
X88204874Y-27061072D01*
X88199152Y-27059887D01*
X88154021Y-27048300D01*
X88154019Y-27048300D01*
X88133984Y-27048300D01*
X88114586Y-27046773D01*
X88107162Y-27045597D01*
X88094805Y-27043640D01*
X88094804Y-27043640D01*
X88048416Y-27048025D01*
X88042578Y-27048300D01*
X52904049Y-27048300D01*
X52888432Y-27046576D01*
X52888405Y-27046862D01*
X52880643Y-27046127D01*
X52812483Y-27048269D01*
X52810536Y-27048300D01*
X52781961Y-27048300D01*
X52781240Y-27048390D01*
X52775068Y-27049169D01*
X52769256Y-27049626D01*
X52722684Y-27051090D01*
X52722683Y-27051090D01*
X52703440Y-27056681D01*
X52684390Y-27060625D01*
X52664522Y-27063134D01*
X52664520Y-27063135D01*
X52621195Y-27080288D01*
X52615668Y-27082180D01*
X52570921Y-27095181D01*
X52570920Y-27095182D01*
X52553678Y-27105379D01*
X52536210Y-27113937D01*
X52517580Y-27121313D01*
X52517578Y-27121314D01*
X52479887Y-27148698D01*
X52475005Y-27151905D01*
X52434890Y-27175630D01*
X52420719Y-27189800D01*
X52405934Y-27202428D01*
X52389723Y-27214207D01*
X52360020Y-27250110D01*
X52356088Y-27254431D01*
X49654208Y-29956310D01*
X49641951Y-29966131D01*
X49642134Y-29966352D01*
X49636122Y-29971325D01*
X49589432Y-30021043D01*
X49588079Y-30022440D01*
X49567889Y-30042630D01*
X49567877Y-30042643D01*
X49563621Y-30048128D01*
X49559837Y-30052558D01*
X49527937Y-30086529D01*
X49527936Y-30086531D01*
X49518284Y-30104087D01*
X49507610Y-30120337D01*
X49495329Y-30136172D01*
X49495327Y-30136175D01*
X49494884Y-30137198D01*
X49493638Y-30139031D01*
X49491356Y-30142890D01*
X49491113Y-30142746D01*
X49471447Y-30171684D01*
X49471533Y-30171753D01*
X49470636Y-30172877D01*
X49468784Y-30175603D01*
X49467195Y-30177191D01*
X49467191Y-30177196D01*
X49380210Y-30315625D01*
X49326212Y-30469944D01*
X49307909Y-30632396D01*
X49307909Y-30632403D01*
X39370000Y-30632403D01*
X39370000Y-26794000D01*
X39389685Y-26726961D01*
X39442489Y-26681206D01*
X39494000Y-26670000D01*
X128146000Y-26670000D01*
X128213039Y-26689685D01*
G37*
%TD.AperFunction*%
%TD*%
M02*
